G04 #@! TF.GenerationSoftware,KiCad,Pcbnew,8.0.9-8.0.9-0~ubuntu24.04.1*
G04 #@! TF.CreationDate,2026-01-04T09:50:24+00:00*
G04 #@! TF.ProjectId,uaefi,75616566-692e-46b6-9963-61645f706362,E*
G04 #@! TF.SameCoordinates,Original*
G04 #@! TF.FileFunction,Soldermask,Top*
G04 #@! TF.FilePolarity,Negative*
%FSLAX46Y46*%
G04 Gerber Fmt 4.6, Leading zero omitted, Abs format (unit mm)*
G04 Created by KiCad (PCBNEW 8.0.9-8.0.9-0~ubuntu24.04.1) date 2026-01-04 09:50:24*
%MOMM*%
%LPD*%
G01*
G04 APERTURE LIST*
%ADD10C,0.120000*%
%ADD11C,1.700000*%
%ADD12C,1.524000*%
%ADD13O,1.700000X1.850000*%
%ADD14C,0.600000*%
%ADD15R,1.100000X1.100000*%
%ADD16C,1.100000*%
%ADD17O,1.100000X2.400000*%
%ADD18C,1.500000*%
%ADD19O,0.499999X0.250000*%
%ADD20O,0.250000X0.499999*%
%ADD21C,0.599999*%
%ADD22C,1.499540*%
%ADD23R,1.000000X1.300000*%
%ADD24R,0.650000X2.000000*%
%ADD25R,8.100000X4.500000*%
%ADD26C,0.650000*%
%ADD27R,1.150000X0.300000*%
%ADD28O,2.100000X1.000000*%
%ADD29O,1.600000X1.000000*%
%ADD30R,1.700000X1.700000*%
%ADD31O,1.700000X1.700000*%
%ADD32C,3.302000*%
%ADD33R,0.690000X1.350000*%
G04 APERTURE END LIST*
D10*
G04 #@! TO.C,U5*
X125125002Y100744367D02*
X118125002Y100744367D01*
X118125002Y113744367D01*
X125125002Y113744367D01*
X125125002Y100744367D01*
G36*
X125125002Y100744367D02*
G01*
X118125002Y100744367D01*
X118125002Y113744367D01*
X125125002Y113744367D01*
X125125002Y100744367D01*
G37*
G04 #@! TD*
G04 #@! TO.C,R40*
G36*
G01*
X47475002Y111344366D02*
X46225002Y111344366D01*
G75*
G02*
X46125002Y111444366I0J100000D01*
G01*
X46125002Y112244366D01*
G75*
G02*
X46225002Y112344366I100000J0D01*
G01*
X47475002Y112344366D01*
G75*
G02*
X47575002Y112244366I0J-100000D01*
G01*
X47575002Y111444366D01*
G75*
G02*
X47475002Y111344366I-100000J0D01*
G01*
G37*
G36*
G01*
X47475002Y113244388D02*
X46225002Y113244388D01*
G75*
G02*
X46125002Y113344388I0J100000D01*
G01*
X46125002Y114144388D01*
G75*
G02*
X46225002Y114244388I100000J0D01*
G01*
X47475002Y114244388D01*
G75*
G02*
X47575002Y114144388I0J-100000D01*
G01*
X47575002Y113344388D01*
G75*
G02*
X47475002Y113244388I-100000J0D01*
G01*
G37*
G04 #@! TD*
G04 #@! TO.C,U7*
G36*
G01*
X57240002Y43369367D02*
X57540002Y43369367D01*
G75*
G02*
X57690002Y43219367I0J-150000D01*
G01*
X57690002Y41569367D01*
G75*
G02*
X57540002Y41419367I-150000J0D01*
G01*
X57240002Y41419367D01*
G75*
G02*
X57090002Y41569367I0J150000D01*
G01*
X57090002Y43219367D01*
G75*
G02*
X57240002Y43369367I150000J0D01*
G01*
G37*
G36*
G01*
X55970002Y43369367D02*
X56270002Y43369367D01*
G75*
G02*
X56420002Y43219367I0J-150000D01*
G01*
X56420002Y41569367D01*
G75*
G02*
X56270002Y41419367I-150000J0D01*
G01*
X55970002Y41419367D01*
G75*
G02*
X55820002Y41569367I0J150000D01*
G01*
X55820002Y43219367D01*
G75*
G02*
X55970002Y43369367I150000J0D01*
G01*
G37*
G36*
G01*
X54700002Y43369367D02*
X55000002Y43369367D01*
G75*
G02*
X55150002Y43219367I0J-150000D01*
G01*
X55150002Y41569367D01*
G75*
G02*
X55000002Y41419367I-150000J0D01*
G01*
X54700002Y41419367D01*
G75*
G02*
X54550002Y41569367I0J150000D01*
G01*
X54550002Y43219367D01*
G75*
G02*
X54700002Y43369367I150000J0D01*
G01*
G37*
G36*
G01*
X53430002Y43369367D02*
X53730002Y43369367D01*
G75*
G02*
X53880002Y43219367I0J-150000D01*
G01*
X53880002Y41569367D01*
G75*
G02*
X53730002Y41419367I-150000J0D01*
G01*
X53430002Y41419367D01*
G75*
G02*
X53280002Y41569367I0J150000D01*
G01*
X53280002Y43219367D01*
G75*
G02*
X53430002Y43369367I150000J0D01*
G01*
G37*
G36*
G01*
X53430002Y38419367D02*
X53730002Y38419367D01*
G75*
G02*
X53880002Y38269367I0J-150000D01*
G01*
X53880002Y36619367D01*
G75*
G02*
X53730002Y36469367I-150000J0D01*
G01*
X53430002Y36469367D01*
G75*
G02*
X53280002Y36619367I0J150000D01*
G01*
X53280002Y38269367D01*
G75*
G02*
X53430002Y38419367I150000J0D01*
G01*
G37*
G36*
G01*
X54700002Y38419367D02*
X55000002Y38419367D01*
G75*
G02*
X55150002Y38269367I0J-150000D01*
G01*
X55150002Y36619367D01*
G75*
G02*
X55000002Y36469367I-150000J0D01*
G01*
X54700002Y36469367D01*
G75*
G02*
X54550002Y36619367I0J150000D01*
G01*
X54550002Y38269367D01*
G75*
G02*
X54700002Y38419367I150000J0D01*
G01*
G37*
G36*
G01*
X55970002Y38419367D02*
X56270002Y38419367D01*
G75*
G02*
X56420002Y38269367I0J-150000D01*
G01*
X56420002Y36619367D01*
G75*
G02*
X56270002Y36469367I-150000J0D01*
G01*
X55970002Y36469367D01*
G75*
G02*
X55820002Y36619367I0J150000D01*
G01*
X55820002Y38269367D01*
G75*
G02*
X55970002Y38419367I150000J0D01*
G01*
G37*
G36*
G01*
X57240002Y38419367D02*
X57540002Y38419367D01*
G75*
G02*
X57690002Y38269367I0J-150000D01*
G01*
X57690002Y36619367D01*
G75*
G02*
X57540002Y36469367I-150000J0D01*
G01*
X57240002Y36469367D01*
G75*
G02*
X57090002Y36619367I0J150000D01*
G01*
X57090002Y38269367D01*
G75*
G02*
X57240002Y38419367I150000J0D01*
G01*
G37*
G04 #@! TD*
G04 #@! TO.C,C24*
G36*
G01*
X122135001Y21854367D02*
X122135001Y22534367D01*
G75*
G02*
X122220001Y22619367I85000J0D01*
G01*
X122900001Y22619367D01*
G75*
G02*
X122985001Y22534367I0J-85000D01*
G01*
X122985001Y21854367D01*
G75*
G02*
X122900001Y21769367I-85000J0D01*
G01*
X122220001Y21769367D01*
G75*
G02*
X122135001Y21854367I0J85000D01*
G01*
G37*
G36*
G01*
X123715003Y21854367D02*
X123715003Y22534367D01*
G75*
G02*
X123800003Y22619367I85000J0D01*
G01*
X124480003Y22619367D01*
G75*
G02*
X124565003Y22534367I0J-85000D01*
G01*
X124565003Y21854367D01*
G75*
G02*
X124480003Y21769367I-85000J0D01*
G01*
X123800003Y21769367D01*
G75*
G02*
X123715003Y21854367I0J85000D01*
G01*
G37*
G04 #@! TD*
G04 #@! TO.C,R39*
G36*
G01*
X44975002Y111344366D02*
X43725002Y111344366D01*
G75*
G02*
X43625002Y111444366I0J100000D01*
G01*
X43625002Y112244366D01*
G75*
G02*
X43725002Y112344366I100000J0D01*
G01*
X44975002Y112344366D01*
G75*
G02*
X45075002Y112244366I0J-100000D01*
G01*
X45075002Y111444366D01*
G75*
G02*
X44975002Y111344366I-100000J0D01*
G01*
G37*
G36*
G01*
X44975002Y113244388D02*
X43725002Y113244388D01*
G75*
G02*
X43625002Y113344388I0J100000D01*
G01*
X43625002Y114144388D01*
G75*
G02*
X43725002Y114244388I100000J0D01*
G01*
X44975002Y114244388D01*
G75*
G02*
X45075002Y114144388I0J-100000D01*
G01*
X45075002Y113344388D01*
G75*
G02*
X44975002Y113244388I-100000J0D01*
G01*
G37*
G04 #@! TD*
G04 #@! TO.C,Q10*
G36*
G01*
X92780002Y43394367D02*
X93480002Y43394367D01*
G75*
G02*
X93730002Y43144367I0J-250000D01*
G01*
X93730002Y41444367D01*
G75*
G02*
X93480002Y41194367I-250000J0D01*
G01*
X92780002Y41194367D01*
G75*
G02*
X92530002Y41444367I0J250000D01*
G01*
X92530002Y43144367D01*
G75*
G02*
X92780002Y43394367I250000J0D01*
G01*
G37*
G36*
G01*
X88199999Y39194367D02*
X93500005Y39194367D01*
G75*
G02*
X93750002Y38944370I0J-249997D01*
G01*
X93750002Y33044364D01*
G75*
G02*
X93500005Y32794367I-249997J0D01*
G01*
X88199999Y32794367D01*
G75*
G02*
X87950002Y33044364I0J249997D01*
G01*
X87950002Y38944370D01*
G75*
G02*
X88199999Y39194367I249997J0D01*
G01*
G37*
G36*
G01*
X88220002Y43394367D02*
X88920002Y43394367D01*
G75*
G02*
X89170002Y43144367I0J-250000D01*
G01*
X89170002Y41444367D01*
G75*
G02*
X88920002Y41194367I-250000J0D01*
G01*
X88220002Y41194367D01*
G75*
G02*
X87970002Y41444367I0J250000D01*
G01*
X87970002Y43144367D01*
G75*
G02*
X88220002Y43394367I250000J0D01*
G01*
G37*
G04 #@! TD*
D11*
G04 #@! TO.C,P8*
X113050002Y97794367D03*
G04 #@! TD*
G04 #@! TO.C,P5*
X86350002Y56194367D03*
G04 #@! TD*
G04 #@! TO.C,Q7*
G36*
G01*
X71780002Y43394367D02*
X72480002Y43394367D01*
G75*
G02*
X72730002Y43144367I0J-250000D01*
G01*
X72730002Y41444367D01*
G75*
G02*
X72480002Y41194367I-250000J0D01*
G01*
X71780002Y41194367D01*
G75*
G02*
X71530002Y41444367I0J250000D01*
G01*
X71530002Y43144367D01*
G75*
G02*
X71780002Y43394367I250000J0D01*
G01*
G37*
G36*
G01*
X67199999Y39194367D02*
X72500005Y39194367D01*
G75*
G02*
X72750002Y38944370I0J-249997D01*
G01*
X72750002Y33044364D01*
G75*
G02*
X72500005Y32794367I-249997J0D01*
G01*
X67199999Y32794367D01*
G75*
G02*
X66950002Y33044364I0J249997D01*
G01*
X66950002Y38944370D01*
G75*
G02*
X67199999Y39194367I249997J0D01*
G01*
G37*
G36*
G01*
X67220002Y43394367D02*
X67920002Y43394367D01*
G75*
G02*
X68170002Y43144367I0J-250000D01*
G01*
X68170002Y41444367D01*
G75*
G02*
X67920002Y41194367I-250000J0D01*
G01*
X67220002Y41194367D01*
G75*
G02*
X66970002Y41444367I0J250000D01*
G01*
X66970002Y43144367D01*
G75*
G02*
X67220002Y43394367I250000J0D01*
G01*
G37*
G04 #@! TD*
G04 #@! TO.C,Q8*
G36*
G01*
X78780002Y43394367D02*
X79480002Y43394367D01*
G75*
G02*
X79730002Y43144367I0J-250000D01*
G01*
X79730002Y41444367D01*
G75*
G02*
X79480002Y41194367I-250000J0D01*
G01*
X78780002Y41194367D01*
G75*
G02*
X78530002Y41444367I0J250000D01*
G01*
X78530002Y43144367D01*
G75*
G02*
X78780002Y43394367I250000J0D01*
G01*
G37*
G36*
G01*
X74199999Y39194367D02*
X79500005Y39194367D01*
G75*
G02*
X79750002Y38944370I0J-249997D01*
G01*
X79750002Y33044364D01*
G75*
G02*
X79500005Y32794367I-249997J0D01*
G01*
X74199999Y32794367D01*
G75*
G02*
X73950002Y33044364I0J249997D01*
G01*
X73950002Y38944370D01*
G75*
G02*
X74199999Y39194367I249997J0D01*
G01*
G37*
G36*
G01*
X74220002Y43394367D02*
X74920002Y43394367D01*
G75*
G02*
X75170002Y43144367I0J-250000D01*
G01*
X75170002Y41444367D01*
G75*
G02*
X74920002Y41194367I-250000J0D01*
G01*
X74220002Y41194367D01*
G75*
G02*
X73970002Y41444367I0J250000D01*
G01*
X73970002Y43144367D01*
G75*
G02*
X74220002Y43394367I250000J0D01*
G01*
G37*
G04 #@! TD*
G04 #@! TO.C,C26*
G36*
G01*
X125635001Y37854367D02*
X125635001Y38534367D01*
G75*
G02*
X125720001Y38619367I85000J0D01*
G01*
X126400001Y38619367D01*
G75*
G02*
X126485001Y38534367I0J-85000D01*
G01*
X126485001Y37854367D01*
G75*
G02*
X126400001Y37769367I-85000J0D01*
G01*
X125720001Y37769367D01*
G75*
G02*
X125635001Y37854367I0J85000D01*
G01*
G37*
G36*
G01*
X127215003Y37854367D02*
X127215003Y38534367D01*
G75*
G02*
X127300003Y38619367I85000J0D01*
G01*
X127980003Y38619367D01*
G75*
G02*
X128065003Y38534367I0J-85000D01*
G01*
X128065003Y37854367D01*
G75*
G02*
X127980003Y37769367I-85000J0D01*
G01*
X127300003Y37769367D01*
G75*
G02*
X127215003Y37854367I0J85000D01*
G01*
G37*
G04 #@! TD*
G04 #@! TO.C,R1*
G36*
G01*
X52035002Y50676864D02*
X52815002Y50676864D01*
G75*
G02*
X52885002Y50606864I0J-70000D01*
G01*
X52885002Y50046864D01*
G75*
G02*
X52815002Y49976864I-70000J0D01*
G01*
X52035002Y49976864D01*
G75*
G02*
X51965002Y50046864I0J70000D01*
G01*
X51965002Y50606864D01*
G75*
G02*
X52035002Y50676864I70000J0D01*
G01*
G37*
G36*
G01*
X52035002Y49076864D02*
X52815002Y49076864D01*
G75*
G02*
X52885002Y49006864I0J-70000D01*
G01*
X52885002Y48446864D01*
G75*
G02*
X52815002Y48376864I-70000J0D01*
G01*
X52035002Y48376864D01*
G75*
G02*
X51965002Y48446864I0J70000D01*
G01*
X51965002Y49006864D01*
G75*
G02*
X52035002Y49076864I70000J0D01*
G01*
G37*
G04 #@! TD*
G04 #@! TO.C,C13*
G36*
G01*
X116175001Y30979367D02*
X116175001Y31659367D01*
G75*
G02*
X116260001Y31744367I85000J0D01*
G01*
X116940001Y31744367D01*
G75*
G02*
X117025001Y31659367I0J-85000D01*
G01*
X117025001Y30979367D01*
G75*
G02*
X116940001Y30894367I-85000J0D01*
G01*
X116260001Y30894367D01*
G75*
G02*
X116175001Y30979367I0J85000D01*
G01*
G37*
G36*
G01*
X117755003Y30979367D02*
X117755003Y31659367D01*
G75*
G02*
X117840003Y31744367I85000J0D01*
G01*
X118520003Y31744367D01*
G75*
G02*
X118605003Y31659367I0J-85000D01*
G01*
X118605003Y30979367D01*
G75*
G02*
X118520003Y30894367I-85000J0D01*
G01*
X117840003Y30894367D01*
G75*
G02*
X117755003Y30979367I0J85000D01*
G01*
G37*
G04 #@! TD*
D12*
G04 #@! TO.C,F4*
X112900002Y32994367D03*
G36*
G01*
X114244992Y32094367D02*
X113554992Y32094367D01*
G75*
G02*
X113324992Y32324367I0J230000D01*
G01*
X113324992Y33664367D01*
G75*
G02*
X113554992Y33894367I230000J0D01*
G01*
X114244992Y33894367D01*
G75*
G02*
X114474992Y33664367I0J-230000D01*
G01*
X114474992Y32324367D01*
G75*
G02*
X114244992Y32094367I-230000J0D01*
G01*
G37*
G36*
G01*
X117145012Y32094367D02*
X116455012Y32094367D01*
G75*
G02*
X116225012Y32324367I0J230000D01*
G01*
X116225012Y33664367D01*
G75*
G02*
X116455012Y33894367I230000J0D01*
G01*
X117145012Y33894367D01*
G75*
G02*
X117375012Y33664367I0J-230000D01*
G01*
X117375012Y32324367D01*
G75*
G02*
X117145012Y32094367I-230000J0D01*
G01*
G37*
X117800002Y32994367D03*
G04 #@! TD*
G04 #@! TO.C,R37*
G36*
G01*
X47475002Y107894366D02*
X46225002Y107894366D01*
G75*
G02*
X46125002Y107994366I0J100000D01*
G01*
X46125002Y108794366D01*
G75*
G02*
X46225002Y108894366I100000J0D01*
G01*
X47475002Y108894366D01*
G75*
G02*
X47575002Y108794366I0J-100000D01*
G01*
X47575002Y107994366D01*
G75*
G02*
X47475002Y107894366I-100000J0D01*
G01*
G37*
G36*
G01*
X47475002Y109794388D02*
X46225002Y109794388D01*
G75*
G02*
X46125002Y109894388I0J100000D01*
G01*
X46125002Y110694388D01*
G75*
G02*
X46225002Y110794388I100000J0D01*
G01*
X47475002Y110794388D01*
G75*
G02*
X47575002Y110694388I0J-100000D01*
G01*
X47575002Y109894388D01*
G75*
G02*
X47475002Y109794388I-100000J0D01*
G01*
G37*
G04 #@! TD*
G04 #@! TO.C,C11*
G36*
G01*
X113835001Y15854367D02*
X113835001Y16534367D01*
G75*
G02*
X113920001Y16619367I85000J0D01*
G01*
X114600001Y16619367D01*
G75*
G02*
X114685001Y16534367I0J-85000D01*
G01*
X114685001Y15854367D01*
G75*
G02*
X114600001Y15769367I-85000J0D01*
G01*
X113920001Y15769367D01*
G75*
G02*
X113835001Y15854367I0J85000D01*
G01*
G37*
G36*
G01*
X115415003Y15854367D02*
X115415003Y16534367D01*
G75*
G02*
X115500003Y16619367I85000J0D01*
G01*
X116180003Y16619367D01*
G75*
G02*
X116265003Y16534367I0J-85000D01*
G01*
X116265003Y15854367D01*
G75*
G02*
X116180003Y15769367I-85000J0D01*
G01*
X115500003Y15769367D01*
G75*
G02*
X115415003Y15854367I0J85000D01*
G01*
G37*
G04 #@! TD*
G04 #@! TO.C,J7*
G36*
G01*
X143350000Y89175000D02*
X143350000Y87825000D01*
G75*
G02*
X143100000Y87575000I-250000J0D01*
G01*
X141900000Y87575000D01*
G75*
G02*
X141650000Y87825000I0J250000D01*
G01*
X141650000Y89175000D01*
G75*
G02*
X141900000Y89425000I250000J0D01*
G01*
X143100000Y89425000D01*
G75*
G02*
X143350000Y89175000I0J-250000D01*
G01*
G37*
D13*
X140000000Y88500000D03*
X137500000Y88500000D03*
X135000000Y88500000D03*
X132500000Y88500000D03*
G04 #@! TD*
D11*
G04 #@! TO.C,P4*
X124850002Y77094367D03*
G04 #@! TD*
D14*
G04 #@! TO.C,M3*
X69675002Y63769367D03*
X69675002Y62569367D03*
X69675002Y64969367D03*
X69675002Y66169367D03*
X55250002Y59709367D03*
X55250002Y58709367D03*
G04 #@! TD*
G04 #@! TO.C,R10*
G36*
G01*
X59510002Y44344367D02*
X60290002Y44344367D01*
G75*
G02*
X60360002Y44274367I0J-70000D01*
G01*
X60360002Y43714367D01*
G75*
G02*
X60290002Y43644367I-70000J0D01*
G01*
X59510002Y43644367D01*
G75*
G02*
X59440002Y43714367I0J70000D01*
G01*
X59440002Y44274367D01*
G75*
G02*
X59510002Y44344367I70000J0D01*
G01*
G37*
G36*
G01*
X59510002Y42744367D02*
X60290002Y42744367D01*
G75*
G02*
X60360002Y42674367I0J-70000D01*
G01*
X60360002Y42114367D01*
G75*
G02*
X60290002Y42044367I-70000J0D01*
G01*
X59510002Y42044367D01*
G75*
G02*
X59440002Y42114367I0J70000D01*
G01*
X59440002Y42674367D01*
G75*
G02*
X59510002Y42744367I70000J0D01*
G01*
G37*
G04 #@! TD*
D15*
G04 #@! TO.C,J8*
X129250002Y73844367D03*
D16*
X128450002Y72094367D03*
X127650002Y73844367D03*
X126850002Y72094367D03*
X126050002Y73844367D03*
D17*
X131300002Y72969367D03*
X124000002Y72969367D03*
G04 #@! TD*
D12*
G04 #@! TO.C,F3*
X112900002Y35194367D03*
G36*
G01*
X114244992Y34294367D02*
X113554992Y34294367D01*
G75*
G02*
X113324992Y34524367I0J230000D01*
G01*
X113324992Y35864367D01*
G75*
G02*
X113554992Y36094367I230000J0D01*
G01*
X114244992Y36094367D01*
G75*
G02*
X114474992Y35864367I0J-230000D01*
G01*
X114474992Y34524367D01*
G75*
G02*
X114244992Y34294367I-230000J0D01*
G01*
G37*
G36*
G01*
X117145012Y34294367D02*
X116455012Y34294367D01*
G75*
G02*
X116225012Y34524367I0J230000D01*
G01*
X116225012Y35864367D01*
G75*
G02*
X116455012Y36094367I230000J0D01*
G01*
X117145012Y36094367D01*
G75*
G02*
X117375012Y35864367I0J-230000D01*
G01*
X117375012Y34524367D01*
G75*
G02*
X117145012Y34294367I-230000J0D01*
G01*
G37*
X117800002Y35194367D03*
G04 #@! TD*
D14*
G04 #@! TO.C,M2*
X59225002Y94169366D03*
X59225002Y93219366D03*
X59225002Y92269368D03*
X50525002Y93269366D03*
X50525002Y94169366D03*
G04 #@! TD*
G04 #@! TO.C,C25*
G36*
G01*
X128065003Y22534367D02*
X128065003Y21854367D01*
G75*
G02*
X127980003Y21769367I-85000J0D01*
G01*
X127300003Y21769367D01*
G75*
G02*
X127215003Y21854367I0J85000D01*
G01*
X127215003Y22534367D01*
G75*
G02*
X127300003Y22619367I85000J0D01*
G01*
X127980003Y22619367D01*
G75*
G02*
X128065003Y22534367I0J-85000D01*
G01*
G37*
G36*
G01*
X126485001Y22534367D02*
X126485001Y21854367D01*
G75*
G02*
X126400001Y21769367I-85000J0D01*
G01*
X125720001Y21769367D01*
G75*
G02*
X125635001Y21854367I0J85000D01*
G01*
X125635001Y22534367D01*
G75*
G02*
X125720001Y22619367I85000J0D01*
G01*
X126400001Y22619367D01*
G75*
G02*
X126485001Y22534367I0J-85000D01*
G01*
G37*
G04 #@! TD*
D18*
G04 #@! TO.C,M1*
X111525003Y55469362D03*
X117925000Y55469362D03*
X119825003Y55469362D03*
X124125003Y55469362D03*
D14*
X126525000Y55919361D03*
X127525001Y55919361D03*
D18*
X130375003Y55469362D03*
X111075001Y39969365D03*
X112925000Y39969365D03*
X117875003Y39969365D03*
X129925001Y39969365D03*
G04 #@! TD*
G04 #@! TO.C,Q12*
G36*
G01*
X106780002Y43394367D02*
X107480002Y43394367D01*
G75*
G02*
X107730002Y43144367I0J-250000D01*
G01*
X107730002Y41444367D01*
G75*
G02*
X107480002Y41194367I-250000J0D01*
G01*
X106780002Y41194367D01*
G75*
G02*
X106530002Y41444367I0J250000D01*
G01*
X106530002Y43144367D01*
G75*
G02*
X106780002Y43394367I250000J0D01*
G01*
G37*
G36*
G01*
X102199999Y39194367D02*
X107500005Y39194367D01*
G75*
G02*
X107750002Y38944370I0J-249997D01*
G01*
X107750002Y33044364D01*
G75*
G02*
X107500005Y32794367I-249997J0D01*
G01*
X102199999Y32794367D01*
G75*
G02*
X101950002Y33044364I0J249997D01*
G01*
X101950002Y38944370D01*
G75*
G02*
X102199999Y39194367I249997J0D01*
G01*
G37*
G36*
G01*
X102220002Y43394367D02*
X102920002Y43394367D01*
G75*
G02*
X103170002Y43144367I0J-250000D01*
G01*
X103170002Y41444367D01*
G75*
G02*
X102920002Y41194367I-250000J0D01*
G01*
X102220002Y41194367D01*
G75*
G02*
X101970002Y41444367I0J250000D01*
G01*
X101970002Y43144367D01*
G75*
G02*
X102220002Y43394367I250000J0D01*
G01*
G37*
G04 #@! TD*
D11*
G04 #@! TO.C,P6*
X86350002Y53654367D03*
G04 #@! TD*
D19*
G04 #@! TO.C,M7*
X88674997Y45494370D03*
D20*
X78325003Y45544368D03*
X78825004Y45544368D03*
D21*
X85375001Y46594366D03*
X84499999Y47119366D03*
X85675003Y47869364D03*
X85600000Y51419365D03*
G04 #@! TD*
D11*
G04 #@! TO.C,P9*
X13000000Y111200000D03*
D22*
X13000000Y104850000D03*
X13000000Y100850000D03*
X13000000Y96850000D03*
X13000000Y92850000D03*
X13000000Y88850000D03*
X13000000Y84850000D03*
X13000000Y80850000D03*
X13000000Y76850000D03*
X13000000Y72850000D03*
X13000000Y68850000D03*
X13000000Y64850000D03*
X13000000Y60850000D03*
X13000000Y56850000D03*
X13000000Y52850000D03*
X13000000Y48850000D03*
X13000000Y44850000D03*
X13000000Y40850000D03*
X13000000Y36850000D03*
X13000000Y32850000D03*
X13000000Y28850000D03*
X13000000Y24850000D03*
D11*
X13000000Y18500000D03*
D22*
X9700000Y106850000D03*
X9700000Y102850000D03*
X9700000Y98850000D03*
X9700000Y94850000D03*
X9700000Y90850000D03*
X9700000Y86850000D03*
X9700000Y82850000D03*
X9700000Y78850000D03*
X9700000Y74850000D03*
X9700000Y70850000D03*
X9700000Y66850000D03*
X9700000Y62850000D03*
X9700000Y58850000D03*
X9700000Y54850000D03*
X9700000Y50850000D03*
X9700000Y46850000D03*
X9700000Y42850000D03*
X9700000Y38850000D03*
X9700000Y34850000D03*
X9700000Y30850000D03*
X9700000Y26850000D03*
X9700000Y22850000D03*
X16300000Y108850000D03*
X16300000Y104850000D03*
X16300000Y100850000D03*
X16300000Y96850000D03*
X16300000Y92850000D03*
X16300000Y88850000D03*
X16300000Y84850000D03*
X16300000Y80850000D03*
X16300000Y76850000D03*
X16300000Y72850000D03*
X16300000Y68850000D03*
X16300000Y64850000D03*
X16300000Y60850000D03*
X16300000Y56850000D03*
X16300000Y52850000D03*
X16300000Y48850000D03*
X16300000Y44850000D03*
X16300000Y40850000D03*
X16300000Y36850000D03*
X16300000Y32850000D03*
X16300000Y28850000D03*
X16300000Y24850000D03*
X16300000Y20850000D03*
G04 #@! TD*
G04 #@! TO.C,R9*
G36*
G01*
X113240002Y30929367D02*
X113240002Y31709367D01*
G75*
G02*
X113310002Y31779367I70000J0D01*
G01*
X113870002Y31779367D01*
G75*
G02*
X113940002Y31709367I0J-70000D01*
G01*
X113940002Y30929367D01*
G75*
G02*
X113870002Y30859367I-70000J0D01*
G01*
X113310002Y30859367D01*
G75*
G02*
X113240002Y30929367I0J70000D01*
G01*
G37*
G36*
G01*
X114840002Y30929367D02*
X114840002Y31709367D01*
G75*
G02*
X114910002Y31779367I70000J0D01*
G01*
X115470002Y31779367D01*
G75*
G02*
X115540002Y31709367I0J-70000D01*
G01*
X115540002Y30929367D01*
G75*
G02*
X115470002Y30859367I-70000J0D01*
G01*
X114910002Y30859367D01*
G75*
G02*
X114840002Y30929367I0J70000D01*
G01*
G37*
G04 #@! TD*
G04 #@! TO.C,Q9*
G36*
G01*
X85780002Y43394367D02*
X86480002Y43394367D01*
G75*
G02*
X86730002Y43144367I0J-250000D01*
G01*
X86730002Y41444367D01*
G75*
G02*
X86480002Y41194367I-250000J0D01*
G01*
X85780002Y41194367D01*
G75*
G02*
X85530002Y41444367I0J250000D01*
G01*
X85530002Y43144367D01*
G75*
G02*
X85780002Y43394367I250000J0D01*
G01*
G37*
G36*
G01*
X81199999Y39194367D02*
X86500005Y39194367D01*
G75*
G02*
X86750002Y38944370I0J-249997D01*
G01*
X86750002Y33044364D01*
G75*
G02*
X86500005Y32794367I-249997J0D01*
G01*
X81199999Y32794367D01*
G75*
G02*
X80950002Y33044364I0J249997D01*
G01*
X80950002Y38944370D01*
G75*
G02*
X81199999Y39194367I249997J0D01*
G01*
G37*
G36*
G01*
X81220002Y43394367D02*
X81920002Y43394367D01*
G75*
G02*
X82170002Y43144367I0J-250000D01*
G01*
X82170002Y41444367D01*
G75*
G02*
X81920002Y41194367I-250000J0D01*
G01*
X81220002Y41194367D01*
G75*
G02*
X80970002Y41444367I0J250000D01*
G01*
X80970002Y43144367D01*
G75*
G02*
X81220002Y43394367I250000J0D01*
G01*
G37*
G04 #@! TD*
D23*
G04 #@! TO.C,U5*
X117550002Y113594367D03*
X116050002Y113594367D03*
X114550002Y113594367D03*
X113050002Y113594367D03*
X111550002Y113594367D03*
X110050002Y113594367D03*
X108550002Y113594367D03*
X107050002Y113594367D03*
X105550002Y113594367D03*
X104050002Y113594367D03*
X102550002Y113594367D03*
X101050002Y113594367D03*
X99550002Y113594367D03*
X99550002Y100894367D03*
X101050002Y100894367D03*
X102550002Y100894367D03*
X104050002Y100894367D03*
X105550002Y100894367D03*
X107050002Y100894367D03*
X108550002Y100894367D03*
X110050002Y100894367D03*
X111550002Y100894367D03*
X113050002Y100894367D03*
X114550002Y100894367D03*
X116050002Y100894367D03*
X117550002Y100894367D03*
G04 #@! TD*
G04 #@! TO.C,R35*
G36*
G01*
X42475002Y107894366D02*
X41225002Y107894366D01*
G75*
G02*
X41125002Y107994366I0J100000D01*
G01*
X41125002Y108794366D01*
G75*
G02*
X41225002Y108894366I100000J0D01*
G01*
X42475002Y108894366D01*
G75*
G02*
X42575002Y108794366I0J-100000D01*
G01*
X42575002Y107994366D01*
G75*
G02*
X42475002Y107894366I-100000J0D01*
G01*
G37*
G36*
G01*
X42475002Y109794388D02*
X41225002Y109794388D01*
G75*
G02*
X41125002Y109894388I0J100000D01*
G01*
X41125002Y110694388D01*
G75*
G02*
X41225002Y110794388I100000J0D01*
G01*
X42475002Y110794388D01*
G75*
G02*
X42575002Y110694388I0J-100000D01*
G01*
X42575002Y109894388D01*
G75*
G02*
X42475002Y109794388I-100000J0D01*
G01*
G37*
G04 #@! TD*
D12*
G04 #@! TO.C,F1*
X112900002Y37394367D03*
G36*
G01*
X114244992Y36494367D02*
X113554992Y36494367D01*
G75*
G02*
X113324992Y36724367I0J230000D01*
G01*
X113324992Y38064367D01*
G75*
G02*
X113554992Y38294367I230000J0D01*
G01*
X114244992Y38294367D01*
G75*
G02*
X114474992Y38064367I0J-230000D01*
G01*
X114474992Y36724367D01*
G75*
G02*
X114244992Y36494367I-230000J0D01*
G01*
G37*
G36*
G01*
X117145012Y36494367D02*
X116455012Y36494367D01*
G75*
G02*
X116225012Y36724367I0J230000D01*
G01*
X116225012Y38064367D01*
G75*
G02*
X116455012Y38294367I230000J0D01*
G01*
X117145012Y38294367D01*
G75*
G02*
X117375012Y38064367I0J-230000D01*
G01*
X117375012Y36724367D01*
G75*
G02*
X117145012Y36494367I-230000J0D01*
G01*
G37*
X117800002Y37394367D03*
G04 #@! TD*
D11*
G04 #@! TO.C,P3*
X129850002Y77094367D03*
G04 #@! TD*
D12*
G04 #@! TO.C,R4*
X125875393Y58068976D03*
G36*
G01*
X126330392Y57443976D02*
X126330392Y58693976D01*
G75*
G02*
X126430392Y58793976I100000J0D01*
G01*
X127230392Y58793976D01*
G75*
G02*
X127330392Y58693976I0J-100000D01*
G01*
X127330392Y57443976D01*
G75*
G02*
X127230392Y57343976I-100000J0D01*
G01*
X126430392Y57343976D01*
G75*
G02*
X126330392Y57443976I0J100000D01*
G01*
G37*
G36*
G01*
X128230414Y57443976D02*
X128230414Y58693976D01*
G75*
G02*
X128330414Y58793976I100000J0D01*
G01*
X129130414Y58793976D01*
G75*
G02*
X129230414Y58693976I0J-100000D01*
G01*
X129230414Y57443976D01*
G75*
G02*
X129130414Y57343976I-100000J0D01*
G01*
X128330414Y57343976D01*
G75*
G02*
X128230414Y57443976I0J100000D01*
G01*
G37*
X129685393Y58068976D03*
G04 #@! TD*
G04 #@! TO.C,R11*
G36*
G01*
X52850002Y44404367D02*
X52850002Y45184367D01*
G75*
G02*
X52920002Y45254367I70000J0D01*
G01*
X53480002Y45254367D01*
G75*
G02*
X53550002Y45184367I0J-70000D01*
G01*
X53550002Y44404367D01*
G75*
G02*
X53480002Y44334367I-70000J0D01*
G01*
X52920002Y44334367D01*
G75*
G02*
X52850002Y44404367I0J70000D01*
G01*
G37*
G36*
G01*
X54450002Y44404367D02*
X54450002Y45184367D01*
G75*
G02*
X54520002Y45254367I70000J0D01*
G01*
X55080002Y45254367D01*
G75*
G02*
X55150002Y45184367I0J-70000D01*
G01*
X55150002Y44404367D01*
G75*
G02*
X55080002Y44334367I-70000J0D01*
G01*
X54520002Y44334367D01*
G75*
G02*
X54450002Y44404367I0J70000D01*
G01*
G37*
G04 #@! TD*
G04 #@! TO.C,D3*
G36*
G01*
X57950002Y34104367D02*
X57950002Y33084367D01*
G75*
G02*
X57860002Y32994367I-90000J0D01*
G01*
X57140002Y32994367D01*
G75*
G02*
X57050002Y33084367I0J90000D01*
G01*
X57050002Y34104367D01*
G75*
G02*
X57140002Y34194367I90000J0D01*
G01*
X57860002Y34194367D01*
G75*
G02*
X57950002Y34104367I0J-90000D01*
G01*
G37*
G36*
G01*
X54650002Y34104367D02*
X54650002Y33084367D01*
G75*
G02*
X54560002Y32994367I-90000J0D01*
G01*
X53840002Y32994367D01*
G75*
G02*
X53750002Y33084367I0J90000D01*
G01*
X53750002Y34104367D01*
G75*
G02*
X53840002Y34194367I90000J0D01*
G01*
X54560002Y34194367D01*
G75*
G02*
X54650002Y34104367I0J-90000D01*
G01*
G37*
G04 #@! TD*
G04 #@! TO.C,R38*
G36*
G01*
X42475002Y111344366D02*
X41225002Y111344366D01*
G75*
G02*
X41125002Y111444366I0J100000D01*
G01*
X41125002Y112244366D01*
G75*
G02*
X41225002Y112344366I100000J0D01*
G01*
X42475002Y112344366D01*
G75*
G02*
X42575002Y112244366I0J-100000D01*
G01*
X42575002Y111444366D01*
G75*
G02*
X42475002Y111344366I-100000J0D01*
G01*
G37*
G36*
G01*
X42475002Y113244388D02*
X41225002Y113244388D01*
G75*
G02*
X41125002Y113344388I0J100000D01*
G01*
X41125002Y114144388D01*
G75*
G02*
X41225002Y114244388I100000J0D01*
G01*
X42475002Y114244388D01*
G75*
G02*
X42575002Y114144388I0J-100000D01*
G01*
X42575002Y113344388D01*
G75*
G02*
X42475002Y113244388I-100000J0D01*
G01*
G37*
G04 #@! TD*
G04 #@! TO.C,R36*
G36*
G01*
X44975002Y107894366D02*
X43725002Y107894366D01*
G75*
G02*
X43625002Y107994366I0J100000D01*
G01*
X43625002Y108794366D01*
G75*
G02*
X43725002Y108894366I100000J0D01*
G01*
X44975002Y108894366D01*
G75*
G02*
X45075002Y108794366I0J-100000D01*
G01*
X45075002Y107994366D01*
G75*
G02*
X44975002Y107894366I-100000J0D01*
G01*
G37*
G36*
G01*
X44975002Y109794388D02*
X43725002Y109794388D01*
G75*
G02*
X43625002Y109894388I0J100000D01*
G01*
X43625002Y110694388D01*
G75*
G02*
X43725002Y110794388I100000J0D01*
G01*
X44975002Y110794388D01*
G75*
G02*
X45075002Y110694388I0J-100000D01*
G01*
X45075002Y109894388D01*
G75*
G02*
X44975002Y109794388I-100000J0D01*
G01*
G37*
G04 #@! TD*
D24*
G04 #@! TO.C,U1*
X112350002Y18794367D03*
X113350002Y18794367D03*
X114350002Y18794367D03*
X115350002Y18794367D03*
X116350002Y18794367D03*
X117350002Y18794367D03*
X117350002Y28394367D03*
X116350002Y28394367D03*
X115350002Y28394367D03*
X114350002Y28394367D03*
X113350002Y28394367D03*
X112350002Y28394367D03*
D25*
X114850002Y23594367D03*
G04 #@! TD*
D24*
G04 #@! TO.C,U2*
X121810002Y25419367D03*
X122810002Y25419367D03*
X123810002Y25419367D03*
X124810002Y25419367D03*
X125810002Y25419367D03*
X126810002Y25419367D03*
X126810002Y35019367D03*
X125810002Y35019367D03*
X124810002Y35019367D03*
X123810002Y35019367D03*
X122810002Y35019367D03*
X121810002Y35019367D03*
D25*
X124310002Y30219367D03*
G04 #@! TD*
D11*
G04 #@! TO.C,P7*
X108350002Y97794367D03*
G04 #@! TD*
G04 #@! TO.C,Q11*
G36*
G01*
X99780002Y43394367D02*
X100480002Y43394367D01*
G75*
G02*
X100730002Y43144367I0J-250000D01*
G01*
X100730002Y41444367D01*
G75*
G02*
X100480002Y41194367I-250000J0D01*
G01*
X99780002Y41194367D01*
G75*
G02*
X99530002Y41444367I0J250000D01*
G01*
X99530002Y43144367D01*
G75*
G02*
X99780002Y43394367I250000J0D01*
G01*
G37*
G36*
G01*
X95199999Y39194367D02*
X100500005Y39194367D01*
G75*
G02*
X100750002Y38944370I0J-249997D01*
G01*
X100750002Y33044364D01*
G75*
G02*
X100500005Y32794367I-249997J0D01*
G01*
X95199999Y32794367D01*
G75*
G02*
X94950002Y33044364I0J249997D01*
G01*
X94950002Y38944370D01*
G75*
G02*
X95199999Y39194367I249997J0D01*
G01*
G37*
G36*
G01*
X95220002Y43394367D02*
X95920002Y43394367D01*
G75*
G02*
X96170002Y43144367I0J-250000D01*
G01*
X96170002Y41444367D01*
G75*
G02*
X95920002Y41194367I-250000J0D01*
G01*
X95220002Y41194367D01*
G75*
G02*
X94970002Y41444367I0J250000D01*
G01*
X94970002Y43144367D01*
G75*
G02*
X95220002Y43394367I250000J0D01*
G01*
G37*
G04 #@! TD*
D26*
G04 #@! TO.C,J9*
X125745002Y61704367D03*
X125745002Y67484367D03*
D27*
X124680002Y61244367D03*
X124680002Y62044367D03*
X124680002Y63344367D03*
X124680002Y64344367D03*
X124680002Y64844367D03*
X124680002Y65844367D03*
X124680002Y67144367D03*
X124680002Y67944367D03*
X124680002Y67644367D03*
X124680002Y66844367D03*
X124680002Y66344367D03*
X124680002Y65344367D03*
X124680002Y63844367D03*
X124680002Y62844367D03*
X124680002Y62344367D03*
X124680002Y61544367D03*
D28*
X125245002Y60274367D03*
D29*
X129425002Y60274367D03*
D28*
X125245002Y68914367D03*
D29*
X129425002Y68914367D03*
G04 #@! TD*
D14*
G04 #@! TO.C,M4*
X69675002Y52719367D03*
X69675002Y51519367D03*
X69675002Y53919367D03*
X69675002Y55119367D03*
X55250002Y48659367D03*
X55250002Y47659367D03*
G04 #@! TD*
D12*
G04 #@! TO.C,F2*
X109750002Y33144367D03*
G36*
G01*
X110650002Y34489357D02*
X110650002Y33799357D01*
G75*
G02*
X110420002Y33569357I-230000J0D01*
G01*
X109080002Y33569357D01*
G75*
G02*
X108850002Y33799357I0J230000D01*
G01*
X108850002Y34489357D01*
G75*
G02*
X109080002Y34719357I230000J0D01*
G01*
X110420002Y34719357D01*
G75*
G02*
X110650002Y34489357I0J-230000D01*
G01*
G37*
G36*
G01*
X110650002Y37389377D02*
X110650002Y36699377D01*
G75*
G02*
X110420002Y36469377I-230000J0D01*
G01*
X109080002Y36469377D01*
G75*
G02*
X108850002Y36699377I0J230000D01*
G01*
X108850002Y37389377D01*
G75*
G02*
X109080002Y37619377I230000J0D01*
G01*
X110420002Y37619377D01*
G75*
G02*
X110650002Y37389377I0J-230000D01*
G01*
G37*
X109750002Y38044367D03*
G04 #@! TD*
G04 #@! TO.C,D5*
G36*
G01*
X65450002Y34104367D02*
X65450002Y33084367D01*
G75*
G02*
X65360002Y32994367I-90000J0D01*
G01*
X64640002Y32994367D01*
G75*
G02*
X64550002Y33084367I0J90000D01*
G01*
X64550002Y34104367D01*
G75*
G02*
X64640002Y34194367I90000J0D01*
G01*
X65360002Y34194367D01*
G75*
G02*
X65450002Y34104367I0J-90000D01*
G01*
G37*
G36*
G01*
X62150002Y34104367D02*
X62150002Y33084367D01*
G75*
G02*
X62060002Y32994367I-90000J0D01*
G01*
X61340002Y32994367D01*
G75*
G02*
X61250002Y33084367I0J90000D01*
G01*
X61250002Y34104367D01*
G75*
G02*
X61340002Y34194367I90000J0D01*
G01*
X62060002Y34194367D01*
G75*
G02*
X62150002Y34104367I0J-90000D01*
G01*
G37*
G04 #@! TD*
D30*
G04 #@! TO.C,J6*
X94450002Y112744367D03*
D31*
X94450002Y110204367D03*
X94450002Y107664367D03*
X94450002Y105124367D03*
X94450002Y102584367D03*
X94450002Y100044367D03*
G04 #@! TD*
G04 #@! TO.C,R14*
G36*
G01*
X122800002Y37804367D02*
X122800002Y38584367D01*
G75*
G02*
X122870002Y38654367I70000J0D01*
G01*
X123430002Y38654367D01*
G75*
G02*
X123500002Y38584367I0J-70000D01*
G01*
X123500002Y37804367D01*
G75*
G02*
X123430002Y37734367I-70000J0D01*
G01*
X122870002Y37734367D01*
G75*
G02*
X122800002Y37804367I0J70000D01*
G01*
G37*
G36*
G01*
X124400002Y37804367D02*
X124400002Y38584367D01*
G75*
G02*
X124470002Y38654367I70000J0D01*
G01*
X125030002Y38654367D01*
G75*
G02*
X125100002Y38584367I0J-70000D01*
G01*
X125100002Y37804367D01*
G75*
G02*
X125030002Y37734367I-70000J0D01*
G01*
X124470002Y37734367D01*
G75*
G02*
X124400002Y37804367I0J70000D01*
G01*
G37*
G04 #@! TD*
D32*
G04 #@! TO.C,U3*
X132080000Y116170000D03*
X132080000Y139030000D03*
D33*
X133960000Y122657500D03*
X133960000Y132500000D03*
X135230000Y132500000D03*
X136500000Y132500000D03*
X137770000Y132500000D03*
D12*
X144780000Y121250000D03*
D33*
X137770000Y122657500D03*
X136500000Y122657500D03*
D12*
X144780000Y123790000D03*
D33*
X135230000Y122657500D03*
D12*
X144780000Y126330000D03*
X144780000Y128870000D03*
X144780000Y131410000D03*
X144780000Y133950000D03*
G04 #@! TD*
G04 #@! TO.C,C12*
G36*
G01*
X119365003Y16534367D02*
X119365003Y15854367D01*
G75*
G02*
X119280003Y15769367I-85000J0D01*
G01*
X118600003Y15769367D01*
G75*
G02*
X118515003Y15854367I0J85000D01*
G01*
X118515003Y16534367D01*
G75*
G02*
X118600003Y16619367I85000J0D01*
G01*
X119280003Y16619367D01*
G75*
G02*
X119365003Y16534367I0J-85000D01*
G01*
G37*
G36*
G01*
X117785001Y16534367D02*
X117785001Y15854367D01*
G75*
G02*
X117700001Y15769367I-85000J0D01*
G01*
X117020001Y15769367D01*
G75*
G02*
X116935001Y15854367I0J85000D01*
G01*
X116935001Y16534367D01*
G75*
G02*
X117020001Y16619367I85000J0D01*
G01*
X117700001Y16619367D01*
G75*
G02*
X117785001Y16534367I0J-85000D01*
G01*
G37*
G04 #@! TD*
D18*
G04 #@! TO.C,BT1*
X110749860Y106594367D03*
X103250002Y106594367D03*
G04 #@! TD*
M02*
