M48
; DRILL file {KiCad 8.0.9-8.0.9-0~ubuntu24.04.1} date 2026-01-04T09:50:25+0000
; FORMAT={2:4/ absolute / inch / suppress leading zeros}
; #@! TF.CreationDate,2026-01-04T09:50:25+00:00
; #@! TF.GenerationSoftware,Kicad,Pcbnew,8.0.9-8.0.9-0~ubuntu24.04.1
; #@! TF.FileFunction,MixedPlating,1,4
FMAT,2
INCH,TZ
; #@! TA.AperFunction,Plated,PTH,ComponentDrill
T1C0.0118
; #@! TA.AperFunction,Plated,PTH,ComponentDrill
T2C0.0118
; #@! TA.AperFunction,Plated,PTH,ViaDrill
T3C0.0157
; #@! TA.AperFunction,Plated,PTH,ComponentDrill
T4C0.0236
; #@! TA.AperFunction,Plated,PTH,ComponentDrill
T5C0.0276
; #@! TA.AperFunction,Plated,PTH,ComponentDrill
T6C0.0320
; #@! TA.AperFunction,Plated,PTH,ComponentDrill
T7C0.0335
; #@! TA.AperFunction,Plated,PTH,ComponentDrill
T8C0.0394
; #@! TA.AperFunction,Plated,PTH,ComponentDrill
T9C0.0433
; #@! TA.AperFunction,Plated,PTH,ComponentDrill
T10C0.0512
; #@! TA.AperFunction,Plated,PTH,ComponentDrill
T11C0.1200
; #@! TA.AperFunction,Plated,PTH,ViaDrill
T12C0.1575
; #@! TA.AperFunction,NonPlated,NPTH,ComponentDrill
T13C0.0256
; #@! TA.AperFunction,NonPlated,NPTH,ComponentDrill
T14C0.0591
%
G90
G05
T1
X33268Y18551
X33612Y18344
X33701Y20244
X33730Y18846
T2
X19892Y37075
X19892Y36720
X21752Y23508
X21752Y23114
X21752Y19157
X21752Y18764
X23317Y37075
X23317Y36701
X23317Y36327
X25827Y44240
X25827Y43846
X25827Y43453
X25827Y43059
X27431Y26051
X27431Y25578
X27431Y25106
X27431Y24634
X27431Y21701
X27431Y21228
X27431Y20756
X27431Y20283
X33248Y36769
X33248Y35825
X33248Y35352
X33248Y34880
X33248Y34407
X33248Y33935
X33248Y33462
X33248Y32990
X33248Y32517
X33248Y32045
X33248Y31573
X33248Y31100
X33248Y30628
X33248Y30155
X33248Y29683
X33248Y29210
X33248Y28738
X33248Y28265
X33248Y27793
X33248Y27321
X33248Y26848
X33248Y26376
X34232Y36927
X34626Y36927
X35807Y23777
X36296Y42132
X36296Y41732
X36296Y40834
X36296Y40441
X36296Y40047
X37500Y23777
X37815Y23777
X38130Y23777
X38445Y23777
X38760Y23777
X38839Y36927
X39075Y23777
X39232Y36927
X39390Y23777
X39626Y36927
X39705Y23777
X40020Y36927
X40020Y23777
X40335Y23777
X40413Y36927
X40650Y23777
X40807Y36927
X40965Y23777
X41201Y36927
X41280Y23777
X41594Y36927
X41594Y23777
X41909Y23777
X42224Y23777
X42618Y36927
X42776Y23777
X42933Y36927
X43091Y23777
X43406Y23777
X43720Y23777
X44035Y23777
X44350Y23777
X44783Y36927
X45335Y36927
X47185Y36927
X47185Y34014
X47185Y33620
X47185Y32557
X47185Y30864
X47185Y30549
X47185Y28659
X47185Y28344
X47185Y27399
X47185Y27084
X47185Y26769
X47185Y26454
X47185Y30234
X47185Y29919
X47185Y29604
X47185Y29289
X47185Y28974
X47185Y26140
X47185Y25825
X47185Y25510
X47185Y25195
X47185Y24880
X47185Y24565
X47185Y24250
X47185Y23935
X49813Y22015
X50207Y22015
T3
X1181Y35433
X1181Y32087
X1181Y27953
X1378Y39961
X1378Y8465
X1575Y47047
X1575Y44094
X2756Y1378
X5118Y50984
X5906Y1181
X7480Y50984
X8268Y1378
X10039Y1378
X10827Y24606
X10827Y7874
X11220Y50394
X11220Y7480
X11417Y48622
X12598Y7480
X12992Y33071
X12992Y7087
X13248Y39171
X13366Y15667
X13445Y27281
X13489Y22949
X14370Y10433
X14764Y9449
X15364Y18110
X15453Y32439
X15748Y7087
X15886Y44683
X15945Y48228
X16142Y25984
X16388Y9843
X16388Y8403
X16476Y43738
X16673Y28226
X16732Y19035
X16890Y24941
X17126Y27165
X17126Y22025
X17161Y31710
X17323Y27559
X17421Y12793
X17444Y38642
X17461Y43738
X17500Y33858
X17969Y44462
X18445Y43738
X18553Y34447
X19134Y7006
X19238Y9155
X19272Y8226
X19626Y9348
X19640Y39092
X19640Y38501
X19665Y39565
X19941Y14762
X19980Y28738
X19980Y26376
X19980Y25195
X19980Y6179
X20020Y31021
X20138Y34604
X20177Y21730
X20217Y12754
X20512Y8423
X20531Y27596
X20591Y14230
X20610Y20628
X20650Y29958
X20728Y15510
X21122Y18265
X21240Y24368
X21240Y22557
X21240Y20077
X21280Y25903
X21280Y21258
X21413Y8368
X21746Y37504
X22087Y15411
X22106Y14014
X22264Y5982
X22303Y32163
X22343Y12832
X22441Y9055
X22539Y17675
X22541Y15860
X22579Y22124
X22579Y14078
X22638Y12205
X22697Y44407
X22854Y26376
X22858Y29565
X23130Y14014
X23209Y28856
X23465Y43738
X23484Y30313
X23799Y14328
X23858Y43344
X23957Y27360
X24016Y16691
X24016Y15687
X24035Y17695
X24199Y27807
X24409Y49016
X24469Y32432
X24508Y14663
X24587Y34407
X24606Y12402
X24902Y36297
X24902Y22124
X24921Y6258
X25000Y31890
X25039Y38718
X25059Y13935
X25197Y7087
X25217Y9252
X25256Y12793
X25295Y42717
X25335Y44880
X25374Y41415
X25374Y40903
X25374Y40352
X25413Y39447
X25416Y27383
X25551Y7970
X25591Y6687
X25768Y17636
X25807Y39053
X25945Y16179
X26122Y32439
X26161Y30549
X26240Y38777
X26240Y35195
X26575Y17321
X26575Y15982
X26594Y26494
X26713Y13187
X26772Y9252
X26791Y37045
X26791Y32951
X26831Y7990
X27008Y6687
X27106Y13580
X27382Y22163
X27500Y29958
X27815Y18777
X27854Y17970
X28051Y36297
X28051Y33659
X28287Y36848
X28287Y6002
X28406Y16021
X28465Y9809
X28543Y48228
X28642Y7185
X28878Y16612
X28937Y23801
X28957Y22872
X29055Y7970
X29055Y6687
X29103Y18080
X29114Y30313
X29350Y17281
X29350Y15982
X29437Y22244
X29488Y13128
X29517Y18296
X29705Y36021
X29862Y34171
X29900Y25814
X29921Y13561
X30188Y7999
X30335Y19762
X30335Y18659
X30335Y18088
X30413Y6706
X30437Y22244
X30453Y39171
X30492Y36454
X30728Y28777
X30886Y29683
X30886Y21691
X31164Y16041
X31299Y21260
X31594Y37360
X31654Y17084
X31673Y16651
X31693Y7360
X31791Y25785
X31831Y24762
X31880Y9449
X32028Y36261
X32149Y17160
X32150Y15962
X32451Y13186
X32480Y7990
X32494Y6728
X32953Y36297
X33051Y21848
X33051Y13541
X33224Y20725
X33681Y37203
X33681Y8000
X33921Y16041
X33957Y39142
X33996Y23108
X34055Y6890
X34350Y15982
X34362Y16454
X34390Y23423
X34496Y7502
X34544Y38901
X34689Y22279
X34902Y15982
X34954Y12592
X34980Y13541
X35000Y7394
X35020Y6927
X35063Y8032
X35098Y39092
X35098Y37203
X35335Y18108
X35355Y19017
X35453Y21179
X35522Y9155
X35611Y6155
X35650Y13541
X35908Y8923
X35937Y8403
X36102Y18128
X36220Y48228
X36280Y22163
X36621Y38856
X36654Y40608
X36673Y44880
X36715Y16041
X36752Y43817
X36988Y23384
X36988Y9252
X36988Y8878
X37185Y16612
X37598Y9646
X37598Y8465
X37618Y16061
X37657Y17242
X37795Y10529
X37815Y18187
X37847Y20160
X37992Y8917
X38012Y43895
X38051Y14958
X38130Y22163
X38287Y37242
X38563Y17262
X38563Y14447
X38602Y20903
X38720Y44722
X38799Y21376
X38878Y41297
X38917Y42793
X39193Y37281
X39272Y39053
X39370Y5906
X39390Y20982
X39429Y17872
X39433Y16041
X39469Y44132
X39508Y20293
X39705Y22163
X39744Y17557
X39941Y16651
X40157Y18701
X40335Y15943
X40531Y40825
X40535Y17344
X40748Y17872
X40846Y10785
X41004Y16691
X41152Y19536
X41194Y10284
X41275Y13585
X41287Y14391
X41358Y16888
X41358Y38935
X41392Y20454
X41398Y17951
X41752Y10510
X42106Y37242
X42106Y17714
X42126Y19506
X42240Y20950
X42323Y48622
X42382Y17321
X42437Y23486
X42500Y12321
X42579Y21336
X42618Y43580
X42657Y22163
X42697Y11454
X43042Y15467
X43071Y22111
X43366Y37281
X43524Y38580
X43642Y10825
X43720Y7399
X43795Y10069
X43799Y11651
X43799Y8029
X43839Y9328
X43839Y8580
X43878Y11199
X43917Y41179
X44256Y6733
X44311Y37281
X44508Y23049
X44637Y6811
X45059Y37321
X45079Y50197
X45295Y22281
X45413Y15313
X45413Y12872
X45413Y6809
X45429Y8059
X45689Y43994
X45748Y11907
X45768Y37321
X45925Y23462
X46232Y8692
X46240Y10077
X46240Y9328
X46280Y44250
X46594Y6848
X46713Y11218
X46937Y23206
X46983Y9518
X47028Y14722
X47146Y8502
X47421Y13226
X47461Y27675
X47461Y10588
X47500Y31573
X47500Y11888
X47507Y9926
X47539Y36100
X47539Y33069
X47539Y25903
X47539Y11179
X47579Y8927
X47657Y30785
X47776Y14801
X47810Y23285
X47886Y33650
X47933Y22380
X47935Y24496
X48184Y23285
X48248Y8265
X48285Y23718
X48287Y9250
X48307Y30152
X48327Y22360
X48386Y22970
X48642Y28025
X48760Y37281
X48957Y29407
X49075Y14565
X49114Y9289
X49154Y10667
X49213Y6496
X49409Y5512
X49423Y22335
X49508Y14447
X49514Y26177
X49665Y24998
X49705Y35864
X49705Y27636
X49919Y14486
X49941Y12675
X49941Y11888
X49941Y11100
X49980Y24053
X50059Y9289
X50413Y13699
X50650Y22321
X50768Y26454
X50768Y24447
X50768Y15155
X50807Y12636
X50807Y11888
X50807Y11100
X50807Y10155
X51280Y9014
X51516Y25903
X51516Y15195
X51634Y8659
X51673Y39643
X51713Y42163
X51713Y36769
X51713Y26612
X51719Y14136
X51831Y27714
X51831Y24762
X51831Y8226
X51870Y23384
X51870Y14801
X53150Y31496
X55512Y39567
X55709Y42126
X55709Y11024
X57480Y12598
T5
X49626Y29073
X49941Y28384
X50256Y29073
X50571Y28384
X50886Y29073
T6
X43209Y14978
X43209Y13049
X44449Y14722
X44449Y13856
X44449Y12990
X46378Y14722
X46378Y13856
X46378Y12990
X49557Y22862
X51057Y22862
X57000Y52736
X57000Y51736
X57000Y50736
X57000Y49736
X57000Y48736
X57000Y47736
T7
X52165Y34843
X53150Y34843
X54134Y34843
X55118Y34843
X56102Y34843
T8
X33996Y22124
X33996Y21124
X37185Y44388
X37185Y43388
X37185Y42388
X37185Y41388
X37185Y40388
X37185Y39388
X42657Y38502
X43730Y15736
X43907Y21838
X44459Y15736
X44508Y38502
X46407Y15736
X46427Y21838
X47175Y21838
X48868Y21838
X49154Y30352
X51122Y30352
X51152Y15736
X51329Y21838
T9
X3819Y42067
X3819Y40492
X3819Y38917
X3819Y37343
X3819Y35768
X3819Y34193
X3819Y32618
X3819Y31043
X3819Y29469
X3819Y27894
X3819Y26319
X3819Y24744
X3819Y23169
X3819Y21594
X3819Y20020
X3819Y18445
X3819Y16870
X3819Y15295
X3819Y13720
X3819Y12146
X3819Y10571
X3819Y8996
X5118Y41280
X5118Y39705
X5118Y38130
X5118Y36555
X5118Y34980
X5118Y33406
X5118Y31831
X5118Y30256
X5118Y28681
X5118Y27106
X5118Y25531
X5118Y23957
X5118Y22382
X5118Y20807
X5118Y19232
X5118Y17657
X5118Y16083
X5118Y14508
X5118Y12933
X5118Y11358
X5118Y9783
X6417Y42854
X6417Y41280
X6417Y39705
X6417Y38130
X6417Y36555
X6417Y34980
X6417Y33406
X6417Y31831
X6417Y30256
X6417Y28681
X6417Y27106
X6417Y25531
X6417Y23957
X6417Y22382
X6417Y20807
X6417Y19232
X6417Y17657
X6417Y16083
X6417Y14508
X6417Y12933
X6417Y11358
X6417Y9783
X6417Y8209
T10
X5118Y43780
X5118Y7283
T11
X52000Y54736
X52000Y45736
T12
X5906Y46850
X5906Y4213
T13
X49506Y26569
X49506Y24293
T14
X40650Y41966
X43602Y41966
T4
X49093Y27132G85X49526Y27132
G05
X49093Y23730G85X49526Y23730
G05
X50837Y27132G85X51073Y27132
G05
X50837Y23730G85X51073Y23730
G05
T5
X48819Y28472G85X48819Y28984
G05
X51693Y28472G85X51693Y28984
G05
M30
