G04 #@! TF.GenerationSoftware,KiCad,Pcbnew,8.0.9-8.0.9-0~ubuntu24.04.1*
G04 #@! TF.CreationDate,2025-12-27T20:23:21+00:00*
G04 #@! TF.ProjectId,uaefi,75616566-692e-46b6-9963-61645f706362,E*
G04 #@! TF.SameCoordinates,Original*
G04 #@! TF.FileFunction,Soldermask,Top*
G04 #@! TF.FilePolarity,Negative*
%FSLAX46Y46*%
G04 Gerber Fmt 4.6, Leading zero omitted, Abs format (unit mm)*
G04 Created by KiCad (PCBNEW 8.0.9-8.0.9-0~ubuntu24.04.1) date 2025-12-27 20:23:21*
%MOMM*%
%LPD*%
G01*
G04 APERTURE LIST*
%ADD10R,3.825000X12.320000*%
%ADD11O,1.700000X1.850000*%
%ADD12R,1.700000X1.700000*%
%ADD13O,1.700000X1.700000*%
%ADD14C,1.700000*%
%ADD15C,2.000000*%
%ADD16C,0.800000*%
%ADD17C,6.400000*%
%ADD18C,1.524000*%
%ADD19C,3.000000*%
%ADD20O,3.700000X2.700000*%
%ADD21C,0.600000*%
%ADD22C,1.500000*%
%ADD23O,0.250000X0.499999*%
%ADD24O,0.499999X0.250000*%
%ADD25C,0.599999*%
%ADD26R,2.000000X0.650000*%
%ADD27R,4.500000X8.100000*%
%ADD28R,4.500000X2.000000*%
%ADD29R,4.500000X5.000000*%
%ADD30R,2.000000X1.800000*%
%ADD31C,0.990600*%
%ADD32C,0.787400*%
%ADD33O,2.700000X3.700000*%
%ADD34R,2.400000X0.740000*%
G04 APERTURE END LIST*
G04 #@! TO.C,R121*
G36*
G01*
X161125000Y25155000D02*
X161125000Y25705000D01*
G75*
G02*
X161325000Y25905000I200000J0D01*
G01*
X161725000Y25905000D01*
G75*
G02*
X161925000Y25705000I0J-200000D01*
G01*
X161925000Y25155000D01*
G75*
G02*
X161725000Y24955000I-200000J0D01*
G01*
X161325000Y24955000D01*
G75*
G02*
X161125000Y25155000I0J200000D01*
G01*
G37*
G36*
G01*
X162775000Y25155000D02*
X162775000Y25705000D01*
G75*
G02*
X162975000Y25905000I200000J0D01*
G01*
X163375000Y25905000D01*
G75*
G02*
X163575000Y25705000I0J-200000D01*
G01*
X163575000Y25155000D01*
G75*
G02*
X163375000Y24955000I-200000J0D01*
G01*
X162975000Y24955000D01*
G75*
G02*
X162775000Y25155000I0J200000D01*
G01*
G37*
G04 #@! TD*
G04 #@! TO.C,C98*
G36*
G01*
X153105000Y32710000D02*
X153105000Y33210000D01*
G75*
G02*
X153330000Y33435000I225000J0D01*
G01*
X153780000Y33435000D01*
G75*
G02*
X154005000Y33210000I0J-225000D01*
G01*
X154005000Y32710000D01*
G75*
G02*
X153780000Y32485000I-225000J0D01*
G01*
X153330000Y32485000D01*
G75*
G02*
X153105000Y32710000I0J225000D01*
G01*
G37*
G36*
G01*
X154655000Y32710000D02*
X154655000Y33210000D01*
G75*
G02*
X154880000Y33435000I225000J0D01*
G01*
X155330000Y33435000D01*
G75*
G02*
X155555000Y33210000I0J-225000D01*
G01*
X155555000Y32710000D01*
G75*
G02*
X155330000Y32485000I-225000J0D01*
G01*
X154880000Y32485000D01*
G75*
G02*
X154655000Y32710000I0J225000D01*
G01*
G37*
G04 #@! TD*
G04 #@! TO.C,R163*
G36*
G01*
X169145000Y27665000D02*
X169145000Y28215000D01*
G75*
G02*
X169345000Y28415000I200000J0D01*
G01*
X169745000Y28415000D01*
G75*
G02*
X169945000Y28215000I0J-200000D01*
G01*
X169945000Y27665000D01*
G75*
G02*
X169745000Y27465000I-200000J0D01*
G01*
X169345000Y27465000D01*
G75*
G02*
X169145000Y27665000I0J200000D01*
G01*
G37*
G36*
G01*
X170795000Y27665000D02*
X170795000Y28215000D01*
G75*
G02*
X170995000Y28415000I200000J0D01*
G01*
X171395000Y28415000D01*
G75*
G02*
X171595000Y28215000I0J-200000D01*
G01*
X171595000Y27665000D01*
G75*
G02*
X171395000Y27465000I-200000J0D01*
G01*
X170995000Y27465000D01*
G75*
G02*
X170795000Y27665000I0J200000D01*
G01*
G37*
G04 #@! TD*
G04 #@! TO.C,R40*
G36*
G01*
X96749999Y84875000D02*
X96749999Y86125000D01*
G75*
G02*
X96849999Y86225000I100000J0D01*
G01*
X97649999Y86225000D01*
G75*
G02*
X97749999Y86125000I0J-100000D01*
G01*
X97749999Y84875000D01*
G75*
G02*
X97649999Y84775000I-100000J0D01*
G01*
X96849999Y84775000D01*
G75*
G02*
X96749999Y84875000I0J100000D01*
G01*
G37*
G36*
G01*
X98650021Y84875000D02*
X98650021Y86125000D01*
G75*
G02*
X98750021Y86225000I100000J0D01*
G01*
X99550021Y86225000D01*
G75*
G02*
X99650021Y86125000I0J-100000D01*
G01*
X99650021Y84875000D01*
G75*
G02*
X99550021Y84775000I-100000J0D01*
G01*
X98750021Y84775000D01*
G75*
G02*
X98650021Y84875000I0J100000D01*
G01*
G37*
G04 #@! TD*
G04 #@! TO.C,C100*
G36*
G01*
X153105000Y30200000D02*
X153105000Y30700000D01*
G75*
G02*
X153330000Y30925000I225000J0D01*
G01*
X153780000Y30925000D01*
G75*
G02*
X154005000Y30700000I0J-225000D01*
G01*
X154005000Y30200000D01*
G75*
G02*
X153780000Y29975000I-225000J0D01*
G01*
X153330000Y29975000D01*
G75*
G02*
X153105000Y30200000I0J225000D01*
G01*
G37*
G36*
G01*
X154655000Y30200000D02*
X154655000Y30700000D01*
G75*
G02*
X154880000Y30925000I225000J0D01*
G01*
X155330000Y30925000D01*
G75*
G02*
X155555000Y30700000I0J-225000D01*
G01*
X155555000Y30200000D01*
G75*
G02*
X155330000Y29975000I-225000J0D01*
G01*
X154880000Y29975000D01*
G75*
G02*
X154655000Y30200000I0J225000D01*
G01*
G37*
G04 #@! TD*
G04 #@! TO.C,C94*
G36*
G01*
X153105000Y42750000D02*
X153105000Y43250000D01*
G75*
G02*
X153330000Y43475000I225000J0D01*
G01*
X153780000Y43475000D01*
G75*
G02*
X154005000Y43250000I0J-225000D01*
G01*
X154005000Y42750000D01*
G75*
G02*
X153780000Y42525000I-225000J0D01*
G01*
X153330000Y42525000D01*
G75*
G02*
X153105000Y42750000I0J225000D01*
G01*
G37*
G36*
G01*
X154655000Y42750000D02*
X154655000Y43250000D01*
G75*
G02*
X154880000Y43475000I225000J0D01*
G01*
X155330000Y43475000D01*
G75*
G02*
X155555000Y43250000I0J-225000D01*
G01*
X155555000Y42750000D01*
G75*
G02*
X155330000Y42525000I-225000J0D01*
G01*
X154880000Y42525000D01*
G75*
G02*
X154655000Y42750000I0J225000D01*
G01*
G37*
G04 #@! TD*
G04 #@! TO.C,C62*
G36*
G01*
X149095000Y50280000D02*
X149095000Y50780000D01*
G75*
G02*
X149320000Y51005000I225000J0D01*
G01*
X149770000Y51005000D01*
G75*
G02*
X149995000Y50780000I0J-225000D01*
G01*
X149995000Y50280000D01*
G75*
G02*
X149770000Y50055000I-225000J0D01*
G01*
X149320000Y50055000D01*
G75*
G02*
X149095000Y50280000I0J225000D01*
G01*
G37*
G36*
G01*
X150645000Y50280000D02*
X150645000Y50780000D01*
G75*
G02*
X150870000Y51005000I225000J0D01*
G01*
X151320000Y51005000D01*
G75*
G02*
X151545000Y50780000I0J-225000D01*
G01*
X151545000Y50280000D01*
G75*
G02*
X151320000Y50055000I-225000J0D01*
G01*
X150870000Y50055000D01*
G75*
G02*
X150645000Y50280000I0J225000D01*
G01*
G37*
G04 #@! TD*
G04 #@! TO.C,D29*
G36*
G01*
X136735000Y49530000D02*
X136735000Y51330000D01*
G75*
G02*
X136985000Y51580000I250000J0D01*
G01*
X138985000Y51580000D01*
G75*
G02*
X139235000Y51330000I0J-250000D01*
G01*
X139235000Y49530000D01*
G75*
G02*
X138985000Y49280000I-250000J0D01*
G01*
X136985000Y49280000D01*
G75*
G02*
X136735000Y49530000I0J250000D01*
G01*
G37*
G36*
G01*
X141035000Y49530000D02*
X141035000Y51330000D01*
G75*
G02*
X141285000Y51580000I250000J0D01*
G01*
X143285000Y51580000D01*
G75*
G02*
X143535000Y51330000I0J-250000D01*
G01*
X143535000Y49530000D01*
G75*
G02*
X143285000Y49280000I-250000J0D01*
G01*
X141285000Y49280000D01*
G75*
G02*
X141035000Y49530000I0J250000D01*
G01*
G37*
G04 #@! TD*
G04 #@! TO.C,R147*
G36*
G01*
X169145000Y47745000D02*
X169145000Y48295000D01*
G75*
G02*
X169345000Y48495000I200000J0D01*
G01*
X169745000Y48495000D01*
G75*
G02*
X169945000Y48295000I0J-200000D01*
G01*
X169945000Y47745000D01*
G75*
G02*
X169745000Y47545000I-200000J0D01*
G01*
X169345000Y47545000D01*
G75*
G02*
X169145000Y47745000I0J200000D01*
G01*
G37*
G36*
G01*
X170795000Y47745000D02*
X170795000Y48295000D01*
G75*
G02*
X170995000Y48495000I200000J0D01*
G01*
X171395000Y48495000D01*
G75*
G02*
X171595000Y48295000I0J-200000D01*
G01*
X171595000Y47745000D01*
G75*
G02*
X171395000Y47545000I-200000J0D01*
G01*
X170995000Y47545000D01*
G75*
G02*
X170795000Y47745000I0J200000D01*
G01*
G37*
G04 #@! TD*
G04 #@! TO.C,U7*
G36*
G01*
X28775000Y75110000D02*
X28775000Y74810000D01*
G75*
G02*
X28625000Y74660000I-150000J0D01*
G01*
X26975000Y74660000D01*
G75*
G02*
X26825000Y74810000I0J150000D01*
G01*
X26825000Y75110000D01*
G75*
G02*
X26975000Y75260000I150000J0D01*
G01*
X28625000Y75260000D01*
G75*
G02*
X28775000Y75110000I0J-150000D01*
G01*
G37*
G36*
G01*
X28775000Y76380000D02*
X28775000Y76080000D01*
G75*
G02*
X28625000Y75930000I-150000J0D01*
G01*
X26975000Y75930000D01*
G75*
G02*
X26825000Y76080000I0J150000D01*
G01*
X26825000Y76380000D01*
G75*
G02*
X26975000Y76530000I150000J0D01*
G01*
X28625000Y76530000D01*
G75*
G02*
X28775000Y76380000I0J-150000D01*
G01*
G37*
G36*
G01*
X28775000Y77650000D02*
X28775000Y77350000D01*
G75*
G02*
X28625000Y77200000I-150000J0D01*
G01*
X26975000Y77200000D01*
G75*
G02*
X26825000Y77350000I0J150000D01*
G01*
X26825000Y77650000D01*
G75*
G02*
X26975000Y77800000I150000J0D01*
G01*
X28625000Y77800000D01*
G75*
G02*
X28775000Y77650000I0J-150000D01*
G01*
G37*
G36*
G01*
X28775000Y78920000D02*
X28775000Y78620000D01*
G75*
G02*
X28625000Y78470000I-150000J0D01*
G01*
X26975000Y78470000D01*
G75*
G02*
X26825000Y78620000I0J150000D01*
G01*
X26825000Y78920000D01*
G75*
G02*
X26975000Y79070000I150000J0D01*
G01*
X28625000Y79070000D01*
G75*
G02*
X28775000Y78920000I0J-150000D01*
G01*
G37*
G36*
G01*
X23825000Y78920000D02*
X23825000Y78620000D01*
G75*
G02*
X23675000Y78470000I-150000J0D01*
G01*
X22025000Y78470000D01*
G75*
G02*
X21875000Y78620000I0J150000D01*
G01*
X21875000Y78920000D01*
G75*
G02*
X22025000Y79070000I150000J0D01*
G01*
X23675000Y79070000D01*
G75*
G02*
X23825000Y78920000I0J-150000D01*
G01*
G37*
G36*
G01*
X23825000Y77650000D02*
X23825000Y77350000D01*
G75*
G02*
X23675000Y77200000I-150000J0D01*
G01*
X22025000Y77200000D01*
G75*
G02*
X21875000Y77350000I0J150000D01*
G01*
X21875000Y77650000D01*
G75*
G02*
X22025000Y77800000I150000J0D01*
G01*
X23675000Y77800000D01*
G75*
G02*
X23825000Y77650000I0J-150000D01*
G01*
G37*
G36*
G01*
X23825000Y76380000D02*
X23825000Y76080000D01*
G75*
G02*
X23675000Y75930000I-150000J0D01*
G01*
X22025000Y75930000D01*
G75*
G02*
X21875000Y76080000I0J150000D01*
G01*
X21875000Y76380000D01*
G75*
G02*
X22025000Y76530000I150000J0D01*
G01*
X23675000Y76530000D01*
G75*
G02*
X23825000Y76380000I0J-150000D01*
G01*
G37*
G36*
G01*
X23825000Y75110000D02*
X23825000Y74810000D01*
G75*
G02*
X23675000Y74660000I-150000J0D01*
G01*
X22025000Y74660000D01*
G75*
G02*
X21875000Y74810000I0J150000D01*
G01*
X21875000Y75110000D01*
G75*
G02*
X22025000Y75260000I150000J0D01*
G01*
X23675000Y75260000D01*
G75*
G02*
X23825000Y75110000I0J-150000D01*
G01*
G37*
G04 #@! TD*
G04 #@! TO.C,Q4*
G36*
G01*
X206400000Y65790000D02*
X206400000Y66490000D01*
G75*
G02*
X206650000Y66740000I250000J0D01*
G01*
X208350000Y66740000D01*
G75*
G02*
X208600000Y66490000I0J-250000D01*
G01*
X208600000Y65790000D01*
G75*
G02*
X208350000Y65540000I-250000J0D01*
G01*
X206650000Y65540000D01*
G75*
G02*
X206400000Y65790000I0J250000D01*
G01*
G37*
G36*
G01*
X210600000Y61209997D02*
X210600000Y66510003D01*
G75*
G02*
X210849997Y66760000I249997J0D01*
G01*
X216750003Y66760000D01*
G75*
G02*
X217000000Y66510003I0J-249997D01*
G01*
X217000000Y61209997D01*
G75*
G02*
X216750003Y60960000I-249997J0D01*
G01*
X210849997Y60960000D01*
G75*
G02*
X210600000Y61209997I0J249997D01*
G01*
G37*
G36*
G01*
X206400000Y61230000D02*
X206400000Y61930000D01*
G75*
G02*
X206650000Y62180000I250000J0D01*
G01*
X208350000Y62180000D01*
G75*
G02*
X208600000Y61930000I0J-250000D01*
G01*
X208600000Y61230000D01*
G75*
G02*
X208350000Y60980000I-250000J0D01*
G01*
X206650000Y60980000D01*
G75*
G02*
X206400000Y61230000I0J250000D01*
G01*
G37*
G04 #@! TD*
D10*
G04 #@! TO.C,L4*
X184677500Y42460000D03*
X200922500Y42460000D03*
G04 #@! TD*
G04 #@! TO.C,C24*
G36*
G01*
X7260000Y10215001D02*
X7940000Y10215001D01*
G75*
G02*
X8025000Y10130001I0J-85000D01*
G01*
X8025000Y9450001D01*
G75*
G02*
X7940000Y9365001I-85000J0D01*
G01*
X7260000Y9365001D01*
G75*
G02*
X7175000Y9450001I0J85000D01*
G01*
X7175000Y10130001D01*
G75*
G02*
X7260000Y10215001I85000J0D01*
G01*
G37*
G36*
G01*
X7260000Y8634999D02*
X7940000Y8634999D01*
G75*
G02*
X8025000Y8549999I0J-85000D01*
G01*
X8025000Y7869999D01*
G75*
G02*
X7940000Y7784999I-85000J0D01*
G01*
X7260000Y7784999D01*
G75*
G02*
X7175000Y7869999I0J85000D01*
G01*
X7175000Y8549999D01*
G75*
G02*
X7260000Y8634999I85000J0D01*
G01*
G37*
G04 #@! TD*
G04 #@! TO.C,R76*
G36*
G01*
X157115000Y47745000D02*
X157115000Y48295000D01*
G75*
G02*
X157315000Y48495000I200000J0D01*
G01*
X157715000Y48495000D01*
G75*
G02*
X157915000Y48295000I0J-200000D01*
G01*
X157915000Y47745000D01*
G75*
G02*
X157715000Y47545000I-200000J0D01*
G01*
X157315000Y47545000D01*
G75*
G02*
X157115000Y47745000I0J200000D01*
G01*
G37*
G36*
G01*
X158765000Y47745000D02*
X158765000Y48295000D01*
G75*
G02*
X158965000Y48495000I200000J0D01*
G01*
X159365000Y48495000D01*
G75*
G02*
X159565000Y48295000I0J-200000D01*
G01*
X159565000Y47745000D01*
G75*
G02*
X159365000Y47545000I-200000J0D01*
G01*
X158965000Y47545000D01*
G75*
G02*
X158765000Y47745000I0J200000D01*
G01*
G37*
G04 #@! TD*
G04 #@! TO.C,D19*
G36*
G01*
X136735000Y40180000D02*
X136735000Y41480000D01*
G75*
G02*
X136985000Y41730000I250000J0D01*
G01*
X138985000Y41730000D01*
G75*
G02*
X139235000Y41480000I0J-250000D01*
G01*
X139235000Y40180000D01*
G75*
G02*
X138985000Y39930000I-250000J0D01*
G01*
X136985000Y39930000D01*
G75*
G02*
X136735000Y40180000I0J250000D01*
G01*
G37*
G36*
G01*
X140735000Y40180000D02*
X140735000Y41480000D01*
G75*
G02*
X140985000Y41730000I250000J0D01*
G01*
X142985000Y41730000D01*
G75*
G02*
X143235000Y41480000I0J-250000D01*
G01*
X143235000Y40180000D01*
G75*
G02*
X142985000Y39930000I-250000J0D01*
G01*
X140985000Y39930000D01*
G75*
G02*
X140735000Y40180000I0J250000D01*
G01*
G37*
G04 #@! TD*
G04 #@! TO.C,C49*
G36*
G01*
X145085000Y30200000D02*
X145085000Y30700000D01*
G75*
G02*
X145310000Y30925000I225000J0D01*
G01*
X145760000Y30925000D01*
G75*
G02*
X145985000Y30700000I0J-225000D01*
G01*
X145985000Y30200000D01*
G75*
G02*
X145760000Y29975000I-225000J0D01*
G01*
X145310000Y29975000D01*
G75*
G02*
X145085000Y30200000I0J225000D01*
G01*
G37*
G36*
G01*
X146635000Y30200000D02*
X146635000Y30700000D01*
G75*
G02*
X146860000Y30925000I225000J0D01*
G01*
X147310000Y30925000D01*
G75*
G02*
X147535000Y30700000I0J-225000D01*
G01*
X147535000Y30200000D01*
G75*
G02*
X147310000Y29975000I-225000J0D01*
G01*
X146860000Y29975000D01*
G75*
G02*
X146635000Y30200000I0J225000D01*
G01*
G37*
G04 #@! TD*
G04 #@! TO.C,C129*
G36*
G01*
X173150000Y28735000D02*
X173150000Y29685000D01*
G75*
G02*
X173400000Y29935000I250000J0D01*
G01*
X173900000Y29935000D01*
G75*
G02*
X174150000Y29685000I0J-250000D01*
G01*
X174150000Y28735000D01*
G75*
G02*
X173900000Y28485000I-250000J0D01*
G01*
X173400000Y28485000D01*
G75*
G02*
X173150000Y28735000I0J250000D01*
G01*
G37*
G36*
G01*
X175050000Y28735000D02*
X175050000Y29685000D01*
G75*
G02*
X175300000Y29935000I250000J0D01*
G01*
X175800000Y29935000D01*
G75*
G02*
X176050000Y29685000I0J-250000D01*
G01*
X176050000Y28735000D01*
G75*
G02*
X175800000Y28485000I-250000J0D01*
G01*
X175300000Y28485000D01*
G75*
G02*
X175050000Y28735000I0J250000D01*
G01*
G37*
G04 #@! TD*
G04 #@! TO.C,R39*
G36*
G01*
X96749999Y87375000D02*
X96749999Y88625000D01*
G75*
G02*
X96849999Y88725000I100000J0D01*
G01*
X97649999Y88725000D01*
G75*
G02*
X97749999Y88625000I0J-100000D01*
G01*
X97749999Y87375000D01*
G75*
G02*
X97649999Y87275000I-100000J0D01*
G01*
X96849999Y87275000D01*
G75*
G02*
X96749999Y87375000I0J100000D01*
G01*
G37*
G36*
G01*
X98650021Y87375000D02*
X98650021Y88625000D01*
G75*
G02*
X98750021Y88725000I100000J0D01*
G01*
X99550021Y88725000D01*
G75*
G02*
X99650021Y88625000I0J-100000D01*
G01*
X99650021Y87375000D01*
G75*
G02*
X99550021Y87275000I-100000J0D01*
G01*
X98750021Y87275000D01*
G75*
G02*
X98650021Y87375000I0J100000D01*
G01*
G37*
G04 #@! TD*
G04 #@! TO.C,R118*
G36*
G01*
X161125000Y32685000D02*
X161125000Y33235000D01*
G75*
G02*
X161325000Y33435000I200000J0D01*
G01*
X161725000Y33435000D01*
G75*
G02*
X161925000Y33235000I0J-200000D01*
G01*
X161925000Y32685000D01*
G75*
G02*
X161725000Y32485000I-200000J0D01*
G01*
X161325000Y32485000D01*
G75*
G02*
X161125000Y32685000I0J200000D01*
G01*
G37*
G36*
G01*
X162775000Y32685000D02*
X162775000Y33235000D01*
G75*
G02*
X162975000Y33435000I200000J0D01*
G01*
X163375000Y33435000D01*
G75*
G02*
X163575000Y33235000I0J-200000D01*
G01*
X163575000Y32685000D01*
G75*
G02*
X163375000Y32485000I-200000J0D01*
G01*
X162975000Y32485000D01*
G75*
G02*
X162775000Y32685000I0J200000D01*
G01*
G37*
G04 #@! TD*
G04 #@! TO.C,Q10*
G36*
G01*
X28800000Y39570000D02*
X28800000Y38870000D01*
G75*
G02*
X28550000Y38620000I-250000J0D01*
G01*
X26850000Y38620000D01*
G75*
G02*
X26600000Y38870000I0J250000D01*
G01*
X26600000Y39570000D01*
G75*
G02*
X26850000Y39820000I250000J0D01*
G01*
X28550000Y39820000D01*
G75*
G02*
X28800000Y39570000I0J-250000D01*
G01*
G37*
G36*
G01*
X24600000Y44150003D02*
X24600000Y38849997D01*
G75*
G02*
X24350003Y38600000I-249997J0D01*
G01*
X18449997Y38600000D01*
G75*
G02*
X18200000Y38849997I0J249997D01*
G01*
X18200000Y44150003D01*
G75*
G02*
X18449997Y44400000I249997J0D01*
G01*
X24350003Y44400000D01*
G75*
G02*
X24600000Y44150003I0J-249997D01*
G01*
G37*
G36*
G01*
X28800000Y44130000D02*
X28800000Y43430000D01*
G75*
G02*
X28550000Y43180000I-250000J0D01*
G01*
X26850000Y43180000D01*
G75*
G02*
X26600000Y43430000I0J250000D01*
G01*
X26600000Y44130000D01*
G75*
G02*
X26850000Y44380000I250000J0D01*
G01*
X28550000Y44380000D01*
G75*
G02*
X28800000Y44130000I0J-250000D01*
G01*
G37*
G04 #@! TD*
G04 #@! TO.C,J21*
G36*
G01*
X12465000Y52075000D02*
X12465000Y53425000D01*
G75*
G02*
X12715000Y53675000I250000J0D01*
G01*
X13915000Y53675000D01*
G75*
G02*
X14165000Y53425000I0J-250000D01*
G01*
X14165000Y52075000D01*
G75*
G02*
X13915000Y51825000I-250000J0D01*
G01*
X12715000Y51825000D01*
G75*
G02*
X12465000Y52075000I0J250000D01*
G01*
G37*
D11*
X15815000Y52750000D03*
X18315000Y52750000D03*
X20815000Y52750000D03*
X23315000Y52750000D03*
G04 #@! TD*
G04 #@! TO.C,R103*
G36*
G01*
X161125000Y50255000D02*
X161125000Y50805000D01*
G75*
G02*
X161325000Y51005000I200000J0D01*
G01*
X161725000Y51005000D01*
G75*
G02*
X161925000Y50805000I0J-200000D01*
G01*
X161925000Y50255000D01*
G75*
G02*
X161725000Y50055000I-200000J0D01*
G01*
X161325000Y50055000D01*
G75*
G02*
X161125000Y50255000I0J200000D01*
G01*
G37*
G36*
G01*
X162775000Y50255000D02*
X162775000Y50805000D01*
G75*
G02*
X162975000Y51005000I200000J0D01*
G01*
X163375000Y51005000D01*
G75*
G02*
X163575000Y50805000I0J-200000D01*
G01*
X163575000Y50255000D01*
G75*
G02*
X163375000Y50055000I-200000J0D01*
G01*
X162975000Y50055000D01*
G75*
G02*
X162775000Y50255000I0J200000D01*
G01*
G37*
G04 #@! TD*
G04 #@! TO.C,Q15*
G36*
G01*
X145080000Y57735000D02*
X145080000Y58435000D01*
G75*
G02*
X145330000Y58685000I250000J0D01*
G01*
X147030000Y58685000D01*
G75*
G02*
X147280000Y58435000I0J-250000D01*
G01*
X147280000Y57735000D01*
G75*
G02*
X147030000Y57485000I-250000J0D01*
G01*
X145330000Y57485000D01*
G75*
G02*
X145080000Y57735000I0J250000D01*
G01*
G37*
G36*
G01*
X149280000Y53154997D02*
X149280000Y58455003D01*
G75*
G02*
X149529997Y58705000I249997J0D01*
G01*
X155430003Y58705000D01*
G75*
G02*
X155680000Y58455003I0J-249997D01*
G01*
X155680000Y53154997D01*
G75*
G02*
X155430003Y52905000I-249997J0D01*
G01*
X149529997Y52905000D01*
G75*
G02*
X149280000Y53154997I0J249997D01*
G01*
G37*
G36*
G01*
X145080000Y53175000D02*
X145080000Y53875000D01*
G75*
G02*
X145330000Y54125000I250000J0D01*
G01*
X147030000Y54125000D01*
G75*
G02*
X147280000Y53875000I0J-250000D01*
G01*
X147280000Y53175000D01*
G75*
G02*
X147030000Y52925000I-250000J0D01*
G01*
X145330000Y52925000D01*
G75*
G02*
X145080000Y53175000I0J250000D01*
G01*
G37*
G04 #@! TD*
D12*
G04 #@! TO.C,J10*
X60300000Y90725000D03*
D13*
X57760000Y90725000D03*
X60300000Y88185000D03*
X57760000Y88185000D03*
G04 #@! TD*
G04 #@! TO.C,U14*
G36*
G01*
X177600000Y31685000D02*
X177600000Y31985000D01*
G75*
G02*
X177750000Y32135000I150000J0D01*
G01*
X178775000Y32135000D01*
G75*
G02*
X178925000Y31985000I0J-150000D01*
G01*
X178925000Y31685000D01*
G75*
G02*
X178775000Y31535000I-150000J0D01*
G01*
X177750000Y31535000D01*
G75*
G02*
X177600000Y31685000I0J150000D01*
G01*
G37*
G36*
G01*
X177600000Y29785000D02*
X177600000Y30085000D01*
G75*
G02*
X177750000Y30235000I150000J0D01*
G01*
X178775000Y30235000D01*
G75*
G02*
X178925000Y30085000I0J-150000D01*
G01*
X178925000Y29785000D01*
G75*
G02*
X178775000Y29635000I-150000J0D01*
G01*
X177750000Y29635000D01*
G75*
G02*
X177600000Y29785000I0J150000D01*
G01*
G37*
G36*
G01*
X179875000Y30735000D02*
X179875000Y31035000D01*
G75*
G02*
X180025000Y31185000I150000J0D01*
G01*
X181050000Y31185000D01*
G75*
G02*
X181200000Y31035000I0J-150000D01*
G01*
X181200000Y30735000D01*
G75*
G02*
X181050000Y30585000I-150000J0D01*
G01*
X180025000Y30585000D01*
G75*
G02*
X179875000Y30735000I0J150000D01*
G01*
G37*
G04 #@! TD*
G04 #@! TO.C,R140*
G36*
G01*
X165135000Y30175000D02*
X165135000Y30725000D01*
G75*
G02*
X165335000Y30925000I200000J0D01*
G01*
X165735000Y30925000D01*
G75*
G02*
X165935000Y30725000I0J-200000D01*
G01*
X165935000Y30175000D01*
G75*
G02*
X165735000Y29975000I-200000J0D01*
G01*
X165335000Y29975000D01*
G75*
G02*
X165135000Y30175000I0J200000D01*
G01*
G37*
G36*
G01*
X166785000Y30175000D02*
X166785000Y30725000D01*
G75*
G02*
X166985000Y30925000I200000J0D01*
G01*
X167385000Y30925000D01*
G75*
G02*
X167585000Y30725000I0J-200000D01*
G01*
X167585000Y30175000D01*
G75*
G02*
X167385000Y29975000I-200000J0D01*
G01*
X166985000Y29975000D01*
G75*
G02*
X166785000Y30175000I0J200000D01*
G01*
G37*
G04 #@! TD*
G04 #@! TO.C,R75*
G36*
G01*
X157115000Y50255000D02*
X157115000Y50805000D01*
G75*
G02*
X157315000Y51005000I200000J0D01*
G01*
X157715000Y51005000D01*
G75*
G02*
X157915000Y50805000I0J-200000D01*
G01*
X157915000Y50255000D01*
G75*
G02*
X157715000Y50055000I-200000J0D01*
G01*
X157315000Y50055000D01*
G75*
G02*
X157115000Y50255000I0J200000D01*
G01*
G37*
G36*
G01*
X158765000Y50255000D02*
X158765000Y50805000D01*
G75*
G02*
X158965000Y51005000I200000J0D01*
G01*
X159365000Y51005000D01*
G75*
G02*
X159565000Y50805000I0J-200000D01*
G01*
X159565000Y50255000D01*
G75*
G02*
X159365000Y50055000I-200000J0D01*
G01*
X158965000Y50055000D01*
G75*
G02*
X158765000Y50255000I0J200000D01*
G01*
G37*
G04 #@! TD*
G04 #@! TO.C,C39*
G36*
G01*
X145085000Y50280000D02*
X145085000Y50780000D01*
G75*
G02*
X145310000Y51005000I225000J0D01*
G01*
X145760000Y51005000D01*
G75*
G02*
X145985000Y50780000I0J-225000D01*
G01*
X145985000Y50280000D01*
G75*
G02*
X145760000Y50055000I-225000J0D01*
G01*
X145310000Y50055000D01*
G75*
G02*
X145085000Y50280000I0J225000D01*
G01*
G37*
G36*
G01*
X146635000Y50280000D02*
X146635000Y50780000D01*
G75*
G02*
X146860000Y51005000I225000J0D01*
G01*
X147310000Y51005000D01*
G75*
G02*
X147535000Y50780000I0J-225000D01*
G01*
X147535000Y50280000D01*
G75*
G02*
X147310000Y50055000I-225000J0D01*
G01*
X146860000Y50055000D01*
G75*
G02*
X146635000Y50280000I0J225000D01*
G01*
G37*
G04 #@! TD*
G04 #@! TO.C,C91*
G36*
G01*
X153105000Y50280000D02*
X153105000Y50780000D01*
G75*
G02*
X153330000Y51005000I225000J0D01*
G01*
X153780000Y51005000D01*
G75*
G02*
X154005000Y50780000I0J-225000D01*
G01*
X154005000Y50280000D01*
G75*
G02*
X153780000Y50055000I-225000J0D01*
G01*
X153330000Y50055000D01*
G75*
G02*
X153105000Y50280000I0J225000D01*
G01*
G37*
G36*
G01*
X154655000Y50280000D02*
X154655000Y50780000D01*
G75*
G02*
X154880000Y51005000I225000J0D01*
G01*
X155330000Y51005000D01*
G75*
G02*
X155555000Y50780000I0J-225000D01*
G01*
X155555000Y50280000D01*
G75*
G02*
X155330000Y50055000I-225000J0D01*
G01*
X154880000Y50055000D01*
G75*
G02*
X154655000Y50280000I0J225000D01*
G01*
G37*
G04 #@! TD*
D14*
G04 #@! TO.C,P8*
X83200000Y19300000D03*
G04 #@! TD*
G04 #@! TO.C,C119*
G36*
G01*
X173150000Y37765000D02*
X173150000Y38715000D01*
G75*
G02*
X173400000Y38965000I250000J0D01*
G01*
X173900000Y38965000D01*
G75*
G02*
X174150000Y38715000I0J-250000D01*
G01*
X174150000Y37765000D01*
G75*
G02*
X173900000Y37515000I-250000J0D01*
G01*
X173400000Y37515000D01*
G75*
G02*
X173150000Y37765000I0J250000D01*
G01*
G37*
G36*
G01*
X175050000Y37765000D02*
X175050000Y38715000D01*
G75*
G02*
X175300000Y38965000I250000J0D01*
G01*
X175800000Y38965000D01*
G75*
G02*
X176050000Y38715000I0J-250000D01*
G01*
X176050000Y37765000D01*
G75*
G02*
X175800000Y37515000I-250000J0D01*
G01*
X175300000Y37515000D01*
G75*
G02*
X175050000Y37765000I0J250000D01*
G01*
G37*
G04 #@! TD*
D12*
G04 #@! TO.C,J20*
X13315000Y61150000D03*
D13*
X10775000Y61150000D03*
X13315000Y58610000D03*
X10775000Y58610000D03*
G04 #@! TD*
G04 #@! TO.C,D10*
G36*
G01*
X136735000Y17195000D02*
X136735000Y18395000D01*
G75*
G02*
X136985000Y18645000I250000J0D01*
G01*
X137785000Y18645000D01*
G75*
G02*
X138035000Y18395000I0J-250000D01*
G01*
X138035000Y17195000D01*
G75*
G02*
X137785000Y16945000I-250000J0D01*
G01*
X136985000Y16945000D01*
G75*
G02*
X136735000Y17195000I0J250000D01*
G01*
G37*
G36*
G01*
X140235000Y17195000D02*
X140235000Y18395000D01*
G75*
G02*
X140485000Y18645000I250000J0D01*
G01*
X141285000Y18645000D01*
G75*
G02*
X141535000Y18395000I0J-250000D01*
G01*
X141535000Y17195000D01*
G75*
G02*
X141285000Y16945000I-250000J0D01*
G01*
X140485000Y16945000D01*
G75*
G02*
X140235000Y17195000I0J250000D01*
G01*
G37*
G04 #@! TD*
D15*
G04 #@! TO.C,C121*
X123390000Y65730000D03*
X130890000Y65730000D03*
G04 #@! TD*
G04 #@! TO.C,Q3*
G36*
G01*
X206400000Y73845000D02*
X206400000Y74545000D01*
G75*
G02*
X206650000Y74795000I250000J0D01*
G01*
X208350000Y74795000D01*
G75*
G02*
X208600000Y74545000I0J-250000D01*
G01*
X208600000Y73845000D01*
G75*
G02*
X208350000Y73595000I-250000J0D01*
G01*
X206650000Y73595000D01*
G75*
G02*
X206400000Y73845000I0J250000D01*
G01*
G37*
G36*
G01*
X210600000Y69264997D02*
X210600000Y74565003D01*
G75*
G02*
X210849997Y74815000I249997J0D01*
G01*
X216750003Y74815000D01*
G75*
G02*
X217000000Y74565003I0J-249997D01*
G01*
X217000000Y69264997D01*
G75*
G02*
X216750003Y69015000I-249997J0D01*
G01*
X210849997Y69015000D01*
G75*
G02*
X210600000Y69264997I0J249997D01*
G01*
G37*
G36*
G01*
X206400000Y69285000D02*
X206400000Y69985000D01*
G75*
G02*
X206650000Y70235000I250000J0D01*
G01*
X208350000Y70235000D01*
G75*
G02*
X208600000Y69985000I0J-250000D01*
G01*
X208600000Y69285000D01*
G75*
G02*
X208350000Y69035000I-250000J0D01*
G01*
X206650000Y69035000D01*
G75*
G02*
X206400000Y69285000I0J250000D01*
G01*
G37*
G04 #@! TD*
G04 #@! TO.C,D15*
G36*
G01*
X177600000Y45560000D02*
X177600000Y45860000D01*
G75*
G02*
X177750000Y46010000I150000J0D01*
G01*
X178775000Y46010000D01*
G75*
G02*
X178925000Y45860000I0J-150000D01*
G01*
X178925000Y45560000D01*
G75*
G02*
X178775000Y45410000I-150000J0D01*
G01*
X177750000Y45410000D01*
G75*
G02*
X177600000Y45560000I0J150000D01*
G01*
G37*
G36*
G01*
X177600000Y44610000D02*
X177600000Y44910000D01*
G75*
G02*
X177750000Y45060000I150000J0D01*
G01*
X178775000Y45060000D01*
G75*
G02*
X178925000Y44910000I0J-150000D01*
G01*
X178925000Y44610000D01*
G75*
G02*
X178775000Y44460000I-150000J0D01*
G01*
X177750000Y44460000D01*
G75*
G02*
X177600000Y44610000I0J150000D01*
G01*
G37*
G36*
G01*
X177600000Y43660000D02*
X177600000Y43960000D01*
G75*
G02*
X177750000Y44110000I150000J0D01*
G01*
X178775000Y44110000D01*
G75*
G02*
X178925000Y43960000I0J-150000D01*
G01*
X178925000Y43660000D01*
G75*
G02*
X178775000Y43510000I-150000J0D01*
G01*
X177750000Y43510000D01*
G75*
G02*
X177600000Y43660000I0J150000D01*
G01*
G37*
G36*
G01*
X179875000Y43660000D02*
X179875000Y43960000D01*
G75*
G02*
X180025000Y44110000I150000J0D01*
G01*
X181050000Y44110000D01*
G75*
G02*
X181200000Y43960000I0J-150000D01*
G01*
X181200000Y43660000D01*
G75*
G02*
X181050000Y43510000I-150000J0D01*
G01*
X180025000Y43510000D01*
G75*
G02*
X179875000Y43660000I0J150000D01*
G01*
G37*
G36*
G01*
X179875000Y44610000D02*
X179875000Y44910000D01*
G75*
G02*
X180025000Y45060000I150000J0D01*
G01*
X181050000Y45060000D01*
G75*
G02*
X181200000Y44910000I0J-150000D01*
G01*
X181200000Y44610000D01*
G75*
G02*
X181050000Y44460000I-150000J0D01*
G01*
X180025000Y44460000D01*
G75*
G02*
X179875000Y44610000I0J150000D01*
G01*
G37*
G36*
G01*
X179875000Y45560000D02*
X179875000Y45860000D01*
G75*
G02*
X180025000Y46010000I150000J0D01*
G01*
X181050000Y46010000D01*
G75*
G02*
X181200000Y45860000I0J-150000D01*
G01*
X181200000Y45560000D01*
G75*
G02*
X181050000Y45410000I-150000J0D01*
G01*
X180025000Y45410000D01*
G75*
G02*
X179875000Y45560000I0J150000D01*
G01*
G37*
G04 #@! TD*
G04 #@! TO.C,Q1*
G36*
G01*
X206400000Y89955000D02*
X206400000Y90655000D01*
G75*
G02*
X206650000Y90905000I250000J0D01*
G01*
X208350000Y90905000D01*
G75*
G02*
X208600000Y90655000I0J-250000D01*
G01*
X208600000Y89955000D01*
G75*
G02*
X208350000Y89705000I-250000J0D01*
G01*
X206650000Y89705000D01*
G75*
G02*
X206400000Y89955000I0J250000D01*
G01*
G37*
G36*
G01*
X210600000Y85374997D02*
X210600000Y90675003D01*
G75*
G02*
X210849997Y90925000I249997J0D01*
G01*
X216750003Y90925000D01*
G75*
G02*
X217000000Y90675003I0J-249997D01*
G01*
X217000000Y85374997D01*
G75*
G02*
X216750003Y85125000I-249997J0D01*
G01*
X210849997Y85125000D01*
G75*
G02*
X210600000Y85374997I0J249997D01*
G01*
G37*
G36*
G01*
X206400000Y85395000D02*
X206400000Y86095000D01*
G75*
G02*
X206650000Y86345000I250000J0D01*
G01*
X208350000Y86345000D01*
G75*
G02*
X208600000Y86095000I0J-250000D01*
G01*
X208600000Y85395000D01*
G75*
G02*
X208350000Y85145000I-250000J0D01*
G01*
X206650000Y85145000D01*
G75*
G02*
X206400000Y85395000I0J250000D01*
G01*
G37*
G04 #@! TD*
D14*
G04 #@! TO.C,P5*
X41600000Y46000000D03*
G04 #@! TD*
G04 #@! TO.C,C86*
G36*
G01*
X149095000Y27690000D02*
X149095000Y28190000D01*
G75*
G02*
X149320000Y28415000I225000J0D01*
G01*
X149770000Y28415000D01*
G75*
G02*
X149995000Y28190000I0J-225000D01*
G01*
X149995000Y27690000D01*
G75*
G02*
X149770000Y27465000I-225000J0D01*
G01*
X149320000Y27465000D01*
G75*
G02*
X149095000Y27690000I0J225000D01*
G01*
G37*
G36*
G01*
X150645000Y27690000D02*
X150645000Y28190000D01*
G75*
G02*
X150870000Y28415000I225000J0D01*
G01*
X151320000Y28415000D01*
G75*
G02*
X151545000Y28190000I0J-225000D01*
G01*
X151545000Y27690000D01*
G75*
G02*
X151320000Y27465000I-225000J0D01*
G01*
X150870000Y27465000D01*
G75*
G02*
X150645000Y27690000I0J225000D01*
G01*
G37*
G04 #@! TD*
D12*
G04 #@! TO.C,J2*
X10600000Y90725000D03*
D13*
X8060000Y90725000D03*
X10600000Y88185000D03*
X8060000Y88185000D03*
G04 #@! TD*
G04 #@! TO.C,Q7*
G36*
G01*
X28800000Y60570000D02*
X28800000Y59870000D01*
G75*
G02*
X28550000Y59620000I-250000J0D01*
G01*
X26850000Y59620000D01*
G75*
G02*
X26600000Y59870000I0J250000D01*
G01*
X26600000Y60570000D01*
G75*
G02*
X26850000Y60820000I250000J0D01*
G01*
X28550000Y60820000D01*
G75*
G02*
X28800000Y60570000I0J-250000D01*
G01*
G37*
G36*
G01*
X24600000Y65150003D02*
X24600000Y59849997D01*
G75*
G02*
X24350003Y59600000I-249997J0D01*
G01*
X18449997Y59600000D01*
G75*
G02*
X18200000Y59849997I0J249997D01*
G01*
X18200000Y65150003D01*
G75*
G02*
X18449997Y65400000I249997J0D01*
G01*
X24350003Y65400000D01*
G75*
G02*
X24600000Y65150003I0J-249997D01*
G01*
G37*
G36*
G01*
X28800000Y65130000D02*
X28800000Y64430000D01*
G75*
G02*
X28550000Y64180000I-250000J0D01*
G01*
X26850000Y64180000D01*
G75*
G02*
X26600000Y64430000I0J250000D01*
G01*
X26600000Y65130000D01*
G75*
G02*
X26850000Y65380000I250000J0D01*
G01*
X28550000Y65380000D01*
G75*
G02*
X28800000Y65130000I0J-250000D01*
G01*
G37*
G04 #@! TD*
G04 #@! TO.C,Q8*
G36*
G01*
X28800000Y53570000D02*
X28800000Y52870000D01*
G75*
G02*
X28550000Y52620000I-250000J0D01*
G01*
X26850000Y52620000D01*
G75*
G02*
X26600000Y52870000I0J250000D01*
G01*
X26600000Y53570000D01*
G75*
G02*
X26850000Y53820000I250000J0D01*
G01*
X28550000Y53820000D01*
G75*
G02*
X28800000Y53570000I0J-250000D01*
G01*
G37*
G36*
G01*
X24600000Y58150003D02*
X24600000Y52849997D01*
G75*
G02*
X24350003Y52600000I-249997J0D01*
G01*
X18449997Y52600000D01*
G75*
G02*
X18200000Y52849997I0J249997D01*
G01*
X18200000Y58150003D01*
G75*
G02*
X18449997Y58400000I249997J0D01*
G01*
X24350003Y58400000D01*
G75*
G02*
X24600000Y58150003I0J-249997D01*
G01*
G37*
G36*
G01*
X28800000Y58130000D02*
X28800000Y57430000D01*
G75*
G02*
X28550000Y57180000I-250000J0D01*
G01*
X26850000Y57180000D01*
G75*
G02*
X26600000Y57430000I0J250000D01*
G01*
X26600000Y58130000D01*
G75*
G02*
X26850000Y58380000I250000J0D01*
G01*
X28550000Y58380000D01*
G75*
G02*
X28800000Y58130000I0J-250000D01*
G01*
G37*
G04 #@! TD*
G04 #@! TO.C,Q20*
G36*
G01*
X157230000Y57735000D02*
X157230000Y58435000D01*
G75*
G02*
X157480000Y58685000I250000J0D01*
G01*
X159180000Y58685000D01*
G75*
G02*
X159430000Y58435000I0J-250000D01*
G01*
X159430000Y57735000D01*
G75*
G02*
X159180000Y57485000I-250000J0D01*
G01*
X157480000Y57485000D01*
G75*
G02*
X157230000Y57735000I0J250000D01*
G01*
G37*
G36*
G01*
X161430000Y53154997D02*
X161430000Y58455003D01*
G75*
G02*
X161679997Y58705000I249997J0D01*
G01*
X167580003Y58705000D01*
G75*
G02*
X167830000Y58455003I0J-249997D01*
G01*
X167830000Y53154997D01*
G75*
G02*
X167580003Y52905000I-249997J0D01*
G01*
X161679997Y52905000D01*
G75*
G02*
X161430000Y53154997I0J249997D01*
G01*
G37*
G36*
G01*
X157230000Y53175000D02*
X157230000Y53875000D01*
G75*
G02*
X157480000Y54125000I250000J0D01*
G01*
X159180000Y54125000D01*
G75*
G02*
X159430000Y53875000I0J-250000D01*
G01*
X159430000Y53175000D01*
G75*
G02*
X159180000Y52925000I-250000J0D01*
G01*
X157480000Y52925000D01*
G75*
G02*
X157230000Y53175000I0J250000D01*
G01*
G37*
G04 #@! TD*
D12*
G04 #@! TO.C,J17*
X39190000Y89225000D03*
D13*
X39190000Y86685000D03*
X39190000Y84145000D03*
X39190000Y81605000D03*
X39190000Y79065000D03*
X39190000Y76525000D03*
G04 #@! TD*
D14*
G04 #@! TO.C,P1*
X32000000Y57500000D03*
G04 #@! TD*
G04 #@! TO.C,C26*
G36*
G01*
X23260000Y6715001D02*
X23940000Y6715001D01*
G75*
G02*
X24025000Y6630001I0J-85000D01*
G01*
X24025000Y5950001D01*
G75*
G02*
X23940000Y5865001I-85000J0D01*
G01*
X23260000Y5865001D01*
G75*
G02*
X23175000Y5950001I0J85000D01*
G01*
X23175000Y6630001D01*
G75*
G02*
X23260000Y6715001I85000J0D01*
G01*
G37*
G36*
G01*
X23260000Y5134999D02*
X23940000Y5134999D01*
G75*
G02*
X24025000Y5049999I0J-85000D01*
G01*
X24025000Y4369999D01*
G75*
G02*
X23940000Y4284999I-85000J0D01*
G01*
X23260000Y4284999D01*
G75*
G02*
X23175000Y4369999I0J85000D01*
G01*
X23175000Y5049999D01*
G75*
G02*
X23260000Y5134999I85000J0D01*
G01*
G37*
G04 #@! TD*
G04 #@! TO.C,C63*
G36*
G01*
X149095000Y47770000D02*
X149095000Y48270000D01*
G75*
G02*
X149320000Y48495000I225000J0D01*
G01*
X149770000Y48495000D01*
G75*
G02*
X149995000Y48270000I0J-225000D01*
G01*
X149995000Y47770000D01*
G75*
G02*
X149770000Y47545000I-225000J0D01*
G01*
X149320000Y47545000D01*
G75*
G02*
X149095000Y47770000I0J225000D01*
G01*
G37*
G36*
G01*
X150645000Y47770000D02*
X150645000Y48270000D01*
G75*
G02*
X150870000Y48495000I225000J0D01*
G01*
X151320000Y48495000D01*
G75*
G02*
X151545000Y48270000I0J-225000D01*
G01*
X151545000Y47770000D01*
G75*
G02*
X151320000Y47545000I-225000J0D01*
G01*
X150870000Y47545000D01*
G75*
G02*
X150645000Y47770000I0J225000D01*
G01*
G37*
G04 #@! TD*
G04 #@! TO.C,R90*
G36*
G01*
X157115000Y20135000D02*
X157115000Y20685000D01*
G75*
G02*
X157315000Y20885000I200000J0D01*
G01*
X157715000Y20885000D01*
G75*
G02*
X157915000Y20685000I0J-200000D01*
G01*
X157915000Y20135000D01*
G75*
G02*
X157715000Y19935000I-200000J0D01*
G01*
X157315000Y19935000D01*
G75*
G02*
X157115000Y20135000I0J200000D01*
G01*
G37*
G36*
G01*
X158765000Y20135000D02*
X158765000Y20685000D01*
G75*
G02*
X158965000Y20885000I200000J0D01*
G01*
X159365000Y20885000D01*
G75*
G02*
X159565000Y20685000I0J-200000D01*
G01*
X159565000Y20135000D01*
G75*
G02*
X159365000Y19935000I-200000J0D01*
G01*
X158965000Y19935000D01*
G75*
G02*
X158765000Y20135000I0J200000D01*
G01*
G37*
G04 #@! TD*
G04 #@! TO.C,C123*
G36*
G01*
X173150000Y34755000D02*
X173150000Y35705000D01*
G75*
G02*
X173400000Y35955000I250000J0D01*
G01*
X173900000Y35955000D01*
G75*
G02*
X174150000Y35705000I0J-250000D01*
G01*
X174150000Y34755000D01*
G75*
G02*
X173900000Y34505000I-250000J0D01*
G01*
X173400000Y34505000D01*
G75*
G02*
X173150000Y34755000I0J250000D01*
G01*
G37*
G36*
G01*
X175050000Y34755000D02*
X175050000Y35705000D01*
G75*
G02*
X175300000Y35955000I250000J0D01*
G01*
X175800000Y35955000D01*
G75*
G02*
X176050000Y35705000I0J-250000D01*
G01*
X176050000Y34755000D01*
G75*
G02*
X175800000Y34505000I-250000J0D01*
G01*
X175300000Y34505000D01*
G75*
G02*
X175050000Y34755000I0J250000D01*
G01*
G37*
G04 #@! TD*
G04 #@! TO.C,R126*
G36*
G01*
X165135000Y47745000D02*
X165135000Y48295000D01*
G75*
G02*
X165335000Y48495000I200000J0D01*
G01*
X165735000Y48495000D01*
G75*
G02*
X165935000Y48295000I0J-200000D01*
G01*
X165935000Y47745000D01*
G75*
G02*
X165735000Y47545000I-200000J0D01*
G01*
X165335000Y47545000D01*
G75*
G02*
X165135000Y47745000I0J200000D01*
G01*
G37*
G36*
G01*
X166785000Y47745000D02*
X166785000Y48295000D01*
G75*
G02*
X166985000Y48495000I200000J0D01*
G01*
X167385000Y48495000D01*
G75*
G02*
X167585000Y48295000I0J-200000D01*
G01*
X167585000Y47745000D01*
G75*
G02*
X167385000Y47545000I-200000J0D01*
G01*
X166985000Y47545000D01*
G75*
G02*
X166785000Y47745000I0J200000D01*
G01*
G37*
G04 #@! TD*
G04 #@! TO.C,U13*
G36*
G01*
X169380000Y73845000D02*
X169380000Y74545000D01*
G75*
G02*
X169630000Y74795000I250000J0D01*
G01*
X171330000Y74795000D01*
G75*
G02*
X171580000Y74545000I0J-250000D01*
G01*
X171580000Y73845000D01*
G75*
G02*
X171330000Y73595000I-250000J0D01*
G01*
X169630000Y73595000D01*
G75*
G02*
X169380000Y73845000I0J250000D01*
G01*
G37*
G36*
G01*
X173580000Y69264997D02*
X173580000Y74565003D01*
G75*
G02*
X173829997Y74815000I249997J0D01*
G01*
X179730003Y74815000D01*
G75*
G02*
X179980000Y74565003I0J-249997D01*
G01*
X179980000Y69264997D01*
G75*
G02*
X179730003Y69015000I-249997J0D01*
G01*
X173829997Y69015000D01*
G75*
G02*
X173580000Y69264997I0J249997D01*
G01*
G37*
G36*
G01*
X169380000Y69285000D02*
X169380000Y69985000D01*
G75*
G02*
X169630000Y70235000I250000J0D01*
G01*
X171330000Y70235000D01*
G75*
G02*
X171580000Y69985000I0J-250000D01*
G01*
X171580000Y69285000D01*
G75*
G02*
X171330000Y69035000I-250000J0D01*
G01*
X169630000Y69035000D01*
G75*
G02*
X169380000Y69285000I0J250000D01*
G01*
G37*
G04 #@! TD*
G04 #@! TO.C,R123*
G36*
G01*
X161125000Y20135000D02*
X161125000Y20685000D01*
G75*
G02*
X161325000Y20885000I200000J0D01*
G01*
X161725000Y20885000D01*
G75*
G02*
X161925000Y20685000I0J-200000D01*
G01*
X161925000Y20135000D01*
G75*
G02*
X161725000Y19935000I-200000J0D01*
G01*
X161325000Y19935000D01*
G75*
G02*
X161125000Y20135000I0J200000D01*
G01*
G37*
G36*
G01*
X162775000Y20135000D02*
X162775000Y20685000D01*
G75*
G02*
X162975000Y20885000I200000J0D01*
G01*
X163375000Y20885000D01*
G75*
G02*
X163575000Y20685000I0J-200000D01*
G01*
X163575000Y20135000D01*
G75*
G02*
X163375000Y19935000I-200000J0D01*
G01*
X162975000Y19935000D01*
G75*
G02*
X162775000Y20135000I0J200000D01*
G01*
G37*
G04 #@! TD*
G04 #@! TO.C,R148*
G36*
G01*
X169145000Y45235000D02*
X169145000Y45785000D01*
G75*
G02*
X169345000Y45985000I200000J0D01*
G01*
X169745000Y45985000D01*
G75*
G02*
X169945000Y45785000I0J-200000D01*
G01*
X169945000Y45235000D01*
G75*
G02*
X169745000Y45035000I-200000J0D01*
G01*
X169345000Y45035000D01*
G75*
G02*
X169145000Y45235000I0J200000D01*
G01*
G37*
G36*
G01*
X170795000Y45235000D02*
X170795000Y45785000D01*
G75*
G02*
X170995000Y45985000I200000J0D01*
G01*
X171395000Y45985000D01*
G75*
G02*
X171595000Y45785000I0J-200000D01*
G01*
X171595000Y45235000D01*
G75*
G02*
X171395000Y45035000I-200000J0D01*
G01*
X170995000Y45035000D01*
G75*
G02*
X170795000Y45235000I0J200000D01*
G01*
G37*
G04 #@! TD*
G04 #@! TO.C,C92*
G36*
G01*
X153105000Y47770000D02*
X153105000Y48270000D01*
G75*
G02*
X153330000Y48495000I225000J0D01*
G01*
X153780000Y48495000D01*
G75*
G02*
X154005000Y48270000I0J-225000D01*
G01*
X154005000Y47770000D01*
G75*
G02*
X153780000Y47545000I-225000J0D01*
G01*
X153330000Y47545000D01*
G75*
G02*
X153105000Y47770000I0J225000D01*
G01*
G37*
G36*
G01*
X154655000Y47770000D02*
X154655000Y48270000D01*
G75*
G02*
X154880000Y48495000I225000J0D01*
G01*
X155330000Y48495000D01*
G75*
G02*
X155555000Y48270000I0J-225000D01*
G01*
X155555000Y47770000D01*
G75*
G02*
X155330000Y47545000I-225000J0D01*
G01*
X154880000Y47545000D01*
G75*
G02*
X154655000Y47770000I0J225000D01*
G01*
G37*
G04 #@! TD*
G04 #@! TO.C,C103*
G36*
G01*
X153105000Y25180000D02*
X153105000Y25680000D01*
G75*
G02*
X153330000Y25905000I225000J0D01*
G01*
X153780000Y25905000D01*
G75*
G02*
X154005000Y25680000I0J-225000D01*
G01*
X154005000Y25180000D01*
G75*
G02*
X153780000Y24955000I-225000J0D01*
G01*
X153330000Y24955000D01*
G75*
G02*
X153105000Y25180000I0J225000D01*
G01*
G37*
G36*
G01*
X154655000Y25180000D02*
X154655000Y25680000D01*
G75*
G02*
X154880000Y25905000I225000J0D01*
G01*
X155330000Y25905000D01*
G75*
G02*
X155555000Y25680000I0J-225000D01*
G01*
X155555000Y25180000D01*
G75*
G02*
X155330000Y24955000I-225000J0D01*
G01*
X154880000Y24955000D01*
G75*
G02*
X154655000Y25180000I0J225000D01*
G01*
G37*
G04 #@! TD*
G04 #@! TO.C,C93*
G36*
G01*
X153105000Y45260000D02*
X153105000Y45760000D01*
G75*
G02*
X153330000Y45985000I225000J0D01*
G01*
X153780000Y45985000D01*
G75*
G02*
X154005000Y45760000I0J-225000D01*
G01*
X154005000Y45260000D01*
G75*
G02*
X153780000Y45035000I-225000J0D01*
G01*
X153330000Y45035000D01*
G75*
G02*
X153105000Y45260000I0J225000D01*
G01*
G37*
G36*
G01*
X154655000Y45260000D02*
X154655000Y45760000D01*
G75*
G02*
X154880000Y45985000I225000J0D01*
G01*
X155330000Y45985000D01*
G75*
G02*
X155555000Y45760000I0J-225000D01*
G01*
X155555000Y45260000D01*
G75*
G02*
X155330000Y45035000I-225000J0D01*
G01*
X154880000Y45035000D01*
G75*
G02*
X154655000Y45260000I0J225000D01*
G01*
G37*
G04 #@! TD*
G04 #@! TO.C,Q16*
G36*
G01*
X157230000Y89955000D02*
X157230000Y90655000D01*
G75*
G02*
X157480000Y90905000I250000J0D01*
G01*
X159180000Y90905000D01*
G75*
G02*
X159430000Y90655000I0J-250000D01*
G01*
X159430000Y89955000D01*
G75*
G02*
X159180000Y89705000I-250000J0D01*
G01*
X157480000Y89705000D01*
G75*
G02*
X157230000Y89955000I0J250000D01*
G01*
G37*
G36*
G01*
X161430000Y85374997D02*
X161430000Y90675003D01*
G75*
G02*
X161679997Y90925000I249997J0D01*
G01*
X167580003Y90925000D01*
G75*
G02*
X167830000Y90675003I0J-249997D01*
G01*
X167830000Y85374997D01*
G75*
G02*
X167580003Y85125000I-249997J0D01*
G01*
X161679997Y85125000D01*
G75*
G02*
X161430000Y85374997I0J249997D01*
G01*
G37*
G36*
G01*
X157230000Y85395000D02*
X157230000Y86095000D01*
G75*
G02*
X157480000Y86345000I250000J0D01*
G01*
X159180000Y86345000D01*
G75*
G02*
X159430000Y86095000I0J-250000D01*
G01*
X159430000Y85395000D01*
G75*
G02*
X159180000Y85145000I-250000J0D01*
G01*
X157480000Y85145000D01*
G75*
G02*
X157230000Y85395000I0J250000D01*
G01*
G37*
G04 #@! TD*
G04 #@! TO.C,U15*
G36*
G01*
X182750000Y31685000D02*
X182750000Y31885000D01*
G75*
G02*
X182850000Y31985000I100000J0D01*
G01*
X184125000Y31985000D01*
G75*
G02*
X184225000Y31885000I0J-100000D01*
G01*
X184225000Y31685000D01*
G75*
G02*
X184125000Y31585000I-100000J0D01*
G01*
X182850000Y31585000D01*
G75*
G02*
X182750000Y31685000I0J100000D01*
G01*
G37*
G36*
G01*
X182750000Y31035000D02*
X182750000Y31235000D01*
G75*
G02*
X182850000Y31335000I100000J0D01*
G01*
X184125000Y31335000D01*
G75*
G02*
X184225000Y31235000I0J-100000D01*
G01*
X184225000Y31035000D01*
G75*
G02*
X184125000Y30935000I-100000J0D01*
G01*
X182850000Y30935000D01*
G75*
G02*
X182750000Y31035000I0J100000D01*
G01*
G37*
G36*
G01*
X182750000Y30385000D02*
X182750000Y30585000D01*
G75*
G02*
X182850000Y30685000I100000J0D01*
G01*
X184125000Y30685000D01*
G75*
G02*
X184225000Y30585000I0J-100000D01*
G01*
X184225000Y30385000D01*
G75*
G02*
X184125000Y30285000I-100000J0D01*
G01*
X182850000Y30285000D01*
G75*
G02*
X182750000Y30385000I0J100000D01*
G01*
G37*
G36*
G01*
X182750000Y29735000D02*
X182750000Y29935000D01*
G75*
G02*
X182850000Y30035000I100000J0D01*
G01*
X184125000Y30035000D01*
G75*
G02*
X184225000Y29935000I0J-100000D01*
G01*
X184225000Y29735000D01*
G75*
G02*
X184125000Y29635000I-100000J0D01*
G01*
X182850000Y29635000D01*
G75*
G02*
X182750000Y29735000I0J100000D01*
G01*
G37*
G36*
G01*
X182750000Y29085000D02*
X182750000Y29285000D01*
G75*
G02*
X182850000Y29385000I100000J0D01*
G01*
X184125000Y29385000D01*
G75*
G02*
X184225000Y29285000I0J-100000D01*
G01*
X184225000Y29085000D01*
G75*
G02*
X184125000Y28985000I-100000J0D01*
G01*
X182850000Y28985000D01*
G75*
G02*
X182750000Y29085000I0J100000D01*
G01*
G37*
G36*
G01*
X182750000Y28435000D02*
X182750000Y28635000D01*
G75*
G02*
X182850000Y28735000I100000J0D01*
G01*
X184125000Y28735000D01*
G75*
G02*
X184225000Y28635000I0J-100000D01*
G01*
X184225000Y28435000D01*
G75*
G02*
X184125000Y28335000I-100000J0D01*
G01*
X182850000Y28335000D01*
G75*
G02*
X182750000Y28435000I0J100000D01*
G01*
G37*
G36*
G01*
X182750000Y27785000D02*
X182750000Y27985000D01*
G75*
G02*
X182850000Y28085000I100000J0D01*
G01*
X184125000Y28085000D01*
G75*
G02*
X184225000Y27985000I0J-100000D01*
G01*
X184225000Y27785000D01*
G75*
G02*
X184125000Y27685000I-100000J0D01*
G01*
X182850000Y27685000D01*
G75*
G02*
X182750000Y27785000I0J100000D01*
G01*
G37*
G36*
G01*
X188475000Y27785000D02*
X188475000Y27985000D01*
G75*
G02*
X188575000Y28085000I100000J0D01*
G01*
X189850000Y28085000D01*
G75*
G02*
X189950000Y27985000I0J-100000D01*
G01*
X189950000Y27785000D01*
G75*
G02*
X189850000Y27685000I-100000J0D01*
G01*
X188575000Y27685000D01*
G75*
G02*
X188475000Y27785000I0J100000D01*
G01*
G37*
G36*
G01*
X188475000Y28435000D02*
X188475000Y28635000D01*
G75*
G02*
X188575000Y28735000I100000J0D01*
G01*
X189850000Y28735000D01*
G75*
G02*
X189950000Y28635000I0J-100000D01*
G01*
X189950000Y28435000D01*
G75*
G02*
X189850000Y28335000I-100000J0D01*
G01*
X188575000Y28335000D01*
G75*
G02*
X188475000Y28435000I0J100000D01*
G01*
G37*
G36*
G01*
X188475000Y29085000D02*
X188475000Y29285000D01*
G75*
G02*
X188575000Y29385000I100000J0D01*
G01*
X189850000Y29385000D01*
G75*
G02*
X189950000Y29285000I0J-100000D01*
G01*
X189950000Y29085000D01*
G75*
G02*
X189850000Y28985000I-100000J0D01*
G01*
X188575000Y28985000D01*
G75*
G02*
X188475000Y29085000I0J100000D01*
G01*
G37*
G36*
G01*
X188475000Y29735000D02*
X188475000Y29935000D01*
G75*
G02*
X188575000Y30035000I100000J0D01*
G01*
X189850000Y30035000D01*
G75*
G02*
X189950000Y29935000I0J-100000D01*
G01*
X189950000Y29735000D01*
G75*
G02*
X189850000Y29635000I-100000J0D01*
G01*
X188575000Y29635000D01*
G75*
G02*
X188475000Y29735000I0J100000D01*
G01*
G37*
G36*
G01*
X188475000Y30385000D02*
X188475000Y30585000D01*
G75*
G02*
X188575000Y30685000I100000J0D01*
G01*
X189850000Y30685000D01*
G75*
G02*
X189950000Y30585000I0J-100000D01*
G01*
X189950000Y30385000D01*
G75*
G02*
X189850000Y30285000I-100000J0D01*
G01*
X188575000Y30285000D01*
G75*
G02*
X188475000Y30385000I0J100000D01*
G01*
G37*
G36*
G01*
X188475000Y31035000D02*
X188475000Y31235000D01*
G75*
G02*
X188575000Y31335000I100000J0D01*
G01*
X189850000Y31335000D01*
G75*
G02*
X189950000Y31235000I0J-100000D01*
G01*
X189950000Y31035000D01*
G75*
G02*
X189850000Y30935000I-100000J0D01*
G01*
X188575000Y30935000D01*
G75*
G02*
X188475000Y31035000I0J100000D01*
G01*
G37*
G36*
G01*
X188475000Y31685000D02*
X188475000Y31885000D01*
G75*
G02*
X188575000Y31985000I100000J0D01*
G01*
X189850000Y31985000D01*
G75*
G02*
X189950000Y31885000I0J-100000D01*
G01*
X189950000Y31685000D01*
G75*
G02*
X189850000Y31585000I-100000J0D01*
G01*
X188575000Y31585000D01*
G75*
G02*
X188475000Y31685000I0J100000D01*
G01*
G37*
G04 #@! TD*
G04 #@! TO.C,R166*
G36*
G01*
X136695000Y10565000D02*
X136695000Y11815000D01*
G75*
G02*
X136945000Y12065000I250000J0D01*
G01*
X137570000Y12065000D01*
G75*
G02*
X137820000Y11815000I0J-250000D01*
G01*
X137820000Y10565000D01*
G75*
G02*
X137570000Y10315000I-250000J0D01*
G01*
X136945000Y10315000D01*
G75*
G02*
X136695000Y10565000I0J250000D01*
G01*
G37*
G36*
G01*
X139620000Y10565000D02*
X139620000Y11815000D01*
G75*
G02*
X139870000Y12065000I250000J0D01*
G01*
X140495000Y12065000D01*
G75*
G02*
X140745000Y11815000I0J-250000D01*
G01*
X140745000Y10565000D01*
G75*
G02*
X140495000Y10315000I-250000J0D01*
G01*
X139870000Y10315000D01*
G75*
G02*
X139620000Y10565000I0J250000D01*
G01*
G37*
G04 #@! TD*
G04 #@! TO.C,R1*
G36*
G01*
X36082497Y80315000D02*
X36082497Y79535000D01*
G75*
G02*
X36012497Y79465000I-70000J0D01*
G01*
X35452497Y79465000D01*
G75*
G02*
X35382497Y79535000I0J70000D01*
G01*
X35382497Y80315000D01*
G75*
G02*
X35452497Y80385000I70000J0D01*
G01*
X36012497Y80385000D01*
G75*
G02*
X36082497Y80315000I0J-70000D01*
G01*
G37*
G36*
G01*
X34482497Y80315000D02*
X34482497Y79535000D01*
G75*
G02*
X34412497Y79465000I-70000J0D01*
G01*
X33852497Y79465000D01*
G75*
G02*
X33782497Y79535000I0J70000D01*
G01*
X33782497Y80315000D01*
G75*
G02*
X33852497Y80385000I70000J0D01*
G01*
X34412497Y80385000D01*
G75*
G02*
X34482497Y80315000I0J-70000D01*
G01*
G37*
G04 #@! TD*
G04 #@! TO.C,C67*
G36*
G01*
X149095000Y37730000D02*
X149095000Y38230000D01*
G75*
G02*
X149320000Y38455000I225000J0D01*
G01*
X149770000Y38455000D01*
G75*
G02*
X149995000Y38230000I0J-225000D01*
G01*
X149995000Y37730000D01*
G75*
G02*
X149770000Y37505000I-225000J0D01*
G01*
X149320000Y37505000D01*
G75*
G02*
X149095000Y37730000I0J225000D01*
G01*
G37*
G36*
G01*
X150645000Y37730000D02*
X150645000Y38230000D01*
G75*
G02*
X150870000Y38455000I225000J0D01*
G01*
X151320000Y38455000D01*
G75*
G02*
X151545000Y38230000I0J-225000D01*
G01*
X151545000Y37730000D01*
G75*
G02*
X151320000Y37505000I-225000J0D01*
G01*
X150870000Y37505000D01*
G75*
G02*
X150645000Y37730000I0J225000D01*
G01*
G37*
G04 #@! TD*
G04 #@! TO.C,R77*
G36*
G01*
X157115000Y45235000D02*
X157115000Y45785000D01*
G75*
G02*
X157315000Y45985000I200000J0D01*
G01*
X157715000Y45985000D01*
G75*
G02*
X157915000Y45785000I0J-200000D01*
G01*
X157915000Y45235000D01*
G75*
G02*
X157715000Y45035000I-200000J0D01*
G01*
X157315000Y45035000D01*
G75*
G02*
X157115000Y45235000I0J200000D01*
G01*
G37*
G36*
G01*
X158765000Y45235000D02*
X158765000Y45785000D01*
G75*
G02*
X158965000Y45985000I200000J0D01*
G01*
X159365000Y45985000D01*
G75*
G02*
X159565000Y45785000I0J-200000D01*
G01*
X159565000Y45235000D01*
G75*
G02*
X159365000Y45035000I-200000J0D01*
G01*
X158965000Y45035000D01*
G75*
G02*
X158765000Y45235000I0J200000D01*
G01*
G37*
G04 #@! TD*
G04 #@! TO.C,C85*
G36*
G01*
X149095000Y30200000D02*
X149095000Y30700000D01*
G75*
G02*
X149320000Y30925000I225000J0D01*
G01*
X149770000Y30925000D01*
G75*
G02*
X149995000Y30700000I0J-225000D01*
G01*
X149995000Y30200000D01*
G75*
G02*
X149770000Y29975000I-225000J0D01*
G01*
X149320000Y29975000D01*
G75*
G02*
X149095000Y30200000I0J225000D01*
G01*
G37*
G36*
G01*
X150645000Y30200000D02*
X150645000Y30700000D01*
G75*
G02*
X150870000Y30925000I225000J0D01*
G01*
X151320000Y30925000D01*
G75*
G02*
X151545000Y30700000I0J-225000D01*
G01*
X151545000Y30200000D01*
G75*
G02*
X151320000Y29975000I-225000J0D01*
G01*
X150870000Y29975000D01*
G75*
G02*
X150645000Y30200000I0J225000D01*
G01*
G37*
G04 #@! TD*
G04 #@! TO.C,R80*
G36*
G01*
X157115000Y37705000D02*
X157115000Y38255000D01*
G75*
G02*
X157315000Y38455000I200000J0D01*
G01*
X157715000Y38455000D01*
G75*
G02*
X157915000Y38255000I0J-200000D01*
G01*
X157915000Y37705000D01*
G75*
G02*
X157715000Y37505000I-200000J0D01*
G01*
X157315000Y37505000D01*
G75*
G02*
X157115000Y37705000I0J200000D01*
G01*
G37*
G36*
G01*
X158765000Y37705000D02*
X158765000Y38255000D01*
G75*
G02*
X158965000Y38455000I200000J0D01*
G01*
X159365000Y38455000D01*
G75*
G02*
X159565000Y38255000I0J-200000D01*
G01*
X159565000Y37705000D01*
G75*
G02*
X159365000Y37505000I-200000J0D01*
G01*
X158965000Y37505000D01*
G75*
G02*
X158765000Y37705000I0J200000D01*
G01*
G37*
G04 #@! TD*
G04 #@! TO.C,D31*
G36*
G01*
X166665000Y12503750D02*
X166665000Y13016250D01*
G75*
G02*
X166883750Y13235000I218750J0D01*
G01*
X167321250Y13235000D01*
G75*
G02*
X167540000Y13016250I0J-218750D01*
G01*
X167540000Y12503750D01*
G75*
G02*
X167321250Y12285000I-218750J0D01*
G01*
X166883750Y12285000D01*
G75*
G02*
X166665000Y12503750I0J218750D01*
G01*
G37*
G36*
G01*
X168240000Y12503750D02*
X168240000Y13016250D01*
G75*
G02*
X168458750Y13235000I218750J0D01*
G01*
X168896250Y13235000D01*
G75*
G02*
X169115000Y13016250I0J-218750D01*
G01*
X169115000Y12503750D01*
G75*
G02*
X168896250Y12285000I-218750J0D01*
G01*
X168458750Y12285000D01*
G75*
G02*
X168240000Y12503750I0J218750D01*
G01*
G37*
G04 #@! TD*
G04 #@! TO.C,P2*
X34900000Y57500000D03*
G04 #@! TD*
D15*
G04 #@! TO.C,C130*
X123390000Y30630000D03*
X130890000Y30630000D03*
G04 #@! TD*
G04 #@! TO.C,U18*
G36*
G01*
X191500000Y30135000D02*
X191500000Y30285000D01*
G75*
G02*
X191575000Y30360000I75000J0D01*
G01*
X192900000Y30360000D01*
G75*
G02*
X192975000Y30285000I0J-75000D01*
G01*
X192975000Y30135000D01*
G75*
G02*
X192900000Y30060000I-75000J0D01*
G01*
X191575000Y30060000D01*
G75*
G02*
X191500000Y30135000I0J75000D01*
G01*
G37*
G36*
G01*
X191500000Y29635000D02*
X191500000Y29785000D01*
G75*
G02*
X191575000Y29860000I75000J0D01*
G01*
X192900000Y29860000D01*
G75*
G02*
X192975000Y29785000I0J-75000D01*
G01*
X192975000Y29635000D01*
G75*
G02*
X192900000Y29560000I-75000J0D01*
G01*
X191575000Y29560000D01*
G75*
G02*
X191500000Y29635000I0J75000D01*
G01*
G37*
G36*
G01*
X191500000Y29135000D02*
X191500000Y29285000D01*
G75*
G02*
X191575000Y29360000I75000J0D01*
G01*
X192900000Y29360000D01*
G75*
G02*
X192975000Y29285000I0J-75000D01*
G01*
X192975000Y29135000D01*
G75*
G02*
X192900000Y29060000I-75000J0D01*
G01*
X191575000Y29060000D01*
G75*
G02*
X191500000Y29135000I0J75000D01*
G01*
G37*
G36*
G01*
X191500000Y28635000D02*
X191500000Y28785000D01*
G75*
G02*
X191575000Y28860000I75000J0D01*
G01*
X192900000Y28860000D01*
G75*
G02*
X192975000Y28785000I0J-75000D01*
G01*
X192975000Y28635000D01*
G75*
G02*
X192900000Y28560000I-75000J0D01*
G01*
X191575000Y28560000D01*
G75*
G02*
X191500000Y28635000I0J75000D01*
G01*
G37*
G36*
G01*
X191500000Y28135000D02*
X191500000Y28285000D01*
G75*
G02*
X191575000Y28360000I75000J0D01*
G01*
X192900000Y28360000D01*
G75*
G02*
X192975000Y28285000I0J-75000D01*
G01*
X192975000Y28135000D01*
G75*
G02*
X192900000Y28060000I-75000J0D01*
G01*
X191575000Y28060000D01*
G75*
G02*
X191500000Y28135000I0J75000D01*
G01*
G37*
G36*
G01*
X191500000Y27635000D02*
X191500000Y27785000D01*
G75*
G02*
X191575000Y27860000I75000J0D01*
G01*
X192900000Y27860000D01*
G75*
G02*
X192975000Y27785000I0J-75000D01*
G01*
X192975000Y27635000D01*
G75*
G02*
X192900000Y27560000I-75000J0D01*
G01*
X191575000Y27560000D01*
G75*
G02*
X191500000Y27635000I0J75000D01*
G01*
G37*
G36*
G01*
X191500000Y27135000D02*
X191500000Y27285000D01*
G75*
G02*
X191575000Y27360000I75000J0D01*
G01*
X192900000Y27360000D01*
G75*
G02*
X192975000Y27285000I0J-75000D01*
G01*
X192975000Y27135000D01*
G75*
G02*
X192900000Y27060000I-75000J0D01*
G01*
X191575000Y27060000D01*
G75*
G02*
X191500000Y27135000I0J75000D01*
G01*
G37*
G36*
G01*
X191500000Y26635000D02*
X191500000Y26785000D01*
G75*
G02*
X191575000Y26860000I75000J0D01*
G01*
X192900000Y26860000D01*
G75*
G02*
X192975000Y26785000I0J-75000D01*
G01*
X192975000Y26635000D01*
G75*
G02*
X192900000Y26560000I-75000J0D01*
G01*
X191575000Y26560000D01*
G75*
G02*
X191500000Y26635000I0J75000D01*
G01*
G37*
G36*
G01*
X191500000Y26135000D02*
X191500000Y26285000D01*
G75*
G02*
X191575000Y26360000I75000J0D01*
G01*
X192900000Y26360000D01*
G75*
G02*
X192975000Y26285000I0J-75000D01*
G01*
X192975000Y26135000D01*
G75*
G02*
X192900000Y26060000I-75000J0D01*
G01*
X191575000Y26060000D01*
G75*
G02*
X191500000Y26135000I0J75000D01*
G01*
G37*
G36*
G01*
X191500000Y25635000D02*
X191500000Y25785000D01*
G75*
G02*
X191575000Y25860000I75000J0D01*
G01*
X192900000Y25860000D01*
G75*
G02*
X192975000Y25785000I0J-75000D01*
G01*
X192975000Y25635000D01*
G75*
G02*
X192900000Y25560000I-75000J0D01*
G01*
X191575000Y25560000D01*
G75*
G02*
X191500000Y25635000I0J75000D01*
G01*
G37*
G36*
G01*
X191500000Y25135000D02*
X191500000Y25285000D01*
G75*
G02*
X191575000Y25360000I75000J0D01*
G01*
X192900000Y25360000D01*
G75*
G02*
X192975000Y25285000I0J-75000D01*
G01*
X192975000Y25135000D01*
G75*
G02*
X192900000Y25060000I-75000J0D01*
G01*
X191575000Y25060000D01*
G75*
G02*
X191500000Y25135000I0J75000D01*
G01*
G37*
G36*
G01*
X191500000Y24635000D02*
X191500000Y24785000D01*
G75*
G02*
X191575000Y24860000I75000J0D01*
G01*
X192900000Y24860000D01*
G75*
G02*
X192975000Y24785000I0J-75000D01*
G01*
X192975000Y24635000D01*
G75*
G02*
X192900000Y24560000I-75000J0D01*
G01*
X191575000Y24560000D01*
G75*
G02*
X191500000Y24635000I0J75000D01*
G01*
G37*
G36*
G01*
X193500000Y22635000D02*
X193500000Y23960000D01*
G75*
G02*
X193575000Y24035000I75000J0D01*
G01*
X193725000Y24035000D01*
G75*
G02*
X193800000Y23960000I0J-75000D01*
G01*
X193800000Y22635000D01*
G75*
G02*
X193725000Y22560000I-75000J0D01*
G01*
X193575000Y22560000D01*
G75*
G02*
X193500000Y22635000I0J75000D01*
G01*
G37*
G36*
G01*
X194000000Y22635000D02*
X194000000Y23960000D01*
G75*
G02*
X194075000Y24035000I75000J0D01*
G01*
X194225000Y24035000D01*
G75*
G02*
X194300000Y23960000I0J-75000D01*
G01*
X194300000Y22635000D01*
G75*
G02*
X194225000Y22560000I-75000J0D01*
G01*
X194075000Y22560000D01*
G75*
G02*
X194000000Y22635000I0J75000D01*
G01*
G37*
G36*
G01*
X194500000Y22635000D02*
X194500000Y23960000D01*
G75*
G02*
X194575000Y24035000I75000J0D01*
G01*
X194725000Y24035000D01*
G75*
G02*
X194800000Y23960000I0J-75000D01*
G01*
X194800000Y22635000D01*
G75*
G02*
X194725000Y22560000I-75000J0D01*
G01*
X194575000Y22560000D01*
G75*
G02*
X194500000Y22635000I0J75000D01*
G01*
G37*
G36*
G01*
X195000000Y22635000D02*
X195000000Y23960000D01*
G75*
G02*
X195075000Y24035000I75000J0D01*
G01*
X195225000Y24035000D01*
G75*
G02*
X195300000Y23960000I0J-75000D01*
G01*
X195300000Y22635000D01*
G75*
G02*
X195225000Y22560000I-75000J0D01*
G01*
X195075000Y22560000D01*
G75*
G02*
X195000000Y22635000I0J75000D01*
G01*
G37*
G36*
G01*
X195500000Y22635000D02*
X195500000Y23960000D01*
G75*
G02*
X195575000Y24035000I75000J0D01*
G01*
X195725000Y24035000D01*
G75*
G02*
X195800000Y23960000I0J-75000D01*
G01*
X195800000Y22635000D01*
G75*
G02*
X195725000Y22560000I-75000J0D01*
G01*
X195575000Y22560000D01*
G75*
G02*
X195500000Y22635000I0J75000D01*
G01*
G37*
G36*
G01*
X196000000Y22635000D02*
X196000000Y23960000D01*
G75*
G02*
X196075000Y24035000I75000J0D01*
G01*
X196225000Y24035000D01*
G75*
G02*
X196300000Y23960000I0J-75000D01*
G01*
X196300000Y22635000D01*
G75*
G02*
X196225000Y22560000I-75000J0D01*
G01*
X196075000Y22560000D01*
G75*
G02*
X196000000Y22635000I0J75000D01*
G01*
G37*
G36*
G01*
X196500000Y22635000D02*
X196500000Y23960000D01*
G75*
G02*
X196575000Y24035000I75000J0D01*
G01*
X196725000Y24035000D01*
G75*
G02*
X196800000Y23960000I0J-75000D01*
G01*
X196800000Y22635000D01*
G75*
G02*
X196725000Y22560000I-75000J0D01*
G01*
X196575000Y22560000D01*
G75*
G02*
X196500000Y22635000I0J75000D01*
G01*
G37*
G36*
G01*
X197000000Y22635000D02*
X197000000Y23960000D01*
G75*
G02*
X197075000Y24035000I75000J0D01*
G01*
X197225000Y24035000D01*
G75*
G02*
X197300000Y23960000I0J-75000D01*
G01*
X197300000Y22635000D01*
G75*
G02*
X197225000Y22560000I-75000J0D01*
G01*
X197075000Y22560000D01*
G75*
G02*
X197000000Y22635000I0J75000D01*
G01*
G37*
G36*
G01*
X197500000Y22635000D02*
X197500000Y23960000D01*
G75*
G02*
X197575000Y24035000I75000J0D01*
G01*
X197725000Y24035000D01*
G75*
G02*
X197800000Y23960000I0J-75000D01*
G01*
X197800000Y22635000D01*
G75*
G02*
X197725000Y22560000I-75000J0D01*
G01*
X197575000Y22560000D01*
G75*
G02*
X197500000Y22635000I0J75000D01*
G01*
G37*
G36*
G01*
X198000000Y22635000D02*
X198000000Y23960000D01*
G75*
G02*
X198075000Y24035000I75000J0D01*
G01*
X198225000Y24035000D01*
G75*
G02*
X198300000Y23960000I0J-75000D01*
G01*
X198300000Y22635000D01*
G75*
G02*
X198225000Y22560000I-75000J0D01*
G01*
X198075000Y22560000D01*
G75*
G02*
X198000000Y22635000I0J75000D01*
G01*
G37*
G36*
G01*
X198500000Y22635000D02*
X198500000Y23960000D01*
G75*
G02*
X198575000Y24035000I75000J0D01*
G01*
X198725000Y24035000D01*
G75*
G02*
X198800000Y23960000I0J-75000D01*
G01*
X198800000Y22635000D01*
G75*
G02*
X198725000Y22560000I-75000J0D01*
G01*
X198575000Y22560000D01*
G75*
G02*
X198500000Y22635000I0J75000D01*
G01*
G37*
G36*
G01*
X199000000Y22635000D02*
X199000000Y23960000D01*
G75*
G02*
X199075000Y24035000I75000J0D01*
G01*
X199225000Y24035000D01*
G75*
G02*
X199300000Y23960000I0J-75000D01*
G01*
X199300000Y22635000D01*
G75*
G02*
X199225000Y22560000I-75000J0D01*
G01*
X199075000Y22560000D01*
G75*
G02*
X199000000Y22635000I0J75000D01*
G01*
G37*
G36*
G01*
X199825000Y24635000D02*
X199825000Y24785000D01*
G75*
G02*
X199900000Y24860000I75000J0D01*
G01*
X201225000Y24860000D01*
G75*
G02*
X201300000Y24785000I0J-75000D01*
G01*
X201300000Y24635000D01*
G75*
G02*
X201225000Y24560000I-75000J0D01*
G01*
X199900000Y24560000D01*
G75*
G02*
X199825000Y24635000I0J75000D01*
G01*
G37*
G36*
G01*
X199825000Y25135000D02*
X199825000Y25285000D01*
G75*
G02*
X199900000Y25360000I75000J0D01*
G01*
X201225000Y25360000D01*
G75*
G02*
X201300000Y25285000I0J-75000D01*
G01*
X201300000Y25135000D01*
G75*
G02*
X201225000Y25060000I-75000J0D01*
G01*
X199900000Y25060000D01*
G75*
G02*
X199825000Y25135000I0J75000D01*
G01*
G37*
G36*
G01*
X199825000Y25635000D02*
X199825000Y25785000D01*
G75*
G02*
X199900000Y25860000I75000J0D01*
G01*
X201225000Y25860000D01*
G75*
G02*
X201300000Y25785000I0J-75000D01*
G01*
X201300000Y25635000D01*
G75*
G02*
X201225000Y25560000I-75000J0D01*
G01*
X199900000Y25560000D01*
G75*
G02*
X199825000Y25635000I0J75000D01*
G01*
G37*
G36*
G01*
X199825000Y26135000D02*
X199825000Y26285000D01*
G75*
G02*
X199900000Y26360000I75000J0D01*
G01*
X201225000Y26360000D01*
G75*
G02*
X201300000Y26285000I0J-75000D01*
G01*
X201300000Y26135000D01*
G75*
G02*
X201225000Y26060000I-75000J0D01*
G01*
X199900000Y26060000D01*
G75*
G02*
X199825000Y26135000I0J75000D01*
G01*
G37*
G36*
G01*
X199825000Y26635000D02*
X199825000Y26785000D01*
G75*
G02*
X199900000Y26860000I75000J0D01*
G01*
X201225000Y26860000D01*
G75*
G02*
X201300000Y26785000I0J-75000D01*
G01*
X201300000Y26635000D01*
G75*
G02*
X201225000Y26560000I-75000J0D01*
G01*
X199900000Y26560000D01*
G75*
G02*
X199825000Y26635000I0J75000D01*
G01*
G37*
G36*
G01*
X199825000Y27135000D02*
X199825000Y27285000D01*
G75*
G02*
X199900000Y27360000I75000J0D01*
G01*
X201225000Y27360000D01*
G75*
G02*
X201300000Y27285000I0J-75000D01*
G01*
X201300000Y27135000D01*
G75*
G02*
X201225000Y27060000I-75000J0D01*
G01*
X199900000Y27060000D01*
G75*
G02*
X199825000Y27135000I0J75000D01*
G01*
G37*
G36*
G01*
X199825000Y27635000D02*
X199825000Y27785000D01*
G75*
G02*
X199900000Y27860000I75000J0D01*
G01*
X201225000Y27860000D01*
G75*
G02*
X201300000Y27785000I0J-75000D01*
G01*
X201300000Y27635000D01*
G75*
G02*
X201225000Y27560000I-75000J0D01*
G01*
X199900000Y27560000D01*
G75*
G02*
X199825000Y27635000I0J75000D01*
G01*
G37*
G36*
G01*
X199825000Y28135000D02*
X199825000Y28285000D01*
G75*
G02*
X199900000Y28360000I75000J0D01*
G01*
X201225000Y28360000D01*
G75*
G02*
X201300000Y28285000I0J-75000D01*
G01*
X201300000Y28135000D01*
G75*
G02*
X201225000Y28060000I-75000J0D01*
G01*
X199900000Y28060000D01*
G75*
G02*
X199825000Y28135000I0J75000D01*
G01*
G37*
G36*
G01*
X199825000Y28635000D02*
X199825000Y28785000D01*
G75*
G02*
X199900000Y28860000I75000J0D01*
G01*
X201225000Y28860000D01*
G75*
G02*
X201300000Y28785000I0J-75000D01*
G01*
X201300000Y28635000D01*
G75*
G02*
X201225000Y28560000I-75000J0D01*
G01*
X199900000Y28560000D01*
G75*
G02*
X199825000Y28635000I0J75000D01*
G01*
G37*
G36*
G01*
X199825000Y29135000D02*
X199825000Y29285000D01*
G75*
G02*
X199900000Y29360000I75000J0D01*
G01*
X201225000Y29360000D01*
G75*
G02*
X201300000Y29285000I0J-75000D01*
G01*
X201300000Y29135000D01*
G75*
G02*
X201225000Y29060000I-75000J0D01*
G01*
X199900000Y29060000D01*
G75*
G02*
X199825000Y29135000I0J75000D01*
G01*
G37*
G36*
G01*
X199825000Y29635000D02*
X199825000Y29785000D01*
G75*
G02*
X199900000Y29860000I75000J0D01*
G01*
X201225000Y29860000D01*
G75*
G02*
X201300000Y29785000I0J-75000D01*
G01*
X201300000Y29635000D01*
G75*
G02*
X201225000Y29560000I-75000J0D01*
G01*
X199900000Y29560000D01*
G75*
G02*
X199825000Y29635000I0J75000D01*
G01*
G37*
G36*
G01*
X199825000Y30135000D02*
X199825000Y30285000D01*
G75*
G02*
X199900000Y30360000I75000J0D01*
G01*
X201225000Y30360000D01*
G75*
G02*
X201300000Y30285000I0J-75000D01*
G01*
X201300000Y30135000D01*
G75*
G02*
X201225000Y30060000I-75000J0D01*
G01*
X199900000Y30060000D01*
G75*
G02*
X199825000Y30135000I0J75000D01*
G01*
G37*
G36*
G01*
X199000000Y30960000D02*
X199000000Y32285000D01*
G75*
G02*
X199075000Y32360000I75000J0D01*
G01*
X199225000Y32360000D01*
G75*
G02*
X199300000Y32285000I0J-75000D01*
G01*
X199300000Y30960000D01*
G75*
G02*
X199225000Y30885000I-75000J0D01*
G01*
X199075000Y30885000D01*
G75*
G02*
X199000000Y30960000I0J75000D01*
G01*
G37*
G36*
G01*
X198500000Y30960000D02*
X198500000Y32285000D01*
G75*
G02*
X198575000Y32360000I75000J0D01*
G01*
X198725000Y32360000D01*
G75*
G02*
X198800000Y32285000I0J-75000D01*
G01*
X198800000Y30960000D01*
G75*
G02*
X198725000Y30885000I-75000J0D01*
G01*
X198575000Y30885000D01*
G75*
G02*
X198500000Y30960000I0J75000D01*
G01*
G37*
G36*
G01*
X198000000Y30960000D02*
X198000000Y32285000D01*
G75*
G02*
X198075000Y32360000I75000J0D01*
G01*
X198225000Y32360000D01*
G75*
G02*
X198300000Y32285000I0J-75000D01*
G01*
X198300000Y30960000D01*
G75*
G02*
X198225000Y30885000I-75000J0D01*
G01*
X198075000Y30885000D01*
G75*
G02*
X198000000Y30960000I0J75000D01*
G01*
G37*
G36*
G01*
X197500000Y30960000D02*
X197500000Y32285000D01*
G75*
G02*
X197575000Y32360000I75000J0D01*
G01*
X197725000Y32360000D01*
G75*
G02*
X197800000Y32285000I0J-75000D01*
G01*
X197800000Y30960000D01*
G75*
G02*
X197725000Y30885000I-75000J0D01*
G01*
X197575000Y30885000D01*
G75*
G02*
X197500000Y30960000I0J75000D01*
G01*
G37*
G36*
G01*
X197000000Y30960000D02*
X197000000Y32285000D01*
G75*
G02*
X197075000Y32360000I75000J0D01*
G01*
X197225000Y32360000D01*
G75*
G02*
X197300000Y32285000I0J-75000D01*
G01*
X197300000Y30960000D01*
G75*
G02*
X197225000Y30885000I-75000J0D01*
G01*
X197075000Y30885000D01*
G75*
G02*
X197000000Y30960000I0J75000D01*
G01*
G37*
G36*
G01*
X196500000Y30960000D02*
X196500000Y32285000D01*
G75*
G02*
X196575000Y32360000I75000J0D01*
G01*
X196725000Y32360000D01*
G75*
G02*
X196800000Y32285000I0J-75000D01*
G01*
X196800000Y30960000D01*
G75*
G02*
X196725000Y30885000I-75000J0D01*
G01*
X196575000Y30885000D01*
G75*
G02*
X196500000Y30960000I0J75000D01*
G01*
G37*
G36*
G01*
X196000000Y30960000D02*
X196000000Y32285000D01*
G75*
G02*
X196075000Y32360000I75000J0D01*
G01*
X196225000Y32360000D01*
G75*
G02*
X196300000Y32285000I0J-75000D01*
G01*
X196300000Y30960000D01*
G75*
G02*
X196225000Y30885000I-75000J0D01*
G01*
X196075000Y30885000D01*
G75*
G02*
X196000000Y30960000I0J75000D01*
G01*
G37*
G36*
G01*
X195500000Y30960000D02*
X195500000Y32285000D01*
G75*
G02*
X195575000Y32360000I75000J0D01*
G01*
X195725000Y32360000D01*
G75*
G02*
X195800000Y32285000I0J-75000D01*
G01*
X195800000Y30960000D01*
G75*
G02*
X195725000Y30885000I-75000J0D01*
G01*
X195575000Y30885000D01*
G75*
G02*
X195500000Y30960000I0J75000D01*
G01*
G37*
G36*
G01*
X195000000Y30960000D02*
X195000000Y32285000D01*
G75*
G02*
X195075000Y32360000I75000J0D01*
G01*
X195225000Y32360000D01*
G75*
G02*
X195300000Y32285000I0J-75000D01*
G01*
X195300000Y30960000D01*
G75*
G02*
X195225000Y30885000I-75000J0D01*
G01*
X195075000Y30885000D01*
G75*
G02*
X195000000Y30960000I0J75000D01*
G01*
G37*
G36*
G01*
X194500000Y30960000D02*
X194500000Y32285000D01*
G75*
G02*
X194575000Y32360000I75000J0D01*
G01*
X194725000Y32360000D01*
G75*
G02*
X194800000Y32285000I0J-75000D01*
G01*
X194800000Y30960000D01*
G75*
G02*
X194725000Y30885000I-75000J0D01*
G01*
X194575000Y30885000D01*
G75*
G02*
X194500000Y30960000I0J75000D01*
G01*
G37*
G36*
G01*
X194000000Y30960000D02*
X194000000Y32285000D01*
G75*
G02*
X194075000Y32360000I75000J0D01*
G01*
X194225000Y32360000D01*
G75*
G02*
X194300000Y32285000I0J-75000D01*
G01*
X194300000Y30960000D01*
G75*
G02*
X194225000Y30885000I-75000J0D01*
G01*
X194075000Y30885000D01*
G75*
G02*
X194000000Y30960000I0J75000D01*
G01*
G37*
G36*
G01*
X193500000Y30960000D02*
X193500000Y32285000D01*
G75*
G02*
X193575000Y32360000I75000J0D01*
G01*
X193725000Y32360000D01*
G75*
G02*
X193800000Y32285000I0J-75000D01*
G01*
X193800000Y30960000D01*
G75*
G02*
X193725000Y30885000I-75000J0D01*
G01*
X193575000Y30885000D01*
G75*
G02*
X193500000Y30960000I0J75000D01*
G01*
G37*
G04 #@! TD*
G04 #@! TO.C,R106*
G36*
G01*
X161125000Y42725000D02*
X161125000Y43275000D01*
G75*
G02*
X161325000Y43475000I200000J0D01*
G01*
X161725000Y43475000D01*
G75*
G02*
X161925000Y43275000I0J-200000D01*
G01*
X161925000Y42725000D01*
G75*
G02*
X161725000Y42525000I-200000J0D01*
G01*
X161325000Y42525000D01*
G75*
G02*
X161125000Y42725000I0J200000D01*
G01*
G37*
G36*
G01*
X162775000Y42725000D02*
X162775000Y43275000D01*
G75*
G02*
X162975000Y43475000I200000J0D01*
G01*
X163375000Y43475000D01*
G75*
G02*
X163575000Y43275000I0J-200000D01*
G01*
X163575000Y42725000D01*
G75*
G02*
X163375000Y42525000I-200000J0D01*
G01*
X162975000Y42525000D01*
G75*
G02*
X162775000Y42725000I0J200000D01*
G01*
G37*
G04 #@! TD*
G04 #@! TO.C,C13*
G36*
G01*
X16385000Y16175001D02*
X17065000Y16175001D01*
G75*
G02*
X17150000Y16090001I0J-85000D01*
G01*
X17150000Y15410001D01*
G75*
G02*
X17065000Y15325001I-85000J0D01*
G01*
X16385000Y15325001D01*
G75*
G02*
X16300000Y15410001I0J85000D01*
G01*
X16300000Y16090001D01*
G75*
G02*
X16385000Y16175001I85000J0D01*
G01*
G37*
G36*
G01*
X16385000Y14594999D02*
X17065000Y14594999D01*
G75*
G02*
X17150000Y14509999I0J-85000D01*
G01*
X17150000Y13829999D01*
G75*
G02*
X17065000Y13744999I-85000J0D01*
G01*
X16385000Y13744999D01*
G75*
G02*
X16300000Y13829999I0J85000D01*
G01*
X16300000Y14509999D01*
G75*
G02*
X16385000Y14594999I85000J0D01*
G01*
G37*
G04 #@! TD*
G04 #@! TO.C,R135*
G36*
G01*
X165135000Y42725000D02*
X165135000Y43275000D01*
G75*
G02*
X165335000Y43475000I200000J0D01*
G01*
X165735000Y43475000D01*
G75*
G02*
X165935000Y43275000I0J-200000D01*
G01*
X165935000Y42725000D01*
G75*
G02*
X165735000Y42525000I-200000J0D01*
G01*
X165335000Y42525000D01*
G75*
G02*
X165135000Y42725000I0J200000D01*
G01*
G37*
G36*
G01*
X166785000Y42725000D02*
X166785000Y43275000D01*
G75*
G02*
X166985000Y43475000I200000J0D01*
G01*
X167385000Y43475000D01*
G75*
G02*
X167585000Y43275000I0J-200000D01*
G01*
X167585000Y42725000D01*
G75*
G02*
X167385000Y42525000I-200000J0D01*
G01*
X166985000Y42525000D01*
G75*
G02*
X166785000Y42725000I0J200000D01*
G01*
G37*
G04 #@! TD*
G04 #@! TO.C,U17*
G36*
G01*
X182750000Y18535000D02*
X182750000Y18735000D01*
G75*
G02*
X182850000Y18835000I100000J0D01*
G01*
X184125000Y18835000D01*
G75*
G02*
X184225000Y18735000I0J-100000D01*
G01*
X184225000Y18535000D01*
G75*
G02*
X184125000Y18435000I-100000J0D01*
G01*
X182850000Y18435000D01*
G75*
G02*
X182750000Y18535000I0J100000D01*
G01*
G37*
G36*
G01*
X182750000Y17885000D02*
X182750000Y18085000D01*
G75*
G02*
X182850000Y18185000I100000J0D01*
G01*
X184125000Y18185000D01*
G75*
G02*
X184225000Y18085000I0J-100000D01*
G01*
X184225000Y17885000D01*
G75*
G02*
X184125000Y17785000I-100000J0D01*
G01*
X182850000Y17785000D01*
G75*
G02*
X182750000Y17885000I0J100000D01*
G01*
G37*
G36*
G01*
X182750000Y17235000D02*
X182750000Y17435000D01*
G75*
G02*
X182850000Y17535000I100000J0D01*
G01*
X184125000Y17535000D01*
G75*
G02*
X184225000Y17435000I0J-100000D01*
G01*
X184225000Y17235000D01*
G75*
G02*
X184125000Y17135000I-100000J0D01*
G01*
X182850000Y17135000D01*
G75*
G02*
X182750000Y17235000I0J100000D01*
G01*
G37*
G36*
G01*
X182750000Y16585000D02*
X182750000Y16785000D01*
G75*
G02*
X182850000Y16885000I100000J0D01*
G01*
X184125000Y16885000D01*
G75*
G02*
X184225000Y16785000I0J-100000D01*
G01*
X184225000Y16585000D01*
G75*
G02*
X184125000Y16485000I-100000J0D01*
G01*
X182850000Y16485000D01*
G75*
G02*
X182750000Y16585000I0J100000D01*
G01*
G37*
G36*
G01*
X182750000Y15935000D02*
X182750000Y16135000D01*
G75*
G02*
X182850000Y16235000I100000J0D01*
G01*
X184125000Y16235000D01*
G75*
G02*
X184225000Y16135000I0J-100000D01*
G01*
X184225000Y15935000D01*
G75*
G02*
X184125000Y15835000I-100000J0D01*
G01*
X182850000Y15835000D01*
G75*
G02*
X182750000Y15935000I0J100000D01*
G01*
G37*
G36*
G01*
X182750000Y15285000D02*
X182750000Y15485000D01*
G75*
G02*
X182850000Y15585000I100000J0D01*
G01*
X184125000Y15585000D01*
G75*
G02*
X184225000Y15485000I0J-100000D01*
G01*
X184225000Y15285000D01*
G75*
G02*
X184125000Y15185000I-100000J0D01*
G01*
X182850000Y15185000D01*
G75*
G02*
X182750000Y15285000I0J100000D01*
G01*
G37*
G36*
G01*
X182750000Y14635000D02*
X182750000Y14835000D01*
G75*
G02*
X182850000Y14935000I100000J0D01*
G01*
X184125000Y14935000D01*
G75*
G02*
X184225000Y14835000I0J-100000D01*
G01*
X184225000Y14635000D01*
G75*
G02*
X184125000Y14535000I-100000J0D01*
G01*
X182850000Y14535000D01*
G75*
G02*
X182750000Y14635000I0J100000D01*
G01*
G37*
G36*
G01*
X188475000Y14635000D02*
X188475000Y14835000D01*
G75*
G02*
X188575000Y14935000I100000J0D01*
G01*
X189850000Y14935000D01*
G75*
G02*
X189950000Y14835000I0J-100000D01*
G01*
X189950000Y14635000D01*
G75*
G02*
X189850000Y14535000I-100000J0D01*
G01*
X188575000Y14535000D01*
G75*
G02*
X188475000Y14635000I0J100000D01*
G01*
G37*
G36*
G01*
X188475000Y15285000D02*
X188475000Y15485000D01*
G75*
G02*
X188575000Y15585000I100000J0D01*
G01*
X189850000Y15585000D01*
G75*
G02*
X189950000Y15485000I0J-100000D01*
G01*
X189950000Y15285000D01*
G75*
G02*
X189850000Y15185000I-100000J0D01*
G01*
X188575000Y15185000D01*
G75*
G02*
X188475000Y15285000I0J100000D01*
G01*
G37*
G36*
G01*
X188475000Y15935000D02*
X188475000Y16135000D01*
G75*
G02*
X188575000Y16235000I100000J0D01*
G01*
X189850000Y16235000D01*
G75*
G02*
X189950000Y16135000I0J-100000D01*
G01*
X189950000Y15935000D01*
G75*
G02*
X189850000Y15835000I-100000J0D01*
G01*
X188575000Y15835000D01*
G75*
G02*
X188475000Y15935000I0J100000D01*
G01*
G37*
G36*
G01*
X188475000Y16585000D02*
X188475000Y16785000D01*
G75*
G02*
X188575000Y16885000I100000J0D01*
G01*
X189850000Y16885000D01*
G75*
G02*
X189950000Y16785000I0J-100000D01*
G01*
X189950000Y16585000D01*
G75*
G02*
X189850000Y16485000I-100000J0D01*
G01*
X188575000Y16485000D01*
G75*
G02*
X188475000Y16585000I0J100000D01*
G01*
G37*
G36*
G01*
X188475000Y17235000D02*
X188475000Y17435000D01*
G75*
G02*
X188575000Y17535000I100000J0D01*
G01*
X189850000Y17535000D01*
G75*
G02*
X189950000Y17435000I0J-100000D01*
G01*
X189950000Y17235000D01*
G75*
G02*
X189850000Y17135000I-100000J0D01*
G01*
X188575000Y17135000D01*
G75*
G02*
X188475000Y17235000I0J100000D01*
G01*
G37*
G36*
G01*
X188475000Y17885000D02*
X188475000Y18085000D01*
G75*
G02*
X188575000Y18185000I100000J0D01*
G01*
X189850000Y18185000D01*
G75*
G02*
X189950000Y18085000I0J-100000D01*
G01*
X189950000Y17885000D01*
G75*
G02*
X189850000Y17785000I-100000J0D01*
G01*
X188575000Y17785000D01*
G75*
G02*
X188475000Y17885000I0J100000D01*
G01*
G37*
G36*
G01*
X188475000Y18535000D02*
X188475000Y18735000D01*
G75*
G02*
X188575000Y18835000I100000J0D01*
G01*
X189850000Y18835000D01*
G75*
G02*
X189950000Y18735000I0J-100000D01*
G01*
X189950000Y18535000D01*
G75*
G02*
X189850000Y18435000I-100000J0D01*
G01*
X188575000Y18435000D01*
G75*
G02*
X188475000Y18535000I0J100000D01*
G01*
G37*
G04 #@! TD*
D14*
G04 #@! TO.C,P15*
X5540000Y11500000D03*
G04 #@! TD*
G04 #@! TO.C,D7*
G36*
G01*
X147375000Y11120000D02*
X145375000Y11120000D01*
G75*
G02*
X145125000Y11370000I0J250000D01*
G01*
X145125000Y14170000D01*
G75*
G02*
X145375000Y14420000I250000J0D01*
G01*
X147375000Y14420000D01*
G75*
G02*
X147625000Y14170000I0J-250000D01*
G01*
X147625000Y11370000D01*
G75*
G02*
X147375000Y11120000I-250000J0D01*
G01*
G37*
G36*
G01*
X154175000Y11120000D02*
X152175000Y11120000D01*
G75*
G02*
X151925000Y11370000I0J250000D01*
G01*
X151925000Y14170000D01*
G75*
G02*
X152175000Y14420000I250000J0D01*
G01*
X154175000Y14420000D01*
G75*
G02*
X154425000Y14170000I0J-250000D01*
G01*
X154425000Y11370000D01*
G75*
G02*
X154175000Y11120000I-250000J0D01*
G01*
G37*
G04 #@! TD*
G04 #@! TO.C,R89*
G36*
G01*
X157115000Y22645000D02*
X157115000Y23195000D01*
G75*
G02*
X157315000Y23395000I200000J0D01*
G01*
X157715000Y23395000D01*
G75*
G02*
X157915000Y23195000I0J-200000D01*
G01*
X157915000Y22645000D01*
G75*
G02*
X157715000Y22445000I-200000J0D01*
G01*
X157315000Y22445000D01*
G75*
G02*
X157115000Y22645000I0J200000D01*
G01*
G37*
G36*
G01*
X158765000Y22645000D02*
X158765000Y23195000D01*
G75*
G02*
X158965000Y23395000I200000J0D01*
G01*
X159365000Y23395000D01*
G75*
G02*
X159565000Y23195000I0J-200000D01*
G01*
X159565000Y22645000D01*
G75*
G02*
X159365000Y22445000I-200000J0D01*
G01*
X158965000Y22445000D01*
G75*
G02*
X158765000Y22645000I0J200000D01*
G01*
G37*
G04 #@! TD*
G04 #@! TO.C,C47*
G36*
G01*
X145085000Y35220000D02*
X145085000Y35720000D01*
G75*
G02*
X145310000Y35945000I225000J0D01*
G01*
X145760000Y35945000D01*
G75*
G02*
X145985000Y35720000I0J-225000D01*
G01*
X145985000Y35220000D01*
G75*
G02*
X145760000Y34995000I-225000J0D01*
G01*
X145310000Y34995000D01*
G75*
G02*
X145085000Y35220000I0J225000D01*
G01*
G37*
G36*
G01*
X146635000Y35220000D02*
X146635000Y35720000D01*
G75*
G02*
X146860000Y35945000I225000J0D01*
G01*
X147310000Y35945000D01*
G75*
G02*
X147535000Y35720000I0J-225000D01*
G01*
X147535000Y35220000D01*
G75*
G02*
X147310000Y34995000I-225000J0D01*
G01*
X146860000Y34995000D01*
G75*
G02*
X146635000Y35220000I0J225000D01*
G01*
G37*
G04 #@! TD*
D16*
G04 #@! TO.C,H1*
X1100000Y96500000D03*
X1802944Y98197056D03*
X1802944Y94802944D03*
X3500000Y98900000D03*
D17*
X3500000Y96500000D03*
D16*
X3500000Y94100000D03*
X5197056Y98197056D03*
X5197056Y94802944D03*
X5900000Y96500000D03*
G04 #@! TD*
G04 #@! TO.C,R172*
G36*
G01*
X123555000Y14030000D02*
X123555000Y14930000D01*
G75*
G02*
X123805000Y15180000I250000J0D01*
G01*
X124330000Y15180000D01*
G75*
G02*
X124580000Y14930000I0J-250000D01*
G01*
X124580000Y14030000D01*
G75*
G02*
X124330000Y13780000I-250000J0D01*
G01*
X123805000Y13780000D01*
G75*
G02*
X123555000Y14030000I0J250000D01*
G01*
G37*
G36*
G01*
X125380000Y14030000D02*
X125380000Y14930000D01*
G75*
G02*
X125630000Y15180000I250000J0D01*
G01*
X126155000Y15180000D01*
G75*
G02*
X126405000Y14930000I0J-250000D01*
G01*
X126405000Y14030000D01*
G75*
G02*
X126155000Y13780000I-250000J0D01*
G01*
X125630000Y13780000D01*
G75*
G02*
X125380000Y14030000I0J250000D01*
G01*
G37*
G04 #@! TD*
G04 #@! TO.C,H4*
X94100000Y96500000D03*
X94802944Y98197056D03*
X94802944Y94802944D03*
X96500000Y98900000D03*
D17*
X96500000Y96500000D03*
D16*
X96500000Y94100000D03*
X98197056Y98197056D03*
X98197056Y94802944D03*
X98900000Y96500000D03*
G04 #@! TD*
D18*
G04 #@! TO.C,F4*
X18400000Y19450000D03*
G36*
G01*
X17500000Y18105010D02*
X17500000Y18795010D01*
G75*
G02*
X17730000Y19025010I230000J0D01*
G01*
X19070000Y19025010D01*
G75*
G02*
X19300000Y18795010I0J-230000D01*
G01*
X19300000Y18105010D01*
G75*
G02*
X19070000Y17875010I-230000J0D01*
G01*
X17730000Y17875010D01*
G75*
G02*
X17500000Y18105010I0J230000D01*
G01*
G37*
G36*
G01*
X17500000Y15204990D02*
X17500000Y15894990D01*
G75*
G02*
X17730000Y16124990I230000J0D01*
G01*
X19070000Y16124990D01*
G75*
G02*
X19300000Y15894990I0J-230000D01*
G01*
X19300000Y15204990D01*
G75*
G02*
X19070000Y14974990I-230000J0D01*
G01*
X17730000Y14974990D01*
G75*
G02*
X17500000Y15204990I0J230000D01*
G01*
G37*
X18400000Y14550000D03*
G04 #@! TD*
G04 #@! TO.C,R143*
G36*
G01*
X165135000Y22645000D02*
X165135000Y23195000D01*
G75*
G02*
X165335000Y23395000I200000J0D01*
G01*
X165735000Y23395000D01*
G75*
G02*
X165935000Y23195000I0J-200000D01*
G01*
X165935000Y22645000D01*
G75*
G02*
X165735000Y22445000I-200000J0D01*
G01*
X165335000Y22445000D01*
G75*
G02*
X165135000Y22645000I0J200000D01*
G01*
G37*
G36*
G01*
X166785000Y22645000D02*
X166785000Y23195000D01*
G75*
G02*
X166985000Y23395000I200000J0D01*
G01*
X167385000Y23395000D01*
G75*
G02*
X167585000Y23195000I0J-200000D01*
G01*
X167585000Y22645000D01*
G75*
G02*
X167385000Y22445000I-200000J0D01*
G01*
X166985000Y22445000D01*
G75*
G02*
X166785000Y22645000I0J200000D01*
G01*
G37*
G04 #@! TD*
G04 #@! TO.C,R37*
G36*
G01*
X93299999Y84875000D02*
X93299999Y86125000D01*
G75*
G02*
X93399999Y86225000I100000J0D01*
G01*
X94199999Y86225000D01*
G75*
G02*
X94299999Y86125000I0J-100000D01*
G01*
X94299999Y84875000D01*
G75*
G02*
X94199999Y84775000I-100000J0D01*
G01*
X93399999Y84775000D01*
G75*
G02*
X93299999Y84875000I0J100000D01*
G01*
G37*
G36*
G01*
X95200021Y84875000D02*
X95200021Y86125000D01*
G75*
G02*
X95300021Y86225000I100000J0D01*
G01*
X96100021Y86225000D01*
G75*
G02*
X96200021Y86125000I0J-100000D01*
G01*
X96200021Y84875000D01*
G75*
G02*
X96100021Y84775000I-100000J0D01*
G01*
X95300021Y84775000D01*
G75*
G02*
X95200021Y84875000I0J100000D01*
G01*
G37*
G04 #@! TD*
G04 #@! TO.C,Q2*
G36*
G01*
X206400000Y81900000D02*
X206400000Y82600000D01*
G75*
G02*
X206650000Y82850000I250000J0D01*
G01*
X208350000Y82850000D01*
G75*
G02*
X208600000Y82600000I0J-250000D01*
G01*
X208600000Y81900000D01*
G75*
G02*
X208350000Y81650000I-250000J0D01*
G01*
X206650000Y81650000D01*
G75*
G02*
X206400000Y81900000I0J250000D01*
G01*
G37*
G36*
G01*
X210600000Y77319997D02*
X210600000Y82620003D01*
G75*
G02*
X210849997Y82870000I249997J0D01*
G01*
X216750003Y82870000D01*
G75*
G02*
X217000000Y82620003I0J-249997D01*
G01*
X217000000Y77319997D01*
G75*
G02*
X216750003Y77070000I-249997J0D01*
G01*
X210849997Y77070000D01*
G75*
G02*
X210600000Y77319997I0J249997D01*
G01*
G37*
G36*
G01*
X206400000Y77340000D02*
X206400000Y78040000D01*
G75*
G02*
X206650000Y78290000I250000J0D01*
G01*
X208350000Y78290000D01*
G75*
G02*
X208600000Y78040000I0J-250000D01*
G01*
X208600000Y77340000D01*
G75*
G02*
X208350000Y77090000I-250000J0D01*
G01*
X206650000Y77090000D01*
G75*
G02*
X206400000Y77340000I0J250000D01*
G01*
G37*
G04 #@! TD*
G04 #@! TO.C,R105*
G36*
G01*
X161125000Y45235000D02*
X161125000Y45785000D01*
G75*
G02*
X161325000Y45985000I200000J0D01*
G01*
X161725000Y45985000D01*
G75*
G02*
X161925000Y45785000I0J-200000D01*
G01*
X161925000Y45235000D01*
G75*
G02*
X161725000Y45035000I-200000J0D01*
G01*
X161325000Y45035000D01*
G75*
G02*
X161125000Y45235000I0J200000D01*
G01*
G37*
G36*
G01*
X162775000Y45235000D02*
X162775000Y45785000D01*
G75*
G02*
X162975000Y45985000I200000J0D01*
G01*
X163375000Y45985000D01*
G75*
G02*
X163575000Y45785000I0J-200000D01*
G01*
X163575000Y45235000D01*
G75*
G02*
X163375000Y45035000I-200000J0D01*
G01*
X162975000Y45035000D01*
G75*
G02*
X162775000Y45235000I0J200000D01*
G01*
G37*
G04 #@! TD*
G04 #@! TO.C,R175*
G36*
G01*
X127965000Y14030000D02*
X127965000Y14930000D01*
G75*
G02*
X128215000Y15180000I250000J0D01*
G01*
X128740000Y15180000D01*
G75*
G02*
X128990000Y14930000I0J-250000D01*
G01*
X128990000Y14030000D01*
G75*
G02*
X128740000Y13780000I-250000J0D01*
G01*
X128215000Y13780000D01*
G75*
G02*
X127965000Y14030000I0J250000D01*
G01*
G37*
G36*
G01*
X129790000Y14030000D02*
X129790000Y14930000D01*
G75*
G02*
X130040000Y15180000I250000J0D01*
G01*
X130565000Y15180000D01*
G75*
G02*
X130815000Y14930000I0J-250000D01*
G01*
X130815000Y14030000D01*
G75*
G02*
X130565000Y13780000I-250000J0D01*
G01*
X130040000Y13780000D01*
G75*
G02*
X129790000Y14030000I0J250000D01*
G01*
G37*
G04 #@! TD*
G04 #@! TO.C,C11*
G36*
G01*
X1260000Y18515001D02*
X1940000Y18515001D01*
G75*
G02*
X2025000Y18430001I0J-85000D01*
G01*
X2025000Y17750001D01*
G75*
G02*
X1940000Y17665001I-85000J0D01*
G01*
X1260000Y17665001D01*
G75*
G02*
X1175000Y17750001I0J85000D01*
G01*
X1175000Y18430001D01*
G75*
G02*
X1260000Y18515001I85000J0D01*
G01*
G37*
G36*
G01*
X1260000Y16934999D02*
X1940000Y16934999D01*
G75*
G02*
X2025000Y16849999I0J-85000D01*
G01*
X2025000Y16169999D01*
G75*
G02*
X1940000Y16084999I-85000J0D01*
G01*
X1260000Y16084999D01*
G75*
G02*
X1175000Y16169999I0J85000D01*
G01*
X1175000Y16849999D01*
G75*
G02*
X1260000Y16934999I85000J0D01*
G01*
G37*
G04 #@! TD*
G04 #@! TO.C,U16*
G36*
G01*
X182750000Y25110000D02*
X182750000Y25310000D01*
G75*
G02*
X182850000Y25410000I100000J0D01*
G01*
X184125000Y25410000D01*
G75*
G02*
X184225000Y25310000I0J-100000D01*
G01*
X184225000Y25110000D01*
G75*
G02*
X184125000Y25010000I-100000J0D01*
G01*
X182850000Y25010000D01*
G75*
G02*
X182750000Y25110000I0J100000D01*
G01*
G37*
G36*
G01*
X182750000Y24460000D02*
X182750000Y24660000D01*
G75*
G02*
X182850000Y24760000I100000J0D01*
G01*
X184125000Y24760000D01*
G75*
G02*
X184225000Y24660000I0J-100000D01*
G01*
X184225000Y24460000D01*
G75*
G02*
X184125000Y24360000I-100000J0D01*
G01*
X182850000Y24360000D01*
G75*
G02*
X182750000Y24460000I0J100000D01*
G01*
G37*
G36*
G01*
X182750000Y23810000D02*
X182750000Y24010000D01*
G75*
G02*
X182850000Y24110000I100000J0D01*
G01*
X184125000Y24110000D01*
G75*
G02*
X184225000Y24010000I0J-100000D01*
G01*
X184225000Y23810000D01*
G75*
G02*
X184125000Y23710000I-100000J0D01*
G01*
X182850000Y23710000D01*
G75*
G02*
X182750000Y23810000I0J100000D01*
G01*
G37*
G36*
G01*
X182750000Y23160000D02*
X182750000Y23360000D01*
G75*
G02*
X182850000Y23460000I100000J0D01*
G01*
X184125000Y23460000D01*
G75*
G02*
X184225000Y23360000I0J-100000D01*
G01*
X184225000Y23160000D01*
G75*
G02*
X184125000Y23060000I-100000J0D01*
G01*
X182850000Y23060000D01*
G75*
G02*
X182750000Y23160000I0J100000D01*
G01*
G37*
G36*
G01*
X182750000Y22510000D02*
X182750000Y22710000D01*
G75*
G02*
X182850000Y22810000I100000J0D01*
G01*
X184125000Y22810000D01*
G75*
G02*
X184225000Y22710000I0J-100000D01*
G01*
X184225000Y22510000D01*
G75*
G02*
X184125000Y22410000I-100000J0D01*
G01*
X182850000Y22410000D01*
G75*
G02*
X182750000Y22510000I0J100000D01*
G01*
G37*
G36*
G01*
X182750000Y21860000D02*
X182750000Y22060000D01*
G75*
G02*
X182850000Y22160000I100000J0D01*
G01*
X184125000Y22160000D01*
G75*
G02*
X184225000Y22060000I0J-100000D01*
G01*
X184225000Y21860000D01*
G75*
G02*
X184125000Y21760000I-100000J0D01*
G01*
X182850000Y21760000D01*
G75*
G02*
X182750000Y21860000I0J100000D01*
G01*
G37*
G36*
G01*
X182750000Y21210000D02*
X182750000Y21410000D01*
G75*
G02*
X182850000Y21510000I100000J0D01*
G01*
X184125000Y21510000D01*
G75*
G02*
X184225000Y21410000I0J-100000D01*
G01*
X184225000Y21210000D01*
G75*
G02*
X184125000Y21110000I-100000J0D01*
G01*
X182850000Y21110000D01*
G75*
G02*
X182750000Y21210000I0J100000D01*
G01*
G37*
G36*
G01*
X188475000Y21210000D02*
X188475000Y21410000D01*
G75*
G02*
X188575000Y21510000I100000J0D01*
G01*
X189850000Y21510000D01*
G75*
G02*
X189950000Y21410000I0J-100000D01*
G01*
X189950000Y21210000D01*
G75*
G02*
X189850000Y21110000I-100000J0D01*
G01*
X188575000Y21110000D01*
G75*
G02*
X188475000Y21210000I0J100000D01*
G01*
G37*
G36*
G01*
X188475000Y21860000D02*
X188475000Y22060000D01*
G75*
G02*
X188575000Y22160000I100000J0D01*
G01*
X189850000Y22160000D01*
G75*
G02*
X189950000Y22060000I0J-100000D01*
G01*
X189950000Y21860000D01*
G75*
G02*
X189850000Y21760000I-100000J0D01*
G01*
X188575000Y21760000D01*
G75*
G02*
X188475000Y21860000I0J100000D01*
G01*
G37*
G36*
G01*
X188475000Y22510000D02*
X188475000Y22710000D01*
G75*
G02*
X188575000Y22810000I100000J0D01*
G01*
X189850000Y22810000D01*
G75*
G02*
X189950000Y22710000I0J-100000D01*
G01*
X189950000Y22510000D01*
G75*
G02*
X189850000Y22410000I-100000J0D01*
G01*
X188575000Y22410000D01*
G75*
G02*
X188475000Y22510000I0J100000D01*
G01*
G37*
G36*
G01*
X188475000Y23160000D02*
X188475000Y23360000D01*
G75*
G02*
X188575000Y23460000I100000J0D01*
G01*
X189850000Y23460000D01*
G75*
G02*
X189950000Y23360000I0J-100000D01*
G01*
X189950000Y23160000D01*
G75*
G02*
X189850000Y23060000I-100000J0D01*
G01*
X188575000Y23060000D01*
G75*
G02*
X188475000Y23160000I0J100000D01*
G01*
G37*
G36*
G01*
X188475000Y23810000D02*
X188475000Y24010000D01*
G75*
G02*
X188575000Y24110000I100000J0D01*
G01*
X189850000Y24110000D01*
G75*
G02*
X189950000Y24010000I0J-100000D01*
G01*
X189950000Y23810000D01*
G75*
G02*
X189850000Y23710000I-100000J0D01*
G01*
X188575000Y23710000D01*
G75*
G02*
X188475000Y23810000I0J100000D01*
G01*
G37*
G36*
G01*
X188475000Y24460000D02*
X188475000Y24660000D01*
G75*
G02*
X188575000Y24760000I100000J0D01*
G01*
X189850000Y24760000D01*
G75*
G02*
X189950000Y24660000I0J-100000D01*
G01*
X189950000Y24460000D01*
G75*
G02*
X189850000Y24360000I-100000J0D01*
G01*
X188575000Y24360000D01*
G75*
G02*
X188475000Y24460000I0J100000D01*
G01*
G37*
G36*
G01*
X188475000Y25110000D02*
X188475000Y25310000D01*
G75*
G02*
X188575000Y25410000I100000J0D01*
G01*
X189850000Y25410000D01*
G75*
G02*
X189950000Y25310000I0J-100000D01*
G01*
X189950000Y25110000D01*
G75*
G02*
X189850000Y25010000I-100000J0D01*
G01*
X188575000Y25010000D01*
G75*
G02*
X188475000Y25110000I0J100000D01*
G01*
G37*
G04 #@! TD*
G04 #@! TO.C,R168*
G36*
G01*
X119145000Y14030000D02*
X119145000Y14930000D01*
G75*
G02*
X119395000Y15180000I250000J0D01*
G01*
X119920000Y15180000D01*
G75*
G02*
X120170000Y14930000I0J-250000D01*
G01*
X120170000Y14030000D01*
G75*
G02*
X119920000Y13780000I-250000J0D01*
G01*
X119395000Y13780000D01*
G75*
G02*
X119145000Y14030000I0J250000D01*
G01*
G37*
G36*
G01*
X120970000Y14030000D02*
X120970000Y14930000D01*
G75*
G02*
X121220000Y15180000I250000J0D01*
G01*
X121745000Y15180000D01*
G75*
G02*
X121995000Y14930000I0J-250000D01*
G01*
X121995000Y14030000D01*
G75*
G02*
X121745000Y13780000I-250000J0D01*
G01*
X121220000Y13780000D01*
G75*
G02*
X120970000Y14030000I0J250000D01*
G01*
G37*
G04 #@! TD*
G04 #@! TO.C,D12*
G36*
G01*
X199275000Y87038750D02*
X199275000Y87951250D01*
G75*
G02*
X199518750Y88195000I243750J0D01*
G01*
X200006250Y88195000D01*
G75*
G02*
X200250000Y87951250I0J-243750D01*
G01*
X200250000Y87038750D01*
G75*
G02*
X200006250Y86795000I-243750J0D01*
G01*
X199518750Y86795000D01*
G75*
G02*
X199275000Y87038750I0J243750D01*
G01*
G37*
G36*
G01*
X201150000Y87038750D02*
X201150000Y87951250D01*
G75*
G02*
X201393750Y88195000I243750J0D01*
G01*
X201881250Y88195000D01*
G75*
G02*
X202125000Y87951250I0J-243750D01*
G01*
X202125000Y87038750D01*
G75*
G02*
X201881250Y86795000I-243750J0D01*
G01*
X201393750Y86795000D01*
G75*
G02*
X201150000Y87038750I0J243750D01*
G01*
G37*
G04 #@! TD*
D19*
G04 #@! TO.C,J7*
X75700000Y3000000D03*
X75700000Y15600000D03*
G36*
G01*
X84599999Y1650000D02*
X81400001Y1650000D01*
G75*
G02*
X81150000Y1900001I0J250001D01*
G01*
X81150000Y4099999D01*
G75*
G02*
X81400001Y4350000I250001J0D01*
G01*
X84599999Y4350000D01*
G75*
G02*
X84850000Y4099999I0J-250001D01*
G01*
X84850000Y1900001D01*
G75*
G02*
X84599999Y1650000I-250001J0D01*
G01*
G37*
D20*
X83000000Y7200000D03*
X83000000Y11400000D03*
X83000000Y15600000D03*
X88500000Y3000000D03*
X88500000Y7200000D03*
X88500000Y11400000D03*
X88500000Y15600000D03*
G04 #@! TD*
G04 #@! TO.C,D22*
G36*
G01*
X136735000Y88380000D02*
X136735000Y90180000D01*
G75*
G02*
X136985000Y90430000I250000J0D01*
G01*
X138985000Y90430000D01*
G75*
G02*
X139235000Y90180000I0J-250000D01*
G01*
X139235000Y88380000D01*
G75*
G02*
X138985000Y88130000I-250000J0D01*
G01*
X136985000Y88130000D01*
G75*
G02*
X136735000Y88380000I0J250000D01*
G01*
G37*
G36*
G01*
X141035000Y88380000D02*
X141035000Y90180000D01*
G75*
G02*
X141285000Y90430000I250000J0D01*
G01*
X143285000Y90430000D01*
G75*
G02*
X143535000Y90180000I0J-250000D01*
G01*
X143535000Y88380000D01*
G75*
G02*
X143285000Y88130000I-250000J0D01*
G01*
X141285000Y88130000D01*
G75*
G02*
X141035000Y88380000I0J250000D01*
G01*
G37*
G04 #@! TD*
G04 #@! TO.C,R87*
G36*
G01*
X157115000Y27665000D02*
X157115000Y28215000D01*
G75*
G02*
X157315000Y28415000I200000J0D01*
G01*
X157715000Y28415000D01*
G75*
G02*
X157915000Y28215000I0J-200000D01*
G01*
X157915000Y27665000D01*
G75*
G02*
X157715000Y27465000I-200000J0D01*
G01*
X157315000Y27465000D01*
G75*
G02*
X157115000Y27665000I0J200000D01*
G01*
G37*
G36*
G01*
X158765000Y27665000D02*
X158765000Y28215000D01*
G75*
G02*
X158965000Y28415000I200000J0D01*
G01*
X159365000Y28415000D01*
G75*
G02*
X159565000Y28215000I0J-200000D01*
G01*
X159565000Y27665000D01*
G75*
G02*
X159365000Y27465000I-200000J0D01*
G01*
X158965000Y27465000D01*
G75*
G02*
X158765000Y27665000I0J200000D01*
G01*
G37*
G04 #@! TD*
G04 #@! TO.C,C96*
G36*
G01*
X153105000Y37730000D02*
X153105000Y38230000D01*
G75*
G02*
X153330000Y38455000I225000J0D01*
G01*
X153780000Y38455000D01*
G75*
G02*
X154005000Y38230000I0J-225000D01*
G01*
X154005000Y37730000D01*
G75*
G02*
X153780000Y37505000I-225000J0D01*
G01*
X153330000Y37505000D01*
G75*
G02*
X153105000Y37730000I0J225000D01*
G01*
G37*
G36*
G01*
X154655000Y37730000D02*
X154655000Y38230000D01*
G75*
G02*
X154880000Y38455000I225000J0D01*
G01*
X155330000Y38455000D01*
G75*
G02*
X155555000Y38230000I0J-225000D01*
G01*
X155555000Y37730000D01*
G75*
G02*
X155330000Y37505000I-225000J0D01*
G01*
X154880000Y37505000D01*
G75*
G02*
X154655000Y37730000I0J225000D01*
G01*
G37*
G04 #@! TD*
D14*
G04 #@! TO.C,P4*
X62500000Y7500000D03*
G04 #@! TD*
G04 #@! TO.C,R73*
G36*
G01*
X153105000Y20135000D02*
X153105000Y20685000D01*
G75*
G02*
X153305000Y20885000I200000J0D01*
G01*
X153705000Y20885000D01*
G75*
G02*
X153905000Y20685000I0J-200000D01*
G01*
X153905000Y20135000D01*
G75*
G02*
X153705000Y19935000I-200000J0D01*
G01*
X153305000Y19935000D01*
G75*
G02*
X153105000Y20135000I0J200000D01*
G01*
G37*
G36*
G01*
X154755000Y20135000D02*
X154755000Y20685000D01*
G75*
G02*
X154955000Y20885000I200000J0D01*
G01*
X155355000Y20885000D01*
G75*
G02*
X155555000Y20685000I0J-200000D01*
G01*
X155555000Y20135000D01*
G75*
G02*
X155355000Y19935000I-200000J0D01*
G01*
X154955000Y19935000D01*
G75*
G02*
X154755000Y20135000I0J200000D01*
G01*
G37*
G04 #@! TD*
D15*
G04 #@! TO.C,C128*
X123390000Y48180000D03*
X130890000Y48180000D03*
G04 #@! TD*
G04 #@! TO.C,U12*
G36*
G01*
X186180000Y57405000D02*
X186180000Y57705000D01*
G75*
G02*
X186330000Y57855000I150000J0D01*
G01*
X187980000Y57855000D01*
G75*
G02*
X188130000Y57705000I0J-150000D01*
G01*
X188130000Y57405000D01*
G75*
G02*
X187980000Y57255000I-150000J0D01*
G01*
X186330000Y57255000D01*
G75*
G02*
X186180000Y57405000I0J150000D01*
G01*
G37*
G36*
G01*
X186180000Y56135000D02*
X186180000Y56435000D01*
G75*
G02*
X186330000Y56585000I150000J0D01*
G01*
X187980000Y56585000D01*
G75*
G02*
X188130000Y56435000I0J-150000D01*
G01*
X188130000Y56135000D01*
G75*
G02*
X187980000Y55985000I-150000J0D01*
G01*
X186330000Y55985000D01*
G75*
G02*
X186180000Y56135000I0J150000D01*
G01*
G37*
G36*
G01*
X186180000Y54865000D02*
X186180000Y55165000D01*
G75*
G02*
X186330000Y55315000I150000J0D01*
G01*
X187980000Y55315000D01*
G75*
G02*
X188130000Y55165000I0J-150000D01*
G01*
X188130000Y54865000D01*
G75*
G02*
X187980000Y54715000I-150000J0D01*
G01*
X186330000Y54715000D01*
G75*
G02*
X186180000Y54865000I0J150000D01*
G01*
G37*
G36*
G01*
X186180000Y53595000D02*
X186180000Y53895000D01*
G75*
G02*
X186330000Y54045000I150000J0D01*
G01*
X187980000Y54045000D01*
G75*
G02*
X188130000Y53895000I0J-150000D01*
G01*
X188130000Y53595000D01*
G75*
G02*
X187980000Y53445000I-150000J0D01*
G01*
X186330000Y53445000D01*
G75*
G02*
X186180000Y53595000I0J150000D01*
G01*
G37*
G36*
G01*
X191130000Y53595000D02*
X191130000Y53895000D01*
G75*
G02*
X191280000Y54045000I150000J0D01*
G01*
X192930000Y54045000D01*
G75*
G02*
X193080000Y53895000I0J-150000D01*
G01*
X193080000Y53595000D01*
G75*
G02*
X192930000Y53445000I-150000J0D01*
G01*
X191280000Y53445000D01*
G75*
G02*
X191130000Y53595000I0J150000D01*
G01*
G37*
G36*
G01*
X191130000Y54865000D02*
X191130000Y55165000D01*
G75*
G02*
X191280000Y55315000I150000J0D01*
G01*
X192930000Y55315000D01*
G75*
G02*
X193080000Y55165000I0J-150000D01*
G01*
X193080000Y54865000D01*
G75*
G02*
X192930000Y54715000I-150000J0D01*
G01*
X191280000Y54715000D01*
G75*
G02*
X191130000Y54865000I0J150000D01*
G01*
G37*
G36*
G01*
X191130000Y56135000D02*
X191130000Y56435000D01*
G75*
G02*
X191280000Y56585000I150000J0D01*
G01*
X192930000Y56585000D01*
G75*
G02*
X193080000Y56435000I0J-150000D01*
G01*
X193080000Y56135000D01*
G75*
G02*
X192930000Y55985000I-150000J0D01*
G01*
X191280000Y55985000D01*
G75*
G02*
X191130000Y56135000I0J150000D01*
G01*
G37*
G36*
G01*
X191130000Y57405000D02*
X191130000Y57705000D01*
G75*
G02*
X191280000Y57855000I150000J0D01*
G01*
X192930000Y57855000D01*
G75*
G02*
X193080000Y57705000I0J-150000D01*
G01*
X193080000Y57405000D01*
G75*
G02*
X192930000Y57255000I-150000J0D01*
G01*
X191280000Y57255000D01*
G75*
G02*
X191130000Y57405000I0J150000D01*
G01*
G37*
G04 #@! TD*
G04 #@! TO.C,D13*
G36*
G01*
X199275000Y83998750D02*
X199275000Y84911250D01*
G75*
G02*
X199518750Y85155000I243750J0D01*
G01*
X200006250Y85155000D01*
G75*
G02*
X200250000Y84911250I0J-243750D01*
G01*
X200250000Y83998750D01*
G75*
G02*
X200006250Y83755000I-243750J0D01*
G01*
X199518750Y83755000D01*
G75*
G02*
X199275000Y83998750I0J243750D01*
G01*
G37*
G36*
G01*
X201150000Y83998750D02*
X201150000Y84911250D01*
G75*
G02*
X201393750Y85155000I243750J0D01*
G01*
X201881250Y85155000D01*
G75*
G02*
X202125000Y84911250I0J-243750D01*
G01*
X202125000Y83998750D01*
G75*
G02*
X201881250Y83755000I-243750J0D01*
G01*
X201393750Y83755000D01*
G75*
G02*
X201150000Y83998750I0J243750D01*
G01*
G37*
G04 #@! TD*
G04 #@! TO.C,R158*
G36*
G01*
X169145000Y35195000D02*
X169145000Y35745000D01*
G75*
G02*
X169345000Y35945000I200000J0D01*
G01*
X169745000Y35945000D01*
G75*
G02*
X169945000Y35745000I0J-200000D01*
G01*
X169945000Y35195000D01*
G75*
G02*
X169745000Y34995000I-200000J0D01*
G01*
X169345000Y34995000D01*
G75*
G02*
X169145000Y35195000I0J200000D01*
G01*
G37*
G36*
G01*
X170795000Y35195000D02*
X170795000Y35745000D01*
G75*
G02*
X170995000Y35945000I200000J0D01*
G01*
X171395000Y35945000D01*
G75*
G02*
X171595000Y35745000I0J-200000D01*
G01*
X171595000Y35195000D01*
G75*
G02*
X171395000Y34995000I-200000J0D01*
G01*
X170995000Y34995000D01*
G75*
G02*
X170795000Y35195000I0J200000D01*
G01*
G37*
G04 #@! TD*
D16*
G04 #@! TO.C,H2*
X1100000Y3500000D03*
X1802944Y5197056D03*
X1802944Y1802944D03*
X3500000Y5900000D03*
D17*
X3500000Y3500000D03*
D16*
X3500000Y1100000D03*
X5197056Y5197056D03*
X5197056Y1802944D03*
X5900000Y3500000D03*
G04 #@! TD*
G04 #@! TO.C,D9*
G36*
G01*
X136735000Y20535000D02*
X136735000Y21735000D01*
G75*
G02*
X136985000Y21985000I250000J0D01*
G01*
X137785000Y21985000D01*
G75*
G02*
X138035000Y21735000I0J-250000D01*
G01*
X138035000Y20535000D01*
G75*
G02*
X137785000Y20285000I-250000J0D01*
G01*
X136985000Y20285000D01*
G75*
G02*
X136735000Y20535000I0J250000D01*
G01*
G37*
G36*
G01*
X140235000Y20535000D02*
X140235000Y21735000D01*
G75*
G02*
X140485000Y21985000I250000J0D01*
G01*
X141285000Y21985000D01*
G75*
G02*
X141535000Y21735000I0J-250000D01*
G01*
X141535000Y20535000D01*
G75*
G02*
X141285000Y20285000I-250000J0D01*
G01*
X140485000Y20285000D01*
G75*
G02*
X140235000Y20535000I0J250000D01*
G01*
G37*
G04 #@! TD*
G04 #@! TO.C,R174*
G36*
G01*
X127965000Y16980000D02*
X127965000Y17880000D01*
G75*
G02*
X128215000Y18130000I250000J0D01*
G01*
X128740000Y18130000D01*
G75*
G02*
X128990000Y17880000I0J-250000D01*
G01*
X128990000Y16980000D01*
G75*
G02*
X128740000Y16730000I-250000J0D01*
G01*
X128215000Y16730000D01*
G75*
G02*
X127965000Y16980000I0J250000D01*
G01*
G37*
G36*
G01*
X129790000Y16980000D02*
X129790000Y17880000D01*
G75*
G02*
X130040000Y18130000I250000J0D01*
G01*
X130565000Y18130000D01*
G75*
G02*
X130815000Y17880000I0J-250000D01*
G01*
X130815000Y16980000D01*
G75*
G02*
X130565000Y16730000I-250000J0D01*
G01*
X130040000Y16730000D01*
G75*
G02*
X129790000Y16980000I0J250000D01*
G01*
G37*
G04 #@! TD*
G04 #@! TO.C,C41*
G36*
G01*
X145085000Y45260000D02*
X145085000Y45760000D01*
G75*
G02*
X145310000Y45985000I225000J0D01*
G01*
X145760000Y45985000D01*
G75*
G02*
X145985000Y45760000I0J-225000D01*
G01*
X145985000Y45260000D01*
G75*
G02*
X145760000Y45035000I-225000J0D01*
G01*
X145310000Y45035000D01*
G75*
G02*
X145085000Y45260000I0J225000D01*
G01*
G37*
G36*
G01*
X146635000Y45260000D02*
X146635000Y45760000D01*
G75*
G02*
X146860000Y45985000I225000J0D01*
G01*
X147310000Y45985000D01*
G75*
G02*
X147535000Y45760000I0J-225000D01*
G01*
X147535000Y45260000D01*
G75*
G02*
X147310000Y45035000I-225000J0D01*
G01*
X146860000Y45035000D01*
G75*
G02*
X146635000Y45260000I0J225000D01*
G01*
G37*
G04 #@! TD*
D21*
G04 #@! TO.C,M3*
X49175000Y62675000D03*
X47975000Y62675000D03*
X50375000Y62675000D03*
X51575000Y62675000D03*
X45115000Y77100000D03*
X44115000Y77100000D03*
G04 #@! TD*
G04 #@! TO.C,C101*
G36*
G01*
X153105000Y27690000D02*
X153105000Y28190000D01*
G75*
G02*
X153330000Y28415000I225000J0D01*
G01*
X153780000Y28415000D01*
G75*
G02*
X154005000Y28190000I0J-225000D01*
G01*
X154005000Y27690000D01*
G75*
G02*
X153780000Y27465000I-225000J0D01*
G01*
X153330000Y27465000D01*
G75*
G02*
X153105000Y27690000I0J225000D01*
G01*
G37*
G36*
G01*
X154655000Y27690000D02*
X154655000Y28190000D01*
G75*
G02*
X154880000Y28415000I225000J0D01*
G01*
X155330000Y28415000D01*
G75*
G02*
X155555000Y28190000I0J-225000D01*
G01*
X155555000Y27690000D01*
G75*
G02*
X155330000Y27465000I-225000J0D01*
G01*
X154880000Y27465000D01*
G75*
G02*
X154655000Y27690000I0J225000D01*
G01*
G37*
G04 #@! TD*
G04 #@! TO.C,R10*
G36*
G01*
X29750000Y72840000D02*
X29750000Y72060000D01*
G75*
G02*
X29680000Y71990000I-70000J0D01*
G01*
X29120000Y71990000D01*
G75*
G02*
X29050000Y72060000I0J70000D01*
G01*
X29050000Y72840000D01*
G75*
G02*
X29120000Y72910000I70000J0D01*
G01*
X29680000Y72910000D01*
G75*
G02*
X29750000Y72840000I0J-70000D01*
G01*
G37*
G36*
G01*
X28150000Y72840000D02*
X28150000Y72060000D01*
G75*
G02*
X28080000Y71990000I-70000J0D01*
G01*
X27520000Y71990000D01*
G75*
G02*
X27450000Y72060000I0J70000D01*
G01*
X27450000Y72840000D01*
G75*
G02*
X27520000Y72910000I70000J0D01*
G01*
X28080000Y72910000D01*
G75*
G02*
X28150000Y72840000I0J-70000D01*
G01*
G37*
G04 #@! TD*
G04 #@! TO.C,C50*
G36*
G01*
X145085000Y27690000D02*
X145085000Y28190000D01*
G75*
G02*
X145310000Y28415000I225000J0D01*
G01*
X145760000Y28415000D01*
G75*
G02*
X145985000Y28190000I0J-225000D01*
G01*
X145985000Y27690000D01*
G75*
G02*
X145760000Y27465000I-225000J0D01*
G01*
X145310000Y27465000D01*
G75*
G02*
X145085000Y27690000I0J225000D01*
G01*
G37*
G36*
G01*
X146635000Y27690000D02*
X146635000Y28190000D01*
G75*
G02*
X146860000Y28415000I225000J0D01*
G01*
X147310000Y28415000D01*
G75*
G02*
X147535000Y28190000I0J-225000D01*
G01*
X147535000Y27690000D01*
G75*
G02*
X147310000Y27465000I-225000J0D01*
G01*
X146860000Y27465000D01*
G75*
G02*
X146635000Y27690000I0J225000D01*
G01*
G37*
G04 #@! TD*
D14*
G04 #@! TO.C,P17*
X3000000Y11500000D03*
G04 #@! TD*
D12*
G04 #@! TO.C,J8*
X58375000Y4700000D03*
D13*
X58375000Y2160000D03*
X60915000Y4700000D03*
X60915000Y2160000D03*
G04 #@! TD*
D12*
G04 #@! TO.C,J25*
X138240000Y27680000D03*
D13*
X140780000Y27680000D03*
X138240000Y25140000D03*
X140780000Y25140000D03*
G04 #@! TD*
G04 #@! TO.C,R162*
G36*
G01*
X169145000Y30175000D02*
X169145000Y30725000D01*
G75*
G02*
X169345000Y30925000I200000J0D01*
G01*
X169745000Y30925000D01*
G75*
G02*
X169945000Y30725000I0J-200000D01*
G01*
X169945000Y30175000D01*
G75*
G02*
X169745000Y29975000I-200000J0D01*
G01*
X169345000Y29975000D01*
G75*
G02*
X169145000Y30175000I0J200000D01*
G01*
G37*
G36*
G01*
X170795000Y30175000D02*
X170795000Y30725000D01*
G75*
G02*
X170995000Y30925000I200000J0D01*
G01*
X171395000Y30925000D01*
G75*
G02*
X171595000Y30725000I0J-200000D01*
G01*
X171595000Y30175000D01*
G75*
G02*
X171395000Y29975000I-200000J0D01*
G01*
X170995000Y29975000D01*
G75*
G02*
X170795000Y30175000I0J200000D01*
G01*
G37*
G04 #@! TD*
D18*
G04 #@! TO.C,F3*
X20600000Y19450000D03*
G36*
G01*
X19700000Y18105010D02*
X19700000Y18795010D01*
G75*
G02*
X19930000Y19025010I230000J0D01*
G01*
X21270000Y19025010D01*
G75*
G02*
X21500000Y18795010I0J-230000D01*
G01*
X21500000Y18105010D01*
G75*
G02*
X21270000Y17875010I-230000J0D01*
G01*
X19930000Y17875010D01*
G75*
G02*
X19700000Y18105010I0J230000D01*
G01*
G37*
G36*
G01*
X19700000Y15204990D02*
X19700000Y15894990D01*
G75*
G02*
X19930000Y16124990I230000J0D01*
G01*
X21270000Y16124990D01*
G75*
G02*
X21500000Y15894990I0J-230000D01*
G01*
X21500000Y15204990D01*
G75*
G02*
X21270000Y14974990I-230000J0D01*
G01*
X19930000Y14974990D01*
G75*
G02*
X19700000Y15204990I0J230000D01*
G01*
G37*
X20600000Y14550000D03*
G04 #@! TD*
G04 #@! TO.C,R120*
G36*
G01*
X161125000Y27665000D02*
X161125000Y28215000D01*
G75*
G02*
X161325000Y28415000I200000J0D01*
G01*
X161725000Y28415000D01*
G75*
G02*
X161925000Y28215000I0J-200000D01*
G01*
X161925000Y27665000D01*
G75*
G02*
X161725000Y27465000I-200000J0D01*
G01*
X161325000Y27465000D01*
G75*
G02*
X161125000Y27665000I0J200000D01*
G01*
G37*
G36*
G01*
X162775000Y27665000D02*
X162775000Y28215000D01*
G75*
G02*
X162975000Y28415000I200000J0D01*
G01*
X163375000Y28415000D01*
G75*
G02*
X163575000Y28215000I0J-200000D01*
G01*
X163575000Y27665000D01*
G75*
G02*
X163375000Y27465000I-200000J0D01*
G01*
X162975000Y27465000D01*
G75*
G02*
X162775000Y27665000I0J200000D01*
G01*
G37*
G04 #@! TD*
D21*
G04 #@! TO.C,M2*
X79574999Y73125000D03*
X78624999Y73125000D03*
X77675001Y73125000D03*
X78674999Y81825000D03*
X79574999Y81825000D03*
G04 #@! TD*
G04 #@! TO.C,D21*
G36*
G01*
X145080000Y81900000D02*
X145080000Y82600000D01*
G75*
G02*
X145330000Y82850000I250000J0D01*
G01*
X147030000Y82850000D01*
G75*
G02*
X147280000Y82600000I0J-250000D01*
G01*
X147280000Y81900000D01*
G75*
G02*
X147030000Y81650000I-250000J0D01*
G01*
X145330000Y81650000D01*
G75*
G02*
X145080000Y81900000I0J250000D01*
G01*
G37*
G36*
G01*
X149280000Y77319997D02*
X149280000Y82620003D01*
G75*
G02*
X149529997Y82870000I249997J0D01*
G01*
X155430003Y82870000D01*
G75*
G02*
X155680000Y82620003I0J-249997D01*
G01*
X155680000Y77319997D01*
G75*
G02*
X155430003Y77070000I-249997J0D01*
G01*
X149529997Y77070000D01*
G75*
G02*
X149280000Y77319997I0J249997D01*
G01*
G37*
G36*
G01*
X145080000Y77340000D02*
X145080000Y78040000D01*
G75*
G02*
X145330000Y78290000I250000J0D01*
G01*
X147030000Y78290000D01*
G75*
G02*
X147280000Y78040000I0J-250000D01*
G01*
X147280000Y77340000D01*
G75*
G02*
X147030000Y77090000I-250000J0D01*
G01*
X145330000Y77090000D01*
G75*
G02*
X145080000Y77340000I0J250000D01*
G01*
G37*
G04 #@! TD*
G04 #@! TO.C,C42*
G36*
G01*
X145085000Y42750000D02*
X145085000Y43250000D01*
G75*
G02*
X145310000Y43475000I225000J0D01*
G01*
X145760000Y43475000D01*
G75*
G02*
X145985000Y43250000I0J-225000D01*
G01*
X145985000Y42750000D01*
G75*
G02*
X145760000Y42525000I-225000J0D01*
G01*
X145310000Y42525000D01*
G75*
G02*
X145085000Y42750000I0J225000D01*
G01*
G37*
G36*
G01*
X146635000Y42750000D02*
X146635000Y43250000D01*
G75*
G02*
X146860000Y43475000I225000J0D01*
G01*
X147310000Y43475000D01*
G75*
G02*
X147535000Y43250000I0J-225000D01*
G01*
X147535000Y42750000D01*
G75*
G02*
X147310000Y42525000I-225000J0D01*
G01*
X146860000Y42525000D01*
G75*
G02*
X146635000Y42750000I0J225000D01*
G01*
G37*
G04 #@! TD*
G04 #@! TO.C,C25*
G36*
G01*
X7940000Y4284999D02*
X7260000Y4284999D01*
G75*
G02*
X7175000Y4369999I0J85000D01*
G01*
X7175000Y5049999D01*
G75*
G02*
X7260000Y5134999I85000J0D01*
G01*
X7940000Y5134999D01*
G75*
G02*
X8025000Y5049999I0J-85000D01*
G01*
X8025000Y4369999D01*
G75*
G02*
X7940000Y4284999I-85000J0D01*
G01*
G37*
G36*
G01*
X7940000Y5865001D02*
X7260000Y5865001D01*
G75*
G02*
X7175000Y5950001I0J85000D01*
G01*
X7175000Y6630001D01*
G75*
G02*
X7260000Y6715001I85000J0D01*
G01*
X7940000Y6715001D01*
G75*
G02*
X8025000Y6630001I0J-85000D01*
G01*
X8025000Y5950001D01*
G75*
G02*
X7940000Y5865001I-85000J0D01*
G01*
G37*
G04 #@! TD*
G04 #@! TO.C,R107*
G36*
G01*
X161125000Y40215000D02*
X161125000Y40765000D01*
G75*
G02*
X161325000Y40965000I200000J0D01*
G01*
X161725000Y40965000D01*
G75*
G02*
X161925000Y40765000I0J-200000D01*
G01*
X161925000Y40215000D01*
G75*
G02*
X161725000Y40015000I-200000J0D01*
G01*
X161325000Y40015000D01*
G75*
G02*
X161125000Y40215000I0J200000D01*
G01*
G37*
G36*
G01*
X162775000Y40215000D02*
X162775000Y40765000D01*
G75*
G02*
X162975000Y40965000I200000J0D01*
G01*
X163375000Y40965000D01*
G75*
G02*
X163575000Y40765000I0J-200000D01*
G01*
X163575000Y40215000D01*
G75*
G02*
X163375000Y40015000I-200000J0D01*
G01*
X162975000Y40015000D01*
G75*
G02*
X162775000Y40215000I0J200000D01*
G01*
G37*
G04 #@! TD*
G04 #@! TO.C,D18*
G36*
G01*
X136735000Y44730000D02*
X136735000Y46030000D01*
G75*
G02*
X136985000Y46280000I250000J0D01*
G01*
X138985000Y46280000D01*
G75*
G02*
X139235000Y46030000I0J-250000D01*
G01*
X139235000Y44730000D01*
G75*
G02*
X138985000Y44480000I-250000J0D01*
G01*
X136985000Y44480000D01*
G75*
G02*
X136735000Y44730000I0J250000D01*
G01*
G37*
G36*
G01*
X140735000Y44730000D02*
X140735000Y46030000D01*
G75*
G02*
X140985000Y46280000I250000J0D01*
G01*
X142985000Y46280000D01*
G75*
G02*
X143235000Y46030000I0J-250000D01*
G01*
X143235000Y44730000D01*
G75*
G02*
X142985000Y44480000I-250000J0D01*
G01*
X140985000Y44480000D01*
G75*
G02*
X140735000Y44730000I0J250000D01*
G01*
G37*
G04 #@! TD*
D14*
G04 #@! TO.C,P18*
X23000000Y11000000D03*
G04 #@! TD*
G04 #@! TO.C,R138*
G36*
G01*
X165135000Y35195000D02*
X165135000Y35745000D01*
G75*
G02*
X165335000Y35945000I200000J0D01*
G01*
X165735000Y35945000D01*
G75*
G02*
X165935000Y35745000I0J-200000D01*
G01*
X165935000Y35195000D01*
G75*
G02*
X165735000Y34995000I-200000J0D01*
G01*
X165335000Y34995000D01*
G75*
G02*
X165135000Y35195000I0J200000D01*
G01*
G37*
G36*
G01*
X166785000Y35195000D02*
X166785000Y35745000D01*
G75*
G02*
X166985000Y35945000I200000J0D01*
G01*
X167385000Y35945000D01*
G75*
G02*
X167585000Y35745000I0J-200000D01*
G01*
X167585000Y35195000D01*
G75*
G02*
X167385000Y34995000I-200000J0D01*
G01*
X166985000Y34995000D01*
G75*
G02*
X166785000Y35195000I0J200000D01*
G01*
G37*
G04 #@! TD*
G04 #@! TO.C,Q6*
G36*
G01*
X206400000Y49680000D02*
X206400000Y50380000D01*
G75*
G02*
X206650000Y50630000I250000J0D01*
G01*
X208350000Y50630000D01*
G75*
G02*
X208600000Y50380000I0J-250000D01*
G01*
X208600000Y49680000D01*
G75*
G02*
X208350000Y49430000I-250000J0D01*
G01*
X206650000Y49430000D01*
G75*
G02*
X206400000Y49680000I0J250000D01*
G01*
G37*
G36*
G01*
X210600000Y45099997D02*
X210600000Y50400003D01*
G75*
G02*
X210849997Y50650000I249997J0D01*
G01*
X216750003Y50650000D01*
G75*
G02*
X217000000Y50400003I0J-249997D01*
G01*
X217000000Y45099997D01*
G75*
G02*
X216750003Y44850000I-249997J0D01*
G01*
X210849997Y44850000D01*
G75*
G02*
X210600000Y45099997I0J249997D01*
G01*
G37*
G36*
G01*
X206400000Y45120000D02*
X206400000Y45820000D01*
G75*
G02*
X206650000Y46070000I250000J0D01*
G01*
X208350000Y46070000D01*
G75*
G02*
X208600000Y45820000I0J-250000D01*
G01*
X208600000Y45120000D01*
G75*
G02*
X208350000Y44870000I-250000J0D01*
G01*
X206650000Y44870000D01*
G75*
G02*
X206400000Y45120000I0J250000D01*
G01*
G37*
G04 #@! TD*
D15*
G04 #@! TO.C,C114*
X123390000Y83280000D03*
X130890000Y83280000D03*
G04 #@! TD*
G04 #@! TO.C,Q21*
G36*
G01*
X169380000Y89955000D02*
X169380000Y90655000D01*
G75*
G02*
X169630000Y90905000I250000J0D01*
G01*
X171330000Y90905000D01*
G75*
G02*
X171580000Y90655000I0J-250000D01*
G01*
X171580000Y89955000D01*
G75*
G02*
X171330000Y89705000I-250000J0D01*
G01*
X169630000Y89705000D01*
G75*
G02*
X169380000Y89955000I0J250000D01*
G01*
G37*
G36*
G01*
X173580000Y85374997D02*
X173580000Y90675003D01*
G75*
G02*
X173829997Y90925000I249997J0D01*
G01*
X179730003Y90925000D01*
G75*
G02*
X179980000Y90675003I0J-249997D01*
G01*
X179980000Y85374997D01*
G75*
G02*
X179730003Y85125000I-249997J0D01*
G01*
X173829997Y85125000D01*
G75*
G02*
X173580000Y85374997I0J249997D01*
G01*
G37*
G36*
G01*
X169380000Y85395000D02*
X169380000Y86095000D01*
G75*
G02*
X169630000Y86345000I250000J0D01*
G01*
X171330000Y86345000D01*
G75*
G02*
X171580000Y86095000I0J-250000D01*
G01*
X171580000Y85395000D01*
G75*
G02*
X171330000Y85145000I-250000J0D01*
G01*
X169630000Y85145000D01*
G75*
G02*
X169380000Y85395000I0J250000D01*
G01*
G37*
G04 #@! TD*
G04 #@! TO.C,C87*
G36*
G01*
X149095000Y25180000D02*
X149095000Y25680000D01*
G75*
G02*
X149320000Y25905000I225000J0D01*
G01*
X149770000Y25905000D01*
G75*
G02*
X149995000Y25680000I0J-225000D01*
G01*
X149995000Y25180000D01*
G75*
G02*
X149770000Y24955000I-225000J0D01*
G01*
X149320000Y24955000D01*
G75*
G02*
X149095000Y25180000I0J225000D01*
G01*
G37*
G36*
G01*
X150645000Y25180000D02*
X150645000Y25680000D01*
G75*
G02*
X150870000Y25905000I225000J0D01*
G01*
X151320000Y25905000D01*
G75*
G02*
X151545000Y25680000I0J-225000D01*
G01*
X151545000Y25180000D01*
G75*
G02*
X151320000Y24955000I-225000J0D01*
G01*
X150870000Y24955000D01*
G75*
G02*
X150645000Y25180000I0J225000D01*
G01*
G37*
G04 #@! TD*
D22*
G04 #@! TO.C,S4*
X156970000Y11320000D03*
G04 #@! TD*
G04 #@! TO.C,R81*
G36*
G01*
X157115000Y35195000D02*
X157115000Y35745000D01*
G75*
G02*
X157315000Y35945000I200000J0D01*
G01*
X157715000Y35945000D01*
G75*
G02*
X157915000Y35745000I0J-200000D01*
G01*
X157915000Y35195000D01*
G75*
G02*
X157715000Y34995000I-200000J0D01*
G01*
X157315000Y34995000D01*
G75*
G02*
X157115000Y35195000I0J200000D01*
G01*
G37*
G36*
G01*
X158765000Y35195000D02*
X158765000Y35745000D01*
G75*
G02*
X158965000Y35945000I200000J0D01*
G01*
X159365000Y35945000D01*
G75*
G02*
X159565000Y35745000I0J-200000D01*
G01*
X159565000Y35195000D01*
G75*
G02*
X159365000Y34995000I-200000J0D01*
G01*
X158965000Y34995000D01*
G75*
G02*
X158765000Y35195000I0J200000D01*
G01*
G37*
G04 #@! TD*
G04 #@! TO.C,R104*
G36*
G01*
X161125000Y47745000D02*
X161125000Y48295000D01*
G75*
G02*
X161325000Y48495000I200000J0D01*
G01*
X161725000Y48495000D01*
G75*
G02*
X161925000Y48295000I0J-200000D01*
G01*
X161925000Y47745000D01*
G75*
G02*
X161725000Y47545000I-200000J0D01*
G01*
X161325000Y47545000D01*
G75*
G02*
X161125000Y47745000I0J200000D01*
G01*
G37*
G36*
G01*
X162775000Y47745000D02*
X162775000Y48295000D01*
G75*
G02*
X162975000Y48495000I200000J0D01*
G01*
X163375000Y48495000D01*
G75*
G02*
X163575000Y48295000I0J-200000D01*
G01*
X163575000Y47745000D01*
G75*
G02*
X163375000Y47545000I-200000J0D01*
G01*
X162975000Y47545000D01*
G75*
G02*
X162775000Y47745000I0J200000D01*
G01*
G37*
G04 #@! TD*
G04 #@! TO.C,R141*
G36*
G01*
X165135000Y27665000D02*
X165135000Y28215000D01*
G75*
G02*
X165335000Y28415000I200000J0D01*
G01*
X165735000Y28415000D01*
G75*
G02*
X165935000Y28215000I0J-200000D01*
G01*
X165935000Y27665000D01*
G75*
G02*
X165735000Y27465000I-200000J0D01*
G01*
X165335000Y27465000D01*
G75*
G02*
X165135000Y27665000I0J200000D01*
G01*
G37*
G36*
G01*
X166785000Y27665000D02*
X166785000Y28215000D01*
G75*
G02*
X166985000Y28415000I200000J0D01*
G01*
X167385000Y28415000D01*
G75*
G02*
X167585000Y28215000I0J-200000D01*
G01*
X167585000Y27665000D01*
G75*
G02*
X167385000Y27465000I-200000J0D01*
G01*
X166985000Y27465000D01*
G75*
G02*
X166785000Y27665000I0J200000D01*
G01*
G37*
G04 #@! TD*
G04 #@! TO.C,R156*
G36*
G01*
X169145000Y40215000D02*
X169145000Y40765000D01*
G75*
G02*
X169345000Y40965000I200000J0D01*
G01*
X169745000Y40965000D01*
G75*
G02*
X169945000Y40765000I0J-200000D01*
G01*
X169945000Y40215000D01*
G75*
G02*
X169745000Y40015000I-200000J0D01*
G01*
X169345000Y40015000D01*
G75*
G02*
X169145000Y40215000I0J200000D01*
G01*
G37*
G36*
G01*
X170795000Y40215000D02*
X170795000Y40765000D01*
G75*
G02*
X170995000Y40965000I200000J0D01*
G01*
X171395000Y40965000D01*
G75*
G02*
X171595000Y40765000I0J-200000D01*
G01*
X171595000Y40215000D01*
G75*
G02*
X171395000Y40015000I-200000J0D01*
G01*
X170995000Y40015000D01*
G75*
G02*
X170795000Y40215000I0J200000D01*
G01*
G37*
G04 #@! TD*
G04 #@! TO.C,D30*
G36*
G01*
X166665000Y15093750D02*
X166665000Y15606250D01*
G75*
G02*
X166883750Y15825000I218750J0D01*
G01*
X167321250Y15825000D01*
G75*
G02*
X167540000Y15606250I0J-218750D01*
G01*
X167540000Y15093750D01*
G75*
G02*
X167321250Y14875000I-218750J0D01*
G01*
X166883750Y14875000D01*
G75*
G02*
X166665000Y15093750I0J218750D01*
G01*
G37*
G36*
G01*
X168240000Y15093750D02*
X168240000Y15606250D01*
G75*
G02*
X168458750Y15825000I218750J0D01*
G01*
X168896250Y15825000D01*
G75*
G02*
X169115000Y15606250I0J-218750D01*
G01*
X169115000Y15093750D01*
G75*
G02*
X168896250Y14875000I-218750J0D01*
G01*
X168458750Y14875000D01*
G75*
G02*
X168240000Y15093750I0J218750D01*
G01*
G37*
G04 #@! TD*
G04 #@! TO.C,M1*
X40874995Y20824999D03*
X40874995Y14425002D03*
X40874995Y12524999D03*
X40874995Y8224999D03*
D21*
X41324994Y5825002D03*
X41324994Y4825001D03*
D22*
X40874995Y1974999D03*
X25374998Y21275001D03*
X25374998Y19425002D03*
X25374998Y14474999D03*
X25374998Y2425001D03*
G04 #@! TD*
G04 #@! TO.C,S6*
X160520000Y11320000D03*
G04 #@! TD*
G04 #@! TO.C,R125*
G36*
G01*
X165135000Y50255000D02*
X165135000Y50805000D01*
G75*
G02*
X165335000Y51005000I200000J0D01*
G01*
X165735000Y51005000D01*
G75*
G02*
X165935000Y50805000I0J-200000D01*
G01*
X165935000Y50255000D01*
G75*
G02*
X165735000Y50055000I-200000J0D01*
G01*
X165335000Y50055000D01*
G75*
G02*
X165135000Y50255000I0J200000D01*
G01*
G37*
G36*
G01*
X166785000Y50255000D02*
X166785000Y50805000D01*
G75*
G02*
X166985000Y51005000I200000J0D01*
G01*
X167385000Y51005000D01*
G75*
G02*
X167585000Y50805000I0J-200000D01*
G01*
X167585000Y50255000D01*
G75*
G02*
X167385000Y50055000I-200000J0D01*
G01*
X166985000Y50055000D01*
G75*
G02*
X166785000Y50255000I0J200000D01*
G01*
G37*
G04 #@! TD*
G04 #@! TO.C,R83*
G36*
G01*
X157115000Y30175000D02*
X157115000Y30725000D01*
G75*
G02*
X157315000Y30925000I200000J0D01*
G01*
X157715000Y30925000D01*
G75*
G02*
X157915000Y30725000I0J-200000D01*
G01*
X157915000Y30175000D01*
G75*
G02*
X157715000Y29975000I-200000J0D01*
G01*
X157315000Y29975000D01*
G75*
G02*
X157115000Y30175000I0J200000D01*
G01*
G37*
G36*
G01*
X158765000Y30175000D02*
X158765000Y30725000D01*
G75*
G02*
X158965000Y30925000I200000J0D01*
G01*
X159365000Y30925000D01*
G75*
G02*
X159565000Y30725000I0J-200000D01*
G01*
X159565000Y30175000D01*
G75*
G02*
X159365000Y29975000I-200000J0D01*
G01*
X158965000Y29975000D01*
G75*
G02*
X158765000Y30175000I0J200000D01*
G01*
G37*
G04 #@! TD*
G04 #@! TO.C,D16*
G36*
G01*
X177600000Y40935000D02*
X177600000Y41235000D01*
G75*
G02*
X177750000Y41385000I150000J0D01*
G01*
X178775000Y41385000D01*
G75*
G02*
X178925000Y41235000I0J-150000D01*
G01*
X178925000Y40935000D01*
G75*
G02*
X178775000Y40785000I-150000J0D01*
G01*
X177750000Y40785000D01*
G75*
G02*
X177600000Y40935000I0J150000D01*
G01*
G37*
G36*
G01*
X177600000Y39985000D02*
X177600000Y40285000D01*
G75*
G02*
X177750000Y40435000I150000J0D01*
G01*
X178775000Y40435000D01*
G75*
G02*
X178925000Y40285000I0J-150000D01*
G01*
X178925000Y39985000D01*
G75*
G02*
X178775000Y39835000I-150000J0D01*
G01*
X177750000Y39835000D01*
G75*
G02*
X177600000Y39985000I0J150000D01*
G01*
G37*
G36*
G01*
X177600000Y39035000D02*
X177600000Y39335000D01*
G75*
G02*
X177750000Y39485000I150000J0D01*
G01*
X178775000Y39485000D01*
G75*
G02*
X178925000Y39335000I0J-150000D01*
G01*
X178925000Y39035000D01*
G75*
G02*
X178775000Y38885000I-150000J0D01*
G01*
X177750000Y38885000D01*
G75*
G02*
X177600000Y39035000I0J150000D01*
G01*
G37*
G36*
G01*
X179875000Y39035000D02*
X179875000Y39335000D01*
G75*
G02*
X180025000Y39485000I150000J0D01*
G01*
X181050000Y39485000D01*
G75*
G02*
X181200000Y39335000I0J-150000D01*
G01*
X181200000Y39035000D01*
G75*
G02*
X181050000Y38885000I-150000J0D01*
G01*
X180025000Y38885000D01*
G75*
G02*
X179875000Y39035000I0J150000D01*
G01*
G37*
G36*
G01*
X179875000Y39985000D02*
X179875000Y40285000D01*
G75*
G02*
X180025000Y40435000I150000J0D01*
G01*
X181050000Y40435000D01*
G75*
G02*
X181200000Y40285000I0J-150000D01*
G01*
X181200000Y39985000D01*
G75*
G02*
X181050000Y39835000I-150000J0D01*
G01*
X180025000Y39835000D01*
G75*
G02*
X179875000Y39985000I0J150000D01*
G01*
G37*
G36*
G01*
X179875000Y40935000D02*
X179875000Y41235000D01*
G75*
G02*
X180025000Y41385000I150000J0D01*
G01*
X181050000Y41385000D01*
G75*
G02*
X181200000Y41235000I0J-150000D01*
G01*
X181200000Y40935000D01*
G75*
G02*
X181050000Y40785000I-150000J0D01*
G01*
X180025000Y40785000D01*
G75*
G02*
X179875000Y40935000I0J150000D01*
G01*
G37*
G04 #@! TD*
G04 #@! TO.C,R157*
G36*
G01*
X169145000Y37705000D02*
X169145000Y38255000D01*
G75*
G02*
X169345000Y38455000I200000J0D01*
G01*
X169745000Y38455000D01*
G75*
G02*
X169945000Y38255000I0J-200000D01*
G01*
X169945000Y37705000D01*
G75*
G02*
X169745000Y37505000I-200000J0D01*
G01*
X169345000Y37505000D01*
G75*
G02*
X169145000Y37705000I0J200000D01*
G01*
G37*
G36*
G01*
X170795000Y37705000D02*
X170795000Y38255000D01*
G75*
G02*
X170995000Y38455000I200000J0D01*
G01*
X171395000Y38455000D01*
G75*
G02*
X171595000Y38255000I0J-200000D01*
G01*
X171595000Y37705000D01*
G75*
G02*
X171395000Y37505000I-200000J0D01*
G01*
X170995000Y37505000D01*
G75*
G02*
X170795000Y37705000I0J200000D01*
G01*
G37*
G04 #@! TD*
G04 #@! TO.C,D28*
G36*
G01*
X136735000Y55080000D02*
X136735000Y56880000D01*
G75*
G02*
X136985000Y57130000I250000J0D01*
G01*
X138985000Y57130000D01*
G75*
G02*
X139235000Y56880000I0J-250000D01*
G01*
X139235000Y55080000D01*
G75*
G02*
X138985000Y54830000I-250000J0D01*
G01*
X136985000Y54830000D01*
G75*
G02*
X136735000Y55080000I0J250000D01*
G01*
G37*
G36*
G01*
X141035000Y55080000D02*
X141035000Y56880000D01*
G75*
G02*
X141285000Y57130000I250000J0D01*
G01*
X143285000Y57130000D01*
G75*
G02*
X143535000Y56880000I0J-250000D01*
G01*
X143535000Y55080000D01*
G75*
G02*
X143285000Y54830000I-250000J0D01*
G01*
X141285000Y54830000D01*
G75*
G02*
X141035000Y55080000I0J250000D01*
G01*
G37*
G04 #@! TD*
G04 #@! TO.C,Q12*
G36*
G01*
X28800000Y25570000D02*
X28800000Y24870000D01*
G75*
G02*
X28550000Y24620000I-250000J0D01*
G01*
X26850000Y24620000D01*
G75*
G02*
X26600000Y24870000I0J250000D01*
G01*
X26600000Y25570000D01*
G75*
G02*
X26850000Y25820000I250000J0D01*
G01*
X28550000Y25820000D01*
G75*
G02*
X28800000Y25570000I0J-250000D01*
G01*
G37*
G36*
G01*
X24600000Y30150003D02*
X24600000Y24849997D01*
G75*
G02*
X24350003Y24600000I-249997J0D01*
G01*
X18449997Y24600000D01*
G75*
G02*
X18200000Y24849997I0J249997D01*
G01*
X18200000Y30150003D01*
G75*
G02*
X18449997Y30400000I249997J0D01*
G01*
X24350003Y30400000D01*
G75*
G02*
X24600000Y30150003I0J-249997D01*
G01*
G37*
G36*
G01*
X28800000Y30130000D02*
X28800000Y29430000D01*
G75*
G02*
X28550000Y29180000I-250000J0D01*
G01*
X26850000Y29180000D01*
G75*
G02*
X26600000Y29430000I0J250000D01*
G01*
X26600000Y30130000D01*
G75*
G02*
X26850000Y30380000I250000J0D01*
G01*
X28550000Y30380000D01*
G75*
G02*
X28800000Y30130000I0J-250000D01*
G01*
G37*
G04 #@! TD*
D14*
G04 #@! TO.C,P6*
X39060000Y46000000D03*
G04 #@! TD*
D23*
G04 #@! TO.C,M7*
X30900003Y43675005D03*
D24*
X30950001Y54024999D03*
X30950001Y53524998D03*
D25*
X31999999Y46975001D03*
X32524999Y47850003D03*
X33274997Y46674999D03*
X36824998Y46750002D03*
G04 #@! TD*
G04 #@! TO.C,C44*
G36*
G01*
X145085000Y40240000D02*
X145085000Y40740000D01*
G75*
G02*
X145310000Y40965000I225000J0D01*
G01*
X145760000Y40965000D01*
G75*
G02*
X145985000Y40740000I0J-225000D01*
G01*
X145985000Y40240000D01*
G75*
G02*
X145760000Y40015000I-225000J0D01*
G01*
X145310000Y40015000D01*
G75*
G02*
X145085000Y40240000I0J225000D01*
G01*
G37*
G36*
G01*
X146635000Y40240000D02*
X146635000Y40740000D01*
G75*
G02*
X146860000Y40965000I225000J0D01*
G01*
X147310000Y40965000D01*
G75*
G02*
X147535000Y40740000I0J-225000D01*
G01*
X147535000Y40240000D01*
G75*
G02*
X147310000Y40015000I-225000J0D01*
G01*
X146860000Y40015000D01*
G75*
G02*
X146635000Y40240000I0J225000D01*
G01*
G37*
G04 #@! TD*
G04 #@! TO.C,R171*
G36*
G01*
X169145000Y25155000D02*
X169145000Y25705000D01*
G75*
G02*
X169345000Y25905000I200000J0D01*
G01*
X169745000Y25905000D01*
G75*
G02*
X169945000Y25705000I0J-200000D01*
G01*
X169945000Y25155000D01*
G75*
G02*
X169745000Y24955000I-200000J0D01*
G01*
X169345000Y24955000D01*
G75*
G02*
X169145000Y25155000I0J200000D01*
G01*
G37*
G36*
G01*
X170795000Y25155000D02*
X170795000Y25705000D01*
G75*
G02*
X170995000Y25905000I200000J0D01*
G01*
X171395000Y25905000D01*
G75*
G02*
X171595000Y25705000I0J-200000D01*
G01*
X171595000Y25155000D01*
G75*
G02*
X171395000Y24955000I-200000J0D01*
G01*
X170995000Y24955000D01*
G75*
G02*
X170795000Y25155000I0J200000D01*
G01*
G37*
G04 #@! TD*
G04 #@! TO.C,R169*
G36*
G01*
X123555000Y19930000D02*
X123555000Y20830000D01*
G75*
G02*
X123805000Y21080000I250000J0D01*
G01*
X124330000Y21080000D01*
G75*
G02*
X124580000Y20830000I0J-250000D01*
G01*
X124580000Y19930000D01*
G75*
G02*
X124330000Y19680000I-250000J0D01*
G01*
X123805000Y19680000D01*
G75*
G02*
X123555000Y19930000I0J250000D01*
G01*
G37*
G36*
G01*
X125380000Y19930000D02*
X125380000Y20830000D01*
G75*
G02*
X125630000Y21080000I250000J0D01*
G01*
X126155000Y21080000D01*
G75*
G02*
X126405000Y20830000I0J-250000D01*
G01*
X126405000Y19930000D01*
G75*
G02*
X126155000Y19680000I-250000J0D01*
G01*
X125630000Y19680000D01*
G75*
G02*
X125380000Y19930000I0J250000D01*
G01*
G37*
G04 #@! TD*
G04 #@! TO.C,C48*
G36*
G01*
X145085000Y32710000D02*
X145085000Y33210000D01*
G75*
G02*
X145310000Y33435000I225000J0D01*
G01*
X145760000Y33435000D01*
G75*
G02*
X145985000Y33210000I0J-225000D01*
G01*
X145985000Y32710000D01*
G75*
G02*
X145760000Y32485000I-225000J0D01*
G01*
X145310000Y32485000D01*
G75*
G02*
X145085000Y32710000I0J225000D01*
G01*
G37*
G36*
G01*
X146635000Y32710000D02*
X146635000Y33210000D01*
G75*
G02*
X146860000Y33435000I225000J0D01*
G01*
X147310000Y33435000D01*
G75*
G02*
X147535000Y33210000I0J-225000D01*
G01*
X147535000Y32710000D01*
G75*
G02*
X147310000Y32485000I-225000J0D01*
G01*
X146860000Y32485000D01*
G75*
G02*
X146635000Y32710000I0J225000D01*
G01*
G37*
G04 #@! TD*
G04 #@! TO.C,R9*
G36*
G01*
X16335000Y19110000D02*
X17115000Y19110000D01*
G75*
G02*
X17185000Y19040000I0J-70000D01*
G01*
X17185000Y18480000D01*
G75*
G02*
X17115000Y18410000I-70000J0D01*
G01*
X16335000Y18410000D01*
G75*
G02*
X16265000Y18480000I0J70000D01*
G01*
X16265000Y19040000D01*
G75*
G02*
X16335000Y19110000I70000J0D01*
G01*
G37*
G36*
G01*
X16335000Y17510000D02*
X17115000Y17510000D01*
G75*
G02*
X17185000Y17440000I0J-70000D01*
G01*
X17185000Y16880000D01*
G75*
G02*
X17115000Y16810000I-70000J0D01*
G01*
X16335000Y16810000D01*
G75*
G02*
X16265000Y16880000I0J70000D01*
G01*
X16265000Y17440000D01*
G75*
G02*
X16335000Y17510000I70000J0D01*
G01*
G37*
G04 #@! TD*
D12*
G04 #@! TO.C,J28*
X183080000Y77380000D03*
D13*
X183080000Y74840000D03*
X183080000Y72300000D03*
X183080000Y69760000D03*
X183080000Y67220000D03*
X183080000Y64680000D03*
G04 #@! TD*
G04 #@! TO.C,D11*
G36*
G01*
X199275000Y90078750D02*
X199275000Y90991250D01*
G75*
G02*
X199518750Y91235000I243750J0D01*
G01*
X200006250Y91235000D01*
G75*
G02*
X200250000Y90991250I0J-243750D01*
G01*
X200250000Y90078750D01*
G75*
G02*
X200006250Y89835000I-243750J0D01*
G01*
X199518750Y89835000D01*
G75*
G02*
X199275000Y90078750I0J243750D01*
G01*
G37*
G36*
G01*
X201150000Y90078750D02*
X201150000Y90991250D01*
G75*
G02*
X201393750Y91235000I243750J0D01*
G01*
X201881250Y91235000D01*
G75*
G02*
X202125000Y90991250I0J-243750D01*
G01*
X202125000Y90078750D01*
G75*
G02*
X201881250Y89835000I-243750J0D01*
G01*
X201393750Y89835000D01*
G75*
G02*
X201150000Y90078750I0J243750D01*
G01*
G37*
G04 #@! TD*
D12*
G04 #@! TO.C,J11*
X80490000Y89225000D03*
D13*
X77950000Y89225000D03*
X80490000Y86685000D03*
X77950000Y86685000D03*
G04 #@! TD*
D19*
G04 #@! TO.C,J5*
X1975000Y45200000D03*
X1975000Y83000000D03*
G36*
G01*
X10874999Y43850000D02*
X7675001Y43850000D01*
G75*
G02*
X7425000Y44100001I0J250001D01*
G01*
X7425000Y46299999D01*
G75*
G02*
X7675001Y46550000I250001J0D01*
G01*
X10874999Y46550000D01*
G75*
G02*
X11125000Y46299999I0J-250001D01*
G01*
X11125000Y44100001D01*
G75*
G02*
X10874999Y43850000I-250001J0D01*
G01*
G37*
D20*
X9275000Y49400000D03*
X9275000Y53600000D03*
X9275000Y57800000D03*
X9275000Y62000000D03*
X9275000Y66200000D03*
X9275000Y70400000D03*
X9275000Y74600000D03*
X9275000Y78800000D03*
X9275000Y83000000D03*
X14775000Y45200000D03*
X14775000Y49400000D03*
X14775000Y53600000D03*
X14775000Y57800000D03*
X14775000Y62000000D03*
X14775000Y66200000D03*
X14775000Y70400000D03*
X14775000Y74600000D03*
X14775000Y78800000D03*
X14775000Y83000000D03*
G04 #@! TD*
G04 #@! TO.C,R173*
G36*
G01*
X127965000Y19930000D02*
X127965000Y20830000D01*
G75*
G02*
X128215000Y21080000I250000J0D01*
G01*
X128740000Y21080000D01*
G75*
G02*
X128990000Y20830000I0J-250000D01*
G01*
X128990000Y19930000D01*
G75*
G02*
X128740000Y19680000I-250000J0D01*
G01*
X128215000Y19680000D01*
G75*
G02*
X127965000Y19930000I0J250000D01*
G01*
G37*
G36*
G01*
X129790000Y19930000D02*
X129790000Y20830000D01*
G75*
G02*
X130040000Y21080000I250000J0D01*
G01*
X130565000Y21080000D01*
G75*
G02*
X130815000Y20830000I0J-250000D01*
G01*
X130815000Y19930000D01*
G75*
G02*
X130565000Y19680000I-250000J0D01*
G01*
X130040000Y19680000D01*
G75*
G02*
X129790000Y19930000I0J250000D01*
G01*
G37*
G04 #@! TD*
G04 #@! TO.C,R108*
G36*
G01*
X161125000Y37705000D02*
X161125000Y38255000D01*
G75*
G02*
X161325000Y38455000I200000J0D01*
G01*
X161725000Y38455000D01*
G75*
G02*
X161925000Y38255000I0J-200000D01*
G01*
X161925000Y37705000D01*
G75*
G02*
X161725000Y37505000I-200000J0D01*
G01*
X161325000Y37505000D01*
G75*
G02*
X161125000Y37705000I0J200000D01*
G01*
G37*
G36*
G01*
X162775000Y37705000D02*
X162775000Y38255000D01*
G75*
G02*
X162975000Y38455000I200000J0D01*
G01*
X163375000Y38455000D01*
G75*
G02*
X163575000Y38255000I0J-200000D01*
G01*
X163575000Y37705000D01*
G75*
G02*
X163375000Y37505000I-200000J0D01*
G01*
X162975000Y37505000D01*
G75*
G02*
X162775000Y37705000I0J200000D01*
G01*
G37*
G04 #@! TD*
G04 #@! TO.C,R127*
G36*
G01*
X165135000Y45235000D02*
X165135000Y45785000D01*
G75*
G02*
X165335000Y45985000I200000J0D01*
G01*
X165735000Y45985000D01*
G75*
G02*
X165935000Y45785000I0J-200000D01*
G01*
X165935000Y45235000D01*
G75*
G02*
X165735000Y45035000I-200000J0D01*
G01*
X165335000Y45035000D01*
G75*
G02*
X165135000Y45235000I0J200000D01*
G01*
G37*
G36*
G01*
X166785000Y45235000D02*
X166785000Y45785000D01*
G75*
G02*
X166985000Y45985000I200000J0D01*
G01*
X167385000Y45985000D01*
G75*
G02*
X167585000Y45785000I0J-200000D01*
G01*
X167585000Y45235000D01*
G75*
G02*
X167385000Y45035000I-200000J0D01*
G01*
X166985000Y45035000D01*
G75*
G02*
X166785000Y45235000I0J200000D01*
G01*
G37*
G04 #@! TD*
G04 #@! TO.C,R74*
G36*
G01*
X153105000Y17625000D02*
X153105000Y18175000D01*
G75*
G02*
X153305000Y18375000I200000J0D01*
G01*
X153705000Y18375000D01*
G75*
G02*
X153905000Y18175000I0J-200000D01*
G01*
X153905000Y17625000D01*
G75*
G02*
X153705000Y17425000I-200000J0D01*
G01*
X153305000Y17425000D01*
G75*
G02*
X153105000Y17625000I0J200000D01*
G01*
G37*
G36*
G01*
X154755000Y17625000D02*
X154755000Y18175000D01*
G75*
G02*
X154955000Y18375000I200000J0D01*
G01*
X155355000Y18375000D01*
G75*
G02*
X155555000Y18175000I0J-200000D01*
G01*
X155555000Y17625000D01*
G75*
G02*
X155355000Y17425000I-200000J0D01*
G01*
X154955000Y17425000D01*
G75*
G02*
X154755000Y17625000I0J200000D01*
G01*
G37*
G04 #@! TD*
G04 #@! TO.C,D23*
G36*
G01*
X136735000Y82830000D02*
X136735000Y84630000D01*
G75*
G02*
X136985000Y84880000I250000J0D01*
G01*
X138985000Y84880000D01*
G75*
G02*
X139235000Y84630000I0J-250000D01*
G01*
X139235000Y82830000D01*
G75*
G02*
X138985000Y82580000I-250000J0D01*
G01*
X136985000Y82580000D01*
G75*
G02*
X136735000Y82830000I0J250000D01*
G01*
G37*
G36*
G01*
X141035000Y82830000D02*
X141035000Y84630000D01*
G75*
G02*
X141285000Y84880000I250000J0D01*
G01*
X143285000Y84880000D01*
G75*
G02*
X143535000Y84630000I0J-250000D01*
G01*
X143535000Y82830000D01*
G75*
G02*
X143285000Y82580000I-250000J0D01*
G01*
X141285000Y82580000D01*
G75*
G02*
X141035000Y82830000I0J250000D01*
G01*
G37*
G04 #@! TD*
G04 #@! TO.C,Q9*
G36*
G01*
X28800000Y46570000D02*
X28800000Y45870000D01*
G75*
G02*
X28550000Y45620000I-250000J0D01*
G01*
X26850000Y45620000D01*
G75*
G02*
X26600000Y45870000I0J250000D01*
G01*
X26600000Y46570000D01*
G75*
G02*
X26850000Y46820000I250000J0D01*
G01*
X28550000Y46820000D01*
G75*
G02*
X28800000Y46570000I0J-250000D01*
G01*
G37*
G36*
G01*
X24600000Y51150003D02*
X24600000Y45849997D01*
G75*
G02*
X24350003Y45600000I-249997J0D01*
G01*
X18449997Y45600000D01*
G75*
G02*
X18200000Y45849997I0J249997D01*
G01*
X18200000Y51150003D01*
G75*
G02*
X18449997Y51400000I249997J0D01*
G01*
X24350003Y51400000D01*
G75*
G02*
X24600000Y51150003I0J-249997D01*
G01*
G37*
G36*
G01*
X28800000Y51130000D02*
X28800000Y50430000D01*
G75*
G02*
X28550000Y50180000I-250000J0D01*
G01*
X26850000Y50180000D01*
G75*
G02*
X26600000Y50430000I0J250000D01*
G01*
X26600000Y51130000D01*
G75*
G02*
X26850000Y51380000I250000J0D01*
G01*
X28550000Y51380000D01*
G75*
G02*
X28800000Y51130000I0J-250000D01*
G01*
G37*
G04 #@! TD*
G04 #@! TO.C,Q5*
G36*
G01*
X206400000Y57735000D02*
X206400000Y58435000D01*
G75*
G02*
X206650000Y58685000I250000J0D01*
G01*
X208350000Y58685000D01*
G75*
G02*
X208600000Y58435000I0J-250000D01*
G01*
X208600000Y57735000D01*
G75*
G02*
X208350000Y57485000I-250000J0D01*
G01*
X206650000Y57485000D01*
G75*
G02*
X206400000Y57735000I0J250000D01*
G01*
G37*
G36*
G01*
X210600000Y53154997D02*
X210600000Y58455003D01*
G75*
G02*
X210849997Y58705000I249997J0D01*
G01*
X216750003Y58705000D01*
G75*
G02*
X217000000Y58455003I0J-249997D01*
G01*
X217000000Y53154997D01*
G75*
G02*
X216750003Y52905000I-249997J0D01*
G01*
X210849997Y52905000D01*
G75*
G02*
X210600000Y53154997I0J249997D01*
G01*
G37*
G36*
G01*
X206400000Y53175000D02*
X206400000Y53875000D01*
G75*
G02*
X206650000Y54125000I250000J0D01*
G01*
X208350000Y54125000D01*
G75*
G02*
X208600000Y53875000I0J-250000D01*
G01*
X208600000Y53175000D01*
G75*
G02*
X208350000Y52925000I-250000J0D01*
G01*
X206650000Y52925000D01*
G75*
G02*
X206400000Y53175000I0J250000D01*
G01*
G37*
G04 #@! TD*
D26*
G04 #@! TO.C,U5*
X97450000Y18625000D03*
X97450000Y19625000D03*
X97450000Y20625000D03*
X97450000Y21625000D03*
X97450000Y22625000D03*
X97450000Y23625000D03*
X87850000Y23625000D03*
X87850000Y22625000D03*
X87850000Y21625000D03*
X87850000Y20625000D03*
X87850000Y19625000D03*
X87850000Y18625000D03*
D27*
X92650000Y21125000D03*
G04 #@! TD*
D12*
G04 #@! TO.C,J1*
X88890000Y89225000D03*
D13*
X86350000Y89225000D03*
X88890000Y86685000D03*
X86350000Y86685000D03*
G04 #@! TD*
G04 #@! TO.C,R124*
G36*
G01*
X161125000Y17625000D02*
X161125000Y18175000D01*
G75*
G02*
X161325000Y18375000I200000J0D01*
G01*
X161725000Y18375000D01*
G75*
G02*
X161925000Y18175000I0J-200000D01*
G01*
X161925000Y17625000D01*
G75*
G02*
X161725000Y17425000I-200000J0D01*
G01*
X161325000Y17425000D01*
G75*
G02*
X161125000Y17625000I0J200000D01*
G01*
G37*
G36*
G01*
X162775000Y17625000D02*
X162775000Y18175000D01*
G75*
G02*
X162975000Y18375000I200000J0D01*
G01*
X163375000Y18375000D01*
G75*
G02*
X163575000Y18175000I0J-200000D01*
G01*
X163575000Y17625000D01*
G75*
G02*
X163375000Y17425000I-200000J0D01*
G01*
X162975000Y17425000D01*
G75*
G02*
X162775000Y17625000I0J200000D01*
G01*
G37*
G04 #@! TD*
D28*
G04 #@! TO.C,Y1*
X188480000Y62130000D03*
X196980000Y62130000D03*
G04 #@! TD*
G04 #@! TO.C,R79*
G36*
G01*
X157115000Y40215000D02*
X157115000Y40765000D01*
G75*
G02*
X157315000Y40965000I200000J0D01*
G01*
X157715000Y40965000D01*
G75*
G02*
X157915000Y40765000I0J-200000D01*
G01*
X157915000Y40215000D01*
G75*
G02*
X157715000Y40015000I-200000J0D01*
G01*
X157315000Y40015000D01*
G75*
G02*
X157115000Y40215000I0J200000D01*
G01*
G37*
G36*
G01*
X158765000Y40215000D02*
X158765000Y40765000D01*
G75*
G02*
X158965000Y40965000I200000J0D01*
G01*
X159365000Y40965000D01*
G75*
G02*
X159565000Y40765000I0J-200000D01*
G01*
X159565000Y40215000D01*
G75*
G02*
X159365000Y40015000I-200000J0D01*
G01*
X158965000Y40015000D01*
G75*
G02*
X158765000Y40215000I0J200000D01*
G01*
G37*
G04 #@! TD*
G04 #@! TO.C,R145*
G36*
G01*
X165135000Y17625000D02*
X165135000Y18175000D01*
G75*
G02*
X165335000Y18375000I200000J0D01*
G01*
X165735000Y18375000D01*
G75*
G02*
X165935000Y18175000I0J-200000D01*
G01*
X165935000Y17625000D01*
G75*
G02*
X165735000Y17425000I-200000J0D01*
G01*
X165335000Y17425000D01*
G75*
G02*
X165135000Y17625000I0J200000D01*
G01*
G37*
G36*
G01*
X166785000Y17625000D02*
X166785000Y18175000D01*
G75*
G02*
X166985000Y18375000I200000J0D01*
G01*
X167385000Y18375000D01*
G75*
G02*
X167585000Y18175000I0J-200000D01*
G01*
X167585000Y17625000D01*
G75*
G02*
X167385000Y17425000I-200000J0D01*
G01*
X166985000Y17425000D01*
G75*
G02*
X166785000Y17625000I0J200000D01*
G01*
G37*
G04 #@! TD*
G04 #@! TO.C,D14*
G36*
G01*
X177600000Y50185000D02*
X177600000Y50485000D01*
G75*
G02*
X177750000Y50635000I150000J0D01*
G01*
X178775000Y50635000D01*
G75*
G02*
X178925000Y50485000I0J-150000D01*
G01*
X178925000Y50185000D01*
G75*
G02*
X178775000Y50035000I-150000J0D01*
G01*
X177750000Y50035000D01*
G75*
G02*
X177600000Y50185000I0J150000D01*
G01*
G37*
G36*
G01*
X177600000Y49235000D02*
X177600000Y49535000D01*
G75*
G02*
X177750000Y49685000I150000J0D01*
G01*
X178775000Y49685000D01*
G75*
G02*
X178925000Y49535000I0J-150000D01*
G01*
X178925000Y49235000D01*
G75*
G02*
X178775000Y49085000I-150000J0D01*
G01*
X177750000Y49085000D01*
G75*
G02*
X177600000Y49235000I0J150000D01*
G01*
G37*
G36*
G01*
X177600000Y48285000D02*
X177600000Y48585000D01*
G75*
G02*
X177750000Y48735000I150000J0D01*
G01*
X178775000Y48735000D01*
G75*
G02*
X178925000Y48585000I0J-150000D01*
G01*
X178925000Y48285000D01*
G75*
G02*
X178775000Y48135000I-150000J0D01*
G01*
X177750000Y48135000D01*
G75*
G02*
X177600000Y48285000I0J150000D01*
G01*
G37*
G36*
G01*
X179875000Y48285000D02*
X179875000Y48585000D01*
G75*
G02*
X180025000Y48735000I150000J0D01*
G01*
X181050000Y48735000D01*
G75*
G02*
X181200000Y48585000I0J-150000D01*
G01*
X181200000Y48285000D01*
G75*
G02*
X181050000Y48135000I-150000J0D01*
G01*
X180025000Y48135000D01*
G75*
G02*
X179875000Y48285000I0J150000D01*
G01*
G37*
G36*
G01*
X179875000Y49235000D02*
X179875000Y49535000D01*
G75*
G02*
X180025000Y49685000I150000J0D01*
G01*
X181050000Y49685000D01*
G75*
G02*
X181200000Y49535000I0J-150000D01*
G01*
X181200000Y49235000D01*
G75*
G02*
X181050000Y49085000I-150000J0D01*
G01*
X180025000Y49085000D01*
G75*
G02*
X179875000Y49235000I0J150000D01*
G01*
G37*
G36*
G01*
X179875000Y50185000D02*
X179875000Y50485000D01*
G75*
G02*
X180025000Y50635000I150000J0D01*
G01*
X181050000Y50635000D01*
G75*
G02*
X181200000Y50485000I0J-150000D01*
G01*
X181200000Y50185000D01*
G75*
G02*
X181050000Y50035000I-150000J0D01*
G01*
X180025000Y50035000D01*
G75*
G02*
X179875000Y50185000I0J150000D01*
G01*
G37*
G04 #@! TD*
G04 #@! TO.C,C61*
G36*
G01*
X145085000Y17650000D02*
X145085000Y18150000D01*
G75*
G02*
X145310000Y18375000I225000J0D01*
G01*
X145760000Y18375000D01*
G75*
G02*
X145985000Y18150000I0J-225000D01*
G01*
X145985000Y17650000D01*
G75*
G02*
X145760000Y17425000I-225000J0D01*
G01*
X145310000Y17425000D01*
G75*
G02*
X145085000Y17650000I0J225000D01*
G01*
G37*
G36*
G01*
X146635000Y17650000D02*
X146635000Y18150000D01*
G75*
G02*
X146860000Y18375000I225000J0D01*
G01*
X147310000Y18375000D01*
G75*
G02*
X147535000Y18150000I0J-225000D01*
G01*
X147535000Y17650000D01*
G75*
G02*
X147310000Y17425000I-225000J0D01*
G01*
X146860000Y17425000D01*
G75*
G02*
X146635000Y17650000I0J225000D01*
G01*
G37*
G04 #@! TD*
G04 #@! TO.C,R82*
G36*
G01*
X157115000Y32685000D02*
X157115000Y33235000D01*
G75*
G02*
X157315000Y33435000I200000J0D01*
G01*
X157715000Y33435000D01*
G75*
G02*
X157915000Y33235000I0J-200000D01*
G01*
X157915000Y32685000D01*
G75*
G02*
X157715000Y32485000I-200000J0D01*
G01*
X157315000Y32485000D01*
G75*
G02*
X157115000Y32685000I0J200000D01*
G01*
G37*
G36*
G01*
X158765000Y32685000D02*
X158765000Y33235000D01*
G75*
G02*
X158965000Y33435000I200000J0D01*
G01*
X159365000Y33435000D01*
G75*
G02*
X159565000Y33235000I0J-200000D01*
G01*
X159565000Y32685000D01*
G75*
G02*
X159365000Y32485000I-200000J0D01*
G01*
X158965000Y32485000D01*
G75*
G02*
X158765000Y32685000I0J200000D01*
G01*
G37*
G04 #@! TD*
G04 #@! TO.C,C124*
G36*
G01*
X153105000Y22670000D02*
X153105000Y23170000D01*
G75*
G02*
X153330000Y23395000I225000J0D01*
G01*
X153780000Y23395000D01*
G75*
G02*
X154005000Y23170000I0J-225000D01*
G01*
X154005000Y22670000D01*
G75*
G02*
X153780000Y22445000I-225000J0D01*
G01*
X153330000Y22445000D01*
G75*
G02*
X153105000Y22670000I0J225000D01*
G01*
G37*
G36*
G01*
X154655000Y22670000D02*
X154655000Y23170000D01*
G75*
G02*
X154880000Y23395000I225000J0D01*
G01*
X155330000Y23395000D01*
G75*
G02*
X155555000Y23170000I0J-225000D01*
G01*
X155555000Y22670000D01*
G75*
G02*
X155330000Y22445000I-225000J0D01*
G01*
X154880000Y22445000D01*
G75*
G02*
X154655000Y22670000I0J225000D01*
G01*
G37*
G04 #@! TD*
G04 #@! TO.C,R170*
G36*
G01*
X123555000Y16980000D02*
X123555000Y17880000D01*
G75*
G02*
X123805000Y18130000I250000J0D01*
G01*
X124330000Y18130000D01*
G75*
G02*
X124580000Y17880000I0J-250000D01*
G01*
X124580000Y16980000D01*
G75*
G02*
X124330000Y16730000I-250000J0D01*
G01*
X123805000Y16730000D01*
G75*
G02*
X123555000Y16980000I0J250000D01*
G01*
G37*
G36*
G01*
X125380000Y16980000D02*
X125380000Y17880000D01*
G75*
G02*
X125630000Y18130000I250000J0D01*
G01*
X126155000Y18130000D01*
G75*
G02*
X126405000Y17880000I0J-250000D01*
G01*
X126405000Y16980000D01*
G75*
G02*
X126155000Y16730000I-250000J0D01*
G01*
X125630000Y16730000D01*
G75*
G02*
X125380000Y16980000I0J250000D01*
G01*
G37*
G04 #@! TD*
D12*
G04 #@! TO.C,J3*
X90725000Y79200000D03*
D13*
X90725000Y81740000D03*
X88185000Y79200000D03*
X88185000Y81740000D03*
G04 #@! TD*
G04 #@! TO.C,R146*
G36*
G01*
X169145000Y50255000D02*
X169145000Y50805000D01*
G75*
G02*
X169345000Y51005000I200000J0D01*
G01*
X169745000Y51005000D01*
G75*
G02*
X169945000Y50805000I0J-200000D01*
G01*
X169945000Y50255000D01*
G75*
G02*
X169745000Y50055000I-200000J0D01*
G01*
X169345000Y50055000D01*
G75*
G02*
X169145000Y50255000I0J200000D01*
G01*
G37*
G36*
G01*
X170795000Y50255000D02*
X170795000Y50805000D01*
G75*
G02*
X170995000Y51005000I200000J0D01*
G01*
X171395000Y51005000D01*
G75*
G02*
X171595000Y50805000I0J-200000D01*
G01*
X171595000Y50255000D01*
G75*
G02*
X171395000Y50055000I-200000J0D01*
G01*
X170995000Y50055000D01*
G75*
G02*
X170795000Y50255000I0J200000D01*
G01*
G37*
G04 #@! TD*
G04 #@! TO.C,R35*
G36*
G01*
X93299999Y89875000D02*
X93299999Y91125000D01*
G75*
G02*
X93399999Y91225000I100000J0D01*
G01*
X94199999Y91225000D01*
G75*
G02*
X94299999Y91125000I0J-100000D01*
G01*
X94299999Y89875000D01*
G75*
G02*
X94199999Y89775000I-100000J0D01*
G01*
X93399999Y89775000D01*
G75*
G02*
X93299999Y89875000I0J100000D01*
G01*
G37*
G36*
G01*
X95200021Y89875000D02*
X95200021Y91125000D01*
G75*
G02*
X95300021Y91225000I100000J0D01*
G01*
X96100021Y91225000D01*
G75*
G02*
X96200021Y91125000I0J-100000D01*
G01*
X96200021Y89875000D01*
G75*
G02*
X96100021Y89775000I-100000J0D01*
G01*
X95300021Y89775000D01*
G75*
G02*
X95200021Y89875000I0J100000D01*
G01*
G37*
G04 #@! TD*
G04 #@! TO.C,D17*
G36*
G01*
X177600000Y36310000D02*
X177600000Y36610000D01*
G75*
G02*
X177750000Y36760000I150000J0D01*
G01*
X178775000Y36760000D01*
G75*
G02*
X178925000Y36610000I0J-150000D01*
G01*
X178925000Y36310000D01*
G75*
G02*
X178775000Y36160000I-150000J0D01*
G01*
X177750000Y36160000D01*
G75*
G02*
X177600000Y36310000I0J150000D01*
G01*
G37*
G36*
G01*
X177600000Y35360000D02*
X177600000Y35660000D01*
G75*
G02*
X177750000Y35810000I150000J0D01*
G01*
X178775000Y35810000D01*
G75*
G02*
X178925000Y35660000I0J-150000D01*
G01*
X178925000Y35360000D01*
G75*
G02*
X178775000Y35210000I-150000J0D01*
G01*
X177750000Y35210000D01*
G75*
G02*
X177600000Y35360000I0J150000D01*
G01*
G37*
G36*
G01*
X177600000Y34410000D02*
X177600000Y34710000D01*
G75*
G02*
X177750000Y34860000I150000J0D01*
G01*
X178775000Y34860000D01*
G75*
G02*
X178925000Y34710000I0J-150000D01*
G01*
X178925000Y34410000D01*
G75*
G02*
X178775000Y34260000I-150000J0D01*
G01*
X177750000Y34260000D01*
G75*
G02*
X177600000Y34410000I0J150000D01*
G01*
G37*
G36*
G01*
X179875000Y34410000D02*
X179875000Y34710000D01*
G75*
G02*
X180025000Y34860000I150000J0D01*
G01*
X181050000Y34860000D01*
G75*
G02*
X181200000Y34710000I0J-150000D01*
G01*
X181200000Y34410000D01*
G75*
G02*
X181050000Y34260000I-150000J0D01*
G01*
X180025000Y34260000D01*
G75*
G02*
X179875000Y34410000I0J150000D01*
G01*
G37*
G36*
G01*
X179875000Y35360000D02*
X179875000Y35660000D01*
G75*
G02*
X180025000Y35810000I150000J0D01*
G01*
X181050000Y35810000D01*
G75*
G02*
X181200000Y35660000I0J-150000D01*
G01*
X181200000Y35360000D01*
G75*
G02*
X181050000Y35210000I-150000J0D01*
G01*
X180025000Y35210000D01*
G75*
G02*
X179875000Y35360000I0J150000D01*
G01*
G37*
G36*
G01*
X179875000Y36310000D02*
X179875000Y36610000D01*
G75*
G02*
X180025000Y36760000I150000J0D01*
G01*
X181050000Y36760000D01*
G75*
G02*
X181200000Y36610000I0J-150000D01*
G01*
X181200000Y36310000D01*
G75*
G02*
X181050000Y36160000I-150000J0D01*
G01*
X180025000Y36160000D01*
G75*
G02*
X179875000Y36310000I0J150000D01*
G01*
G37*
G04 #@! TD*
D12*
G04 #@! TO.C,J16*
X30790000Y89225000D03*
D13*
X28250000Y89225000D03*
X30790000Y86685000D03*
X28250000Y86685000D03*
G04 #@! TD*
D18*
G04 #@! TO.C,F1*
X22800000Y19450000D03*
G36*
G01*
X21900000Y18105010D02*
X21900000Y18795010D01*
G75*
G02*
X22130000Y19025010I230000J0D01*
G01*
X23470000Y19025010D01*
G75*
G02*
X23700000Y18795010I0J-230000D01*
G01*
X23700000Y18105010D01*
G75*
G02*
X23470000Y17875010I-230000J0D01*
G01*
X22130000Y17875010D01*
G75*
G02*
X21900000Y18105010I0J230000D01*
G01*
G37*
G36*
G01*
X21900000Y15204990D02*
X21900000Y15894990D01*
G75*
G02*
X22130000Y16124990I230000J0D01*
G01*
X23470000Y16124990D01*
G75*
G02*
X23700000Y15894990I0J-230000D01*
G01*
X23700000Y15204990D01*
G75*
G02*
X23470000Y14974990I-230000J0D01*
G01*
X22130000Y14974990D01*
G75*
G02*
X21900000Y15204990I0J230000D01*
G01*
G37*
X22800000Y14550000D03*
G04 #@! TD*
G04 #@! TO.C,R94*
G36*
G01*
X157115000Y17625000D02*
X157115000Y18175000D01*
G75*
G02*
X157315000Y18375000I200000J0D01*
G01*
X157715000Y18375000D01*
G75*
G02*
X157915000Y18175000I0J-200000D01*
G01*
X157915000Y17625000D01*
G75*
G02*
X157715000Y17425000I-200000J0D01*
G01*
X157315000Y17425000D01*
G75*
G02*
X157115000Y17625000I0J200000D01*
G01*
G37*
G36*
G01*
X158765000Y17625000D02*
X158765000Y18175000D01*
G75*
G02*
X158965000Y18375000I200000J0D01*
G01*
X159365000Y18375000D01*
G75*
G02*
X159565000Y18175000I0J-200000D01*
G01*
X159565000Y17625000D01*
G75*
G02*
X159365000Y17425000I-200000J0D01*
G01*
X158965000Y17425000D01*
G75*
G02*
X158765000Y17625000I0J200000D01*
G01*
G37*
G04 #@! TD*
D14*
G04 #@! TO.C,G3*
X39500000Y49960000D03*
X39500000Y52500000D03*
X39500000Y55040000D03*
X39500000Y57580000D03*
X39500000Y60120000D03*
X42040000Y49960000D03*
X42040000Y52500000D03*
X42040000Y55040000D03*
X42040000Y57580000D03*
X42040000Y60120000D03*
X44580000Y49960000D03*
X44580000Y52500000D03*
X44580000Y55040000D03*
X44580000Y57580000D03*
X44580000Y60120000D03*
G04 #@! TD*
G04 #@! TO.C,C90*
G36*
G01*
X149095000Y17650000D02*
X149095000Y18150000D01*
G75*
G02*
X149320000Y18375000I225000J0D01*
G01*
X149770000Y18375000D01*
G75*
G02*
X149995000Y18150000I0J-225000D01*
G01*
X149995000Y17650000D01*
G75*
G02*
X149770000Y17425000I-225000J0D01*
G01*
X149320000Y17425000D01*
G75*
G02*
X149095000Y17650000I0J225000D01*
G01*
G37*
G36*
G01*
X150645000Y17650000D02*
X150645000Y18150000D01*
G75*
G02*
X150870000Y18375000I225000J0D01*
G01*
X151320000Y18375000D01*
G75*
G02*
X151545000Y18150000I0J-225000D01*
G01*
X151545000Y17650000D01*
G75*
G02*
X151320000Y17425000I-225000J0D01*
G01*
X150870000Y17425000D01*
G75*
G02*
X150645000Y17650000I0J225000D01*
G01*
G37*
G04 #@! TD*
G04 #@! TO.C,R160*
G36*
G01*
X169145000Y32685000D02*
X169145000Y33235000D01*
G75*
G02*
X169345000Y33435000I200000J0D01*
G01*
X169745000Y33435000D01*
G75*
G02*
X169945000Y33235000I0J-200000D01*
G01*
X169945000Y32685000D01*
G75*
G02*
X169745000Y32485000I-200000J0D01*
G01*
X169345000Y32485000D01*
G75*
G02*
X169145000Y32685000I0J200000D01*
G01*
G37*
G36*
G01*
X170795000Y32685000D02*
X170795000Y33235000D01*
G75*
G02*
X170995000Y33435000I200000J0D01*
G01*
X171395000Y33435000D01*
G75*
G02*
X171595000Y33235000I0J-200000D01*
G01*
X171595000Y32685000D01*
G75*
G02*
X171395000Y32485000I-200000J0D01*
G01*
X170995000Y32485000D01*
G75*
G02*
X170795000Y32685000I0J200000D01*
G01*
G37*
G04 #@! TD*
G04 #@! TO.C,Q19*
G36*
G01*
X157230000Y65790000D02*
X157230000Y66490000D01*
G75*
G02*
X157480000Y66740000I250000J0D01*
G01*
X159180000Y66740000D01*
G75*
G02*
X159430000Y66490000I0J-250000D01*
G01*
X159430000Y65790000D01*
G75*
G02*
X159180000Y65540000I-250000J0D01*
G01*
X157480000Y65540000D01*
G75*
G02*
X157230000Y65790000I0J250000D01*
G01*
G37*
G36*
G01*
X161430000Y61209997D02*
X161430000Y66510003D01*
G75*
G02*
X161679997Y66760000I249997J0D01*
G01*
X167580003Y66760000D01*
G75*
G02*
X167830000Y66510003I0J-249997D01*
G01*
X167830000Y61209997D01*
G75*
G02*
X167580003Y60960000I-249997J0D01*
G01*
X161679997Y60960000D01*
G75*
G02*
X161430000Y61209997I0J249997D01*
G01*
G37*
G36*
G01*
X157230000Y61230000D02*
X157230000Y61930000D01*
G75*
G02*
X157480000Y62180000I250000J0D01*
G01*
X159180000Y62180000D01*
G75*
G02*
X159430000Y61930000I0J-250000D01*
G01*
X159430000Y61230000D01*
G75*
G02*
X159180000Y60980000I-250000J0D01*
G01*
X157480000Y60980000D01*
G75*
G02*
X157230000Y61230000I0J250000D01*
G01*
G37*
G04 #@! TD*
G04 #@! TO.C,P3*
X62500000Y2500000D03*
G04 #@! TD*
G04 #@! TO.C,D25*
G36*
G01*
X136735000Y71730000D02*
X136735000Y73530000D01*
G75*
G02*
X136985000Y73780000I250000J0D01*
G01*
X138985000Y73780000D01*
G75*
G02*
X139235000Y73530000I0J-250000D01*
G01*
X139235000Y71730000D01*
G75*
G02*
X138985000Y71480000I-250000J0D01*
G01*
X136985000Y71480000D01*
G75*
G02*
X136735000Y71730000I0J250000D01*
G01*
G37*
G36*
G01*
X141035000Y71730000D02*
X141035000Y73530000D01*
G75*
G02*
X141285000Y73780000I250000J0D01*
G01*
X143285000Y73780000D01*
G75*
G02*
X143535000Y73530000I0J-250000D01*
G01*
X143535000Y71730000D01*
G75*
G02*
X143285000Y71480000I-250000J0D01*
G01*
X141285000Y71480000D01*
G75*
G02*
X141035000Y71730000I0J250000D01*
G01*
G37*
G04 #@! TD*
G04 #@! TO.C,R164*
G36*
G01*
X136695000Y13855000D02*
X136695000Y15105000D01*
G75*
G02*
X136945000Y15355000I250000J0D01*
G01*
X137570000Y15355000D01*
G75*
G02*
X137820000Y15105000I0J-250000D01*
G01*
X137820000Y13855000D01*
G75*
G02*
X137570000Y13605000I-250000J0D01*
G01*
X136945000Y13605000D01*
G75*
G02*
X136695000Y13855000I0J250000D01*
G01*
G37*
G36*
G01*
X139620000Y13855000D02*
X139620000Y15105000D01*
G75*
G02*
X139870000Y15355000I250000J0D01*
G01*
X140495000Y15355000D01*
G75*
G02*
X140745000Y15105000I0J-250000D01*
G01*
X140745000Y13855000D01*
G75*
G02*
X140495000Y13605000I-250000J0D01*
G01*
X139870000Y13605000D01*
G75*
G02*
X139620000Y13855000I0J250000D01*
G01*
G37*
G04 #@! TD*
G04 #@! TO.C,D24*
G36*
G01*
X136735000Y77280000D02*
X136735000Y79080000D01*
G75*
G02*
X136985000Y79330000I250000J0D01*
G01*
X138985000Y79330000D01*
G75*
G02*
X139235000Y79080000I0J-250000D01*
G01*
X139235000Y77280000D01*
G75*
G02*
X138985000Y77030000I-250000J0D01*
G01*
X136985000Y77030000D01*
G75*
G02*
X136735000Y77280000I0J250000D01*
G01*
G37*
G36*
G01*
X141035000Y77280000D02*
X141035000Y79080000D01*
G75*
G02*
X141285000Y79330000I250000J0D01*
G01*
X143285000Y79330000D01*
G75*
G02*
X143535000Y79080000I0J-250000D01*
G01*
X143535000Y77280000D01*
G75*
G02*
X143285000Y77030000I-250000J0D01*
G01*
X141285000Y77030000D01*
G75*
G02*
X141035000Y77280000I0J250000D01*
G01*
G37*
G04 #@! TD*
D18*
G04 #@! TO.C,R4*
X43474609Y6474609D03*
G36*
G01*
X42849609Y6019610D02*
X44099609Y6019610D01*
G75*
G02*
X44199609Y5919610I0J-100000D01*
G01*
X44199609Y5119610D01*
G75*
G02*
X44099609Y5019610I-100000J0D01*
G01*
X42849609Y5019610D01*
G75*
G02*
X42749609Y5119610I0J100000D01*
G01*
X42749609Y5919610D01*
G75*
G02*
X42849609Y6019610I100000J0D01*
G01*
G37*
G36*
G01*
X42849609Y4119588D02*
X44099609Y4119588D01*
G75*
G02*
X44199609Y4019588I0J-100000D01*
G01*
X44199609Y3219588D01*
G75*
G02*
X44099609Y3119588I-100000J0D01*
G01*
X42849609Y3119588D01*
G75*
G02*
X42749609Y3219588I0J100000D01*
G01*
X42749609Y4019588D01*
G75*
G02*
X42849609Y4119588I100000J0D01*
G01*
G37*
X43474609Y2664609D03*
G04 #@! TD*
D22*
G04 #@! TO.C,S5*
X160520000Y14870000D03*
G04 #@! TD*
G04 #@! TO.C,C65*
G36*
G01*
X149095000Y42750000D02*
X149095000Y43250000D01*
G75*
G02*
X149320000Y43475000I225000J0D01*
G01*
X149770000Y43475000D01*
G75*
G02*
X149995000Y43250000I0J-225000D01*
G01*
X149995000Y42750000D01*
G75*
G02*
X149770000Y42525000I-225000J0D01*
G01*
X149320000Y42525000D01*
G75*
G02*
X149095000Y42750000I0J225000D01*
G01*
G37*
G36*
G01*
X150645000Y42750000D02*
X150645000Y43250000D01*
G75*
G02*
X150870000Y43475000I225000J0D01*
G01*
X151320000Y43475000D01*
G75*
G02*
X151545000Y43250000I0J-225000D01*
G01*
X151545000Y42750000D01*
G75*
G02*
X151320000Y42525000I-225000J0D01*
G01*
X150870000Y42525000D01*
G75*
G02*
X150645000Y42750000I0J225000D01*
G01*
G37*
G04 #@! TD*
G04 #@! TO.C,R11*
G36*
G01*
X29810000Y79500000D02*
X30590000Y79500000D01*
G75*
G02*
X30660000Y79430000I0J-70000D01*
G01*
X30660000Y78870000D01*
G75*
G02*
X30590000Y78800000I-70000J0D01*
G01*
X29810000Y78800000D01*
G75*
G02*
X29740000Y78870000I0J70000D01*
G01*
X29740000Y79430000D01*
G75*
G02*
X29810000Y79500000I70000J0D01*
G01*
G37*
G36*
G01*
X29810000Y77900000D02*
X30590000Y77900000D01*
G75*
G02*
X30660000Y77830000I0J-70000D01*
G01*
X30660000Y77270000D01*
G75*
G02*
X30590000Y77200000I-70000J0D01*
G01*
X29810000Y77200000D01*
G75*
G02*
X29740000Y77270000I0J70000D01*
G01*
X29740000Y77830000D01*
G75*
G02*
X29810000Y77900000I70000J0D01*
G01*
G37*
G04 #@! TD*
G04 #@! TO.C,C40*
G36*
G01*
X145085000Y47770000D02*
X145085000Y48270000D01*
G75*
G02*
X145310000Y48495000I225000J0D01*
G01*
X145760000Y48495000D01*
G75*
G02*
X145985000Y48270000I0J-225000D01*
G01*
X145985000Y47770000D01*
G75*
G02*
X145760000Y47545000I-225000J0D01*
G01*
X145310000Y47545000D01*
G75*
G02*
X145085000Y47770000I0J225000D01*
G01*
G37*
G36*
G01*
X146635000Y47770000D02*
X146635000Y48270000D01*
G75*
G02*
X146860000Y48495000I225000J0D01*
G01*
X147310000Y48495000D01*
G75*
G02*
X147535000Y48270000I0J-225000D01*
G01*
X147535000Y47770000D01*
G75*
G02*
X147310000Y47545000I-225000J0D01*
G01*
X146860000Y47545000D01*
G75*
G02*
X146635000Y47770000I0J225000D01*
G01*
G37*
G04 #@! TD*
G04 #@! TO.C,D3*
G36*
G01*
X19510000Y74400000D02*
X18490000Y74400000D01*
G75*
G02*
X18400000Y74490000I0J90000D01*
G01*
X18400000Y75210000D01*
G75*
G02*
X18490000Y75300000I90000J0D01*
G01*
X19510000Y75300000D01*
G75*
G02*
X19600000Y75210000I0J-90000D01*
G01*
X19600000Y74490000D01*
G75*
G02*
X19510000Y74400000I-90000J0D01*
G01*
G37*
G36*
G01*
X19510000Y77700000D02*
X18490000Y77700000D01*
G75*
G02*
X18400000Y77790000I0J90000D01*
G01*
X18400000Y78510000D01*
G75*
G02*
X18490000Y78600000I90000J0D01*
G01*
X19510000Y78600000D01*
G75*
G02*
X19600000Y78510000I0J-90000D01*
G01*
X19600000Y77790000D01*
G75*
G02*
X19510000Y77700000I-90000J0D01*
G01*
G37*
G04 #@! TD*
G04 #@! TO.C,C56*
G36*
G01*
X145085000Y25180000D02*
X145085000Y25680000D01*
G75*
G02*
X145310000Y25905000I225000J0D01*
G01*
X145760000Y25905000D01*
G75*
G02*
X145985000Y25680000I0J-225000D01*
G01*
X145985000Y25180000D01*
G75*
G02*
X145760000Y24955000I-225000J0D01*
G01*
X145310000Y24955000D01*
G75*
G02*
X145085000Y25180000I0J225000D01*
G01*
G37*
G36*
G01*
X146635000Y25180000D02*
X146635000Y25680000D01*
G75*
G02*
X146860000Y25905000I225000J0D01*
G01*
X147310000Y25905000D01*
G75*
G02*
X147535000Y25680000I0J-225000D01*
G01*
X147535000Y25180000D01*
G75*
G02*
X147310000Y24955000I-225000J0D01*
G01*
X146860000Y24955000D01*
G75*
G02*
X146635000Y25180000I0J225000D01*
G01*
G37*
G04 #@! TD*
G04 #@! TO.C,R38*
G36*
G01*
X96749999Y89875000D02*
X96749999Y91125000D01*
G75*
G02*
X96849999Y91225000I100000J0D01*
G01*
X97649999Y91225000D01*
G75*
G02*
X97749999Y91125000I0J-100000D01*
G01*
X97749999Y89875000D01*
G75*
G02*
X97649999Y89775000I-100000J0D01*
G01*
X96849999Y89775000D01*
G75*
G02*
X96749999Y89875000I0J100000D01*
G01*
G37*
G36*
G01*
X98650021Y89875000D02*
X98650021Y91125000D01*
G75*
G02*
X98750021Y91225000I100000J0D01*
G01*
X99550021Y91225000D01*
G75*
G02*
X99650021Y91125000I0J-100000D01*
G01*
X99650021Y89875000D01*
G75*
G02*
X99550021Y89775000I-100000J0D01*
G01*
X98750021Y89775000D01*
G75*
G02*
X98650021Y89875000I0J100000D01*
G01*
G37*
G04 #@! TD*
G04 #@! TO.C,D33*
G36*
G01*
X199275000Y80958750D02*
X199275000Y81871250D01*
G75*
G02*
X199518750Y82115000I243750J0D01*
G01*
X200006250Y82115000D01*
G75*
G02*
X200250000Y81871250I0J-243750D01*
G01*
X200250000Y80958750D01*
G75*
G02*
X200006250Y80715000I-243750J0D01*
G01*
X199518750Y80715000D01*
G75*
G02*
X199275000Y80958750I0J243750D01*
G01*
G37*
G36*
G01*
X201150000Y80958750D02*
X201150000Y81871250D01*
G75*
G02*
X201393750Y82115000I243750J0D01*
G01*
X201881250Y82115000D01*
G75*
G02*
X202125000Y81871250I0J-243750D01*
G01*
X202125000Y80958750D01*
G75*
G02*
X201881250Y80715000I-243750J0D01*
G01*
X201393750Y80715000D01*
G75*
G02*
X201150000Y80958750I0J243750D01*
G01*
G37*
G04 #@! TD*
G04 #@! TO.C,R36*
G36*
G01*
X93299999Y87375000D02*
X93299999Y88625000D01*
G75*
G02*
X93399999Y88725000I100000J0D01*
G01*
X94199999Y88725000D01*
G75*
G02*
X94299999Y88625000I0J-100000D01*
G01*
X94299999Y87375000D01*
G75*
G02*
X94199999Y87275000I-100000J0D01*
G01*
X93399999Y87275000D01*
G75*
G02*
X93299999Y87375000I0J100000D01*
G01*
G37*
G36*
G01*
X95200021Y87375000D02*
X95200021Y88625000D01*
G75*
G02*
X95300021Y88725000I100000J0D01*
G01*
X96100021Y88725000D01*
G75*
G02*
X96200021Y88625000I0J-100000D01*
G01*
X96200021Y87375000D01*
G75*
G02*
X96100021Y87275000I-100000J0D01*
G01*
X95300021Y87275000D01*
G75*
G02*
X95200021Y87375000I0J100000D01*
G01*
G37*
G04 #@! TD*
D26*
G04 #@! TO.C,U1*
X4200000Y20000000D03*
X4200000Y19000000D03*
X4200000Y18000000D03*
X4200000Y17000000D03*
X4200000Y16000000D03*
X4200000Y15000000D03*
X13800000Y15000000D03*
X13800000Y16000000D03*
X13800000Y17000000D03*
X13800000Y18000000D03*
X13800000Y19000000D03*
X13800000Y20000000D03*
D27*
X9000000Y17500000D03*
G04 #@! TD*
D26*
G04 #@! TO.C,U2*
X10825000Y10540000D03*
X10825000Y9540000D03*
X10825000Y8540000D03*
X10825000Y7540000D03*
X10825000Y6540000D03*
X10825000Y5540000D03*
X20425000Y5540000D03*
X20425000Y6540000D03*
X20425000Y7540000D03*
X20425000Y8540000D03*
X20425000Y9540000D03*
X20425000Y10540000D03*
D27*
X15625000Y8040000D03*
G04 #@! TD*
G04 #@! TO.C,C97*
G36*
G01*
X153105000Y35220000D02*
X153105000Y35720000D01*
G75*
G02*
X153330000Y35945000I225000J0D01*
G01*
X153780000Y35945000D01*
G75*
G02*
X154005000Y35720000I0J-225000D01*
G01*
X154005000Y35220000D01*
G75*
G02*
X153780000Y34995000I-225000J0D01*
G01*
X153330000Y34995000D01*
G75*
G02*
X153105000Y35220000I0J225000D01*
G01*
G37*
G36*
G01*
X154655000Y35220000D02*
X154655000Y35720000D01*
G75*
G02*
X154880000Y35945000I225000J0D01*
G01*
X155330000Y35945000D01*
G75*
G02*
X155555000Y35720000I0J-225000D01*
G01*
X155555000Y35220000D01*
G75*
G02*
X155330000Y34995000I-225000J0D01*
G01*
X154880000Y34995000D01*
G75*
G02*
X154655000Y35220000I0J225000D01*
G01*
G37*
G04 #@! TD*
G04 #@! TO.C,R165*
G36*
G01*
X119145000Y19930000D02*
X119145000Y20830000D01*
G75*
G02*
X119395000Y21080000I250000J0D01*
G01*
X119920000Y21080000D01*
G75*
G02*
X120170000Y20830000I0J-250000D01*
G01*
X120170000Y19930000D01*
G75*
G02*
X119920000Y19680000I-250000J0D01*
G01*
X119395000Y19680000D01*
G75*
G02*
X119145000Y19930000I0J250000D01*
G01*
G37*
G36*
G01*
X120970000Y19930000D02*
X120970000Y20830000D01*
G75*
G02*
X121220000Y21080000I250000J0D01*
G01*
X121745000Y21080000D01*
G75*
G02*
X121995000Y20830000I0J-250000D01*
G01*
X121995000Y19930000D01*
G75*
G02*
X121745000Y19680000I-250000J0D01*
G01*
X121220000Y19680000D01*
G75*
G02*
X120970000Y19930000I0J250000D01*
G01*
G37*
G04 #@! TD*
G04 #@! TO.C,C60*
G36*
G01*
X145085000Y20160000D02*
X145085000Y20660000D01*
G75*
G02*
X145310000Y20885000I225000J0D01*
G01*
X145760000Y20885000D01*
G75*
G02*
X145985000Y20660000I0J-225000D01*
G01*
X145985000Y20160000D01*
G75*
G02*
X145760000Y19935000I-225000J0D01*
G01*
X145310000Y19935000D01*
G75*
G02*
X145085000Y20160000I0J225000D01*
G01*
G37*
G36*
G01*
X146635000Y20160000D02*
X146635000Y20660000D01*
G75*
G02*
X146860000Y20885000I225000J0D01*
G01*
X147310000Y20885000D01*
G75*
G02*
X147535000Y20660000I0J-225000D01*
G01*
X147535000Y20160000D01*
G75*
G02*
X147310000Y19935000I-225000J0D01*
G01*
X146860000Y19935000D01*
G75*
G02*
X146635000Y20160000I0J225000D01*
G01*
G37*
G04 #@! TD*
D12*
G04 #@! TO.C,J24*
X89265000Y78350000D03*
D13*
X89265000Y75810000D03*
X89265000Y73270000D03*
X89265000Y70730000D03*
X89265000Y68190000D03*
X89265000Y65650000D03*
G04 #@! TD*
G04 #@! TO.C,C45*
G36*
G01*
X145085000Y37730000D02*
X145085000Y38230000D01*
G75*
G02*
X145310000Y38455000I225000J0D01*
G01*
X145760000Y38455000D01*
G75*
G02*
X145985000Y38230000I0J-225000D01*
G01*
X145985000Y37730000D01*
G75*
G02*
X145760000Y37505000I-225000J0D01*
G01*
X145310000Y37505000D01*
G75*
G02*
X145085000Y37730000I0J225000D01*
G01*
G37*
G36*
G01*
X146635000Y37730000D02*
X146635000Y38230000D01*
G75*
G02*
X146860000Y38455000I225000J0D01*
G01*
X147310000Y38455000D01*
G75*
G02*
X147535000Y38230000I0J-225000D01*
G01*
X147535000Y37730000D01*
G75*
G02*
X147310000Y37505000I-225000J0D01*
G01*
X146860000Y37505000D01*
G75*
G02*
X146635000Y37730000I0J225000D01*
G01*
G37*
G04 #@! TD*
D29*
G04 #@! TO.C,L3*
X188480000Y72480000D03*
X198980000Y72480000D03*
G04 #@! TD*
G04 #@! TO.C,R167*
G36*
G01*
X119145000Y16980000D02*
X119145000Y17880000D01*
G75*
G02*
X119395000Y18130000I250000J0D01*
G01*
X119920000Y18130000D01*
G75*
G02*
X120170000Y17880000I0J-250000D01*
G01*
X120170000Y16980000D01*
G75*
G02*
X119920000Y16730000I-250000J0D01*
G01*
X119395000Y16730000D01*
G75*
G02*
X119145000Y16980000I0J250000D01*
G01*
G37*
G36*
G01*
X120970000Y16980000D02*
X120970000Y17880000D01*
G75*
G02*
X121220000Y18130000I250000J0D01*
G01*
X121745000Y18130000D01*
G75*
G02*
X121995000Y17880000I0J-250000D01*
G01*
X121995000Y16980000D01*
G75*
G02*
X121745000Y16730000I-250000J0D01*
G01*
X121220000Y16730000D01*
G75*
G02*
X120970000Y16980000I0J250000D01*
G01*
G37*
G04 #@! TD*
G04 #@! TO.C,C38*
G36*
G01*
X173150000Y46795000D02*
X173150000Y47745000D01*
G75*
G02*
X173400000Y47995000I250000J0D01*
G01*
X173900000Y47995000D01*
G75*
G02*
X174150000Y47745000I0J-250000D01*
G01*
X174150000Y46795000D01*
G75*
G02*
X173900000Y46545000I-250000J0D01*
G01*
X173400000Y46545000D01*
G75*
G02*
X173150000Y46795000I0J250000D01*
G01*
G37*
G36*
G01*
X175050000Y46795000D02*
X175050000Y47745000D01*
G75*
G02*
X175300000Y47995000I250000J0D01*
G01*
X175800000Y47995000D01*
G75*
G02*
X176050000Y47745000I0J-250000D01*
G01*
X176050000Y46795000D01*
G75*
G02*
X175800000Y46545000I-250000J0D01*
G01*
X175300000Y46545000D01*
G75*
G02*
X175050000Y46795000I0J250000D01*
G01*
G37*
G04 #@! TD*
G04 #@! TO.C,C82*
G36*
G01*
X149095000Y35220000D02*
X149095000Y35720000D01*
G75*
G02*
X149320000Y35945000I225000J0D01*
G01*
X149770000Y35945000D01*
G75*
G02*
X149995000Y35720000I0J-225000D01*
G01*
X149995000Y35220000D01*
G75*
G02*
X149770000Y34995000I-225000J0D01*
G01*
X149320000Y34995000D01*
G75*
G02*
X149095000Y35220000I0J225000D01*
G01*
G37*
G36*
G01*
X150645000Y35220000D02*
X150645000Y35720000D01*
G75*
G02*
X150870000Y35945000I225000J0D01*
G01*
X151320000Y35945000D01*
G75*
G02*
X151545000Y35720000I0J-225000D01*
G01*
X151545000Y35220000D01*
G75*
G02*
X151320000Y34995000I-225000J0D01*
G01*
X150870000Y34995000D01*
G75*
G02*
X150645000Y35220000I0J225000D01*
G01*
G37*
G04 #@! TD*
D19*
G04 #@! TO.C,J4*
X1975000Y25800000D03*
X1975000Y55200000D03*
G36*
G01*
X10874999Y24450000D02*
X7675001Y24450000D01*
G75*
G02*
X7425000Y24700001I0J250001D01*
G01*
X7425000Y26899999D01*
G75*
G02*
X7675001Y27150000I250001J0D01*
G01*
X10874999Y27150000D01*
G75*
G02*
X11125000Y26899999I0J-250001D01*
G01*
X11125000Y24700001D01*
G75*
G02*
X10874999Y24450000I-250001J0D01*
G01*
G37*
D20*
X9275000Y30000000D03*
X9275000Y34200000D03*
X9275000Y38400000D03*
X9275000Y42600000D03*
X9275000Y46800000D03*
X9275000Y51000000D03*
X9275000Y55200000D03*
X14775000Y25800000D03*
X14775000Y30000000D03*
X14775000Y34200000D03*
X14775000Y38400000D03*
X14775000Y42600000D03*
X14775000Y46800000D03*
X14775000Y51000000D03*
X14775000Y55200000D03*
G04 #@! TD*
G04 #@! TO.C,D32*
G36*
G01*
X181530000Y88120000D02*
X181530000Y88720000D01*
G75*
G02*
X181780000Y88970000I250000J0D01*
G01*
X185880000Y88970000D01*
G75*
G02*
X186130000Y88720000I0J-250000D01*
G01*
X186130000Y88120000D01*
G75*
G02*
X185880000Y87870000I-250000J0D01*
G01*
X181780000Y87870000D01*
G75*
G02*
X181530000Y88120000I0J250000D01*
G01*
G37*
G36*
G01*
X188280000Y80730002D02*
X188280000Y91029998D01*
G75*
G02*
X188530002Y91280000I250002J0D01*
G01*
X197429998Y91280000D01*
G75*
G02*
X197680000Y91029998I0J-250002D01*
G01*
X197680000Y80730002D01*
G75*
G02*
X197429998Y80480000I-250002J0D01*
G01*
X188530002Y80480000D01*
G75*
G02*
X188280000Y80730002I0J250002D01*
G01*
G37*
G36*
G01*
X181530000Y83040000D02*
X181530000Y83640000D01*
G75*
G02*
X181780000Y83890000I250000J0D01*
G01*
X185880000Y83890000D01*
G75*
G02*
X186130000Y83640000I0J-250000D01*
G01*
X186130000Y83040000D01*
G75*
G02*
X185880000Y82790000I-250000J0D01*
G01*
X181780000Y82790000D01*
G75*
G02*
X181530000Y83040000I0J250000D01*
G01*
G37*
G04 #@! TD*
D14*
G04 #@! TO.C,P7*
X83200000Y24000000D03*
G04 #@! TD*
G04 #@! TO.C,R88*
G36*
G01*
X157115000Y25155000D02*
X157115000Y25705000D01*
G75*
G02*
X157315000Y25905000I200000J0D01*
G01*
X157715000Y25905000D01*
G75*
G02*
X157915000Y25705000I0J-200000D01*
G01*
X157915000Y25155000D01*
G75*
G02*
X157715000Y24955000I-200000J0D01*
G01*
X157315000Y24955000D01*
G75*
G02*
X157115000Y25155000I0J200000D01*
G01*
G37*
G36*
G01*
X158765000Y25155000D02*
X158765000Y25705000D01*
G75*
G02*
X158965000Y25905000I200000J0D01*
G01*
X159365000Y25905000D01*
G75*
G02*
X159565000Y25705000I0J-200000D01*
G01*
X159565000Y25155000D01*
G75*
G02*
X159365000Y24955000I-200000J0D01*
G01*
X158965000Y24955000D01*
G75*
G02*
X158765000Y25155000I0J200000D01*
G01*
G37*
G04 #@! TD*
G04 #@! TO.C,R139*
G36*
G01*
X165135000Y32685000D02*
X165135000Y33235000D01*
G75*
G02*
X165335000Y33435000I200000J0D01*
G01*
X165735000Y33435000D01*
G75*
G02*
X165935000Y33235000I0J-200000D01*
G01*
X165935000Y32685000D01*
G75*
G02*
X165735000Y32485000I-200000J0D01*
G01*
X165335000Y32485000D01*
G75*
G02*
X165135000Y32685000I0J200000D01*
G01*
G37*
G36*
G01*
X166785000Y32685000D02*
X166785000Y33235000D01*
G75*
G02*
X166985000Y33435000I200000J0D01*
G01*
X167385000Y33435000D01*
G75*
G02*
X167585000Y33235000I0J-200000D01*
G01*
X167585000Y32685000D01*
G75*
G02*
X167385000Y32485000I-200000J0D01*
G01*
X166985000Y32485000D01*
G75*
G02*
X166785000Y32685000I0J200000D01*
G01*
G37*
G04 #@! TD*
G04 #@! TO.C,C66*
G36*
G01*
X149095000Y40240000D02*
X149095000Y40740000D01*
G75*
G02*
X149320000Y40965000I225000J0D01*
G01*
X149770000Y40965000D01*
G75*
G02*
X149995000Y40740000I0J-225000D01*
G01*
X149995000Y40240000D01*
G75*
G02*
X149770000Y40015000I-225000J0D01*
G01*
X149320000Y40015000D01*
G75*
G02*
X149095000Y40240000I0J225000D01*
G01*
G37*
G36*
G01*
X150645000Y40240000D02*
X150645000Y40740000D01*
G75*
G02*
X150870000Y40965000I225000J0D01*
G01*
X151320000Y40965000D01*
G75*
G02*
X151545000Y40740000I0J-225000D01*
G01*
X151545000Y40240000D01*
G75*
G02*
X151320000Y40015000I-225000J0D01*
G01*
X150870000Y40015000D01*
G75*
G02*
X150645000Y40240000I0J225000D01*
G01*
G37*
G04 #@! TD*
G04 #@! TO.C,C89*
G36*
G01*
X149095000Y20160000D02*
X149095000Y20660000D01*
G75*
G02*
X149320000Y20885000I225000J0D01*
G01*
X149770000Y20885000D01*
G75*
G02*
X149995000Y20660000I0J-225000D01*
G01*
X149995000Y20160000D01*
G75*
G02*
X149770000Y19935000I-225000J0D01*
G01*
X149320000Y19935000D01*
G75*
G02*
X149095000Y20160000I0J225000D01*
G01*
G37*
G36*
G01*
X150645000Y20160000D02*
X150645000Y20660000D01*
G75*
G02*
X150870000Y20885000I225000J0D01*
G01*
X151320000Y20885000D01*
G75*
G02*
X151545000Y20660000I0J-225000D01*
G01*
X151545000Y20160000D01*
G75*
G02*
X151320000Y19935000I-225000J0D01*
G01*
X150870000Y19935000D01*
G75*
G02*
X150645000Y20160000I0J225000D01*
G01*
G37*
G04 #@! TD*
D30*
G04 #@! TO.C,Y2*
X137690000Y36820000D03*
X137690000Y31740000D03*
X142090000Y31740000D03*
X142090000Y36820000D03*
G04 #@! TD*
G04 #@! TO.C,C36*
G36*
G01*
X173150000Y49805000D02*
X173150000Y50755000D01*
G75*
G02*
X173400000Y51005000I250000J0D01*
G01*
X173900000Y51005000D01*
G75*
G02*
X174150000Y50755000I0J-250000D01*
G01*
X174150000Y49805000D01*
G75*
G02*
X173900000Y49555000I-250000J0D01*
G01*
X173400000Y49555000D01*
G75*
G02*
X173150000Y49805000I0J250000D01*
G01*
G37*
G36*
G01*
X175050000Y49805000D02*
X175050000Y50755000D01*
G75*
G02*
X175300000Y51005000I250000J0D01*
G01*
X175800000Y51005000D01*
G75*
G02*
X176050000Y50755000I0J-250000D01*
G01*
X176050000Y49805000D01*
G75*
G02*
X175800000Y49555000I-250000J0D01*
G01*
X175300000Y49555000D01*
G75*
G02*
X175050000Y49805000I0J250000D01*
G01*
G37*
G04 #@! TD*
G04 #@! TO.C,D26*
G36*
G01*
X136735000Y66180000D02*
X136735000Y67980000D01*
G75*
G02*
X136985000Y68230000I250000J0D01*
G01*
X138985000Y68230000D01*
G75*
G02*
X139235000Y67980000I0J-250000D01*
G01*
X139235000Y66180000D01*
G75*
G02*
X138985000Y65930000I-250000J0D01*
G01*
X136985000Y65930000D01*
G75*
G02*
X136735000Y66180000I0J250000D01*
G01*
G37*
G36*
G01*
X141035000Y66180000D02*
X141035000Y67980000D01*
G75*
G02*
X141285000Y68230000I250000J0D01*
G01*
X143285000Y68230000D01*
G75*
G02*
X143535000Y67980000I0J-250000D01*
G01*
X143535000Y66180000D01*
G75*
G02*
X143285000Y65930000I-250000J0D01*
G01*
X141285000Y65930000D01*
G75*
G02*
X141035000Y66180000I0J250000D01*
G01*
G37*
G04 #@! TD*
G04 #@! TO.C,C83*
G36*
G01*
X149095000Y32710000D02*
X149095000Y33210000D01*
G75*
G02*
X149320000Y33435000I225000J0D01*
G01*
X149770000Y33435000D01*
G75*
G02*
X149995000Y33210000I0J-225000D01*
G01*
X149995000Y32710000D01*
G75*
G02*
X149770000Y32485000I-225000J0D01*
G01*
X149320000Y32485000D01*
G75*
G02*
X149095000Y32710000I0J225000D01*
G01*
G37*
G36*
G01*
X150645000Y32710000D02*
X150645000Y33210000D01*
G75*
G02*
X150870000Y33435000I225000J0D01*
G01*
X151320000Y33435000D01*
G75*
G02*
X151545000Y33210000I0J-225000D01*
G01*
X151545000Y32710000D01*
G75*
G02*
X151320000Y32485000I-225000J0D01*
G01*
X150870000Y32485000D01*
G75*
G02*
X150645000Y32710000I0J225000D01*
G01*
G37*
G04 #@! TD*
G04 #@! TO.C,D27*
G36*
G01*
X136735000Y60630000D02*
X136735000Y62430000D01*
G75*
G02*
X136985000Y62680000I250000J0D01*
G01*
X138985000Y62680000D01*
G75*
G02*
X139235000Y62430000I0J-250000D01*
G01*
X139235000Y60630000D01*
G75*
G02*
X138985000Y60380000I-250000J0D01*
G01*
X136985000Y60380000D01*
G75*
G02*
X136735000Y60630000I0J250000D01*
G01*
G37*
G36*
G01*
X141035000Y60630000D02*
X141035000Y62430000D01*
G75*
G02*
X141285000Y62680000I250000J0D01*
G01*
X143285000Y62680000D01*
G75*
G02*
X143535000Y62430000I0J-250000D01*
G01*
X143535000Y60630000D01*
G75*
G02*
X143285000Y60380000I-250000J0D01*
G01*
X141285000Y60380000D01*
G75*
G02*
X141035000Y60630000I0J250000D01*
G01*
G37*
G04 #@! TD*
G04 #@! TO.C,Q18*
G36*
G01*
X157230000Y73845000D02*
X157230000Y74545000D01*
G75*
G02*
X157480000Y74795000I250000J0D01*
G01*
X159180000Y74795000D01*
G75*
G02*
X159430000Y74545000I0J-250000D01*
G01*
X159430000Y73845000D01*
G75*
G02*
X159180000Y73595000I-250000J0D01*
G01*
X157480000Y73595000D01*
G75*
G02*
X157230000Y73845000I0J250000D01*
G01*
G37*
G36*
G01*
X161430000Y69264997D02*
X161430000Y74565003D01*
G75*
G02*
X161679997Y74815000I249997J0D01*
G01*
X167580003Y74815000D01*
G75*
G02*
X167830000Y74565003I0J-249997D01*
G01*
X167830000Y69264997D01*
G75*
G02*
X167580003Y69015000I-249997J0D01*
G01*
X161679997Y69015000D01*
G75*
G02*
X161430000Y69264997I0J249997D01*
G01*
G37*
G36*
G01*
X157230000Y69285000D02*
X157230000Y69985000D01*
G75*
G02*
X157480000Y70235000I250000J0D01*
G01*
X159180000Y70235000D01*
G75*
G02*
X159430000Y69985000I0J-250000D01*
G01*
X159430000Y69285000D01*
G75*
G02*
X159180000Y69035000I-250000J0D01*
G01*
X157480000Y69035000D01*
G75*
G02*
X157230000Y69285000I0J250000D01*
G01*
G37*
G04 #@! TD*
G04 #@! TO.C,C95*
G36*
G01*
X153105000Y40240000D02*
X153105000Y40740000D01*
G75*
G02*
X153330000Y40965000I225000J0D01*
G01*
X153780000Y40965000D01*
G75*
G02*
X154005000Y40740000I0J-225000D01*
G01*
X154005000Y40240000D01*
G75*
G02*
X153780000Y40015000I-225000J0D01*
G01*
X153330000Y40015000D01*
G75*
G02*
X153105000Y40240000I0J225000D01*
G01*
G37*
G36*
G01*
X154655000Y40240000D02*
X154655000Y40740000D01*
G75*
G02*
X154880000Y40965000I225000J0D01*
G01*
X155330000Y40965000D01*
G75*
G02*
X155555000Y40740000I0J-225000D01*
G01*
X155555000Y40240000D01*
G75*
G02*
X155330000Y40015000I-225000J0D01*
G01*
X154880000Y40015000D01*
G75*
G02*
X154655000Y40240000I0J225000D01*
G01*
G37*
G04 #@! TD*
G04 #@! TO.C,Q14*
G36*
G01*
X145080000Y65790000D02*
X145080000Y66490000D01*
G75*
G02*
X145330000Y66740000I250000J0D01*
G01*
X147030000Y66740000D01*
G75*
G02*
X147280000Y66490000I0J-250000D01*
G01*
X147280000Y65790000D01*
G75*
G02*
X147030000Y65540000I-250000J0D01*
G01*
X145330000Y65540000D01*
G75*
G02*
X145080000Y65790000I0J250000D01*
G01*
G37*
G36*
G01*
X149280000Y61209997D02*
X149280000Y66510003D01*
G75*
G02*
X149529997Y66760000I249997J0D01*
G01*
X155430003Y66760000D01*
G75*
G02*
X155680000Y66510003I0J-249997D01*
G01*
X155680000Y61209997D01*
G75*
G02*
X155430003Y60960000I-249997J0D01*
G01*
X149529997Y60960000D01*
G75*
G02*
X149280000Y61209997I0J249997D01*
G01*
G37*
G36*
G01*
X145080000Y61230000D02*
X145080000Y61930000D01*
G75*
G02*
X145330000Y62180000I250000J0D01*
G01*
X147030000Y62180000D01*
G75*
G02*
X147280000Y61930000I0J-250000D01*
G01*
X147280000Y61230000D01*
G75*
G02*
X147030000Y60980000I-250000J0D01*
G01*
X145330000Y60980000D01*
G75*
G02*
X145080000Y61230000I0J250000D01*
G01*
G37*
G04 #@! TD*
D22*
G04 #@! TO.C,S7*
X164070000Y14870000D03*
G04 #@! TD*
G04 #@! TO.C,S3*
X156970000Y14870000D03*
G04 #@! TD*
G04 #@! TO.C,Q11*
G36*
G01*
X28800000Y32570000D02*
X28800000Y31870000D01*
G75*
G02*
X28550000Y31620000I-250000J0D01*
G01*
X26850000Y31620000D01*
G75*
G02*
X26600000Y31870000I0J250000D01*
G01*
X26600000Y32570000D01*
G75*
G02*
X26850000Y32820000I250000J0D01*
G01*
X28550000Y32820000D01*
G75*
G02*
X28800000Y32570000I0J-250000D01*
G01*
G37*
G36*
G01*
X24600000Y37150003D02*
X24600000Y31849997D01*
G75*
G02*
X24350003Y31600000I-249997J0D01*
G01*
X18449997Y31600000D01*
G75*
G02*
X18200000Y31849997I0J249997D01*
G01*
X18200000Y37150003D01*
G75*
G02*
X18449997Y37400000I249997J0D01*
G01*
X24350003Y37400000D01*
G75*
G02*
X24600000Y37150003I0J-249997D01*
G01*
G37*
G36*
G01*
X28800000Y37130000D02*
X28800000Y36430000D01*
G75*
G02*
X28550000Y36180000I-250000J0D01*
G01*
X26850000Y36180000D01*
G75*
G02*
X26600000Y36430000I0J250000D01*
G01*
X26600000Y37130000D01*
G75*
G02*
X26850000Y37380000I250000J0D01*
G01*
X28550000Y37380000D01*
G75*
G02*
X28800000Y37130000I0J-250000D01*
G01*
G37*
G04 #@! TD*
G04 #@! TO.C,D6*
G36*
G01*
X206395000Y40125000D02*
X206395000Y40425000D01*
G75*
G02*
X206545000Y40575000I150000J0D01*
G01*
X207720000Y40575000D01*
G75*
G02*
X207870000Y40425000I0J-150000D01*
G01*
X207870000Y40125000D01*
G75*
G02*
X207720000Y39975000I-150000J0D01*
G01*
X206545000Y39975000D01*
G75*
G02*
X206395000Y40125000I0J150000D01*
G01*
G37*
G36*
G01*
X206395000Y38225000D02*
X206395000Y38525000D01*
G75*
G02*
X206545000Y38675000I150000J0D01*
G01*
X207720000Y38675000D01*
G75*
G02*
X207870000Y38525000I0J-150000D01*
G01*
X207870000Y38225000D01*
G75*
G02*
X207720000Y38075000I-150000J0D01*
G01*
X206545000Y38075000D01*
G75*
G02*
X206395000Y38225000I0J150000D01*
G01*
G37*
G36*
G01*
X208270000Y39175000D02*
X208270000Y39475000D01*
G75*
G02*
X208420000Y39625000I150000J0D01*
G01*
X209595000Y39625000D01*
G75*
G02*
X209745000Y39475000I0J-150000D01*
G01*
X209745000Y39175000D01*
G75*
G02*
X209595000Y39025000I-150000J0D01*
G01*
X208420000Y39025000D01*
G75*
G02*
X208270000Y39175000I0J150000D01*
G01*
G37*
G04 #@! TD*
D12*
G04 #@! TO.C,J13*
X63690000Y89225000D03*
D13*
X61150000Y89225000D03*
X63690000Y86685000D03*
X61150000Y86685000D03*
G04 #@! TD*
D31*
G04 #@! TO.C,J27*
X195340000Y56480000D03*
X200420000Y57496000D03*
X200420000Y55464000D03*
D32*
X196610000Y55845000D03*
X196610000Y57115000D03*
X197880000Y55845000D03*
X197880000Y57115000D03*
X199150000Y55845000D03*
X199150000Y57115000D03*
G04 #@! TD*
D19*
G04 #@! TO.C,J9*
X50000000Y11300000D03*
X83600000Y11300000D03*
G36*
G01*
X48650000Y2400001D02*
X48650000Y5599999D01*
G75*
G02*
X48900001Y5850000I250001J0D01*
G01*
X51099999Y5850000D01*
G75*
G02*
X51350000Y5599999I0J-250001D01*
G01*
X51350000Y2400001D01*
G75*
G02*
X51099999Y2150000I-250001J0D01*
G01*
X48900001Y2150000D01*
G75*
G02*
X48650000Y2400001I0J250001D01*
G01*
G37*
D33*
X54200000Y4000000D03*
X58400000Y4000000D03*
X62600000Y4000000D03*
X66800000Y4000000D03*
X71000000Y4000000D03*
X75200000Y4000000D03*
X79400000Y4000000D03*
X83600000Y4000000D03*
X50000000Y-1500000D03*
X54200000Y-1500000D03*
X58400000Y-1500000D03*
X62600000Y-1500000D03*
X66800000Y-1500000D03*
X71000000Y-1500000D03*
X75200000Y-1500000D03*
X79400000Y-1500000D03*
X83600000Y-1500000D03*
G04 #@! TD*
D16*
G04 #@! TO.C,H3*
X94100000Y3500000D03*
X94802944Y5197056D03*
X94802944Y1802944D03*
X96500000Y5900000D03*
D17*
X96500000Y3500000D03*
D16*
X96500000Y1100000D03*
X98197056Y5197056D03*
X98197056Y1802944D03*
X98900000Y3500000D03*
G04 #@! TD*
G04 #@! TO.C,R151*
G36*
G01*
X169145000Y42725000D02*
X169145000Y43275000D01*
G75*
G02*
X169345000Y43475000I200000J0D01*
G01*
X169745000Y43475000D01*
G75*
G02*
X169945000Y43275000I0J-200000D01*
G01*
X169945000Y42725000D01*
G75*
G02*
X169745000Y42525000I-200000J0D01*
G01*
X169345000Y42525000D01*
G75*
G02*
X169145000Y42725000I0J200000D01*
G01*
G37*
G36*
G01*
X170795000Y42725000D02*
X170795000Y43275000D01*
G75*
G02*
X170995000Y43475000I200000J0D01*
G01*
X171395000Y43475000D01*
G75*
G02*
X171595000Y43275000I0J-200000D01*
G01*
X171595000Y42725000D01*
G75*
G02*
X171395000Y42525000I-200000J0D01*
G01*
X170995000Y42525000D01*
G75*
G02*
X170795000Y42725000I0J200000D01*
G01*
G37*
G04 #@! TD*
G04 #@! TO.C,R137*
G36*
G01*
X165135000Y37705000D02*
X165135000Y38255000D01*
G75*
G02*
X165335000Y38455000I200000J0D01*
G01*
X165735000Y38455000D01*
G75*
G02*
X165935000Y38255000I0J-200000D01*
G01*
X165935000Y37705000D01*
G75*
G02*
X165735000Y37505000I-200000J0D01*
G01*
X165335000Y37505000D01*
G75*
G02*
X165135000Y37705000I0J200000D01*
G01*
G37*
G36*
G01*
X166785000Y37705000D02*
X166785000Y38255000D01*
G75*
G02*
X166985000Y38455000I200000J0D01*
G01*
X167385000Y38455000D01*
G75*
G02*
X167585000Y38255000I0J-200000D01*
G01*
X167585000Y37705000D01*
G75*
G02*
X167385000Y37505000I-200000J0D01*
G01*
X166985000Y37505000D01*
G75*
G02*
X166785000Y37705000I0J200000D01*
G01*
G37*
G04 #@! TD*
D21*
G04 #@! TO.C,M4*
X38125000Y62675000D03*
X36925000Y62675000D03*
X39325000Y62675000D03*
X40525000Y62675000D03*
X34065000Y77100000D03*
X33065000Y77100000D03*
G04 #@! TD*
D12*
G04 #@! TO.C,J14*
X13990000Y89225000D03*
D13*
X11450000Y89225000D03*
X13990000Y86685000D03*
X11450000Y86685000D03*
G04 #@! TD*
D34*
G04 #@! TO.C,J26*
X193600000Y20120000D03*
X197500000Y20120000D03*
X193600000Y18850000D03*
X197500000Y18850000D03*
X193600000Y17580000D03*
X197500000Y17580000D03*
X193600000Y16310000D03*
X197500000Y16310000D03*
X193600000Y15040000D03*
X197500000Y15040000D03*
X193600000Y13770000D03*
X197500000Y13770000D03*
X193600000Y12500000D03*
X197500000Y12500000D03*
G04 #@! TD*
G04 #@! TO.C,D20*
G36*
G01*
X145080000Y89955000D02*
X145080000Y90655000D01*
G75*
G02*
X145330000Y90905000I250000J0D01*
G01*
X147030000Y90905000D01*
G75*
G02*
X147280000Y90655000I0J-250000D01*
G01*
X147280000Y89955000D01*
G75*
G02*
X147030000Y89705000I-250000J0D01*
G01*
X145330000Y89705000D01*
G75*
G02*
X145080000Y89955000I0J250000D01*
G01*
G37*
G36*
G01*
X149280000Y85374997D02*
X149280000Y90675003D01*
G75*
G02*
X149529997Y90925000I249997J0D01*
G01*
X155430003Y90925000D01*
G75*
G02*
X155680000Y90675003I0J-249997D01*
G01*
X155680000Y85374997D01*
G75*
G02*
X155430003Y85125000I-249997J0D01*
G01*
X149529997Y85125000D01*
G75*
G02*
X149280000Y85374997I0J249997D01*
G01*
G37*
G36*
G01*
X145080000Y85395000D02*
X145080000Y86095000D01*
G75*
G02*
X145330000Y86345000I250000J0D01*
G01*
X147030000Y86345000D01*
G75*
G02*
X147280000Y86095000I0J-250000D01*
G01*
X147280000Y85395000D01*
G75*
G02*
X147030000Y85145000I-250000J0D01*
G01*
X145330000Y85145000D01*
G75*
G02*
X145080000Y85395000I0J250000D01*
G01*
G37*
G04 #@! TD*
G04 #@! TO.C,R142*
G36*
G01*
X165135000Y25155000D02*
X165135000Y25705000D01*
G75*
G02*
X165335000Y25905000I200000J0D01*
G01*
X165735000Y25905000D01*
G75*
G02*
X165935000Y25705000I0J-200000D01*
G01*
X165935000Y25155000D01*
G75*
G02*
X165735000Y24955000I-200000J0D01*
G01*
X165335000Y24955000D01*
G75*
G02*
X165135000Y25155000I0J200000D01*
G01*
G37*
G36*
G01*
X166785000Y25155000D02*
X166785000Y25705000D01*
G75*
G02*
X166985000Y25905000I200000J0D01*
G01*
X167385000Y25905000D01*
G75*
G02*
X167585000Y25705000I0J-200000D01*
G01*
X167585000Y25155000D01*
G75*
G02*
X167385000Y24955000I-200000J0D01*
G01*
X166985000Y24955000D01*
G75*
G02*
X166785000Y25155000I0J200000D01*
G01*
G37*
G04 #@! TD*
D12*
G04 #@! TO.C,J18*
X13315000Y77950000D03*
D13*
X10775000Y77950000D03*
X13315000Y75410000D03*
X10775000Y75410000D03*
G04 #@! TD*
D18*
G04 #@! TO.C,F2*
X18550000Y22600000D03*
G36*
G01*
X19894990Y21700000D02*
X19204990Y21700000D01*
G75*
G02*
X18974990Y21930000I0J230000D01*
G01*
X18974990Y23270000D01*
G75*
G02*
X19204990Y23500000I230000J0D01*
G01*
X19894990Y23500000D01*
G75*
G02*
X20124990Y23270000I0J-230000D01*
G01*
X20124990Y21930000D01*
G75*
G02*
X19894990Y21700000I-230000J0D01*
G01*
G37*
G36*
G01*
X22795010Y21700000D02*
X22105010Y21700000D01*
G75*
G02*
X21875010Y21930000I0J230000D01*
G01*
X21875010Y23270000D01*
G75*
G02*
X22105010Y23500000I230000J0D01*
G01*
X22795010Y23500000D01*
G75*
G02*
X23025010Y23270000I0J-230000D01*
G01*
X23025010Y21930000D01*
G75*
G02*
X22795010Y21700000I-230000J0D01*
G01*
G37*
X23450000Y22600000D03*
G04 #@! TD*
D12*
G04 #@! TO.C,J15*
X22390000Y89225000D03*
D13*
X19850000Y89225000D03*
X22390000Y86685000D03*
X19850000Y86685000D03*
G04 #@! TD*
G04 #@! TO.C,D5*
G36*
G01*
X19510000Y66900000D02*
X18490000Y66900000D01*
G75*
G02*
X18400000Y66990000I0J90000D01*
G01*
X18400000Y67710000D01*
G75*
G02*
X18490000Y67800000I90000J0D01*
G01*
X19510000Y67800000D01*
G75*
G02*
X19600000Y67710000I0J-90000D01*
G01*
X19600000Y66990000D01*
G75*
G02*
X19510000Y66900000I-90000J0D01*
G01*
G37*
G36*
G01*
X19510000Y70200000D02*
X18490000Y70200000D01*
G75*
G02*
X18400000Y70290000I0J90000D01*
G01*
X18400000Y71010000D01*
G75*
G02*
X18490000Y71100000I90000J0D01*
G01*
X19510000Y71100000D01*
G75*
G02*
X19600000Y71010000I0J-90000D01*
G01*
X19600000Y70290000D01*
G75*
G02*
X19510000Y70200000I-90000J0D01*
G01*
G37*
G04 #@! TD*
D22*
G04 #@! TO.C,S8*
X164070000Y11320000D03*
G04 #@! TD*
G04 #@! TO.C,R78*
G36*
G01*
X157115000Y42725000D02*
X157115000Y43275000D01*
G75*
G02*
X157315000Y43475000I200000J0D01*
G01*
X157715000Y43475000D01*
G75*
G02*
X157915000Y43275000I0J-200000D01*
G01*
X157915000Y42725000D01*
G75*
G02*
X157715000Y42525000I-200000J0D01*
G01*
X157315000Y42525000D01*
G75*
G02*
X157115000Y42725000I0J200000D01*
G01*
G37*
G36*
G01*
X158765000Y42725000D02*
X158765000Y43275000D01*
G75*
G02*
X158965000Y43475000I200000J0D01*
G01*
X159365000Y43475000D01*
G75*
G02*
X159565000Y43275000I0J-200000D01*
G01*
X159565000Y42725000D01*
G75*
G02*
X159365000Y42525000I-200000J0D01*
G01*
X158965000Y42525000D01*
G75*
G02*
X158765000Y42725000I0J200000D01*
G01*
G37*
G04 #@! TD*
G04 #@! TO.C,C52*
G36*
G01*
X173150000Y40775000D02*
X173150000Y41725000D01*
G75*
G02*
X173400000Y41975000I250000J0D01*
G01*
X173900000Y41975000D01*
G75*
G02*
X174150000Y41725000I0J-250000D01*
G01*
X174150000Y40775000D01*
G75*
G02*
X173900000Y40525000I-250000J0D01*
G01*
X173400000Y40525000D01*
G75*
G02*
X173150000Y40775000I0J250000D01*
G01*
G37*
G36*
G01*
X175050000Y40775000D02*
X175050000Y41725000D01*
G75*
G02*
X175300000Y41975000I250000J0D01*
G01*
X175800000Y41975000D01*
G75*
G02*
X176050000Y41725000I0J-250000D01*
G01*
X176050000Y40775000D01*
G75*
G02*
X175800000Y40525000I-250000J0D01*
G01*
X175300000Y40525000D01*
G75*
G02*
X175050000Y40775000I0J250000D01*
G01*
G37*
G04 #@! TD*
G04 #@! TO.C,C88*
G36*
G01*
X149095000Y22670000D02*
X149095000Y23170000D01*
G75*
G02*
X149320000Y23395000I225000J0D01*
G01*
X149770000Y23395000D01*
G75*
G02*
X149995000Y23170000I0J-225000D01*
G01*
X149995000Y22670000D01*
G75*
G02*
X149770000Y22445000I-225000J0D01*
G01*
X149320000Y22445000D01*
G75*
G02*
X149095000Y22670000I0J225000D01*
G01*
G37*
G36*
G01*
X150645000Y22670000D02*
X150645000Y23170000D01*
G75*
G02*
X150870000Y23395000I225000J0D01*
G01*
X151320000Y23395000D01*
G75*
G02*
X151545000Y23170000I0J-225000D01*
G01*
X151545000Y22670000D01*
G75*
G02*
X151320000Y22445000I-225000J0D01*
G01*
X150870000Y22445000D01*
G75*
G02*
X150645000Y22670000I0J225000D01*
G01*
G37*
G04 #@! TD*
D19*
G04 #@! TO.C,J6*
X105450000Y37900000D03*
X105450000Y29500000D03*
G36*
G01*
X96550001Y39250000D02*
X99749999Y39250000D01*
G75*
G02*
X100000000Y38999999I0J-250001D01*
G01*
X100000000Y36800001D01*
G75*
G02*
X99749999Y36550000I-250001J0D01*
G01*
X96550001Y36550000D01*
G75*
G02*
X96300000Y36800001I0J250001D01*
G01*
X96300000Y38999999D01*
G75*
G02*
X96550001Y39250000I250001J0D01*
G01*
G37*
D20*
X98150000Y33700000D03*
X98150000Y29500000D03*
X92650000Y37900000D03*
X92650000Y33700000D03*
X92650000Y29500000D03*
G04 #@! TD*
G04 #@! TO.C,C64*
G36*
G01*
X149095000Y45260000D02*
X149095000Y45760000D01*
G75*
G02*
X149320000Y45985000I225000J0D01*
G01*
X149770000Y45985000D01*
G75*
G02*
X149995000Y45760000I0J-225000D01*
G01*
X149995000Y45260000D01*
G75*
G02*
X149770000Y45035000I-225000J0D01*
G01*
X149320000Y45035000D01*
G75*
G02*
X149095000Y45260000I0J225000D01*
G01*
G37*
G36*
G01*
X150645000Y45260000D02*
X150645000Y45760000D01*
G75*
G02*
X150870000Y45985000I225000J0D01*
G01*
X151320000Y45985000D01*
G75*
G02*
X151545000Y45760000I0J-225000D01*
G01*
X151545000Y45260000D01*
G75*
G02*
X151320000Y45035000I-225000J0D01*
G01*
X150870000Y45035000D01*
G75*
G02*
X150645000Y45260000I0J225000D01*
G01*
G37*
G04 #@! TD*
D12*
G04 #@! TO.C,J19*
X13315000Y69550000D03*
D13*
X10775000Y69550000D03*
X13315000Y67010000D03*
X10775000Y67010000D03*
G04 #@! TD*
G04 #@! TO.C,C127*
G36*
G01*
X173150000Y31745000D02*
X173150000Y32695000D01*
G75*
G02*
X173400000Y32945000I250000J0D01*
G01*
X173900000Y32945000D01*
G75*
G02*
X174150000Y32695000I0J-250000D01*
G01*
X174150000Y31745000D01*
G75*
G02*
X173900000Y31495000I-250000J0D01*
G01*
X173400000Y31495000D01*
G75*
G02*
X173150000Y31745000I0J250000D01*
G01*
G37*
G36*
G01*
X175050000Y31745000D02*
X175050000Y32695000D01*
G75*
G02*
X175300000Y32945000I250000J0D01*
G01*
X175800000Y32945000D01*
G75*
G02*
X176050000Y32695000I0J-250000D01*
G01*
X176050000Y31745000D01*
G75*
G02*
X175800000Y31495000I-250000J0D01*
G01*
X175300000Y31495000D01*
G75*
G02*
X175050000Y31745000I0J250000D01*
G01*
G37*
G04 #@! TD*
G04 #@! TO.C,C43*
G36*
G01*
X173150000Y43785000D02*
X173150000Y44735000D01*
G75*
G02*
X173400000Y44985000I250000J0D01*
G01*
X173900000Y44985000D01*
G75*
G02*
X174150000Y44735000I0J-250000D01*
G01*
X174150000Y43785000D01*
G75*
G02*
X173900000Y43535000I-250000J0D01*
G01*
X173400000Y43535000D01*
G75*
G02*
X173150000Y43785000I0J250000D01*
G01*
G37*
G36*
G01*
X175050000Y43785000D02*
X175050000Y44735000D01*
G75*
G02*
X175300000Y44985000I250000J0D01*
G01*
X175800000Y44985000D01*
G75*
G02*
X176050000Y44735000I0J-250000D01*
G01*
X176050000Y43785000D01*
G75*
G02*
X175800000Y43535000I-250000J0D01*
G01*
X175300000Y43535000D01*
G75*
G02*
X175050000Y43785000I0J250000D01*
G01*
G37*
G04 #@! TD*
G04 #@! TO.C,R144*
G36*
G01*
X165135000Y20135000D02*
X165135000Y20685000D01*
G75*
G02*
X165335000Y20885000I200000J0D01*
G01*
X165735000Y20885000D01*
G75*
G02*
X165935000Y20685000I0J-200000D01*
G01*
X165935000Y20135000D01*
G75*
G02*
X165735000Y19935000I-200000J0D01*
G01*
X165335000Y19935000D01*
G75*
G02*
X165135000Y20135000I0J200000D01*
G01*
G37*
G36*
G01*
X166785000Y20135000D02*
X166785000Y20685000D01*
G75*
G02*
X166985000Y20885000I200000J0D01*
G01*
X167385000Y20885000D01*
G75*
G02*
X167585000Y20685000I0J-200000D01*
G01*
X167585000Y20135000D01*
G75*
G02*
X167385000Y19935000I-200000J0D01*
G01*
X166985000Y19935000D01*
G75*
G02*
X166785000Y20135000I0J200000D01*
G01*
G37*
G04 #@! TD*
G04 #@! TO.C,R117*
G36*
G01*
X161125000Y35195000D02*
X161125000Y35745000D01*
G75*
G02*
X161325000Y35945000I200000J0D01*
G01*
X161725000Y35945000D01*
G75*
G02*
X161925000Y35745000I0J-200000D01*
G01*
X161925000Y35195000D01*
G75*
G02*
X161725000Y34995000I-200000J0D01*
G01*
X161325000Y34995000D01*
G75*
G02*
X161125000Y35195000I0J200000D01*
G01*
G37*
G36*
G01*
X162775000Y35195000D02*
X162775000Y35745000D01*
G75*
G02*
X162975000Y35945000I200000J0D01*
G01*
X163375000Y35945000D01*
G75*
G02*
X163575000Y35745000I0J-200000D01*
G01*
X163575000Y35195000D01*
G75*
G02*
X163375000Y34995000I-200000J0D01*
G01*
X162975000Y34995000D01*
G75*
G02*
X162775000Y35195000I0J200000D01*
G01*
G37*
G04 #@! TD*
D12*
G04 #@! TO.C,J22*
X13315000Y37550000D03*
D13*
X10775000Y37550000D03*
X13315000Y35010000D03*
X10775000Y35010000D03*
G04 #@! TD*
G04 #@! TO.C,R14*
G36*
G01*
X23210000Y9550000D02*
X23990000Y9550000D01*
G75*
G02*
X24060000Y9480000I0J-70000D01*
G01*
X24060000Y8920000D01*
G75*
G02*
X23990000Y8850000I-70000J0D01*
G01*
X23210000Y8850000D01*
G75*
G02*
X23140000Y8920000I0J70000D01*
G01*
X23140000Y9480000D01*
G75*
G02*
X23210000Y9550000I70000J0D01*
G01*
G37*
G36*
G01*
X23210000Y7950000D02*
X23990000Y7950000D01*
G75*
G02*
X24060000Y7880000I0J-70000D01*
G01*
X24060000Y7320000D01*
G75*
G02*
X23990000Y7250000I-70000J0D01*
G01*
X23210000Y7250000D01*
G75*
G02*
X23140000Y7320000I0J70000D01*
G01*
X23140000Y7880000D01*
G75*
G02*
X23210000Y7950000I70000J0D01*
G01*
G37*
G04 #@! TD*
D12*
G04 #@! TO.C,J12*
X72090000Y89225000D03*
D13*
X69550000Y89225000D03*
X72090000Y86685000D03*
X69550000Y86685000D03*
G04 #@! TD*
G04 #@! TO.C,U3*
G36*
G01*
X77768250Y67450000D02*
X78068250Y67450000D01*
G75*
G02*
X78218250Y67300000I0J-150000D01*
G01*
X78218250Y65650000D01*
G75*
G02*
X78068250Y65500000I-150000J0D01*
G01*
X77768250Y65500000D01*
G75*
G02*
X77618250Y65650000I0J150000D01*
G01*
X77618250Y67300000D01*
G75*
G02*
X77768250Y67450000I150000J0D01*
G01*
G37*
G36*
G01*
X76498250Y67450000D02*
X76798250Y67450000D01*
G75*
G02*
X76948250Y67300000I0J-150000D01*
G01*
X76948250Y65650000D01*
G75*
G02*
X76798250Y65500000I-150000J0D01*
G01*
X76498250Y65500000D01*
G75*
G02*
X76348250Y65650000I0J150000D01*
G01*
X76348250Y67300000D01*
G75*
G02*
X76498250Y67450000I150000J0D01*
G01*
G37*
G36*
G01*
X75228250Y67450000D02*
X75528250Y67450000D01*
G75*
G02*
X75678250Y67300000I0J-150000D01*
G01*
X75678250Y65650000D01*
G75*
G02*
X75528250Y65500000I-150000J0D01*
G01*
X75228250Y65500000D01*
G75*
G02*
X75078250Y65650000I0J150000D01*
G01*
X75078250Y67300000D01*
G75*
G02*
X75228250Y67450000I150000J0D01*
G01*
G37*
G36*
G01*
X73958250Y67450000D02*
X74258250Y67450000D01*
G75*
G02*
X74408250Y67300000I0J-150000D01*
G01*
X74408250Y65650000D01*
G75*
G02*
X74258250Y65500000I-150000J0D01*
G01*
X73958250Y65500000D01*
G75*
G02*
X73808250Y65650000I0J150000D01*
G01*
X73808250Y67300000D01*
G75*
G02*
X73958250Y67450000I150000J0D01*
G01*
G37*
G36*
G01*
X73958250Y62500000D02*
X74258250Y62500000D01*
G75*
G02*
X74408250Y62350000I0J-150000D01*
G01*
X74408250Y60700000D01*
G75*
G02*
X74258250Y60550000I-150000J0D01*
G01*
X73958250Y60550000D01*
G75*
G02*
X73808250Y60700000I0J150000D01*
G01*
X73808250Y62350000D01*
G75*
G02*
X73958250Y62500000I150000J0D01*
G01*
G37*
G36*
G01*
X75228250Y62500000D02*
X75528250Y62500000D01*
G75*
G02*
X75678250Y62350000I0J-150000D01*
G01*
X75678250Y60700000D01*
G75*
G02*
X75528250Y60550000I-150000J0D01*
G01*
X75228250Y60550000D01*
G75*
G02*
X75078250Y60700000I0J150000D01*
G01*
X75078250Y62350000D01*
G75*
G02*
X75228250Y62500000I150000J0D01*
G01*
G37*
G36*
G01*
X76498250Y62500000D02*
X76798250Y62500000D01*
G75*
G02*
X76948250Y62350000I0J-150000D01*
G01*
X76948250Y60700000D01*
G75*
G02*
X76798250Y60550000I-150000J0D01*
G01*
X76498250Y60550000D01*
G75*
G02*
X76348250Y60700000I0J150000D01*
G01*
X76348250Y62350000D01*
G75*
G02*
X76498250Y62500000I150000J0D01*
G01*
G37*
G36*
G01*
X77768250Y62500000D02*
X78068250Y62500000D01*
G75*
G02*
X78218250Y62350000I0J-150000D01*
G01*
X78218250Y60700000D01*
G75*
G02*
X78068250Y60550000I-150000J0D01*
G01*
X77768250Y60550000D01*
G75*
G02*
X77618250Y60700000I0J150000D01*
G01*
X77618250Y62350000D01*
G75*
G02*
X77768250Y62500000I150000J0D01*
G01*
G37*
G04 #@! TD*
G04 #@! TO.C,R136*
G36*
G01*
X165135000Y40215000D02*
X165135000Y40765000D01*
G75*
G02*
X165335000Y40965000I200000J0D01*
G01*
X165735000Y40965000D01*
G75*
G02*
X165935000Y40765000I0J-200000D01*
G01*
X165935000Y40215000D01*
G75*
G02*
X165735000Y40015000I-200000J0D01*
G01*
X165335000Y40015000D01*
G75*
G02*
X165135000Y40215000I0J200000D01*
G01*
G37*
G36*
G01*
X166785000Y40215000D02*
X166785000Y40765000D01*
G75*
G02*
X166985000Y40965000I200000J0D01*
G01*
X167385000Y40965000D01*
G75*
G02*
X167585000Y40765000I0J-200000D01*
G01*
X167585000Y40215000D01*
G75*
G02*
X167385000Y40015000I-200000J0D01*
G01*
X166985000Y40015000D01*
G75*
G02*
X166785000Y40215000I0J200000D01*
G01*
G37*
G04 #@! TD*
G04 #@! TO.C,C59*
G36*
G01*
X145085000Y22670000D02*
X145085000Y23170000D01*
G75*
G02*
X145310000Y23395000I225000J0D01*
G01*
X145760000Y23395000D01*
G75*
G02*
X145985000Y23170000I0J-225000D01*
G01*
X145985000Y22670000D01*
G75*
G02*
X145760000Y22445000I-225000J0D01*
G01*
X145310000Y22445000D01*
G75*
G02*
X145085000Y22670000I0J225000D01*
G01*
G37*
G36*
G01*
X146635000Y22670000D02*
X146635000Y23170000D01*
G75*
G02*
X146860000Y23395000I225000J0D01*
G01*
X147310000Y23395000D01*
G75*
G02*
X147535000Y23170000I0J-225000D01*
G01*
X147535000Y22670000D01*
G75*
G02*
X147310000Y22445000I-225000J0D01*
G01*
X146860000Y22445000D01*
G75*
G02*
X146635000Y22670000I0J225000D01*
G01*
G37*
G04 #@! TD*
D14*
G04 #@! TO.C,P16*
X8080000Y11500000D03*
G04 #@! TD*
G04 #@! TO.C,C12*
G36*
G01*
X1940000Y12984999D02*
X1260000Y12984999D01*
G75*
G02*
X1175000Y13069999I0J85000D01*
G01*
X1175000Y13749999D01*
G75*
G02*
X1260000Y13834999I85000J0D01*
G01*
X1940000Y13834999D01*
G75*
G02*
X2025000Y13749999I0J-85000D01*
G01*
X2025000Y13069999D01*
G75*
G02*
X1940000Y12984999I-85000J0D01*
G01*
G37*
G36*
G01*
X1940000Y14565001D02*
X1260000Y14565001D01*
G75*
G02*
X1175000Y14650001I0J85000D01*
G01*
X1175000Y15330001D01*
G75*
G02*
X1260000Y15415001I85000J0D01*
G01*
X1940000Y15415001D01*
G75*
G02*
X2025000Y15330001I0J-85000D01*
G01*
X2025000Y14650001D01*
G75*
G02*
X1940000Y14565001I-85000J0D01*
G01*
G37*
G04 #@! TD*
G04 #@! TO.C,Q13*
G36*
G01*
X145080000Y73845000D02*
X145080000Y74545000D01*
G75*
G02*
X145330000Y74795000I250000J0D01*
G01*
X147030000Y74795000D01*
G75*
G02*
X147280000Y74545000I0J-250000D01*
G01*
X147280000Y73845000D01*
G75*
G02*
X147030000Y73595000I-250000J0D01*
G01*
X145330000Y73595000D01*
G75*
G02*
X145080000Y73845000I0J250000D01*
G01*
G37*
G36*
G01*
X149280000Y69264997D02*
X149280000Y74565003D01*
G75*
G02*
X149529997Y74815000I249997J0D01*
G01*
X155430003Y74815000D01*
G75*
G02*
X155680000Y74565003I0J-249997D01*
G01*
X155680000Y69264997D01*
G75*
G02*
X155430003Y69015000I-249997J0D01*
G01*
X149529997Y69015000D01*
G75*
G02*
X149280000Y69264997I0J249997D01*
G01*
G37*
G36*
G01*
X145080000Y69285000D02*
X145080000Y69985000D01*
G75*
G02*
X145330000Y70235000I250000J0D01*
G01*
X147030000Y70235000D01*
G75*
G02*
X147280000Y69985000I0J-250000D01*
G01*
X147280000Y69285000D01*
G75*
G02*
X147030000Y69035000I-250000J0D01*
G01*
X145330000Y69035000D01*
G75*
G02*
X145080000Y69285000I0J250000D01*
G01*
G37*
G04 #@! TD*
G04 #@! TO.C,Q17*
G36*
G01*
X157230000Y81900000D02*
X157230000Y82600000D01*
G75*
G02*
X157480000Y82850000I250000J0D01*
G01*
X159180000Y82850000D01*
G75*
G02*
X159430000Y82600000I0J-250000D01*
G01*
X159430000Y81900000D01*
G75*
G02*
X159180000Y81650000I-250000J0D01*
G01*
X157480000Y81650000D01*
G75*
G02*
X157230000Y81900000I0J250000D01*
G01*
G37*
G36*
G01*
X161430000Y77319997D02*
X161430000Y82620003D01*
G75*
G02*
X161679997Y82870000I249997J0D01*
G01*
X167580003Y82870000D01*
G75*
G02*
X167830000Y82620003I0J-249997D01*
G01*
X167830000Y77319997D01*
G75*
G02*
X167580003Y77070000I-249997J0D01*
G01*
X161679997Y77070000D01*
G75*
G02*
X161430000Y77319997I0J249997D01*
G01*
G37*
G36*
G01*
X157230000Y77340000D02*
X157230000Y78040000D01*
G75*
G02*
X157480000Y78290000I250000J0D01*
G01*
X159180000Y78290000D01*
G75*
G02*
X159430000Y78040000I0J-250000D01*
G01*
X159430000Y77340000D01*
G75*
G02*
X159180000Y77090000I-250000J0D01*
G01*
X157480000Y77090000D01*
G75*
G02*
X157230000Y77340000I0J250000D01*
G01*
G37*
G04 #@! TD*
G04 #@! TO.C,R122*
G36*
G01*
X161125000Y22645000D02*
X161125000Y23195000D01*
G75*
G02*
X161325000Y23395000I200000J0D01*
G01*
X161725000Y23395000D01*
G75*
G02*
X161925000Y23195000I0J-200000D01*
G01*
X161925000Y22645000D01*
G75*
G02*
X161725000Y22445000I-200000J0D01*
G01*
X161325000Y22445000D01*
G75*
G02*
X161125000Y22645000I0J200000D01*
G01*
G37*
G36*
G01*
X162775000Y22645000D02*
X162775000Y23195000D01*
G75*
G02*
X162975000Y23395000I200000J0D01*
G01*
X163375000Y23395000D01*
G75*
G02*
X163575000Y23195000I0J-200000D01*
G01*
X163575000Y22645000D01*
G75*
G02*
X163375000Y22445000I-200000J0D01*
G01*
X162975000Y22445000D01*
G75*
G02*
X162775000Y22645000I0J200000D01*
G01*
G37*
G04 #@! TD*
G04 #@! TO.C,G4*
X47120000Y49960000D03*
X47120000Y52500000D03*
X47120000Y55040000D03*
X47120000Y57580000D03*
X47120000Y60120000D03*
X49660000Y49960000D03*
X49660000Y52500000D03*
X49660000Y55040000D03*
X49660000Y57580000D03*
X49660000Y60120000D03*
X52200000Y49960000D03*
X52200000Y52500000D03*
X52200000Y55040000D03*
X52200000Y57580000D03*
X52200000Y60120000D03*
G04 #@! TD*
G04 #@! TO.C,Q22*
G36*
G01*
X169380000Y81900000D02*
X169380000Y82600000D01*
G75*
G02*
X169630000Y82850000I250000J0D01*
G01*
X171330000Y82850000D01*
G75*
G02*
X171580000Y82600000I0J-250000D01*
G01*
X171580000Y81900000D01*
G75*
G02*
X171330000Y81650000I-250000J0D01*
G01*
X169630000Y81650000D01*
G75*
G02*
X169380000Y81900000I0J250000D01*
G01*
G37*
G36*
G01*
X173580000Y77319997D02*
X173580000Y82620003D01*
G75*
G02*
X173829997Y82870000I249997J0D01*
G01*
X179730003Y82870000D01*
G75*
G02*
X179980000Y82620003I0J-249997D01*
G01*
X179980000Y77319997D01*
G75*
G02*
X179730003Y77070000I-249997J0D01*
G01*
X173829997Y77070000D01*
G75*
G02*
X173580000Y77319997I0J249997D01*
G01*
G37*
G36*
G01*
X169380000Y77340000D02*
X169380000Y78040000D01*
G75*
G02*
X169630000Y78290000I250000J0D01*
G01*
X171330000Y78290000D01*
G75*
G02*
X171580000Y78040000I0J-250000D01*
G01*
X171580000Y77340000D01*
G75*
G02*
X171330000Y77090000I-250000J0D01*
G01*
X169630000Y77090000D01*
G75*
G02*
X169380000Y77340000I0J250000D01*
G01*
G37*
G04 #@! TD*
G04 #@! TO.C,R119*
G36*
G01*
X161125000Y30175000D02*
X161125000Y30725000D01*
G75*
G02*
X161325000Y30925000I200000J0D01*
G01*
X161725000Y30925000D01*
G75*
G02*
X161925000Y30725000I0J-200000D01*
G01*
X161925000Y30175000D01*
G75*
G02*
X161725000Y29975000I-200000J0D01*
G01*
X161325000Y29975000D01*
G75*
G02*
X161125000Y30175000I0J200000D01*
G01*
G37*
G36*
G01*
X162775000Y30175000D02*
X162775000Y30725000D01*
G75*
G02*
X162975000Y30925000I200000J0D01*
G01*
X163375000Y30925000D01*
G75*
G02*
X163575000Y30725000I0J-200000D01*
G01*
X163575000Y30175000D01*
G75*
G02*
X163375000Y29975000I-200000J0D01*
G01*
X162975000Y29975000D01*
G75*
G02*
X162775000Y30175000I0J200000D01*
G01*
G37*
G04 #@! TD*
D22*
G04 #@! TO.C,BT1*
X92000000Y21600142D03*
X92000000Y29100000D03*
G04 #@! TD*
M02*
