G75*
G70*
%OFA0B0*%
%FSLAX25Y25*%
%IPPOS*%
%LPD*%
%AMOC8*
5,1,8,0,0,1.08239X$1,22.5*
%
%AMM103*
21,1,0.035830,0.026770,-0.000000,0.000000,90.000000*
21,1,0.029130,0.033470,-0.000000,0.000000,90.000000*
1,1,0.006690,0.013390,0.014570*
1,1,0.006690,0.013390,-0.014570*
1,1,0.006690,-0.013390,-0.014570*
1,1,0.006690,-0.013390,0.014570*
%
%AMM104*
21,1,0.070870,0.036220,-0.000000,0.000000,180.000000*
21,1,0.061810,0.045280,-0.000000,0.000000,180.000000*
1,1,0.009060,-0.030910,0.018110*
1,1,0.009060,0.030910,0.018110*
1,1,0.009060,0.030910,-0.018110*
1,1,0.009060,-0.030910,-0.018110*
%
%AMM107*
21,1,0.023620,0.018900,-0.000000,0.000000,180.000000*
21,1,0.018900,0.023620,-0.000000,0.000000,180.000000*
1,1,0.004720,-0.009450,0.009450*
1,1,0.004720,0.009450,0.009450*
1,1,0.004720,0.009450,-0.009450*
1,1,0.004720,-0.009450,-0.009450*
%
%AMM108*
21,1,0.019680,0.019680,-0.000000,0.000000,90.000000*
21,1,0.015750,0.023620,-0.000000,0.000000,90.000000*
1,1,0.003940,0.009840,0.007870*
1,1,0.003940,0.009840,-0.007870*
1,1,0.003940,-0.009840,-0.007870*
1,1,0.003940,-0.009840,0.007870*
%
%AMM109*
21,1,0.019680,0.019680,-0.000000,0.000000,0.000000*
21,1,0.015750,0.023620,-0.000000,0.000000,0.000000*
1,1,0.003940,0.007870,-0.009840*
1,1,0.003940,-0.007870,-0.009840*
1,1,0.003940,-0.007870,0.009840*
1,1,0.003940,0.007870,0.009840*
%
%AMM12*
21,1,0.019680,0.019680,0.000000,0.000000,0.000000*
21,1,0.015750,0.023620,0.000000,0.000000,0.000000*
1,1,0.003940,0.007870,-0.009840*
1,1,0.003940,-0.007870,-0.009840*
1,1,0.003940,-0.007870,0.009840*
1,1,0.003940,0.007870,0.009840*
%
%AMM123*
21,1,0.023620,0.018900,-0.000000,0.000000,90.000000*
21,1,0.018900,0.023620,-0.000000,0.000000,90.000000*
1,1,0.004720,0.009450,0.009450*
1,1,0.004720,0.009450,-0.009450*
1,1,0.004720,-0.009450,-0.009450*
1,1,0.004720,-0.009450,0.009450*
%
%AMM124*
21,1,0.106300,0.050390,-0.000000,0.000000,180.000000*
21,1,0.093700,0.062990,-0.000000,0.000000,180.000000*
1,1,0.012600,-0.046850,0.025200*
1,1,0.012600,0.046850,0.025200*
1,1,0.012600,0.046850,-0.025200*
1,1,0.012600,-0.046850,-0.025200*
%
%AMM125*
21,1,0.033470,0.026770,-0.000000,0.000000,0.000000*
21,1,0.026770,0.033470,-0.000000,0.000000,0.000000*
1,1,0.006690,0.013390,-0.013390*
1,1,0.006690,-0.013390,-0.013390*
1,1,0.006690,-0.013390,0.013390*
1,1,0.006690,0.013390,0.013390*
%
%AMM126*
21,1,0.122050,0.075590,-0.000000,0.000000,270.000000*
21,1,0.103150,0.094490,-0.000000,0.000000,270.000000*
1,1,0.018900,-0.037800,-0.051580*
1,1,0.018900,-0.037800,0.051580*
1,1,0.018900,0.037800,0.051580*
1,1,0.018900,0.037800,-0.051580*
%
%AMM127*
21,1,0.118110,0.083460,-0.000000,0.000000,90.000000*
21,1,0.097240,0.104330,-0.000000,0.000000,90.000000*
1,1,0.020870,0.041730,0.048620*
1,1,0.020870,0.041730,-0.048620*
1,1,0.020870,-0.041730,-0.048620*
1,1,0.020870,-0.041730,0.048620*
%
%AMM13*
21,1,0.019680,0.019680,0.000000,0.000000,270.000000*
21,1,0.015750,0.023620,0.000000,0.000000,270.000000*
1,1,0.003940,-0.009840,-0.007870*
1,1,0.003940,-0.009840,0.007870*
1,1,0.003940,0.009840,0.007870*
1,1,0.003940,0.009840,-0.007870*
%
%AMM246*
21,1,0.025590,0.026380,0.000000,-0.000000,180.000000*
21,1,0.020470,0.031500,0.000000,-0.000000,180.000000*
1,1,0.005120,-0.010240,0.013190*
1,1,0.005120,0.010240,0.013190*
1,1,0.005120,0.010240,-0.013190*
1,1,0.005120,-0.010240,-0.013190*
%
%AMM247*
21,1,0.017720,0.027950,0.000000,-0.000000,180.000000*
21,1,0.014170,0.031500,0.000000,-0.000000,180.000000*
1,1,0.003540,-0.007090,0.013980*
1,1,0.003540,0.007090,0.013980*
1,1,0.003540,0.007090,-0.013980*
1,1,0.003540,-0.007090,-0.013980*
%
%AMM250*
21,1,0.027560,0.018900,0.000000,-0.000000,0.000000*
21,1,0.022840,0.023620,0.000000,-0.000000,0.000000*
1,1,0.004720,0.011420,-0.009450*
1,1,0.004720,-0.011420,-0.009450*
1,1,0.004720,-0.011420,0.009450*
1,1,0.004720,0.011420,0.009450*
%
%AMM252*
21,1,0.027560,0.018900,0.000000,-0.000000,90.000000*
21,1,0.022840,0.023620,0.000000,-0.000000,90.000000*
1,1,0.004720,0.009450,0.011420*
1,1,0.004720,0.009450,-0.011420*
1,1,0.004720,-0.009450,-0.011420*
1,1,0.004720,-0.009450,0.011420*
%
%AMM254*
21,1,0.035430,0.030320,0.000000,-0.000000,180.000000*
21,1,0.028350,0.037400,0.000000,-0.000000,180.000000*
1,1,0.007090,-0.014170,0.015160*
1,1,0.007090,0.014170,0.015160*
1,1,0.007090,0.014170,-0.015160*
1,1,0.007090,-0.014170,-0.015160*
%
%AMM257*
21,1,0.027560,0.030710,0.000000,-0.000000,270.000000*
21,1,0.022050,0.036220,0.000000,-0.000000,270.000000*
1,1,0.005510,-0.015350,-0.011020*
1,1,0.005510,-0.015350,0.011020*
1,1,0.005510,0.015350,0.011020*
1,1,0.005510,0.015350,-0.011020*
%
%AMM278*
21,1,0.033470,0.026770,0.000000,-0.000000,0.000000*
21,1,0.026770,0.033470,0.000000,-0.000000,0.000000*
1,1,0.006690,0.013390,-0.013390*
1,1,0.006690,-0.013390,-0.013390*
1,1,0.006690,-0.013390,0.013390*
1,1,0.006690,0.013390,0.013390*
%
%AMM279*
21,1,0.025590,0.026380,0.000000,-0.000000,270.000000*
21,1,0.020470,0.031500,0.000000,-0.000000,270.000000*
1,1,0.005120,-0.013190,-0.010240*
1,1,0.005120,-0.013190,0.010240*
1,1,0.005120,0.013190,0.010240*
1,1,0.005120,0.013190,-0.010240*
%
%AMM280*
21,1,0.017720,0.027950,0.000000,-0.000000,270.000000*
21,1,0.014170,0.031500,0.000000,-0.000000,270.000000*
1,1,0.003540,-0.013980,-0.007090*
1,1,0.003540,-0.013980,0.007090*
1,1,0.003540,0.013980,0.007090*
1,1,0.003540,0.013980,-0.007090*
%
%AMM281*
21,1,0.033470,0.026770,0.000000,-0.000000,270.000000*
21,1,0.026770,0.033470,0.000000,-0.000000,270.000000*
1,1,0.006690,-0.013390,-0.013390*
1,1,0.006690,-0.013390,0.013390*
1,1,0.006690,0.013390,0.013390*
1,1,0.006690,0.013390,-0.013390*
%
%AMM282*
21,1,0.078740,0.045670,0.000000,-0.000000,90.000000*
21,1,0.067320,0.057090,0.000000,-0.000000,90.000000*
1,1,0.011420,0.022840,0.033660*
1,1,0.011420,0.022840,-0.033660*
1,1,0.011420,-0.022840,-0.033660*
1,1,0.011420,-0.022840,0.033660*
%
%AMM283*
21,1,0.059060,0.020470,0.000000,-0.000000,90.000000*
21,1,0.053940,0.025590,0.000000,-0.000000,90.000000*
1,1,0.005120,0.010240,0.026970*
1,1,0.005120,0.010240,-0.026970*
1,1,0.005120,-0.010240,-0.026970*
1,1,0.005120,-0.010240,0.026970*
%
%AMM284*
21,1,0.035430,0.030320,0.000000,-0.000000,90.000000*
21,1,0.028350,0.037400,0.000000,-0.000000,90.000000*
1,1,0.007090,0.015160,0.014170*
1,1,0.007090,0.015160,-0.014170*
1,1,0.007090,-0.015160,-0.014170*
1,1,0.007090,-0.015160,0.014170*
%
%AMM285*
21,1,0.012600,0.028980,0.000000,-0.000000,90.000000*
21,1,0.010080,0.031500,0.000000,-0.000000,90.000000*
1,1,0.002520,0.014490,0.005040*
1,1,0.002520,0.014490,-0.005040*
1,1,0.002520,-0.014490,-0.005040*
1,1,0.002520,-0.014490,0.005040*
%
%AMM286*
21,1,0.070870,0.036220,0.000000,-0.000000,270.000000*
21,1,0.061810,0.045280,0.000000,-0.000000,270.000000*
1,1,0.009060,-0.018110,-0.030910*
1,1,0.009060,-0.018110,0.030910*
1,1,0.009060,0.018110,0.030910*
1,1,0.009060,0.018110,-0.030910*
%
%AMM287*
21,1,0.035830,0.026770,0.000000,-0.000000,270.000000*
21,1,0.029130,0.033470,0.000000,-0.000000,270.000000*
1,1,0.006690,-0.013390,-0.014570*
1,1,0.006690,-0.013390,0.014570*
1,1,0.006690,0.013390,0.014570*
1,1,0.006690,0.013390,-0.014570*
%
%AMM288*
21,1,0.027560,0.049610,0.000000,-0.000000,270.000000*
21,1,0.022050,0.055120,0.000000,-0.000000,270.000000*
1,1,0.005510,-0.024800,-0.011020*
1,1,0.005510,-0.024800,0.011020*
1,1,0.005510,0.024800,0.011020*
1,1,0.005510,0.024800,-0.011020*
%
%AMM289*
21,1,0.070870,0.036220,0.000000,-0.000000,0.000000*
21,1,0.061810,0.045280,0.000000,-0.000000,0.000000*
1,1,0.009060,0.030910,-0.018110*
1,1,0.009060,-0.030910,-0.018110*
1,1,0.009060,-0.030910,0.018110*
1,1,0.009060,0.030910,0.018110*
%
%AMM29*
21,1,0.033470,0.026770,0.000000,0.000000,270.000000*
21,1,0.026770,0.033470,0.000000,0.000000,270.000000*
1,1,0.006690,-0.013390,-0.013390*
1,1,0.006690,-0.013390,0.013390*
1,1,0.006690,0.013390,0.013390*
1,1,0.006690,0.013390,-0.013390*
%
%AMM290*
21,1,0.027560,0.030710,0.000000,-0.000000,0.000000*
21,1,0.022050,0.036220,0.000000,-0.000000,0.000000*
1,1,0.005510,0.011020,-0.015350*
1,1,0.005510,-0.011020,-0.015350*
1,1,0.005510,-0.011020,0.015350*
1,1,0.005510,0.011020,0.015350*
%
%AMM37*
21,1,0.023620,0.018900,0.000000,0.000000,180.000000*
21,1,0.018900,0.023620,0.000000,0.000000,180.000000*
1,1,0.004720,-0.009450,0.009450*
1,1,0.004720,0.009450,0.009450*
1,1,0.004720,0.009450,-0.009450*
1,1,0.004720,-0.009450,-0.009450*
%
%ADD112M12*%
%ADD113M13*%
%ADD141M29*%
%ADD152M37*%
%ADD168R,0.05709X0.01772*%
%ADD169R,0.04803X0.02559*%
%ADD237R,0.01378X0.01476*%
%ADD243R,0.01476X0.01378*%
%ADD280M103*%
%ADD281M104*%
%ADD284M107*%
%ADD285M108*%
%ADD286M109*%
%ADD301M123*%
%ADD302M124*%
%ADD303M125*%
%ADD304O,0.08661X0.01968*%
%ADD305M126*%
%ADD306M127*%
%ADD372O,0.00984X0.04961*%
%ADD374R,0.06693X0.09449*%
%ADD376R,0.04331X0.03937*%
%ADD452M246*%
%ADD453M247*%
%ADD456M250*%
%ADD458M252*%
%ADD460M254*%
%ADD463M257*%
%ADD484M278*%
%ADD485M279*%
%ADD486M280*%
%ADD487M281*%
%ADD488M282*%
%ADD489M283*%
%ADD490M284*%
%ADD491M285*%
%ADD492M286*%
%ADD493M287*%
%ADD494M288*%
%ADD495M289*%
%ADD496M290*%
%ADD53R,0.14567X0.00787*%
%ADD54R,0.01575X0.00787*%
%ADD55R,0.06299X0.00787*%
%ADD56R,0.38189X0.00787*%
%ADD57R,0.09055X0.00787*%
%ADD58R,0.00787X0.05512*%
%ADD59R,0.00787X0.25197*%
%ADD60R,0.00787X0.06693*%
%ADD61R,0.00787X0.12992*%
%ADD62R,0.27559X0.00787*%
%ADD63R,0.12992X0.00787*%
%ADD64R,0.24803X0.00787*%
%ADD97R,0.17323X0.09055*%
%ADD98R,0.15748X0.09055*%
X0000000Y0000000D02*
%LPD*%
G01*
G36*
G01*
X0201153Y0271631D02*
X0201153Y0272812D01*
G75*
G02*
X0201744Y0273403I0000591J0000000D01*
G01*
X0206370Y0273403D01*
G75*
G02*
X0206961Y0272812I0000000J-000591D01*
G01*
X0206961Y0271631D01*
G75*
G02*
X0206370Y0271041I-000591J0000000D01*
G01*
X0201744Y0271041D01*
G75*
G02*
X0201153Y0271631I0000000J0000591D01*
G01*
G37*
G36*
G01*
X0201153Y0279112D02*
X0201153Y0280293D01*
G75*
G02*
X0201744Y0280883I0000591J0000000D01*
G01*
X0206370Y0280883D01*
G75*
G02*
X0206961Y0280293I0000000J-000591D01*
G01*
X0206961Y0279112D01*
G75*
G02*
X0206370Y0278521I-000591J0000000D01*
G01*
X0201744Y0278521D01*
G75*
G02*
X0201153Y0279112I0000000J0000591D01*
G01*
G37*
G36*
G01*
X0208535Y0275372D02*
X0208535Y0276553D01*
G75*
G02*
X0209126Y0277143I0000591J0000000D01*
G01*
X0213752Y0277143D01*
G75*
G02*
X0214342Y0276553I0000000J-000591D01*
G01*
X0214342Y0275372D01*
G75*
G02*
X0213752Y0274781I-000591J0000000D01*
G01*
X0209126Y0274781D01*
G75*
G02*
X0208535Y0275372I0000000J0000591D01*
G01*
G37*
G36*
G01*
X0468071Y0107261D02*
X0468071Y0103127D01*
G75*
G02*
X0467677Y0102734I-000394J0000000D01*
G01*
X0464528Y0102734D01*
G75*
G02*
X0464134Y0103127I0000000J0000394D01*
G01*
X0464134Y0107261D01*
G75*
G02*
X0464528Y0107655I0000394J0000000D01*
G01*
X0467677Y0107655D01*
G75*
G02*
X0468071Y0107261I0000000J-000394D01*
G01*
G37*
G36*
G01*
X0460197Y0107261D02*
X0460197Y0103127D01*
G75*
G02*
X0459803Y0102734I-000394J0000000D01*
G01*
X0456654Y0102734D01*
G75*
G02*
X0456260Y0103127I0000000J0000394D01*
G01*
X0456260Y0107261D01*
G75*
G02*
X0456654Y0107655I0000394J0000000D01*
G01*
X0459803Y0107655D01*
G75*
G02*
X0460197Y0107261I0000000J-000394D01*
G01*
G37*
G36*
G01*
X0259980Y0299427D02*
X0259980Y0302104D01*
G75*
G02*
X0260315Y0302438I0000335J0000000D01*
G01*
X0262992Y0302438D01*
G75*
G02*
X0263327Y0302104I0000000J-000335D01*
G01*
X0263327Y0299427D01*
G75*
G02*
X0262992Y0299092I-000335J0000000D01*
G01*
X0260315Y0299092D01*
G75*
G02*
X0259980Y0299427I0000000J0000335D01*
G01*
G37*
G36*
G01*
X0266201Y0299427D02*
X0266201Y0302104D01*
G75*
G02*
X0266535Y0302438I0000335J0000000D01*
G01*
X0269213Y0302438D01*
G75*
G02*
X0269547Y0302104I0000000J-000335D01*
G01*
X0269547Y0299427D01*
G75*
G02*
X0269213Y0299092I-000335J0000000D01*
G01*
X0266535Y0299092D01*
G75*
G02*
X0266201Y0299427I0000000J0000335D01*
G01*
G37*
G36*
G01*
X0222244Y0134269D02*
X0222244Y0130253D01*
G75*
G02*
X0221890Y0129899I-000354J0000000D01*
G01*
X0219055Y0129899D01*
G75*
G02*
X0218701Y0130253I0000000J0000354D01*
G01*
X0218701Y0134269D01*
G75*
G02*
X0219055Y0134623I0000354J0000000D01*
G01*
X0221890Y0134623D01*
G75*
G02*
X0222244Y0134269I0000000J-000354D01*
G01*
G37*
G36*
G01*
X0209252Y0134269D02*
X0209252Y0130253D01*
G75*
G02*
X0208898Y0129899I-000354J0000000D01*
G01*
X0206063Y0129899D01*
G75*
G02*
X0205709Y0130253I0000000J0000354D01*
G01*
X0205709Y0134269D01*
G75*
G02*
X0206063Y0134623I0000354J0000000D01*
G01*
X0208898Y0134623D01*
G75*
G02*
X0209252Y0134269I0000000J-000354D01*
G01*
G37*
D97*
X0452165Y0419663D03*
D98*
X0389173Y0419663D03*
G36*
G01*
X0273425Y0061769D02*
X0273425Y0062950D01*
G75*
G02*
X0274016Y0063541I0000591J0000000D01*
G01*
X0280512Y0063541D01*
G75*
G02*
X0281102Y0062950I0000000J-000591D01*
G01*
X0281102Y0061769D01*
G75*
G02*
X0280512Y0061179I-000591J0000000D01*
G01*
X0274016Y0061179D01*
G75*
G02*
X0273425Y0061769I0000000J0000591D01*
G01*
G37*
G36*
G01*
X0273425Y0066769D02*
X0273425Y0067950D01*
G75*
G02*
X0274016Y0068541I0000591J0000000D01*
G01*
X0280512Y0068541D01*
G75*
G02*
X0281102Y0067950I0000000J-000591D01*
G01*
X0281102Y0066769D01*
G75*
G02*
X0280512Y0066179I-000591J0000000D01*
G01*
X0274016Y0066179D01*
G75*
G02*
X0273425Y0066769I0000000J0000591D01*
G01*
G37*
G36*
G01*
X0273425Y0071769D02*
X0273425Y0072950D01*
G75*
G02*
X0274016Y0073541I0000591J0000000D01*
G01*
X0280512Y0073541D01*
G75*
G02*
X0281102Y0072950I0000000J-000591D01*
G01*
X0281102Y0071769D01*
G75*
G02*
X0280512Y0071179I-000591J0000000D01*
G01*
X0274016Y0071179D01*
G75*
G02*
X0273425Y0071769I0000000J0000591D01*
G01*
G37*
G36*
G01*
X0273425Y0076769D02*
X0273425Y0077950D01*
G75*
G02*
X0274016Y0078541I0000591J0000000D01*
G01*
X0280512Y0078541D01*
G75*
G02*
X0281102Y0077950I0000000J-000591D01*
G01*
X0281102Y0076769D01*
G75*
G02*
X0280512Y0076179I-000591J0000000D01*
G01*
X0274016Y0076179D01*
G75*
G02*
X0273425Y0076769I0000000J0000591D01*
G01*
G37*
G36*
G01*
X0292913Y0076769D02*
X0292913Y0077950D01*
G75*
G02*
X0293504Y0078541I0000591J0000000D01*
G01*
X0300000Y0078541D01*
G75*
G02*
X0300591Y0077950I0000000J-000591D01*
G01*
X0300591Y0076769D01*
G75*
G02*
X0300000Y0076179I-000591J0000000D01*
G01*
X0293504Y0076179D01*
G75*
G02*
X0292913Y0076769I0000000J0000591D01*
G01*
G37*
G36*
G01*
X0292913Y0071769D02*
X0292913Y0072950D01*
G75*
G02*
X0293504Y0073541I0000591J0000000D01*
G01*
X0300000Y0073541D01*
G75*
G02*
X0300591Y0072950I0000000J-000591D01*
G01*
X0300591Y0071769D01*
G75*
G02*
X0300000Y0071179I-000591J0000000D01*
G01*
X0293504Y0071179D01*
G75*
G02*
X0292913Y0071769I0000000J0000591D01*
G01*
G37*
G36*
G01*
X0292913Y0066769D02*
X0292913Y0067950D01*
G75*
G02*
X0293504Y0068541I0000591J0000000D01*
G01*
X0300000Y0068541D01*
G75*
G02*
X0300591Y0067950I0000000J-000591D01*
G01*
X0300591Y0066769D01*
G75*
G02*
X0300000Y0066179I-000591J0000000D01*
G01*
X0293504Y0066179D01*
G75*
G02*
X0292913Y0066769I0000000J0000591D01*
G01*
G37*
G36*
G01*
X0292913Y0061769D02*
X0292913Y0062950D01*
G75*
G02*
X0293504Y0063541I0000591J0000000D01*
G01*
X0300000Y0063541D01*
G75*
G02*
X0300591Y0062950I0000000J-000591D01*
G01*
X0300591Y0061769D01*
G75*
G02*
X0300000Y0061179I-000591J0000000D01*
G01*
X0293504Y0061179D01*
G75*
G02*
X0292913Y0061769I0000000J0000591D01*
G01*
G37*
G36*
G01*
X0361024Y0069033D02*
X0361024Y0065962D01*
G75*
G02*
X0360748Y0065686I-000276J0000000D01*
G01*
X0358543Y0065686D01*
G75*
G02*
X0358268Y0065962I0000000J0000276D01*
G01*
X0358268Y0069033D01*
G75*
G02*
X0358543Y0069309I0000276J0000000D01*
G01*
X0360748Y0069309D01*
G75*
G02*
X0361024Y0069033I0000000J-000276D01*
G01*
G37*
G36*
G01*
X0354724Y0069033D02*
X0354724Y0065962D01*
G75*
G02*
X0354449Y0065686I-000276J0000000D01*
G01*
X0352244Y0065686D01*
G75*
G02*
X0351969Y0065962I0000000J0000276D01*
G01*
X0351969Y0069033D01*
G75*
G02*
X0352244Y0069309I0000276J0000000D01*
G01*
X0354449Y0069309D01*
G75*
G02*
X0354724Y0069033I0000000J-000276D01*
G01*
G37*
G36*
G01*
X0194528Y0287399D02*
X0197205Y0287399D01*
G75*
G02*
X0197539Y0287064I0000000J-000335D01*
G01*
X0197539Y0284387D01*
G75*
G02*
X0197205Y0284053I-000335J0000000D01*
G01*
X0194528Y0284053D01*
G75*
G02*
X0194193Y0284387I0000000J0000335D01*
G01*
X0194193Y0287064D01*
G75*
G02*
X0194528Y0287399I0000335J0000000D01*
G01*
G37*
G36*
G01*
X0194528Y0281179D02*
X0197205Y0281179D01*
G75*
G02*
X0197539Y0280844I0000000J-000335D01*
G01*
X0197539Y0278167D01*
G75*
G02*
X0197205Y0277832I-000335J0000000D01*
G01*
X0194528Y0277832D01*
G75*
G02*
X0194193Y0278167I0000000J0000335D01*
G01*
X0194193Y0280844D01*
G75*
G02*
X0194528Y0281179I0000335J0000000D01*
G01*
G37*
G36*
G01*
X0468071Y0083639D02*
X0468071Y0079505D01*
G75*
G02*
X0467677Y0079112I-000394J0000000D01*
G01*
X0464528Y0079112D01*
G75*
G02*
X0464134Y0079505I0000000J0000394D01*
G01*
X0464134Y0083639D01*
G75*
G02*
X0464528Y0084033I0000394J0000000D01*
G01*
X0467677Y0084033D01*
G75*
G02*
X0468071Y0083639I0000000J-000394D01*
G01*
G37*
G36*
G01*
X0460197Y0083639D02*
X0460197Y0079505D01*
G75*
G02*
X0459803Y0079112I-000394J0000000D01*
G01*
X0456654Y0079112D01*
G75*
G02*
X0456260Y0079505I0000000J0000394D01*
G01*
X0456260Y0083639D01*
G75*
G02*
X0456654Y0084033I0000394J0000000D01*
G01*
X0459803Y0084033D01*
G75*
G02*
X0460197Y0083639I0000000J-000394D01*
G01*
G37*
G36*
G01*
X0382421Y0438009D02*
X0382421Y0440686D01*
G75*
G02*
X0382756Y0441021I0000335J0000000D01*
G01*
X0385433Y0441021D01*
G75*
G02*
X0385768Y0440686I0000000J-000335D01*
G01*
X0385768Y0438009D01*
G75*
G02*
X0385433Y0437675I-000335J0000000D01*
G01*
X0382756Y0437675D01*
G75*
G02*
X0382421Y0438009I0000000J0000335D01*
G01*
G37*
G36*
G01*
X0388642Y0438009D02*
X0388642Y0440686D01*
G75*
G02*
X0388976Y0441021I0000335J0000000D01*
G01*
X0391654Y0441021D01*
G75*
G02*
X0391988Y0440686I0000000J-000335D01*
G01*
X0391988Y0438009D01*
G75*
G02*
X0391654Y0437675I-000335J0000000D01*
G01*
X0388976Y0437675D01*
G75*
G02*
X0388642Y0438009I0000000J0000335D01*
G01*
G37*
G36*
G01*
X0218929Y0271179D02*
X0216252Y0271179D01*
G75*
G02*
X0215917Y0271513I0000000J0000335D01*
G01*
X0215917Y0274190D01*
G75*
G02*
X0216252Y0274525I0000335J0000000D01*
G01*
X0218929Y0274525D01*
G75*
G02*
X0219264Y0274190I0000000J-000335D01*
G01*
X0219264Y0271513D01*
G75*
G02*
X0218929Y0271179I-000335J0000000D01*
G01*
G37*
G36*
G01*
X0218929Y0277399D02*
X0216252Y0277399D01*
G75*
G02*
X0215917Y0277734I0000000J0000335D01*
G01*
X0215917Y0280411D01*
G75*
G02*
X0216252Y0280746I0000335J0000000D01*
G01*
X0218929Y0280746D01*
G75*
G02*
X0219264Y0280411I0000000J-000335D01*
G01*
X0219264Y0277734D01*
G75*
G02*
X0218929Y0277399I-000335J0000000D01*
G01*
G37*
G36*
G01*
X0361024Y0082222D02*
X0361024Y0079151D01*
G75*
G02*
X0360748Y0078875I-000276J0000000D01*
G01*
X0358543Y0078875D01*
G75*
G02*
X0358268Y0079151I0000000J0000276D01*
G01*
X0358268Y0082222D01*
G75*
G02*
X0358543Y0082498I0000276J0000000D01*
G01*
X0360748Y0082498D01*
G75*
G02*
X0361024Y0082222I0000000J-000276D01*
G01*
G37*
G36*
G01*
X0354724Y0082222D02*
X0354724Y0079151D01*
G75*
G02*
X0354449Y0078875I-000276J0000000D01*
G01*
X0352244Y0078875D01*
G75*
G02*
X0351969Y0079151I0000000J0000276D01*
G01*
X0351969Y0082222D01*
G75*
G02*
X0352244Y0082498I0000276J0000000D01*
G01*
X0354449Y0082498D01*
G75*
G02*
X0354724Y0082222I0000000J-000276D01*
G01*
G37*
G36*
G01*
X0477756Y0120746D02*
X0477756Y0124879D01*
G75*
G02*
X0478150Y0125273I0000394J0000000D01*
G01*
X0481299Y0125273D01*
G75*
G02*
X0481693Y0124879I0000000J-000394D01*
G01*
X0481693Y0120746D01*
G75*
G02*
X0481299Y0120352I-000394J0000000D01*
G01*
X0478150Y0120352D01*
G75*
G02*
X0477756Y0120746I0000000J0000394D01*
G01*
G37*
G36*
G01*
X0485630Y0120746D02*
X0485630Y0124879D01*
G75*
G02*
X0486024Y0125273I0000394J0000000D01*
G01*
X0489173Y0125273D01*
G75*
G02*
X0489567Y0124879I0000000J-000394D01*
G01*
X0489567Y0120746D01*
G75*
G02*
X0489173Y0120352I-000394J0000000D01*
G01*
X0486024Y0120352D01*
G75*
G02*
X0485630Y0120746I0000000J0000394D01*
G01*
G37*
G36*
G01*
X0269783Y0165627D02*
X0281004Y0165627D01*
G75*
G02*
X0281988Y0164643I0000000J-000984D01*
G01*
X0281988Y0161789D01*
G75*
G02*
X0281004Y0160805I-000984J0000000D01*
G01*
X0269783Y0160805D01*
G75*
G02*
X0268799Y0161789I0000000J0000984D01*
G01*
X0268799Y0164643D01*
G75*
G02*
X0269783Y0165627I0000984J0000000D01*
G01*
G37*
G36*
G01*
X0269783Y0142301D02*
X0281004Y0142301D01*
G75*
G02*
X0281988Y0141316I0000000J-000984D01*
G01*
X0281988Y0138462D01*
G75*
G02*
X0281004Y0137478I-000984J0000000D01*
G01*
X0269783Y0137478D01*
G75*
G02*
X0268799Y0138462I0000000J0000984D01*
G01*
X0268799Y0141316D01*
G75*
G02*
X0269783Y0142301I0000984J0000000D01*
G01*
G37*
G36*
G01*
X0440512Y0087379D02*
X0440512Y0091513D01*
G75*
G02*
X0440906Y0091907I0000394J0000000D01*
G01*
X0444055Y0091907D01*
G75*
G02*
X0444449Y0091513I0000000J-000394D01*
G01*
X0444449Y0087379D01*
G75*
G02*
X0444055Y0086986I-000394J0000000D01*
G01*
X0440906Y0086986D01*
G75*
G02*
X0440512Y0087379I0000000J0000394D01*
G01*
G37*
G36*
G01*
X0448386Y0087379D02*
X0448386Y0091513D01*
G75*
G02*
X0448780Y0091907I0000394J0000000D01*
G01*
X0451929Y0091907D01*
G75*
G02*
X0452323Y0091513I0000000J-000394D01*
G01*
X0452323Y0087379D01*
G75*
G02*
X0451929Y0086986I-000394J0000000D01*
G01*
X0448780Y0086986D01*
G75*
G02*
X0448386Y0087379I0000000J0000394D01*
G01*
G37*
G36*
G01*
X0505315Y0132753D02*
X0505315Y0128620D01*
G75*
G02*
X0504921Y0128226I-000394J0000000D01*
G01*
X0501772Y0128226D01*
G75*
G02*
X0501378Y0128620I0000000J0000394D01*
G01*
X0501378Y0132753D01*
G75*
G02*
X0501772Y0133147I0000394J0000000D01*
G01*
X0504921Y0133147D01*
G75*
G02*
X0505315Y0132753I0000000J-000394D01*
G01*
G37*
G36*
G01*
X0497441Y0132753D02*
X0497441Y0128620D01*
G75*
G02*
X0497047Y0128226I-000394J0000000D01*
G01*
X0493898Y0128226D01*
G75*
G02*
X0493504Y0128620I0000000J0000394D01*
G01*
X0493504Y0132753D01*
G75*
G02*
X0493898Y0133147I0000394J0000000D01*
G01*
X0497047Y0133147D01*
G75*
G02*
X0497441Y0132753I0000000J-000394D01*
G01*
G37*
G36*
G01*
X0224803Y0267872D02*
X0224803Y0269053D01*
G75*
G02*
X0225394Y0269643I0000591J0000000D01*
G01*
X0231890Y0269643D01*
G75*
G02*
X0232480Y0269053I0000000J-000591D01*
G01*
X0232480Y0267872D01*
G75*
G02*
X0231890Y0267281I-000591J0000000D01*
G01*
X0225394Y0267281D01*
G75*
G02*
X0224803Y0267872I0000000J0000591D01*
G01*
G37*
G36*
G01*
X0224803Y0272872D02*
X0224803Y0274053D01*
G75*
G02*
X0225394Y0274643I0000591J0000000D01*
G01*
X0231890Y0274643D01*
G75*
G02*
X0232480Y0274053I0000000J-000591D01*
G01*
X0232480Y0272872D01*
G75*
G02*
X0231890Y0272281I-000591J0000000D01*
G01*
X0225394Y0272281D01*
G75*
G02*
X0224803Y0272872I0000000J0000591D01*
G01*
G37*
G36*
G01*
X0224803Y0277872D02*
X0224803Y0279053D01*
G75*
G02*
X0225394Y0279643I0000591J0000000D01*
G01*
X0231890Y0279643D01*
G75*
G02*
X0232480Y0279053I0000000J-000591D01*
G01*
X0232480Y0277872D01*
G75*
G02*
X0231890Y0277281I-000591J0000000D01*
G01*
X0225394Y0277281D01*
G75*
G02*
X0224803Y0277872I0000000J0000591D01*
G01*
G37*
G36*
G01*
X0224803Y0282872D02*
X0224803Y0284053D01*
G75*
G02*
X0225394Y0284643I0000591J0000000D01*
G01*
X0231890Y0284643D01*
G75*
G02*
X0232480Y0284053I0000000J-000591D01*
G01*
X0232480Y0282872D01*
G75*
G02*
X0231890Y0282281I-000591J0000000D01*
G01*
X0225394Y0282281D01*
G75*
G02*
X0224803Y0282872I0000000J0000591D01*
G01*
G37*
G36*
G01*
X0244291Y0282872D02*
X0244291Y0284053D01*
G75*
G02*
X0244882Y0284643I0000591J0000000D01*
G01*
X0251378Y0284643D01*
G75*
G02*
X0251969Y0284053I0000000J-000591D01*
G01*
X0251969Y0282872D01*
G75*
G02*
X0251378Y0282281I-000591J0000000D01*
G01*
X0244882Y0282281D01*
G75*
G02*
X0244291Y0282872I0000000J0000591D01*
G01*
G37*
G36*
G01*
X0244291Y0277872D02*
X0244291Y0279053D01*
G75*
G02*
X0244882Y0279643I0000591J0000000D01*
G01*
X0251378Y0279643D01*
G75*
G02*
X0251969Y0279053I0000000J-000591D01*
G01*
X0251969Y0277872D01*
G75*
G02*
X0251378Y0277281I-000591J0000000D01*
G01*
X0244882Y0277281D01*
G75*
G02*
X0244291Y0277872I0000000J0000591D01*
G01*
G37*
G36*
G01*
X0244291Y0272872D02*
X0244291Y0274053D01*
G75*
G02*
X0244882Y0274643I0000591J0000000D01*
G01*
X0251378Y0274643D01*
G75*
G02*
X0251969Y0274053I0000000J-000591D01*
G01*
X0251969Y0272872D01*
G75*
G02*
X0251378Y0272281I-000591J0000000D01*
G01*
X0244882Y0272281D01*
G75*
G02*
X0244291Y0272872I0000000J0000591D01*
G01*
G37*
G36*
G01*
X0244291Y0267872D02*
X0244291Y0269053D01*
G75*
G02*
X0244882Y0269643I0000591J0000000D01*
G01*
X0251378Y0269643D01*
G75*
G02*
X0251969Y0269053I0000000J-000591D01*
G01*
X0251969Y0267872D01*
G75*
G02*
X0251378Y0267281I-000591J0000000D01*
G01*
X0244882Y0267281D01*
G75*
G02*
X0244291Y0267872I0000000J0000591D01*
G01*
G37*
G36*
G01*
X0440512Y0071631D02*
X0440512Y0075765D01*
G75*
G02*
X0440906Y0076159I0000394J0000000D01*
G01*
X0444055Y0076159D01*
G75*
G02*
X0444449Y0075765I0000000J-000394D01*
G01*
X0444449Y0071631D01*
G75*
G02*
X0444055Y0071238I-000394J0000000D01*
G01*
X0440906Y0071238D01*
G75*
G02*
X0440512Y0071631I0000000J0000394D01*
G01*
G37*
G36*
G01*
X0448386Y0071631D02*
X0448386Y0075765D01*
G75*
G02*
X0448780Y0076159I0000394J0000000D01*
G01*
X0451929Y0076159D01*
G75*
G02*
X0452323Y0075765I0000000J-000394D01*
G01*
X0452323Y0071631D01*
G75*
G02*
X0451929Y0071238I-000394J0000000D01*
G01*
X0448780Y0071238D01*
G75*
G02*
X0448386Y0071631I0000000J0000394D01*
G01*
G37*
G36*
G01*
X0352461Y0165627D02*
X0363681Y0165627D01*
G75*
G02*
X0364665Y0164643I0000000J-000984D01*
G01*
X0364665Y0161789D01*
G75*
G02*
X0363681Y0160805I-000984J0000000D01*
G01*
X0352461Y0160805D01*
G75*
G02*
X0351476Y0161789I0000000J0000984D01*
G01*
X0351476Y0164643D01*
G75*
G02*
X0352461Y0165627I0000984J0000000D01*
G01*
G37*
G36*
G01*
X0352461Y0142301D02*
X0363681Y0142301D01*
G75*
G02*
X0364665Y0141316I0000000J-000984D01*
G01*
X0364665Y0138462D01*
G75*
G02*
X0363681Y0137478I-000984J0000000D01*
G01*
X0352461Y0137478D01*
G75*
G02*
X0351476Y0138462I0000000J0000984D01*
G01*
X0351476Y0141316D01*
G75*
G02*
X0352461Y0142301I0000984J0000000D01*
G01*
G37*
G36*
G01*
X0307087Y0061769D02*
X0307087Y0062950D01*
G75*
G02*
X0307677Y0063541I0000591J0000000D01*
G01*
X0314173Y0063541D01*
G75*
G02*
X0314764Y0062950I0000000J-000591D01*
G01*
X0314764Y0061769D01*
G75*
G02*
X0314173Y0061179I-000591J0000000D01*
G01*
X0307677Y0061179D01*
G75*
G02*
X0307087Y0061769I0000000J0000591D01*
G01*
G37*
G36*
G01*
X0307087Y0066769D02*
X0307087Y0067950D01*
G75*
G02*
X0307677Y0068541I0000591J0000000D01*
G01*
X0314173Y0068541D01*
G75*
G02*
X0314764Y0067950I0000000J-000591D01*
G01*
X0314764Y0066769D01*
G75*
G02*
X0314173Y0066179I-000591J0000000D01*
G01*
X0307677Y0066179D01*
G75*
G02*
X0307087Y0066769I0000000J0000591D01*
G01*
G37*
G36*
G01*
X0307087Y0071769D02*
X0307087Y0072950D01*
G75*
G02*
X0307677Y0073541I0000591J0000000D01*
G01*
X0314173Y0073541D01*
G75*
G02*
X0314764Y0072950I0000000J-000591D01*
G01*
X0314764Y0071769D01*
G75*
G02*
X0314173Y0071179I-000591J0000000D01*
G01*
X0307677Y0071179D01*
G75*
G02*
X0307087Y0071769I0000000J0000591D01*
G01*
G37*
G36*
G01*
X0307087Y0076769D02*
X0307087Y0077950D01*
G75*
G02*
X0307677Y0078541I0000591J0000000D01*
G01*
X0314173Y0078541D01*
G75*
G02*
X0314764Y0077950I0000000J-000591D01*
G01*
X0314764Y0076769D01*
G75*
G02*
X0314173Y0076179I-000591J0000000D01*
G01*
X0307677Y0076179D01*
G75*
G02*
X0307087Y0076769I0000000J0000591D01*
G01*
G37*
G36*
G01*
X0326575Y0076769D02*
X0326575Y0077950D01*
G75*
G02*
X0327165Y0078541I0000591J0000000D01*
G01*
X0333661Y0078541D01*
G75*
G02*
X0334252Y0077950I0000000J-000591D01*
G01*
X0334252Y0076769D01*
G75*
G02*
X0333661Y0076179I-000591J0000000D01*
G01*
X0327165Y0076179D01*
G75*
G02*
X0326575Y0076769I0000000J0000591D01*
G01*
G37*
G36*
G01*
X0326575Y0071769D02*
X0326575Y0072950D01*
G75*
G02*
X0327165Y0073541I0000591J0000000D01*
G01*
X0333661Y0073541D01*
G75*
G02*
X0334252Y0072950I0000000J-000591D01*
G01*
X0334252Y0071769D01*
G75*
G02*
X0333661Y0071179I-000591J0000000D01*
G01*
X0327165Y0071179D01*
G75*
G02*
X0326575Y0071769I0000000J0000591D01*
G01*
G37*
G36*
G01*
X0326575Y0066769D02*
X0326575Y0067950D01*
G75*
G02*
X0327165Y0068541I0000591J0000000D01*
G01*
X0333661Y0068541D01*
G75*
G02*
X0334252Y0067950I0000000J-000591D01*
G01*
X0334252Y0066769D01*
G75*
G02*
X0333661Y0066179I-000591J0000000D01*
G01*
X0327165Y0066179D01*
G75*
G02*
X0326575Y0066769I0000000J0000591D01*
G01*
G37*
G36*
G01*
X0326575Y0061769D02*
X0326575Y0062950D01*
G75*
G02*
X0327165Y0063541I0000591J0000000D01*
G01*
X0333661Y0063541D01*
G75*
G02*
X0334252Y0062950I0000000J-000591D01*
G01*
X0334252Y0061769D01*
G75*
G02*
X0333661Y0061179I-000591J0000000D01*
G01*
X0327165Y0061179D01*
G75*
G02*
X0326575Y0061769I0000000J0000591D01*
G01*
G37*
G36*
G01*
X0236476Y0293442D02*
X0236476Y0290765D01*
G75*
G02*
X0236142Y0290431I-000335J0000000D01*
G01*
X0233465Y0290431D01*
G75*
G02*
X0233130Y0290765I0000000J0000335D01*
G01*
X0233130Y0293442D01*
G75*
G02*
X0233465Y0293777I0000335J0000000D01*
G01*
X0236142Y0293777D01*
G75*
G02*
X0236476Y0293442I0000000J-000335D01*
G01*
G37*
G36*
G01*
X0230256Y0293442D02*
X0230256Y0290765D01*
G75*
G02*
X0229921Y0290431I-000335J0000000D01*
G01*
X0227244Y0290431D01*
G75*
G02*
X0226909Y0290765I0000000J0000335D01*
G01*
X0226909Y0293442D01*
G75*
G02*
X0227244Y0293777I0000335J0000000D01*
G01*
X0229921Y0293777D01*
G75*
G02*
X0230256Y0293442I0000000J-000335D01*
G01*
G37*
G36*
G01*
X0380610Y0174953D02*
X0380610Y0176971D01*
G75*
G02*
X0381471Y0177832I0000861J0000000D01*
G01*
X0383194Y0177832D01*
G75*
G02*
X0384055Y0176971I0000000J-000861D01*
G01*
X0384055Y0174953D01*
G75*
G02*
X0383194Y0174092I-000861J0000000D01*
G01*
X0381471Y0174092D01*
G75*
G02*
X0380610Y0174953I0000000J0000861D01*
G01*
G37*
G36*
G01*
X0386811Y0174953D02*
X0386811Y0176971D01*
G75*
G02*
X0387672Y0177832I0000861J0000000D01*
G01*
X0389395Y0177832D01*
G75*
G02*
X0390256Y0176971I0000000J-000861D01*
G01*
X0390256Y0174953D01*
G75*
G02*
X0389395Y0174092I-000861J0000000D01*
G01*
X0387672Y0174092D01*
G75*
G02*
X0386811Y0174953I0000000J0000861D01*
G01*
G37*
G36*
G01*
X0477756Y0097123D02*
X0477756Y0101257D01*
G75*
G02*
X0478150Y0101651I0000394J0000000D01*
G01*
X0481299Y0101651D01*
G75*
G02*
X0481693Y0101257I0000000J-000394D01*
G01*
X0481693Y0097123D01*
G75*
G02*
X0481299Y0096730I-000394J0000000D01*
G01*
X0478150Y0096730D01*
G75*
G02*
X0477756Y0097123I0000000J0000394D01*
G01*
G37*
G36*
G01*
X0485630Y0097123D02*
X0485630Y0101257D01*
G75*
G02*
X0486024Y0101651I0000394J0000000D01*
G01*
X0489173Y0101651D01*
G75*
G02*
X0489567Y0101257I0000000J-000394D01*
G01*
X0489567Y0097123D01*
G75*
G02*
X0489173Y0096730I-000394J0000000D01*
G01*
X0486024Y0096730D01*
G75*
G02*
X0485630Y0097123I0000000J0000394D01*
G01*
G37*
G36*
G01*
X0505315Y0101257D02*
X0505315Y0097123D01*
G75*
G02*
X0504921Y0096730I-000394J0000000D01*
G01*
X0501772Y0096730D01*
G75*
G02*
X0501378Y0097123I0000000J0000394D01*
G01*
X0501378Y0101257D01*
G75*
G02*
X0501772Y0101651I0000394J0000000D01*
G01*
X0504921Y0101651D01*
G75*
G02*
X0505315Y0101257I0000000J-000394D01*
G01*
G37*
G36*
G01*
X0497441Y0101257D02*
X0497441Y0097123D01*
G75*
G02*
X0497047Y0096730I-000394J0000000D01*
G01*
X0493898Y0096730D01*
G75*
G02*
X0493504Y0097123I0000000J0000394D01*
G01*
X0493504Y0101257D01*
G75*
G02*
X0493898Y0101651I0000394J0000000D01*
G01*
X0497047Y0101651D01*
G75*
G02*
X0497441Y0101257I0000000J-000394D01*
G01*
G37*
G36*
G01*
X0270571Y0174756D02*
X0270571Y0176774D01*
G75*
G02*
X0271432Y0177635I0000861J0000000D01*
G01*
X0273155Y0177635D01*
G75*
G02*
X0274016Y0176774I0000000J-000861D01*
G01*
X0274016Y0174756D01*
G75*
G02*
X0273155Y0173895I-000861J0000000D01*
G01*
X0271432Y0173895D01*
G75*
G02*
X0270571Y0174756I0000000J0000861D01*
G01*
G37*
G36*
G01*
X0276772Y0174756D02*
X0276772Y0176774D01*
G75*
G02*
X0277633Y0177635I0000861J0000000D01*
G01*
X0279355Y0177635D01*
G75*
G02*
X0280217Y0176774I0000000J-000861D01*
G01*
X0280217Y0174756D01*
G75*
G02*
X0279355Y0173895I-000861J0000000D01*
G01*
X0277633Y0173895D01*
G75*
G02*
X0276772Y0174756I0000000J0000861D01*
G01*
G37*
G36*
G01*
X0380020Y0165627D02*
X0391240Y0165627D01*
G75*
G02*
X0392224Y0164643I0000000J-000984D01*
G01*
X0392224Y0161789D01*
G75*
G02*
X0391240Y0160805I-000984J0000000D01*
G01*
X0380020Y0160805D01*
G75*
G02*
X0379035Y0161789I0000000J0000984D01*
G01*
X0379035Y0164643D01*
G75*
G02*
X0380020Y0165627I0000984J0000000D01*
G01*
G37*
G36*
G01*
X0380020Y0142301D02*
X0391240Y0142301D01*
G75*
G02*
X0392224Y0141316I0000000J-000984D01*
G01*
X0392224Y0138462D01*
G75*
G02*
X0391240Y0137478I-000984J0000000D01*
G01*
X0380020Y0137478D01*
G75*
G02*
X0379035Y0138462I0000000J0000984D01*
G01*
X0379035Y0141316D01*
G75*
G02*
X0380020Y0142301I0000984J0000000D01*
G01*
G37*
G36*
G01*
X0297343Y0165627D02*
X0308563Y0165627D01*
G75*
G02*
X0309547Y0164643I0000000J-000984D01*
G01*
X0309547Y0161789D01*
G75*
G02*
X0308563Y0160805I-000984J0000000D01*
G01*
X0297343Y0160805D01*
G75*
G02*
X0296358Y0161789I0000000J0000984D01*
G01*
X0296358Y0164643D01*
G75*
G02*
X0297343Y0165627I0000984J0000000D01*
G01*
G37*
G36*
G01*
X0297343Y0142301D02*
X0308563Y0142301D01*
G75*
G02*
X0309547Y0141316I0000000J-000984D01*
G01*
X0309547Y0138462D01*
G75*
G02*
X0308563Y0137478I-000984J0000000D01*
G01*
X0297343Y0137478D01*
G75*
G02*
X0296358Y0138462I0000000J0000984D01*
G01*
X0296358Y0141316D01*
G75*
G02*
X0297343Y0142301I0000984J0000000D01*
G01*
G37*
G36*
G01*
X0440512Y0095253D02*
X0440512Y0099387D01*
G75*
G02*
X0440906Y0099781I0000394J0000000D01*
G01*
X0444055Y0099781D01*
G75*
G02*
X0444449Y0099387I0000000J-000394D01*
G01*
X0444449Y0095253D01*
G75*
G02*
X0444055Y0094860I-000394J0000000D01*
G01*
X0440906Y0094860D01*
G75*
G02*
X0440512Y0095253I0000000J0000394D01*
G01*
G37*
G36*
G01*
X0448386Y0095253D02*
X0448386Y0099387D01*
G75*
G02*
X0448780Y0099781I0000394J0000000D01*
G01*
X0451929Y0099781D01*
G75*
G02*
X0452323Y0099387I0000000J-000394D01*
G01*
X0452323Y0095253D01*
G75*
G02*
X0451929Y0094860I-000394J0000000D01*
G01*
X0448780Y0094860D01*
G75*
G02*
X0448386Y0095253I0000000J0000394D01*
G01*
G37*
G36*
G01*
X0388484Y0383811D02*
X0388484Y0385829D01*
G75*
G02*
X0389345Y0386690I0000861J0000000D01*
G01*
X0391068Y0386690D01*
G75*
G02*
X0391929Y0385829I0000000J-000861D01*
G01*
X0391929Y0383811D01*
G75*
G02*
X0391068Y0382950I-000861J0000000D01*
G01*
X0389345Y0382950D01*
G75*
G02*
X0388484Y0383811I0000000J0000861D01*
G01*
G37*
G36*
G01*
X0394685Y0383811D02*
X0394685Y0385829D01*
G75*
G02*
X0395546Y0386690I0000861J0000000D01*
G01*
X0397269Y0386690D01*
G75*
G02*
X0398130Y0385829I0000000J-000861D01*
G01*
X0398130Y0383811D01*
G75*
G02*
X0397269Y0382950I-000861J0000000D01*
G01*
X0395546Y0382950D01*
G75*
G02*
X0394685Y0383811I0000000J0000861D01*
G01*
G37*
G36*
G01*
X0251772Y0134269D02*
X0251772Y0130253D01*
G75*
G02*
X0251417Y0129899I-000354J0000000D01*
G01*
X0248583Y0129899D01*
G75*
G02*
X0248228Y0130253I0000000J0000354D01*
G01*
X0248228Y0134269D01*
G75*
G02*
X0248583Y0134623I0000354J0000000D01*
G01*
X0251417Y0134623D01*
G75*
G02*
X0251772Y0134269I0000000J-000354D01*
G01*
G37*
G36*
G01*
X0238780Y0134269D02*
X0238780Y0130253D01*
G75*
G02*
X0238425Y0129899I-000354J0000000D01*
G01*
X0235591Y0129899D01*
G75*
G02*
X0235236Y0130253I0000000J0000354D01*
G01*
X0235236Y0134269D01*
G75*
G02*
X0235591Y0134623I0000354J0000000D01*
G01*
X0238425Y0134623D01*
G75*
G02*
X0238780Y0134269I0000000J-000354D01*
G01*
G37*
G36*
G01*
X0459252Y0400529D02*
X0459252Y0398639D01*
G75*
G02*
X0459016Y0398403I-000236J0000000D01*
G01*
X0457126Y0398403D01*
G75*
G02*
X0456890Y0398639I0000000J0000236D01*
G01*
X0456890Y0400529D01*
G75*
G02*
X0457126Y0400765I0000236J0000000D01*
G01*
X0459016Y0400765D01*
G75*
G02*
X0459252Y0400529I0000000J-000236D01*
G01*
G37*
G36*
G01*
X0459252Y0409190D02*
X0459252Y0407301D01*
G75*
G02*
X0459016Y0407064I-000236J0000000D01*
G01*
X0457126Y0407064D01*
G75*
G02*
X0456890Y0407301I0000000J0000236D01*
G01*
X0456890Y0409190D01*
G75*
G02*
X0457126Y0409427I0000236J0000000D01*
G01*
X0459016Y0409427D01*
G75*
G02*
X0459252Y0409190I0000000J-000236D01*
G01*
G37*
G36*
G01*
X0335039Y0171248D02*
X0335039Y0168177D01*
G75*
G02*
X0334764Y0167901I-000276J0000000D01*
G01*
X0332559Y0167901D01*
G75*
G02*
X0332283Y0168177I0000000J0000276D01*
G01*
X0332283Y0171248D01*
G75*
G02*
X0332559Y0171523I0000276J0000000D01*
G01*
X0334764Y0171523D01*
G75*
G02*
X0335039Y0171248I0000000J-000276D01*
G01*
G37*
G36*
G01*
X0328740Y0171248D02*
X0328740Y0168177D01*
G75*
G02*
X0328465Y0167901I-000276J0000000D01*
G01*
X0326260Y0167901D01*
G75*
G02*
X0325984Y0168177I0000000J0000276D01*
G01*
X0325984Y0171248D01*
G75*
G02*
X0326260Y0171523I0000276J0000000D01*
G01*
X0328465Y0171523D01*
G75*
G02*
X0328740Y0171248I0000000J-000276D01*
G01*
G37*
G36*
G01*
X0406299Y0181907D02*
X0406299Y0184978D01*
G75*
G02*
X0406575Y0185253I0000276J0000000D01*
G01*
X0408780Y0185253D01*
G75*
G02*
X0409055Y0184978I0000000J-000276D01*
G01*
X0409055Y0181907D01*
G75*
G02*
X0408780Y0181631I-000276J0000000D01*
G01*
X0406575Y0181631D01*
G75*
G02*
X0406299Y0181907I0000000J0000276D01*
G01*
G37*
G36*
G01*
X0412598Y0181907D02*
X0412598Y0184978D01*
G75*
G02*
X0412874Y0185253I0000276J0000000D01*
G01*
X0415079Y0185253D01*
G75*
G02*
X0415354Y0184978I0000000J-000276D01*
G01*
X0415354Y0181907D01*
G75*
G02*
X0415079Y0181631I-000276J0000000D01*
G01*
X0412874Y0181631D01*
G75*
G02*
X0412598Y0181907I0000000J0000276D01*
G01*
G37*
G36*
G01*
X0505315Y0117005D02*
X0505315Y0112872D01*
G75*
G02*
X0504921Y0112478I-000394J0000000D01*
G01*
X0501772Y0112478D01*
G75*
G02*
X0501378Y0112872I0000000J0000394D01*
G01*
X0501378Y0117005D01*
G75*
G02*
X0501772Y0117399I0000394J0000000D01*
G01*
X0504921Y0117399D01*
G75*
G02*
X0505315Y0117005I0000000J-000394D01*
G01*
G37*
G36*
G01*
X0497441Y0117005D02*
X0497441Y0112872D01*
G75*
G02*
X0497047Y0112478I-000394J0000000D01*
G01*
X0493898Y0112478D01*
G75*
G02*
X0493504Y0112872I0000000J0000394D01*
G01*
X0493504Y0117005D01*
G75*
G02*
X0493898Y0117399I0000394J0000000D01*
G01*
X0497047Y0117399D01*
G75*
G02*
X0497441Y0117005I0000000J-000394D01*
G01*
G37*
G36*
G01*
X0353051Y0174953D02*
X0353051Y0176971D01*
G75*
G02*
X0353912Y0177832I0000861J0000000D01*
G01*
X0355635Y0177832D01*
G75*
G02*
X0356496Y0176971I0000000J-000861D01*
G01*
X0356496Y0174953D01*
G75*
G02*
X0355635Y0174092I-000861J0000000D01*
G01*
X0353912Y0174092D01*
G75*
G02*
X0353051Y0174953I0000000J0000861D01*
G01*
G37*
G36*
G01*
X0359252Y0174953D02*
X0359252Y0176971D01*
G75*
G02*
X0360113Y0177832I0000861J0000000D01*
G01*
X0361836Y0177832D01*
G75*
G02*
X0362697Y0176971I0000000J-000861D01*
G01*
X0362697Y0174953D01*
G75*
G02*
X0361836Y0174092I-000861J0000000D01*
G01*
X0360113Y0174092D01*
G75*
G02*
X0359252Y0174953I0000000J0000861D01*
G01*
G37*
G36*
G01*
X0362598Y0171248D02*
X0362598Y0168177D01*
G75*
G02*
X0362323Y0167901I-000276J0000000D01*
G01*
X0360118Y0167901D01*
G75*
G02*
X0359843Y0168177I0000000J0000276D01*
G01*
X0359843Y0171248D01*
G75*
G02*
X0360118Y0171523I0000276J0000000D01*
G01*
X0362323Y0171523D01*
G75*
G02*
X0362598Y0171248I0000000J-000276D01*
G01*
G37*
G36*
G01*
X0356299Y0171248D02*
X0356299Y0168177D01*
G75*
G02*
X0356024Y0167901I-000276J0000000D01*
G01*
X0353819Y0167901D01*
G75*
G02*
X0353543Y0168177I0000000J0000276D01*
G01*
X0353543Y0171248D01*
G75*
G02*
X0353819Y0171523I0000276J0000000D01*
G01*
X0356024Y0171523D01*
G75*
G02*
X0356299Y0171248I0000000J-000276D01*
G01*
G37*
G36*
G01*
X0508353Y0251907D02*
X0508353Y0248836D01*
G75*
G02*
X0508077Y0248560I-000276J0000000D01*
G01*
X0505873Y0248560D01*
G75*
G02*
X0505597Y0248836I0000000J0000276D01*
G01*
X0505597Y0251907D01*
G75*
G02*
X0505873Y0252183I0000276J0000000D01*
G01*
X0508077Y0252183D01*
G75*
G02*
X0508353Y0251907I0000000J-000276D01*
G01*
G37*
G36*
G01*
X0502054Y0251907D02*
X0502054Y0248836D01*
G75*
G02*
X0501778Y0248560I-000276J0000000D01*
G01*
X0499574Y0248560D01*
G75*
G02*
X0499298Y0248836I0000000J0000276D01*
G01*
X0499298Y0251907D01*
G75*
G02*
X0499574Y0252183I0000276J0000000D01*
G01*
X0501778Y0252183D01*
G75*
G02*
X0502054Y0251907I0000000J-000276D01*
G01*
G37*
G36*
G01*
X0390157Y0171248D02*
X0390157Y0168177D01*
G75*
G02*
X0389882Y0167901I-000276J0000000D01*
G01*
X0387677Y0167901D01*
G75*
G02*
X0387402Y0168177I0000000J0000276D01*
G01*
X0387402Y0171248D01*
G75*
G02*
X0387677Y0171523I0000276J0000000D01*
G01*
X0389882Y0171523D01*
G75*
G02*
X0390157Y0171248I0000000J-000276D01*
G01*
G37*
G36*
G01*
X0383858Y0171248D02*
X0383858Y0168177D01*
G75*
G02*
X0383583Y0167901I-000276J0000000D01*
G01*
X0381378Y0167901D01*
G75*
G02*
X0381102Y0168177I0000000J0000276D01*
G01*
X0381102Y0171248D01*
G75*
G02*
X0381378Y0171523I0000276J0000000D01*
G01*
X0383583Y0171523D01*
G75*
G02*
X0383858Y0171248I0000000J-000276D01*
G01*
G37*
G36*
G01*
X0325689Y0175150D02*
X0325689Y0177168D01*
G75*
G02*
X0326550Y0178029I0000861J0000000D01*
G01*
X0328273Y0178029D01*
G75*
G02*
X0329134Y0177168I0000000J-000861D01*
G01*
X0329134Y0175150D01*
G75*
G02*
X0328273Y0174289I-000861J0000000D01*
G01*
X0326550Y0174289D01*
G75*
G02*
X0325689Y0175150I0000000J0000861D01*
G01*
G37*
G36*
G01*
X0331890Y0175150D02*
X0331890Y0177168D01*
G75*
G02*
X0332751Y0178029I0000861J0000000D01*
G01*
X0334473Y0178029D01*
G75*
G02*
X0335335Y0177168I0000000J-000861D01*
G01*
X0335335Y0175150D01*
G75*
G02*
X0334473Y0174289I-000861J0000000D01*
G01*
X0332751Y0174289D01*
G75*
G02*
X0331890Y0175150I0000000J0000861D01*
G01*
G37*
G36*
G01*
X0236476Y0300529D02*
X0236476Y0297852D01*
G75*
G02*
X0236142Y0297517I-000335J0000000D01*
G01*
X0233465Y0297517D01*
G75*
G02*
X0233130Y0297852I0000000J0000335D01*
G01*
X0233130Y0300529D01*
G75*
G02*
X0233465Y0300864I0000335J0000000D01*
G01*
X0236142Y0300864D01*
G75*
G02*
X0236476Y0300529I0000000J-000335D01*
G01*
G37*
G36*
G01*
X0230256Y0300529D02*
X0230256Y0297852D01*
G75*
G02*
X0229921Y0297517I-000335J0000000D01*
G01*
X0227244Y0297517D01*
G75*
G02*
X0226909Y0297852I0000000J0000335D01*
G01*
X0226909Y0300529D01*
G75*
G02*
X0227244Y0300864I0000335J0000000D01*
G01*
X0229921Y0300864D01*
G75*
G02*
X0230256Y0300529I0000000J-000335D01*
G01*
G37*
G36*
G01*
X0171850Y0078875D02*
X0171850Y0075805D01*
G75*
G02*
X0171575Y0075529I-000276J0000000D01*
G01*
X0169370Y0075529D01*
G75*
G02*
X0169094Y0075805I0000000J0000276D01*
G01*
X0169094Y0078875D01*
G75*
G02*
X0169370Y0079151I0000276J0000000D01*
G01*
X0171575Y0079151D01*
G75*
G02*
X0171850Y0078875I0000000J-000276D01*
G01*
G37*
G36*
G01*
X0165551Y0078875D02*
X0165551Y0075805D01*
G75*
G02*
X0165276Y0075529I-000276J0000000D01*
G01*
X0163071Y0075529D01*
G75*
G02*
X0162795Y0075805I0000000J0000276D01*
G01*
X0162795Y0078875D01*
G75*
G02*
X0163071Y0079151I0000276J0000000D01*
G01*
X0165276Y0079151D01*
G75*
G02*
X0165551Y0078875I0000000J-000276D01*
G01*
G37*
G36*
G01*
X0238976Y0061769D02*
X0238976Y0062950D01*
G75*
G02*
X0239567Y0063541I0000591J0000000D01*
G01*
X0246063Y0063541D01*
G75*
G02*
X0246654Y0062950I0000000J-000591D01*
G01*
X0246654Y0061769D01*
G75*
G02*
X0246063Y0061179I-000591J0000000D01*
G01*
X0239567Y0061179D01*
G75*
G02*
X0238976Y0061769I0000000J0000591D01*
G01*
G37*
G36*
G01*
X0238976Y0066769D02*
X0238976Y0067950D01*
G75*
G02*
X0239567Y0068541I0000591J0000000D01*
G01*
X0246063Y0068541D01*
G75*
G02*
X0246654Y0067950I0000000J-000591D01*
G01*
X0246654Y0066769D01*
G75*
G02*
X0246063Y0066179I-000591J0000000D01*
G01*
X0239567Y0066179D01*
G75*
G02*
X0238976Y0066769I0000000J0000591D01*
G01*
G37*
G36*
G01*
X0238976Y0071769D02*
X0238976Y0072950D01*
G75*
G02*
X0239567Y0073541I0000591J0000000D01*
G01*
X0246063Y0073541D01*
G75*
G02*
X0246654Y0072950I0000000J-000591D01*
G01*
X0246654Y0071769D01*
G75*
G02*
X0246063Y0071179I-000591J0000000D01*
G01*
X0239567Y0071179D01*
G75*
G02*
X0238976Y0071769I0000000J0000591D01*
G01*
G37*
G36*
G01*
X0238976Y0076769D02*
X0238976Y0077950D01*
G75*
G02*
X0239567Y0078541I0000591J0000000D01*
G01*
X0246063Y0078541D01*
G75*
G02*
X0246654Y0077950I0000000J-000591D01*
G01*
X0246654Y0076769D01*
G75*
G02*
X0246063Y0076179I-000591J0000000D01*
G01*
X0239567Y0076179D01*
G75*
G02*
X0238976Y0076769I0000000J0000591D01*
G01*
G37*
G36*
G01*
X0258465Y0076769D02*
X0258465Y0077950D01*
G75*
G02*
X0259055Y0078541I0000591J0000000D01*
G01*
X0265551Y0078541D01*
G75*
G02*
X0266142Y0077950I0000000J-000591D01*
G01*
X0266142Y0076769D01*
G75*
G02*
X0265551Y0076179I-000591J0000000D01*
G01*
X0259055Y0076179D01*
G75*
G02*
X0258465Y0076769I0000000J0000591D01*
G01*
G37*
G36*
G01*
X0258465Y0071769D02*
X0258465Y0072950D01*
G75*
G02*
X0259055Y0073541I0000591J0000000D01*
G01*
X0265551Y0073541D01*
G75*
G02*
X0266142Y0072950I0000000J-000591D01*
G01*
X0266142Y0071769D01*
G75*
G02*
X0265551Y0071179I-000591J0000000D01*
G01*
X0259055Y0071179D01*
G75*
G02*
X0258465Y0071769I0000000J0000591D01*
G01*
G37*
G36*
G01*
X0258465Y0066769D02*
X0258465Y0067950D01*
G75*
G02*
X0259055Y0068541I0000591J0000000D01*
G01*
X0265551Y0068541D01*
G75*
G02*
X0266142Y0067950I0000000J-000591D01*
G01*
X0266142Y0066769D01*
G75*
G02*
X0265551Y0066179I-000591J0000000D01*
G01*
X0259055Y0066179D01*
G75*
G02*
X0258465Y0066769I0000000J0000591D01*
G01*
G37*
G36*
G01*
X0258465Y0061769D02*
X0258465Y0062950D01*
G75*
G02*
X0259055Y0063541I0000591J0000000D01*
G01*
X0265551Y0063541D01*
G75*
G02*
X0266142Y0062950I0000000J-000591D01*
G01*
X0266142Y0061769D01*
G75*
G02*
X0265551Y0061179I-000591J0000000D01*
G01*
X0259055Y0061179D01*
G75*
G02*
X0258465Y0061769I0000000J0000591D01*
G01*
G37*
G36*
G01*
X0422638Y0201513D02*
X0422638Y0198442D01*
G75*
G02*
X0422362Y0198167I-000276J0000000D01*
G01*
X0420157Y0198167D01*
G75*
G02*
X0419882Y0198442I0000000J0000276D01*
G01*
X0419882Y0201513D01*
G75*
G02*
X0420157Y0201789I0000276J0000000D01*
G01*
X0422362Y0201789D01*
G75*
G02*
X0422638Y0201513I0000000J-000276D01*
G01*
G37*
G36*
G01*
X0416339Y0201513D02*
X0416339Y0198442D01*
G75*
G02*
X0416063Y0198167I-000276J0000000D01*
G01*
X0413858Y0198167D01*
G75*
G02*
X0413583Y0198442I0000000J0000276D01*
G01*
X0413583Y0201513D01*
G75*
G02*
X0413858Y0201789I0000276J0000000D01*
G01*
X0416063Y0201789D01*
G75*
G02*
X0416339Y0201513I0000000J-000276D01*
G01*
G37*
G36*
G01*
X0324902Y0165627D02*
X0336122Y0165627D01*
G75*
G02*
X0337106Y0164643I0000000J-000984D01*
G01*
X0337106Y0161789D01*
G75*
G02*
X0336122Y0160805I-000984J0000000D01*
G01*
X0324902Y0160805D01*
G75*
G02*
X0323917Y0161789I0000000J0000984D01*
G01*
X0323917Y0164643D01*
G75*
G02*
X0324902Y0165627I0000984J0000000D01*
G01*
G37*
G36*
G01*
X0324902Y0142301D02*
X0336122Y0142301D01*
G75*
G02*
X0337106Y0141316I0000000J-000984D01*
G01*
X0337106Y0138462D01*
G75*
G02*
X0336122Y0137478I-000984J0000000D01*
G01*
X0324902Y0137478D01*
G75*
G02*
X0323917Y0138462I0000000J0000984D01*
G01*
X0323917Y0141316D01*
G75*
G02*
X0324902Y0142301I0000984J0000000D01*
G01*
G37*
G36*
G01*
X0417717Y0171248D02*
X0417717Y0168177D01*
G75*
G02*
X0417441Y0167901I-000276J0000000D01*
G01*
X0415236Y0167901D01*
G75*
G02*
X0414961Y0168177I0000000J0000276D01*
G01*
X0414961Y0171248D01*
G75*
G02*
X0415236Y0171523I0000276J0000000D01*
G01*
X0417441Y0171523D01*
G75*
G02*
X0417717Y0171248I0000000J-000276D01*
G01*
G37*
G36*
G01*
X0411417Y0171248D02*
X0411417Y0168177D01*
G75*
G02*
X0411142Y0167901I-000276J0000000D01*
G01*
X0408937Y0167901D01*
G75*
G02*
X0408661Y0168177I0000000J0000276D01*
G01*
X0408661Y0171248D01*
G75*
G02*
X0408937Y0171523I0000276J0000000D01*
G01*
X0411142Y0171523D01*
G75*
G02*
X0411417Y0171248I0000000J-000276D01*
G01*
G37*
G36*
G01*
X0181594Y0271016D02*
X0181594Y0273034D01*
G75*
G02*
X0182456Y0273895I0000861J0000000D01*
G01*
X0184178Y0273895D01*
G75*
G02*
X0185039Y0273034I0000000J-000861D01*
G01*
X0185039Y0271016D01*
G75*
G02*
X0184178Y0270155I-000861J0000000D01*
G01*
X0182456Y0270155D01*
G75*
G02*
X0181594Y0271016I0000000J0000861D01*
G01*
G37*
G36*
G01*
X0187795Y0271016D02*
X0187795Y0273034D01*
G75*
G02*
X0188657Y0273895I0000861J0000000D01*
G01*
X0190379Y0273895D01*
G75*
G02*
X0191240Y0273034I0000000J-000861D01*
G01*
X0191240Y0271016D01*
G75*
G02*
X0190379Y0270155I-000861J0000000D01*
G01*
X0188657Y0270155D01*
G75*
G02*
X0187795Y0271016I0000000J0000861D01*
G01*
G37*
G36*
G01*
X0477756Y0112872D02*
X0477756Y0117005D01*
G75*
G02*
X0478150Y0117399I0000394J0000000D01*
G01*
X0481299Y0117399D01*
G75*
G02*
X0481693Y0117005I0000000J-000394D01*
G01*
X0481693Y0112872D01*
G75*
G02*
X0481299Y0112478I-000394J0000000D01*
G01*
X0478150Y0112478D01*
G75*
G02*
X0477756Y0112872I0000000J0000394D01*
G01*
G37*
G36*
G01*
X0485630Y0112872D02*
X0485630Y0117005D01*
G75*
G02*
X0486024Y0117399I0000394J0000000D01*
G01*
X0489173Y0117399D01*
G75*
G02*
X0489567Y0117005I0000000J-000394D01*
G01*
X0489567Y0112872D01*
G75*
G02*
X0489173Y0112478I-000394J0000000D01*
G01*
X0486024Y0112478D01*
G75*
G02*
X0485630Y0112872I0000000J0000394D01*
G01*
G37*
G36*
G01*
X0279921Y0171248D02*
X0279921Y0168177D01*
G75*
G02*
X0279646Y0167901I-000276J0000000D01*
G01*
X0277441Y0167901D01*
G75*
G02*
X0277165Y0168177I0000000J0000276D01*
G01*
X0277165Y0171248D01*
G75*
G02*
X0277441Y0171523I0000276J0000000D01*
G01*
X0279646Y0171523D01*
G75*
G02*
X0279921Y0171248I0000000J-000276D01*
G01*
G37*
G36*
G01*
X0273622Y0171248D02*
X0273622Y0168177D01*
G75*
G02*
X0273346Y0167901I-000276J0000000D01*
G01*
X0271142Y0167901D01*
G75*
G02*
X0270866Y0168177I0000000J0000276D01*
G01*
X0270866Y0171248D01*
G75*
G02*
X0271142Y0171523I0000276J0000000D01*
G01*
X0273346Y0171523D01*
G75*
G02*
X0273622Y0171248I0000000J-000276D01*
G01*
G37*
G36*
G01*
X0505315Y0124879D02*
X0505315Y0120746D01*
G75*
G02*
X0504921Y0120352I-000394J0000000D01*
G01*
X0501772Y0120352D01*
G75*
G02*
X0501378Y0120746I0000000J0000394D01*
G01*
X0501378Y0124879D01*
G75*
G02*
X0501772Y0125273I0000394J0000000D01*
G01*
X0504921Y0125273D01*
G75*
G02*
X0505315Y0124879I0000000J-000394D01*
G01*
G37*
G36*
G01*
X0497441Y0124879D02*
X0497441Y0120746D01*
G75*
G02*
X0497047Y0120352I-000394J0000000D01*
G01*
X0493898Y0120352D01*
G75*
G02*
X0493504Y0120746I0000000J0000394D01*
G01*
X0493504Y0124879D01*
G75*
G02*
X0493898Y0125273I0000394J0000000D01*
G01*
X0497047Y0125273D01*
G75*
G02*
X0497441Y0124879I0000000J-000394D01*
G01*
G37*
G36*
G01*
X0508353Y0261749D02*
X0508353Y0258679D01*
G75*
G02*
X0508077Y0258403I-000276J0000000D01*
G01*
X0505873Y0258403D01*
G75*
G02*
X0505597Y0258679I0000000J0000276D01*
G01*
X0505597Y0261749D01*
G75*
G02*
X0505873Y0262025I0000276J0000000D01*
G01*
X0508077Y0262025D01*
G75*
G02*
X0508353Y0261749I0000000J-000276D01*
G01*
G37*
G36*
G01*
X0502054Y0261749D02*
X0502054Y0258679D01*
G75*
G02*
X0501778Y0258403I-000276J0000000D01*
G01*
X0499574Y0258403D01*
G75*
G02*
X0499298Y0258679I0000000J0000276D01*
G01*
X0499298Y0261749D01*
G75*
G02*
X0499574Y0262025I0000276J0000000D01*
G01*
X0501778Y0262025D01*
G75*
G02*
X0502054Y0261749I0000000J-000276D01*
G01*
G37*
G36*
G01*
X0454724Y0121986D02*
X0454724Y0118915D01*
G75*
G02*
X0454449Y0118639I-000276J0000000D01*
G01*
X0452244Y0118639D01*
G75*
G02*
X0451969Y0118915I0000000J0000276D01*
G01*
X0451969Y0121986D01*
G75*
G02*
X0452244Y0122261I0000276J0000000D01*
G01*
X0454449Y0122261D01*
G75*
G02*
X0454724Y0121986I0000000J-000276D01*
G01*
G37*
G36*
G01*
X0448425Y0121986D02*
X0448425Y0118915D01*
G75*
G02*
X0448150Y0118639I-000276J0000000D01*
G01*
X0445945Y0118639D01*
G75*
G02*
X0445669Y0118915I0000000J0000276D01*
G01*
X0445669Y0121986D01*
G75*
G02*
X0445945Y0122261I0000276J0000000D01*
G01*
X0448150Y0122261D01*
G75*
G02*
X0448425Y0121986I0000000J-000276D01*
G01*
G37*
G36*
G01*
X0171850Y0068836D02*
X0171850Y0065765D01*
G75*
G02*
X0171575Y0065490I-000276J0000000D01*
G01*
X0169370Y0065490D01*
G75*
G02*
X0169094Y0065765I0000000J0000276D01*
G01*
X0169094Y0068836D01*
G75*
G02*
X0169370Y0069112I0000276J0000000D01*
G01*
X0171575Y0069112D01*
G75*
G02*
X0171850Y0068836I0000000J-000276D01*
G01*
G37*
G36*
G01*
X0165551Y0068836D02*
X0165551Y0065765D01*
G75*
G02*
X0165276Y0065490I-000276J0000000D01*
G01*
X0163071Y0065490D01*
G75*
G02*
X0162795Y0065765I0000000J0000276D01*
G01*
X0162795Y0068836D01*
G75*
G02*
X0163071Y0069112I0000276J0000000D01*
G01*
X0165276Y0069112D01*
G75*
G02*
X0165551Y0068836I0000000J-000276D01*
G01*
G37*
G36*
G01*
X0237008Y0178285D02*
X0237008Y0175214D01*
G75*
G02*
X0236732Y0174938I-000276J0000000D01*
G01*
X0234528Y0174938D01*
G75*
G02*
X0234252Y0175214I0000000J0000276D01*
G01*
X0234252Y0178285D01*
G75*
G02*
X0234528Y0178560I0000276J0000000D01*
G01*
X0236732Y0178560D01*
G75*
G02*
X0237008Y0178285I0000000J-000276D01*
G01*
G37*
G36*
G01*
X0230709Y0178285D02*
X0230709Y0175214D01*
G75*
G02*
X0230433Y0174938I-000276J0000000D01*
G01*
X0228228Y0174938D01*
G75*
G02*
X0227953Y0175214I0000000J0000276D01*
G01*
X0227953Y0178285D01*
G75*
G02*
X0228228Y0178560I0000276J0000000D01*
G01*
X0230433Y0178560D01*
G75*
G02*
X0230709Y0178285I0000000J-000276D01*
G01*
G37*
G36*
G01*
X0440512Y0103127D02*
X0440512Y0107261D01*
G75*
G02*
X0440906Y0107655I0000394J0000000D01*
G01*
X0444055Y0107655D01*
G75*
G02*
X0444449Y0107261I0000000J-000394D01*
G01*
X0444449Y0103127D01*
G75*
G02*
X0444055Y0102734I-000394J0000000D01*
G01*
X0440906Y0102734D01*
G75*
G02*
X0440512Y0103127I0000000J0000394D01*
G01*
G37*
G36*
G01*
X0448386Y0103127D02*
X0448386Y0107261D01*
G75*
G02*
X0448780Y0107655I0000394J0000000D01*
G01*
X0451929Y0107655D01*
G75*
G02*
X0452323Y0107261I0000000J-000394D01*
G01*
X0452323Y0103127D01*
G75*
G02*
X0451929Y0102734I-000394J0000000D01*
G01*
X0448780Y0102734D01*
G75*
G02*
X0448386Y0103127I0000000J0000394D01*
G01*
G37*
G36*
G01*
X0298130Y0174756D02*
X0298130Y0176774D01*
G75*
G02*
X0298991Y0177635I0000861J0000000D01*
G01*
X0300714Y0177635D01*
G75*
G02*
X0301575Y0176774I0000000J-000861D01*
G01*
X0301575Y0174756D01*
G75*
G02*
X0300714Y0173895I-000861J0000000D01*
G01*
X0298991Y0173895D01*
G75*
G02*
X0298130Y0174756I0000000J0000861D01*
G01*
G37*
G36*
G01*
X0304331Y0174756D02*
X0304331Y0176774D01*
G75*
G02*
X0305192Y0177635I0000861J0000000D01*
G01*
X0306914Y0177635D01*
G75*
G02*
X0307776Y0176774I0000000J-000861D01*
G01*
X0307776Y0174756D01*
G75*
G02*
X0306914Y0173895I-000861J0000000D01*
G01*
X0305192Y0173895D01*
G75*
G02*
X0304331Y0174756I0000000J0000861D01*
G01*
G37*
G36*
G01*
X0404724Y0189190D02*
X0404724Y0192261D01*
G75*
G02*
X0405000Y0192537I0000276J0000000D01*
G01*
X0407205Y0192537D01*
G75*
G02*
X0407480Y0192261I0000000J-000276D01*
G01*
X0407480Y0189190D01*
G75*
G02*
X0407205Y0188915I-000276J0000000D01*
G01*
X0405000Y0188915D01*
G75*
G02*
X0404724Y0189190I0000000J0000276D01*
G01*
G37*
G36*
G01*
X0411024Y0189190D02*
X0411024Y0192261D01*
G75*
G02*
X0411299Y0192537I0000276J0000000D01*
G01*
X0413504Y0192537D01*
G75*
G02*
X0413780Y0192261I0000000J-000276D01*
G01*
X0413780Y0189190D01*
G75*
G02*
X0413504Y0188915I-000276J0000000D01*
G01*
X0411299Y0188915D01*
G75*
G02*
X0411024Y0189190I0000000J0000276D01*
G01*
G37*
G36*
G01*
X0197205Y0264486D02*
X0194528Y0264486D01*
G75*
G02*
X0194193Y0264820I0000000J0000335D01*
G01*
X0194193Y0267498D01*
G75*
G02*
X0194528Y0267832I0000335J0000000D01*
G01*
X0197205Y0267832D01*
G75*
G02*
X0197539Y0267498I0000000J-000335D01*
G01*
X0197539Y0264820D01*
G75*
G02*
X0197205Y0264486I-000335J0000000D01*
G01*
G37*
G36*
G01*
X0197205Y0270706D02*
X0194528Y0270706D01*
G75*
G02*
X0194193Y0271041I0000000J0000335D01*
G01*
X0194193Y0273718D01*
G75*
G02*
X0194528Y0274053I0000335J0000000D01*
G01*
X0197205Y0274053D01*
G75*
G02*
X0197539Y0273718I0000000J-000335D01*
G01*
X0197539Y0271041D01*
G75*
G02*
X0197205Y0270706I-000335J0000000D01*
G01*
G37*
G36*
G01*
X0175689Y0066828D02*
X0175689Y0068009D01*
G75*
G02*
X0176280Y0068600I0000591J0000000D01*
G01*
X0182776Y0068600D01*
G75*
G02*
X0183366Y0068009I0000000J-000591D01*
G01*
X0183366Y0066828D01*
G75*
G02*
X0182776Y0066238I-000591J0000000D01*
G01*
X0176280Y0066238D01*
G75*
G02*
X0175689Y0066828I0000000J0000591D01*
G01*
G37*
G36*
G01*
X0175689Y0071828D02*
X0175689Y0073009D01*
G75*
G02*
X0176280Y0073600I0000591J0000000D01*
G01*
X0182776Y0073600D01*
G75*
G02*
X0183366Y0073009I0000000J-000591D01*
G01*
X0183366Y0071828D01*
G75*
G02*
X0182776Y0071238I-000591J0000000D01*
G01*
X0176280Y0071238D01*
G75*
G02*
X0175689Y0071828I0000000J0000591D01*
G01*
G37*
G36*
G01*
X0175689Y0076828D02*
X0175689Y0078009D01*
G75*
G02*
X0176280Y0078600I0000591J0000000D01*
G01*
X0182776Y0078600D01*
G75*
G02*
X0183366Y0078009I0000000J-000591D01*
G01*
X0183366Y0076828D01*
G75*
G02*
X0182776Y0076238I-000591J0000000D01*
G01*
X0176280Y0076238D01*
G75*
G02*
X0175689Y0076828I0000000J0000591D01*
G01*
G37*
G36*
G01*
X0175689Y0081828D02*
X0175689Y0083009D01*
G75*
G02*
X0176280Y0083600I0000591J0000000D01*
G01*
X0182776Y0083600D01*
G75*
G02*
X0183366Y0083009I0000000J-000591D01*
G01*
X0183366Y0081828D01*
G75*
G02*
X0182776Y0081238I-000591J0000000D01*
G01*
X0176280Y0081238D01*
G75*
G02*
X0175689Y0081828I0000000J0000591D01*
G01*
G37*
G36*
G01*
X0195177Y0081828D02*
X0195177Y0083009D01*
G75*
G02*
X0195768Y0083600I0000591J0000000D01*
G01*
X0202264Y0083600D01*
G75*
G02*
X0202854Y0083009I0000000J-000591D01*
G01*
X0202854Y0081828D01*
G75*
G02*
X0202264Y0081238I-000591J0000000D01*
G01*
X0195768Y0081238D01*
G75*
G02*
X0195177Y0081828I0000000J0000591D01*
G01*
G37*
G36*
G01*
X0195177Y0076828D02*
X0195177Y0078009D01*
G75*
G02*
X0195768Y0078600I0000591J0000000D01*
G01*
X0202264Y0078600D01*
G75*
G02*
X0202854Y0078009I0000000J-000591D01*
G01*
X0202854Y0076828D01*
G75*
G02*
X0202264Y0076238I-000591J0000000D01*
G01*
X0195768Y0076238D01*
G75*
G02*
X0195177Y0076828I0000000J0000591D01*
G01*
G37*
G36*
G01*
X0195177Y0071828D02*
X0195177Y0073009D01*
G75*
G02*
X0195768Y0073600I0000591J0000000D01*
G01*
X0202264Y0073600D01*
G75*
G02*
X0202854Y0073009I0000000J-000591D01*
G01*
X0202854Y0071828D01*
G75*
G02*
X0202264Y0071238I-000591J0000000D01*
G01*
X0195768Y0071238D01*
G75*
G02*
X0195177Y0071828I0000000J0000591D01*
G01*
G37*
G36*
G01*
X0195177Y0066828D02*
X0195177Y0068009D01*
G75*
G02*
X0195768Y0068600I0000591J0000000D01*
G01*
X0202264Y0068600D01*
G75*
G02*
X0202854Y0068009I0000000J-000591D01*
G01*
X0202854Y0066828D01*
G75*
G02*
X0202264Y0066238I-000591J0000000D01*
G01*
X0195768Y0066238D01*
G75*
G02*
X0195177Y0066828I0000000J0000591D01*
G01*
G37*
G36*
G01*
X0361024Y0075726D02*
X0361024Y0072655D01*
G75*
G02*
X0360748Y0072379I-000276J0000000D01*
G01*
X0358543Y0072379D01*
G75*
G02*
X0358268Y0072655I0000000J0000276D01*
G01*
X0358268Y0075726D01*
G75*
G02*
X0358543Y0076001I0000276J0000000D01*
G01*
X0360748Y0076001D01*
G75*
G02*
X0361024Y0075726I0000000J-000276D01*
G01*
G37*
G36*
G01*
X0354724Y0075726D02*
X0354724Y0072655D01*
G75*
G02*
X0354449Y0072379I-000276J0000000D01*
G01*
X0352244Y0072379D01*
G75*
G02*
X0351969Y0072655I0000000J0000276D01*
G01*
X0351969Y0075726D01*
G75*
G02*
X0352244Y0076001I0000276J0000000D01*
G01*
X0354449Y0076001D01*
G75*
G02*
X0354724Y0075726I0000000J-000276D01*
G01*
G37*
G36*
G01*
X0307480Y0171248D02*
X0307480Y0168177D01*
G75*
G02*
X0307205Y0167901I-000276J0000000D01*
G01*
X0305000Y0167901D01*
G75*
G02*
X0304724Y0168177I0000000J0000276D01*
G01*
X0304724Y0171248D01*
G75*
G02*
X0305000Y0171523I0000276J0000000D01*
G01*
X0307205Y0171523D01*
G75*
G02*
X0307480Y0171248I0000000J-000276D01*
G01*
G37*
G36*
G01*
X0301181Y0171248D02*
X0301181Y0168177D01*
G75*
G02*
X0300906Y0167901I-000276J0000000D01*
G01*
X0298701Y0167901D01*
G75*
G02*
X0298425Y0168177I0000000J0000276D01*
G01*
X0298425Y0171248D01*
G75*
G02*
X0298701Y0171523I0000276J0000000D01*
G01*
X0300906Y0171523D01*
G75*
G02*
X0301181Y0171248I0000000J-000276D01*
G01*
G37*
G36*
G01*
X0181594Y0278890D02*
X0181594Y0280908D01*
G75*
G02*
X0182456Y0281769I0000861J0000000D01*
G01*
X0184178Y0281769D01*
G75*
G02*
X0185039Y0280908I0000000J-000861D01*
G01*
X0185039Y0278890D01*
G75*
G02*
X0184178Y0278029I-000861J0000000D01*
G01*
X0182456Y0278029D01*
G75*
G02*
X0181594Y0278890I0000000J0000861D01*
G01*
G37*
G36*
G01*
X0187795Y0278890D02*
X0187795Y0280908D01*
G75*
G02*
X0188657Y0281769I0000861J0000000D01*
G01*
X0190379Y0281769D01*
G75*
G02*
X0191240Y0280908I0000000J-000861D01*
G01*
X0191240Y0278890D01*
G75*
G02*
X0190379Y0278029I-000861J0000000D01*
G01*
X0188657Y0278029D01*
G75*
G02*
X0187795Y0278890I0000000J0000861D01*
G01*
G37*
G36*
G01*
X0477756Y0104998D02*
X0477756Y0109131D01*
G75*
G02*
X0478150Y0109525I0000394J0000000D01*
G01*
X0481299Y0109525D01*
G75*
G02*
X0481693Y0109131I0000000J-000394D01*
G01*
X0481693Y0104998D01*
G75*
G02*
X0481299Y0104604I-000394J0000000D01*
G01*
X0478150Y0104604D01*
G75*
G02*
X0477756Y0104998I0000000J0000394D01*
G01*
G37*
G36*
G01*
X0485630Y0104998D02*
X0485630Y0109131D01*
G75*
G02*
X0486024Y0109525I0000394J0000000D01*
G01*
X0489173Y0109525D01*
G75*
G02*
X0489567Y0109131I0000000J-000394D01*
G01*
X0489567Y0104998D01*
G75*
G02*
X0489173Y0104604I-000394J0000000D01*
G01*
X0486024Y0104604D01*
G75*
G02*
X0485630Y0104998I0000000J0000394D01*
G01*
G37*
G36*
G01*
X0407579Y0165627D02*
X0418799Y0165627D01*
G75*
G02*
X0419783Y0164643I0000000J-000984D01*
G01*
X0419783Y0161789D01*
G75*
G02*
X0418799Y0160805I-000984J0000000D01*
G01*
X0407579Y0160805D01*
G75*
G02*
X0406594Y0161789I0000000J0000984D01*
G01*
X0406594Y0164643D01*
G75*
G02*
X0407579Y0165627I0000984J0000000D01*
G01*
G37*
G36*
G01*
X0407579Y0142301D02*
X0418799Y0142301D01*
G75*
G02*
X0419783Y0141316I0000000J-000984D01*
G01*
X0419783Y0138462D01*
G75*
G02*
X0418799Y0137478I-000984J0000000D01*
G01*
X0407579Y0137478D01*
G75*
G02*
X0406594Y0138462I0000000J0000984D01*
G01*
X0406594Y0141316D01*
G75*
G02*
X0407579Y0142301I0000984J0000000D01*
G01*
G37*
G36*
G01*
X0468071Y0091513D02*
X0468071Y0087379D01*
G75*
G02*
X0467677Y0086986I-000394J0000000D01*
G01*
X0464528Y0086986D01*
G75*
G02*
X0464134Y0087379I0000000J0000394D01*
G01*
X0464134Y0091513D01*
G75*
G02*
X0464528Y0091907I0000394J0000000D01*
G01*
X0467677Y0091907D01*
G75*
G02*
X0468071Y0091513I0000000J-000394D01*
G01*
G37*
G36*
G01*
X0460197Y0091513D02*
X0460197Y0087379D01*
G75*
G02*
X0459803Y0086986I-000394J0000000D01*
G01*
X0456654Y0086986D01*
G75*
G02*
X0456260Y0087379I0000000J0000394D01*
G01*
X0456260Y0091513D01*
G75*
G02*
X0456654Y0091907I0000394J0000000D01*
G01*
X0459803Y0091907D01*
G75*
G02*
X0460197Y0091513I0000000J-000394D01*
G01*
G37*
G36*
G01*
X0468071Y0099387D02*
X0468071Y0095253D01*
G75*
G02*
X0467677Y0094860I-000394J0000000D01*
G01*
X0464528Y0094860D01*
G75*
G02*
X0464134Y0095253I0000000J0000394D01*
G01*
X0464134Y0099387D01*
G75*
G02*
X0464528Y0099781I0000394J0000000D01*
G01*
X0467677Y0099781D01*
G75*
G02*
X0468071Y0099387I0000000J-000394D01*
G01*
G37*
G36*
G01*
X0460197Y0099387D02*
X0460197Y0095253D01*
G75*
G02*
X0459803Y0094860I-000394J0000000D01*
G01*
X0456654Y0094860D01*
G75*
G02*
X0456260Y0095253I0000000J0000394D01*
G01*
X0456260Y0099387D01*
G75*
G02*
X0456654Y0099781I0000394J0000000D01*
G01*
X0459803Y0099781D01*
G75*
G02*
X0460197Y0099387I0000000J-000394D01*
G01*
G37*
G36*
G01*
X0468071Y0075765D02*
X0468071Y0071631D01*
G75*
G02*
X0467677Y0071238I-000394J0000000D01*
G01*
X0464528Y0071238D01*
G75*
G02*
X0464134Y0071631I0000000J0000394D01*
G01*
X0464134Y0075765D01*
G75*
G02*
X0464528Y0076159I0000394J0000000D01*
G01*
X0467677Y0076159D01*
G75*
G02*
X0468071Y0075765I0000000J-000394D01*
G01*
G37*
G36*
G01*
X0460197Y0075765D02*
X0460197Y0071631D01*
G75*
G02*
X0459803Y0071238I-000394J0000000D01*
G01*
X0456654Y0071238D01*
G75*
G02*
X0456260Y0071631I0000000J0000394D01*
G01*
X0456260Y0075765D01*
G75*
G02*
X0456654Y0076159I0000394J0000000D01*
G01*
X0459803Y0076159D01*
G75*
G02*
X0460197Y0075765I0000000J-000394D01*
G01*
G37*
G36*
G01*
X0440512Y0079505D02*
X0440512Y0083639D01*
G75*
G02*
X0440906Y0084033I0000394J0000000D01*
G01*
X0444055Y0084033D01*
G75*
G02*
X0444449Y0083639I0000000J-000394D01*
G01*
X0444449Y0079505D01*
G75*
G02*
X0444055Y0079112I-000394J0000000D01*
G01*
X0440906Y0079112D01*
G75*
G02*
X0440512Y0079505I0000000J0000394D01*
G01*
G37*
G36*
G01*
X0448386Y0079505D02*
X0448386Y0083639D01*
G75*
G02*
X0448780Y0084033I0000394J0000000D01*
G01*
X0451929Y0084033D01*
G75*
G02*
X0452323Y0083639I0000000J-000394D01*
G01*
X0452323Y0079505D01*
G75*
G02*
X0451929Y0079112I-000394J0000000D01*
G01*
X0448780Y0079112D01*
G75*
G02*
X0448386Y0079505I0000000J0000394D01*
G01*
G37*
G36*
G01*
X0477756Y0128620D02*
X0477756Y0132753D01*
G75*
G02*
X0478150Y0133147I0000394J0000000D01*
G01*
X0481299Y0133147D01*
G75*
G02*
X0481693Y0132753I0000000J-000394D01*
G01*
X0481693Y0128620D01*
G75*
G02*
X0481299Y0128226I-000394J0000000D01*
G01*
X0478150Y0128226D01*
G75*
G02*
X0477756Y0128620I0000000J0000394D01*
G01*
G37*
G36*
G01*
X0485630Y0128620D02*
X0485630Y0132753D01*
G75*
G02*
X0486024Y0133147I0000394J0000000D01*
G01*
X0489173Y0133147D01*
G75*
G02*
X0489567Y0132753I0000000J-000394D01*
G01*
X0489567Y0128620D01*
G75*
G02*
X0489173Y0128226I-000394J0000000D01*
G01*
X0486024Y0128226D01*
G75*
G02*
X0485630Y0128620I0000000J0000394D01*
G01*
G37*
G36*
G01*
X0223622Y0178285D02*
X0223622Y0175214D01*
G75*
G02*
X0223346Y0174938I-000276J0000000D01*
G01*
X0221142Y0174938D01*
G75*
G02*
X0220866Y0175214I0000000J0000276D01*
G01*
X0220866Y0178285D01*
G75*
G02*
X0221142Y0178560I0000276J0000000D01*
G01*
X0223346Y0178560D01*
G75*
G02*
X0223622Y0178285I0000000J-000276D01*
G01*
G37*
G36*
G01*
X0217323Y0178285D02*
X0217323Y0175214D01*
G75*
G02*
X0217047Y0174938I-000276J0000000D01*
G01*
X0214843Y0174938D01*
G75*
G02*
X0214567Y0175214I0000000J0000276D01*
G01*
X0214567Y0178285D01*
G75*
G02*
X0214843Y0178560I0000276J0000000D01*
G01*
X0217047Y0178560D01*
G75*
G02*
X0217323Y0178285I0000000J-000276D01*
G01*
G37*
G36*
G01*
X0505315Y0109131D02*
X0505315Y0104998D01*
G75*
G02*
X0504921Y0104604I-000394J0000000D01*
G01*
X0501772Y0104604D01*
G75*
G02*
X0501378Y0104998I0000000J0000394D01*
G01*
X0501378Y0109131D01*
G75*
G02*
X0501772Y0109525I0000394J0000000D01*
G01*
X0504921Y0109525D01*
G75*
G02*
X0505315Y0109131I0000000J-000394D01*
G01*
G37*
G36*
G01*
X0497441Y0109131D02*
X0497441Y0104998D01*
G75*
G02*
X0497047Y0104604I-000394J0000000D01*
G01*
X0493898Y0104604D01*
G75*
G02*
X0493504Y0104998I0000000J0000394D01*
G01*
X0493504Y0109131D01*
G75*
G02*
X0493898Y0109525I0000394J0000000D01*
G01*
X0497047Y0109525D01*
G75*
G02*
X0497441Y0109131I0000000J-000394D01*
G01*
G37*
G36*
G01*
X0273228Y0279938D02*
X0273228Y0283009D01*
G75*
G02*
X0273504Y0283285I0000276J0000000D01*
G01*
X0275709Y0283285D01*
G75*
G02*
X0275984Y0283009I0000000J-000276D01*
G01*
X0275984Y0279938D01*
G75*
G02*
X0275709Y0279663I-000276J0000000D01*
G01*
X0273504Y0279663D01*
G75*
G02*
X0273228Y0279938I0000000J0000276D01*
G01*
G37*
G36*
G01*
X0279528Y0279938D02*
X0279528Y0283009D01*
G75*
G02*
X0279803Y0283285I0000276J0000000D01*
G01*
X0282008Y0283285D01*
G75*
G02*
X0282283Y0283009I0000000J-000276D01*
G01*
X0282283Y0279938D01*
G75*
G02*
X0282008Y0279663I-000276J0000000D01*
G01*
X0279803Y0279663D01*
G75*
G02*
X0279528Y0279938I0000000J0000276D01*
G01*
G37*
G36*
G01*
X0237795Y0361435D02*
X0237795Y0364505D01*
G75*
G02*
X0238071Y0364781I0000276J0000000D01*
G01*
X0240276Y0364781D01*
G75*
G02*
X0240551Y0364505I0000000J-000276D01*
G01*
X0240551Y0361435D01*
G75*
G02*
X0240276Y0361159I-000276J0000000D01*
G01*
X0238071Y0361159D01*
G75*
G02*
X0237795Y0361435I0000000J0000276D01*
G01*
G37*
G36*
G01*
X0244094Y0361435D02*
X0244094Y0364505D01*
G75*
G02*
X0244370Y0364781I0000276J0000000D01*
G01*
X0246575Y0364781D01*
G75*
G02*
X0246850Y0364505I0000000J-000276D01*
G01*
X0246850Y0361435D01*
G75*
G02*
X0246575Y0361159I-000276J0000000D01*
G01*
X0244370Y0361159D01*
G75*
G02*
X0244094Y0361435I0000000J0000276D01*
G01*
G37*
G36*
G01*
X0442913Y0121986D02*
X0442913Y0118915D01*
G75*
G02*
X0442638Y0118639I-000276J0000000D01*
G01*
X0440433Y0118639D01*
G75*
G02*
X0440157Y0118915I0000000J0000276D01*
G01*
X0440157Y0121986D01*
G75*
G02*
X0440433Y0122261I0000276J0000000D01*
G01*
X0442638Y0122261D01*
G75*
G02*
X0442913Y0121986I0000000J-000276D01*
G01*
G37*
G36*
G01*
X0436614Y0121986D02*
X0436614Y0118915D01*
G75*
G02*
X0436339Y0118639I-000276J0000000D01*
G01*
X0434134Y0118639D01*
G75*
G02*
X0433858Y0118915I0000000J0000276D01*
G01*
X0433858Y0121986D01*
G75*
G02*
X0434134Y0122261I0000276J0000000D01*
G01*
X0436339Y0122261D01*
G75*
G02*
X0436614Y0121986I0000000J-000276D01*
G01*
G37*
G36*
G01*
X0215354Y0170746D02*
X0216535Y0170746D01*
G75*
G02*
X0217126Y0170155I0000000J-000591D01*
G01*
X0217126Y0163659D01*
G75*
G02*
X0216535Y0163068I-000591J0000000D01*
G01*
X0215354Y0163068D01*
G75*
G02*
X0214764Y0163659I0000000J0000591D01*
G01*
X0214764Y0170155D01*
G75*
G02*
X0215354Y0170746I0000591J0000000D01*
G01*
G37*
G36*
G01*
X0220354Y0170746D02*
X0221535Y0170746D01*
G75*
G02*
X0222126Y0170155I0000000J-000591D01*
G01*
X0222126Y0163659D01*
G75*
G02*
X0221535Y0163068I-000591J0000000D01*
G01*
X0220354Y0163068D01*
G75*
G02*
X0219764Y0163659I0000000J0000591D01*
G01*
X0219764Y0170155D01*
G75*
G02*
X0220354Y0170746I0000591J0000000D01*
G01*
G37*
G36*
G01*
X0225354Y0170746D02*
X0226535Y0170746D01*
G75*
G02*
X0227126Y0170155I0000000J-000591D01*
G01*
X0227126Y0163659D01*
G75*
G02*
X0226535Y0163068I-000591J0000000D01*
G01*
X0225354Y0163068D01*
G75*
G02*
X0224764Y0163659I0000000J0000591D01*
G01*
X0224764Y0170155D01*
G75*
G02*
X0225354Y0170746I0000591J0000000D01*
G01*
G37*
G36*
G01*
X0230354Y0170746D02*
X0231535Y0170746D01*
G75*
G02*
X0232126Y0170155I0000000J-000591D01*
G01*
X0232126Y0163659D01*
G75*
G02*
X0231535Y0163068I-000591J0000000D01*
G01*
X0230354Y0163068D01*
G75*
G02*
X0229764Y0163659I0000000J0000591D01*
G01*
X0229764Y0170155D01*
G75*
G02*
X0230354Y0170746I0000591J0000000D01*
G01*
G37*
G36*
G01*
X0230354Y0151257D02*
X0231535Y0151257D01*
G75*
G02*
X0232126Y0150667I0000000J-000591D01*
G01*
X0232126Y0144171D01*
G75*
G02*
X0231535Y0143580I-000591J0000000D01*
G01*
X0230354Y0143580D01*
G75*
G02*
X0229764Y0144171I0000000J0000591D01*
G01*
X0229764Y0150667D01*
G75*
G02*
X0230354Y0151257I0000591J0000000D01*
G01*
G37*
G36*
G01*
X0225354Y0151257D02*
X0226535Y0151257D01*
G75*
G02*
X0227126Y0150667I0000000J-000591D01*
G01*
X0227126Y0144171D01*
G75*
G02*
X0226535Y0143580I-000591J0000000D01*
G01*
X0225354Y0143580D01*
G75*
G02*
X0224764Y0144171I0000000J0000591D01*
G01*
X0224764Y0150667D01*
G75*
G02*
X0225354Y0151257I0000591J0000000D01*
G01*
G37*
G36*
G01*
X0220354Y0151257D02*
X0221535Y0151257D01*
G75*
G02*
X0222126Y0150667I0000000J-000591D01*
G01*
X0222126Y0144171D01*
G75*
G02*
X0221535Y0143580I-000591J0000000D01*
G01*
X0220354Y0143580D01*
G75*
G02*
X0219764Y0144171I0000000J0000591D01*
G01*
X0219764Y0150667D01*
G75*
G02*
X0220354Y0151257I0000591J0000000D01*
G01*
G37*
G36*
G01*
X0215354Y0151257D02*
X0216535Y0151257D01*
G75*
G02*
X0217126Y0150667I0000000J-000591D01*
G01*
X0217126Y0144171D01*
G75*
G02*
X0216535Y0143580I-000591J0000000D01*
G01*
X0215354Y0143580D01*
G75*
G02*
X0214764Y0144171I0000000J0000591D01*
G01*
X0214764Y0150667D01*
G75*
G02*
X0215354Y0151257I0000591J0000000D01*
G01*
G37*
X0516240Y0154407D02*
G01*
G75*
D280*
X0439862Y0184322D02*
D03*
X0439862Y0171330D02*
D03*
D281*
X0439468Y0204182D02*
D03*
X0439468Y0192765D02*
D03*
X0447500Y0204182D02*
D03*
X0447500Y0192765D02*
D03*
D284*
X0461516Y0166809D02*
D03*
X0457579Y0166809D02*
D03*
X0446949Y0163462D02*
D03*
X0446949Y0172124D02*
D03*
X0452197Y0162675D02*
D03*
X0452197Y0171336D02*
D03*
D285*
X0504823Y0174562D02*
D03*
X0504823Y0171018D02*
D03*
X0468090Y0183953D02*
D03*
X0468090Y0187497D02*
D03*
X0452985Y0175956D02*
D03*
X0452985Y0179499D02*
D03*
X0504823Y0183180D02*
D03*
X0504823Y0179637D02*
D03*
X0500886Y0162675D02*
D03*
X0500886Y0166218D02*
D03*
D286*
X0451410Y0188160D02*
D03*
X0447866Y0188160D02*
D03*
X0439008Y0167393D02*
D03*
X0442552Y0167393D02*
D03*
X0497325Y0216157D02*
D03*
X0493781Y0216157D02*
D03*
D301*
X0438287Y0212281D02*
D03*
X0446949Y0212281D02*
D03*
X0500886Y0174365D02*
D03*
X0500886Y0170428D02*
D03*
X0500886Y0179046D02*
D03*
X0500886Y0182983D02*
D03*
X0446949Y0175759D02*
D03*
X0446949Y0179696D02*
D03*
X0468563Y0198692D02*
D03*
X0468563Y0202629D02*
D03*
X0506004Y0206468D02*
D03*
X0506004Y0202530D02*
D03*
D302*
X0459941Y0203620D02*
D03*
X0459941Y0192596D02*
D03*
D303*
X0464264Y0170942D02*
D03*
X0458044Y0170942D02*
D03*
X0464264Y0185036D02*
D03*
X0458044Y0185036D02*
D03*
X0464264Y0180345D02*
D03*
X0458044Y0180345D02*
D03*
X0464264Y0175653D02*
D03*
X0458044Y0175653D02*
D03*
X0452020Y0183855D02*
D03*
X0445799Y0183855D02*
D03*
D304*
X0494126Y0179479D02*
D03*
X0494126Y0174479D02*
D03*
X0494126Y0169479D02*
D03*
X0494126Y0164479D02*
D03*
X0471489Y0179479D02*
D03*
X0471489Y0174479D02*
D03*
X0471489Y0169479D02*
D03*
X0471489Y0164479D02*
D03*
X0499409Y0202546D02*
D03*
X0499409Y0197546D02*
D03*
X0499409Y0192546D02*
D03*
X0499409Y0187546D02*
D03*
X0475984Y0202546D02*
D03*
X0475984Y0197546D02*
D03*
X0475984Y0192546D02*
D03*
X0475984Y0187546D02*
D03*
D305*
X0482808Y0171979D02*
D03*
D306*
X0487697Y0195046D02*
D03*
X0197736Y0360509D02*
G01*
G75*
D152*
X0225689Y0370745D02*
D03*
X0229626Y0370745D02*
D03*
X0214566Y0370745D02*
D03*
X0210629Y0370745D02*
D03*
X0206200Y0370745D02*
D03*
X0202263Y0370745D02*
D03*
X0225689Y0363462D02*
D03*
X0229626Y0363462D02*
D03*
D113*
X0222304Y0363265D02*
D03*
X0222304Y0366808D02*
D03*
D141*
X0218419Y0369978D02*
D03*
X0218419Y0363757D02*
D03*
D112*
X0205807Y0366808D02*
D03*
X0202264Y0366808D02*
D03*
X0214173Y0363265D02*
D03*
X0210630Y0363265D02*
D03*
X0229035Y0366866D02*
D03*
X0225492Y0366866D02*
D03*
X0202264Y0363265D02*
D03*
X0205807Y0363265D02*
D03*
X0216043Y0223895D02*
%LPD*%
G01*
G36*
G01*
X0232972Y0254489D02*
X0232972Y0253308D01*
G75*
G02*
X0232382Y0252717I-000591J0000000D01*
G01*
X0228346Y0252717D01*
G75*
G02*
X0227756Y0253308I0000000J0000591D01*
G01*
X0227756Y0254489D01*
G75*
G02*
X0228346Y0255079I0000591J0000000D01*
G01*
X0232382Y0255079D01*
G75*
G02*
X0232972Y0254489I0000000J-000591D01*
G01*
G37*
G36*
G01*
X0232972Y0250748D02*
X0232972Y0249567D01*
G75*
G02*
X0232382Y0248977I-000591J0000000D01*
G01*
X0228346Y0248977D01*
G75*
G02*
X0227756Y0249567I0000000J0000591D01*
G01*
X0227756Y0250748D01*
G75*
G02*
X0228346Y0251339I0000591J0000000D01*
G01*
X0232382Y0251339D01*
G75*
G02*
X0232972Y0250748I0000000J-000591D01*
G01*
G37*
G36*
G01*
X0232972Y0247008D02*
X0232972Y0245827D01*
G75*
G02*
X0232382Y0245237I-000591J0000000D01*
G01*
X0228346Y0245237D01*
G75*
G02*
X0227756Y0245827I0000000J0000591D01*
G01*
X0227756Y0247008D01*
G75*
G02*
X0228346Y0247599I0000591J0000000D01*
G01*
X0232382Y0247599D01*
G75*
G02*
X0232972Y0247008I0000000J-000591D01*
G01*
G37*
G36*
G01*
X0224015Y0247008D02*
X0224015Y0245827D01*
G75*
G02*
X0223425Y0245237I-000591J0000000D01*
G01*
X0219389Y0245237D01*
G75*
G02*
X0218799Y0245827I0000000J0000591D01*
G01*
X0218799Y0247008D01*
G75*
G02*
X0219389Y0247599I0000591J0000000D01*
G01*
X0223425Y0247599D01*
G75*
G02*
X0224015Y0247008I0000000J-000591D01*
G01*
G37*
G36*
G01*
X0224015Y0254489D02*
X0224015Y0253308D01*
G75*
G02*
X0223425Y0252717I-000591J0000000D01*
G01*
X0219389Y0252717D01*
G75*
G02*
X0218799Y0253308I0000000J0000591D01*
G01*
X0218799Y0254489D01*
G75*
G02*
X0219389Y0255079I0000591J0000000D01*
G01*
X0223425Y0255079D01*
G75*
G02*
X0224015Y0254489I0000000J-000591D01*
G01*
G37*
G36*
G01*
X0232697Y0232202D02*
X0234035Y0232202D01*
G75*
G02*
X0234586Y0231651I0000000J-000551D01*
G01*
X0234586Y0230549D01*
G75*
G02*
X0234035Y0229997I-000551J0000000D01*
G01*
X0232697Y0229997D01*
G75*
G02*
X0232145Y0230549I0000000J0000551D01*
G01*
X0232145Y0231651D01*
G75*
G02*
X0232697Y0232202I0000551J0000000D01*
G01*
G37*
G36*
G01*
X0232697Y0228423D02*
X0234035Y0228423D01*
G75*
G02*
X0234586Y0227871I0000000J-000551D01*
G01*
X0234586Y0226769D01*
G75*
G02*
X0234035Y0226218I-000551J0000000D01*
G01*
X0232697Y0226218D01*
G75*
G02*
X0232145Y0226769I0000000J0000551D01*
G01*
X0232145Y0227871D01*
G75*
G02*
X0232697Y0228423I0000551J0000000D01*
G01*
G37*
G36*
G01*
X0259212Y0254919D02*
X0259212Y0256257D01*
G75*
G02*
X0259763Y0256808I0000551J0000000D01*
G01*
X0260866Y0256808D01*
G75*
G02*
X0261417Y0256257I0000000J-000551D01*
G01*
X0261417Y0254919D01*
G75*
G02*
X0260866Y0254367I-000551J0000000D01*
G01*
X0259763Y0254367D01*
G75*
G02*
X0259212Y0254919I0000000J0000551D01*
G01*
G37*
G36*
G01*
X0262992Y0254919D02*
X0262992Y0256257D01*
G75*
G02*
X0263543Y0256808I0000551J0000000D01*
G01*
X0264645Y0256808D01*
G75*
G02*
X0265197Y0256257I0000000J-000551D01*
G01*
X0265197Y0254919D01*
G75*
G02*
X0264645Y0254367I-000551J0000000D01*
G01*
X0263543Y0254367D01*
G75*
G02*
X0262992Y0254919I0000000J0000551D01*
G01*
G37*
G36*
G01*
X0272559Y0259919D02*
X0272559Y0258580D01*
G75*
G02*
X0272008Y0258029I-000551J0000000D01*
G01*
X0270905Y0258029D01*
G75*
G02*
X0270354Y0258580I0000000J0000551D01*
G01*
X0270354Y0259919D01*
G75*
G02*
X0270905Y0260470I0000551J0000000D01*
G01*
X0272008Y0260470D01*
G75*
G02*
X0272559Y0259919I0000000J-000551D01*
G01*
G37*
G36*
G01*
X0268779Y0259919D02*
X0268779Y0258580D01*
G75*
G02*
X0268228Y0258029I-000551J0000000D01*
G01*
X0267126Y0258029D01*
G75*
G02*
X0266574Y0258580I0000000J0000551D01*
G01*
X0266574Y0259919D01*
G75*
G02*
X0267126Y0260470I0000551J0000000D01*
G01*
X0268228Y0260470D01*
G75*
G02*
X0268779Y0259919I0000000J-000551D01*
G01*
G37*
G36*
G01*
X0250807Y0251178D02*
X0250807Y0252517D01*
G75*
G02*
X0251358Y0253068I0000551J0000000D01*
G01*
X0252460Y0253068D01*
G75*
G02*
X0253012Y0252517I0000000J-000551D01*
G01*
X0253012Y0251178D01*
G75*
G02*
X0252460Y0250627I-000551J0000000D01*
G01*
X0251358Y0250627D01*
G75*
G02*
X0250807Y0251178I0000000J0000551D01*
G01*
G37*
G36*
G01*
X0254586Y0251178D02*
X0254586Y0252517D01*
G75*
G02*
X0255137Y0253068I0000551J0000000D01*
G01*
X0256240Y0253068D01*
G75*
G02*
X0256791Y0252517I0000000J-000551D01*
G01*
X0256791Y0251178D01*
G75*
G02*
X0256240Y0250627I-000551J0000000D01*
G01*
X0255137Y0250627D01*
G75*
G02*
X0254586Y0251178I0000000J0000551D01*
G01*
G37*
G36*
G01*
X0272362Y0256257D02*
X0272362Y0254919D01*
G75*
G02*
X0271811Y0254367I-000551J0000000D01*
G01*
X0270708Y0254367D01*
G75*
G02*
X0270157Y0254919I0000000J0000551D01*
G01*
X0270157Y0256257D01*
G75*
G02*
X0270708Y0256808I0000551J0000000D01*
G01*
X0271811Y0256808D01*
G75*
G02*
X0272362Y0256257I0000000J-000551D01*
G01*
G37*
G36*
G01*
X0268582Y0256257D02*
X0268582Y0254919D01*
G75*
G02*
X0268031Y0254367I-000551J0000000D01*
G01*
X0266929Y0254367D01*
G75*
G02*
X0266378Y0254919I0000000J0000551D01*
G01*
X0266378Y0256257D01*
G75*
G02*
X0266929Y0256808I0000551J0000000D01*
G01*
X0268031Y0256808D01*
G75*
G02*
X0268582Y0256257I0000000J-000551D01*
G01*
G37*
G36*
G01*
X0267086Y0234741D02*
X0267086Y0236080D01*
G75*
G02*
X0267637Y0236631I0000551J0000000D01*
G01*
X0268740Y0236631D01*
G75*
G02*
X0269291Y0236080I0000000J-000551D01*
G01*
X0269291Y0234741D01*
G75*
G02*
X0268740Y0234190I-000551J0000000D01*
G01*
X0267637Y0234190D01*
G75*
G02*
X0267086Y0234741I0000000J0000551D01*
G01*
G37*
G36*
G01*
X0270866Y0234741D02*
X0270866Y0236080D01*
G75*
G02*
X0271417Y0236631I0000551J0000000D01*
G01*
X0272519Y0236631D01*
G75*
G02*
X0273071Y0236080I0000000J-000551D01*
G01*
X0273071Y0234741D01*
G75*
G02*
X0272519Y0234190I-000551J0000000D01*
G01*
X0271417Y0234190D01*
G75*
G02*
X0270866Y0234741I0000000J0000551D01*
G01*
G37*
G36*
G01*
X0236577Y0227241D02*
X0236577Y0228029D01*
G75*
G02*
X0236971Y0228423I0000394J0000000D01*
G01*
X0241991Y0228423D01*
G75*
G02*
X0242384Y0228029I0000000J-000394D01*
G01*
X0242384Y0227241D01*
G75*
G02*
X0241991Y0226848I-000394J0000000D01*
G01*
X0236971Y0226848D01*
G75*
G02*
X0236577Y0227241I0000000J0000394D01*
G01*
G37*
G36*
G01*
X0236577Y0229801D02*
X0236577Y0230588D01*
G75*
G02*
X0236971Y0230982I0000394J0000000D01*
G01*
X0241991Y0230982D01*
G75*
G02*
X0242384Y0230588I0000000J-000394D01*
G01*
X0242384Y0229801D01*
G75*
G02*
X0241991Y0229407I-000394J0000000D01*
G01*
X0236971Y0229407D01*
G75*
G02*
X0236577Y0229801I0000000J0000394D01*
G01*
G37*
G36*
G01*
X0236577Y0232360D02*
X0236577Y0233147D01*
G75*
G02*
X0236971Y0233541I0000394J0000000D01*
G01*
X0241991Y0233541D01*
G75*
G02*
X0242384Y0233147I0000000J-000394D01*
G01*
X0242384Y0232360D01*
G75*
G02*
X0241991Y0231966I-000394J0000000D01*
G01*
X0236971Y0231966D01*
G75*
G02*
X0236577Y0232360I0000000J0000394D01*
G01*
G37*
G36*
G01*
X0236577Y0234919D02*
X0236577Y0235706D01*
G75*
G02*
X0236971Y0236100I0000394J0000000D01*
G01*
X0241991Y0236100D01*
G75*
G02*
X0242384Y0235706I0000000J-000394D01*
G01*
X0242384Y0234919D01*
G75*
G02*
X0241991Y0234525I-000394J0000000D01*
G01*
X0236971Y0234525D01*
G75*
G02*
X0236577Y0234919I0000000J0000394D01*
G01*
G37*
G36*
G01*
X0236577Y0237478D02*
X0236577Y0238265D01*
G75*
G02*
X0236971Y0238659I0000394J0000000D01*
G01*
X0241991Y0238659D01*
G75*
G02*
X0242384Y0238265I0000000J-000394D01*
G01*
X0242384Y0237478D01*
G75*
G02*
X0241991Y0237084I-000394J0000000D01*
G01*
X0236971Y0237084D01*
G75*
G02*
X0236577Y0237478I0000000J0000394D01*
G01*
G37*
G36*
G01*
X0236577Y0240037D02*
X0236577Y0240824D01*
G75*
G02*
X0236971Y0241218I0000394J0000000D01*
G01*
X0241991Y0241218D01*
G75*
G02*
X0242384Y0240824I0000000J-000394D01*
G01*
X0242384Y0240037D01*
G75*
G02*
X0241991Y0239643I-000394J0000000D01*
G01*
X0236971Y0239643D01*
G75*
G02*
X0236577Y0240037I0000000J0000394D01*
G01*
G37*
G36*
G01*
X0236577Y0242596D02*
X0236577Y0243383D01*
G75*
G02*
X0236971Y0243777I0000394J0000000D01*
G01*
X0241991Y0243777D01*
G75*
G02*
X0242384Y0243383I0000000J-000394D01*
G01*
X0242384Y0242596D01*
G75*
G02*
X0241991Y0242202I-000394J0000000D01*
G01*
X0236971Y0242202D01*
G75*
G02*
X0236577Y0242596I0000000J0000394D01*
G01*
G37*
G36*
G01*
X0259117Y0242596D02*
X0259117Y0243383D01*
G75*
G02*
X0259510Y0243777I0000394J0000000D01*
G01*
X0264530Y0243777D01*
G75*
G02*
X0264924Y0243383I0000000J-000394D01*
G01*
X0264924Y0242596D01*
G75*
G02*
X0264530Y0242202I-000394J0000000D01*
G01*
X0259510Y0242202D01*
G75*
G02*
X0259117Y0242596I0000000J0000394D01*
G01*
G37*
G36*
G01*
X0259117Y0240037D02*
X0259117Y0240824D01*
G75*
G02*
X0259510Y0241218I0000394J0000000D01*
G01*
X0264530Y0241218D01*
G75*
G02*
X0264924Y0240824I0000000J-000394D01*
G01*
X0264924Y0240037D01*
G75*
G02*
X0264530Y0239643I-000394J0000000D01*
G01*
X0259510Y0239643D01*
G75*
G02*
X0259117Y0240037I0000000J0000394D01*
G01*
G37*
G36*
G01*
X0259117Y0237478D02*
X0259117Y0238265D01*
G75*
G02*
X0259510Y0238659I0000394J0000000D01*
G01*
X0264530Y0238659D01*
G75*
G02*
X0264924Y0238265I0000000J-000394D01*
G01*
X0264924Y0237478D01*
G75*
G02*
X0264530Y0237084I-000394J0000000D01*
G01*
X0259510Y0237084D01*
G75*
G02*
X0259117Y0237478I0000000J0000394D01*
G01*
G37*
G36*
G01*
X0259117Y0234919D02*
X0259117Y0235706D01*
G75*
G02*
X0259510Y0236100I0000394J0000000D01*
G01*
X0264530Y0236100D01*
G75*
G02*
X0264924Y0235706I0000000J-000394D01*
G01*
X0264924Y0234919D01*
G75*
G02*
X0264530Y0234525I-000394J0000000D01*
G01*
X0259510Y0234525D01*
G75*
G02*
X0259117Y0234919I0000000J0000394D01*
G01*
G37*
G36*
G01*
X0259117Y0232360D02*
X0259117Y0233147D01*
G75*
G02*
X0259510Y0233541I0000394J0000000D01*
G01*
X0264530Y0233541D01*
G75*
G02*
X0264924Y0233147I0000000J-000394D01*
G01*
X0264924Y0232360D01*
G75*
G02*
X0264530Y0231966I-000394J0000000D01*
G01*
X0259510Y0231966D01*
G75*
G02*
X0259117Y0232360I0000000J0000394D01*
G01*
G37*
G36*
G01*
X0259117Y0229801D02*
X0259117Y0230588D01*
G75*
G02*
X0259510Y0230982I0000394J0000000D01*
G01*
X0264530Y0230982D01*
G75*
G02*
X0264924Y0230588I0000000J-000394D01*
G01*
X0264924Y0229801D01*
G75*
G02*
X0264530Y0229407I-000394J0000000D01*
G01*
X0259510Y0229407D01*
G75*
G02*
X0259117Y0229801I0000000J0000394D01*
G01*
G37*
G36*
G01*
X0259117Y0227241D02*
X0259117Y0228029D01*
G75*
G02*
X0259510Y0228423I0000394J0000000D01*
G01*
X0264530Y0228423D01*
G75*
G02*
X0264924Y0228029I0000000J-000394D01*
G01*
X0264924Y0227241D01*
G75*
G02*
X0264530Y0226848I-000394J0000000D01*
G01*
X0259510Y0226848D01*
G75*
G02*
X0259117Y0227241I0000000J0000394D01*
G01*
G37*
G36*
G01*
X0218934Y0235112D02*
X0218934Y0238655D01*
G75*
G02*
X0219918Y0239639I0000984J0000000D01*
G01*
X0221985Y0239639D01*
G75*
G02*
X0222969Y0238655I0000000J-000984D01*
G01*
X0222969Y0235112D01*
G75*
G02*
X0221985Y0234127I-000984J0000000D01*
G01*
X0219918Y0234127D01*
G75*
G02*
X0218934Y0235112I0000000J0000984D01*
G01*
G37*
G36*
G01*
X0226119Y0235112D02*
X0226119Y0238655D01*
G75*
G02*
X0227103Y0239639I0000984J0000000D01*
G01*
X0229170Y0239639D01*
G75*
G02*
X0230154Y0238655I0000000J-000984D01*
G01*
X0230154Y0235112D01*
G75*
G02*
X0229170Y0234127I-000984J0000000D01*
G01*
X0227103Y0234127D01*
G75*
G02*
X0226119Y0235112I0000000J0000984D01*
G01*
G37*
G36*
G01*
X0265177Y0248836D02*
X0265177Y0247379D01*
G75*
G02*
X0264645Y0246848I-000531J0000000D01*
G01*
X0263582Y0246848D01*
G75*
G02*
X0263051Y0247379I0000000J0000531D01*
G01*
X0263051Y0248836D01*
G75*
G02*
X0263582Y0249367I0000531J0000000D01*
G01*
X0264645Y0249367D01*
G75*
G02*
X0265177Y0248836I0000000J-000531D01*
G01*
G37*
G36*
G01*
X0261161Y0248836D02*
X0261161Y0247379D01*
G75*
G02*
X0260630Y0246848I-000531J0000000D01*
G01*
X0259567Y0246848D01*
G75*
G02*
X0259035Y0247379I0000000J0000531D01*
G01*
X0259035Y0248836D01*
G75*
G02*
X0259567Y0249367I0000531J0000000D01*
G01*
X0260630Y0249367D01*
G75*
G02*
X0261161Y0248836I0000000J-000531D01*
G01*
G37*
G36*
G01*
X0224744Y0259761D02*
X0224744Y0258423D01*
G75*
G02*
X0224193Y0257871I-000551J0000000D01*
G01*
X0223090Y0257871D01*
G75*
G02*
X0222539Y0258423I0000000J0000551D01*
G01*
X0222539Y0259761D01*
G75*
G02*
X0223090Y0260312I0000551J0000000D01*
G01*
X0224193Y0260312D01*
G75*
G02*
X0224744Y0259761I0000000J-000551D01*
G01*
G37*
G36*
G01*
X0220964Y0259761D02*
X0220964Y0258423D01*
G75*
G02*
X0220413Y0257871I-000551J0000000D01*
G01*
X0219311Y0257871D01*
G75*
G02*
X0218760Y0258423I0000000J0000551D01*
G01*
X0218760Y0259761D01*
G75*
G02*
X0219311Y0260312I0000551J0000000D01*
G01*
X0220413Y0260312D01*
G75*
G02*
X0220964Y0259761I0000000J-000551D01*
G01*
G37*
G36*
G01*
X0272854Y0252576D02*
X0272854Y0251119D01*
G75*
G02*
X0272323Y0250588I-000531J0000000D01*
G01*
X0271260Y0250588D01*
G75*
G02*
X0270728Y0251119I0000000J0000531D01*
G01*
X0270728Y0252576D01*
G75*
G02*
X0271260Y0253108I0000531J0000000D01*
G01*
X0272323Y0253108D01*
G75*
G02*
X0272854Y0252576I0000000J-000531D01*
G01*
G37*
G36*
G01*
X0268838Y0252576D02*
X0268838Y0251119D01*
G75*
G02*
X0268307Y0250588I-000531J0000000D01*
G01*
X0267244Y0250588D01*
G75*
G02*
X0266712Y0251119I0000000J0000531D01*
G01*
X0266712Y0252576D01*
G75*
G02*
X0267244Y0253108I0000531J0000000D01*
G01*
X0268307Y0253108D01*
G75*
G02*
X0268838Y0252576I0000000J-000531D01*
G01*
G37*
G36*
G01*
X0256921Y0248836D02*
X0256921Y0247380D01*
G75*
G02*
X0256389Y0246848I-000531J0000000D01*
G01*
X0255326Y0246848D01*
G75*
G02*
X0254795Y0247380I0000000J0000531D01*
G01*
X0254795Y0248836D01*
G75*
G02*
X0255326Y0249368I0000531J0000000D01*
G01*
X0256389Y0249368D01*
G75*
G02*
X0256921Y0248836I0000000J-000531D01*
G01*
G37*
G36*
G01*
X0252905Y0248836D02*
X0252905Y0247380D01*
G75*
G02*
X0252373Y0246848I-000531J0000000D01*
G01*
X0251310Y0246848D01*
G75*
G02*
X0250779Y0247380I0000000J0000531D01*
G01*
X0250779Y0248836D01*
G75*
G02*
X0251310Y0249368I0000531J0000000D01*
G01*
X0252373Y0249368D01*
G75*
G02*
X0252905Y0248836I0000000J-000531D01*
G01*
G37*
G36*
G01*
X0230154Y0231080D02*
X0230154Y0227537D01*
G75*
G02*
X0229170Y0226552I-000984J0000000D01*
G01*
X0227103Y0226552D01*
G75*
G02*
X0226119Y0227537I0000000J0000984D01*
G01*
X0226119Y0231080D01*
G75*
G02*
X0227103Y0232064I0000984J0000000D01*
G01*
X0229170Y0232064D01*
G75*
G02*
X0230154Y0231080I0000000J-000984D01*
G01*
G37*
G36*
G01*
X0222969Y0231080D02*
X0222969Y0227537D01*
G75*
G02*
X0221985Y0226552I-000984J0000000D01*
G01*
X0219918Y0226552D01*
G75*
G02*
X0218934Y0227537I0000000J0000984D01*
G01*
X0218934Y0231080D01*
G75*
G02*
X0219918Y0232064I0000984J0000000D01*
G01*
X0221985Y0232064D01*
G75*
G02*
X0222969Y0231080I0000000J-000984D01*
G01*
G37*
G36*
G01*
X0256870Y0259978D02*
X0256870Y0258521D01*
G75*
G02*
X0256338Y0257989I-000531J0000000D01*
G01*
X0255275Y0257989D01*
G75*
G02*
X0254744Y0258521I0000000J0000531D01*
G01*
X0254744Y0259978D01*
G75*
G02*
X0255275Y0260509I0000531J0000000D01*
G01*
X0256338Y0260509D01*
G75*
G02*
X0256870Y0259978I0000000J-000531D01*
G01*
G37*
G36*
G01*
X0252854Y0259978D02*
X0252854Y0258521D01*
G75*
G02*
X0252323Y0257989I-000531J0000000D01*
G01*
X0251260Y0257989D01*
G75*
G02*
X0250728Y0258521I0000000J0000531D01*
G01*
X0250728Y0259978D01*
G75*
G02*
X0251260Y0260509I0000531J0000000D01*
G01*
X0252323Y0260509D01*
G75*
G02*
X0252854Y0259978I0000000J-000531D01*
G01*
G37*
G36*
G01*
X0266555Y0226474D02*
X0266555Y0227930D01*
G75*
G02*
X0267086Y0228462I0000531J0000000D01*
G01*
X0268149Y0228462D01*
G75*
G02*
X0268681Y0227930I0000000J-000531D01*
G01*
X0268681Y0226474D01*
G75*
G02*
X0268149Y0225942I-000531J0000000D01*
G01*
X0267086Y0225942D01*
G75*
G02*
X0266555Y0226474I0000000J0000531D01*
G01*
G37*
G36*
G01*
X0270571Y0226474D02*
X0270571Y0227930D01*
G75*
G02*
X0271102Y0228462I0000531J0000000D01*
G01*
X0272165Y0228462D01*
G75*
G02*
X0272697Y0227930I0000000J-000531D01*
G01*
X0272697Y0226474D01*
G75*
G02*
X0272165Y0225942I-000531J0000000D01*
G01*
X0271102Y0225942D01*
G75*
G02*
X0270571Y0226474I0000000J0000531D01*
G01*
G37*
G36*
G01*
X0267008Y0238423D02*
X0267008Y0239879D01*
G75*
G02*
X0267539Y0240411I0000531J0000000D01*
G01*
X0268602Y0240411D01*
G75*
G02*
X0269134Y0239879I0000000J-000531D01*
G01*
X0269134Y0238423D01*
G75*
G02*
X0268602Y0237891I-000531J0000000D01*
G01*
X0267539Y0237891D01*
G75*
G02*
X0267008Y0238423I0000000J0000531D01*
G01*
G37*
G36*
G01*
X0271023Y0238423D02*
X0271023Y0239879D01*
G75*
G02*
X0271555Y0240411I0000531J0000000D01*
G01*
X0272618Y0240411D01*
G75*
G02*
X0273149Y0239879I0000000J-000531D01*
G01*
X0273149Y0238423D01*
G75*
G02*
X0272618Y0237891I-000531J0000000D01*
G01*
X0271555Y0237891D01*
G75*
G02*
X0271023Y0238423I0000000J0000531D01*
G01*
G37*
G36*
G01*
X0265472Y0252576D02*
X0265472Y0251119D01*
G75*
G02*
X0264941Y0250588I-000531J0000000D01*
G01*
X0263878Y0250588D01*
G75*
G02*
X0263346Y0251119I0000000J0000531D01*
G01*
X0263346Y0252576D01*
G75*
G02*
X0263878Y0253108I0000531J0000000D01*
G01*
X0264941Y0253108D01*
G75*
G02*
X0265472Y0252576I0000000J-000531D01*
G01*
G37*
G36*
G01*
X0261456Y0252576D02*
X0261456Y0251119D01*
G75*
G02*
X0260925Y0250588I-000531J0000000D01*
G01*
X0259862Y0250588D01*
G75*
G02*
X0259330Y0251119I0000000J0000531D01*
G01*
X0259330Y0252576D01*
G75*
G02*
X0259862Y0253108I0000531J0000000D01*
G01*
X0260925Y0253108D01*
G75*
G02*
X0261456Y0252576I0000000J-000531D01*
G01*
G37*
G36*
G01*
X0273169Y0243659D02*
X0273169Y0242320D01*
G75*
G02*
X0272618Y0241769I-000551J0000000D01*
G01*
X0271515Y0241769D01*
G75*
G02*
X0270964Y0242320I0000000J0000551D01*
G01*
X0270964Y0243659D01*
G75*
G02*
X0271515Y0244210I0000551J0000000D01*
G01*
X0272618Y0244210D01*
G75*
G02*
X0273169Y0243659I0000000J-000551D01*
G01*
G37*
G36*
G01*
X0269389Y0243659D02*
X0269389Y0242320D01*
G75*
G02*
X0268838Y0241769I-000551J0000000D01*
G01*
X0267736Y0241769D01*
G75*
G02*
X0267185Y0242320I0000000J0000551D01*
G01*
X0267185Y0243659D01*
G75*
G02*
X0267736Y0244210I0000551J0000000D01*
G01*
X0268838Y0244210D01*
G75*
G02*
X0269389Y0243659I0000000J-000551D01*
G01*
G37*
G36*
G01*
X0234021Y0233444D02*
X0232683Y0233444D01*
G75*
G02*
X0232131Y0233995I0000000J0000551D01*
G01*
X0232131Y0235097D01*
G75*
G02*
X0232683Y0235649I0000551J0000000D01*
G01*
X0234021Y0235649D01*
G75*
G02*
X0234572Y0235097I0000000J-000551D01*
G01*
X0234572Y0233995D01*
G75*
G02*
X0234021Y0233444I-000551J0000000D01*
G01*
G37*
G36*
G01*
X0234021Y0237223D02*
X0232683Y0237223D01*
G75*
G02*
X0232131Y0237774I0000000J0000551D01*
G01*
X0232131Y0238877D01*
G75*
G02*
X0232683Y0239428I0000551J0000000D01*
G01*
X0234021Y0239428D01*
G75*
G02*
X0234572Y0238877I0000000J-000551D01*
G01*
X0234572Y0237774D01*
G75*
G02*
X0234021Y0237223I-000551J0000000D01*
G01*
G37*
G36*
G01*
X0266515Y0247379D02*
X0266515Y0248836D01*
G75*
G02*
X0267047Y0249367I0000531J0000000D01*
G01*
X0268110Y0249367D01*
G75*
G02*
X0268641Y0248836I0000000J-000531D01*
G01*
X0268641Y0247379D01*
G75*
G02*
X0268110Y0246848I-000531J0000000D01*
G01*
X0267047Y0246848D01*
G75*
G02*
X0266515Y0247379I0000000J0000531D01*
G01*
G37*
G36*
G01*
X0270531Y0247379D02*
X0270531Y0248836D01*
G75*
G02*
X0271063Y0249367I0000531J0000000D01*
G01*
X0272126Y0249367D01*
G75*
G02*
X0272657Y0248836I0000000J-000531D01*
G01*
X0272657Y0247379D01*
G75*
G02*
X0272126Y0246848I-000531J0000000D01*
G01*
X0271063Y0246848D01*
G75*
G02*
X0270531Y0247379I0000000J0000531D01*
G01*
G37*
G36*
G01*
X0249114Y0258738D02*
X0249114Y0257556D01*
G75*
G02*
X0248523Y0256966I-000591J0000000D01*
G01*
X0244488Y0256966D01*
G75*
G02*
X0243897Y0257556I0000000J0000591D01*
G01*
X0243897Y0258738D01*
G75*
G02*
X0244488Y0259328I0000591J0000000D01*
G01*
X0248523Y0259328D01*
G75*
G02*
X0249114Y0258738I0000000J-000591D01*
G01*
G37*
G36*
G01*
X0249114Y0254997D02*
X0249114Y0253816D01*
G75*
G02*
X0248523Y0253226I-000591J0000000D01*
G01*
X0244488Y0253226D01*
G75*
G02*
X0243897Y0253816I0000000J0000591D01*
G01*
X0243897Y0254997D01*
G75*
G02*
X0244488Y0255588I0000591J0000000D01*
G01*
X0248523Y0255588D01*
G75*
G02*
X0249114Y0254997I0000000J-000591D01*
G01*
G37*
G36*
G01*
X0249114Y0251257D02*
X0249114Y0250076D01*
G75*
G02*
X0248523Y0249486I-000591J0000000D01*
G01*
X0244488Y0249486D01*
G75*
G02*
X0243897Y0250076I0000000J0000591D01*
G01*
X0243897Y0251257D01*
G75*
G02*
X0244488Y0251848I0000591J0000000D01*
G01*
X0248523Y0251848D01*
G75*
G02*
X0249114Y0251257I0000000J-000591D01*
G01*
G37*
G36*
G01*
X0240157Y0251257D02*
X0240157Y0250076D01*
G75*
G02*
X0239567Y0249486I-000591J0000000D01*
G01*
X0235531Y0249486D01*
G75*
G02*
X0234941Y0250076I0000000J0000591D01*
G01*
X0234941Y0251257D01*
G75*
G02*
X0235531Y0251848I0000591J0000000D01*
G01*
X0239567Y0251848D01*
G75*
G02*
X0240157Y0251257I0000000J-000591D01*
G01*
G37*
G36*
G01*
X0240157Y0258738D02*
X0240157Y0257556D01*
G75*
G02*
X0239567Y0256966I-000591J0000000D01*
G01*
X0235531Y0256966D01*
G75*
G02*
X0234941Y0257556I0000000J0000591D01*
G01*
X0234941Y0258738D01*
G75*
G02*
X0235531Y0259328I0000591J0000000D01*
G01*
X0239567Y0259328D01*
G75*
G02*
X0240157Y0258738I0000000J-000591D01*
G01*
G37*
G36*
G01*
X0250807Y0254919D02*
X0250807Y0256257D01*
G75*
G02*
X0251358Y0256808I0000551J0000000D01*
G01*
X0252460Y0256808D01*
G75*
G02*
X0253012Y0256257I0000000J-000551D01*
G01*
X0253012Y0254919D01*
G75*
G02*
X0252460Y0254367I-000551J0000000D01*
G01*
X0251358Y0254367D01*
G75*
G02*
X0250807Y0254919I0000000J0000551D01*
G01*
G37*
G36*
G01*
X0254586Y0254919D02*
X0254586Y0256257D01*
G75*
G02*
X0255137Y0256808I0000551J0000000D01*
G01*
X0256240Y0256808D01*
G75*
G02*
X0256791Y0256257I0000000J-000551D01*
G01*
X0256791Y0254919D01*
G75*
G02*
X0256240Y0254367I-000551J0000000D01*
G01*
X0255137Y0254367D01*
G75*
G02*
X0254586Y0254919I0000000J0000551D01*
G01*
G37*
X0216043Y0180391D02*
%LPD*%
G01*
X0365157Y0448895D02*
%LPD*%
G01*
G36*
G01*
X0285452Y0441536D02*
X0285452Y0440178D01*
G75*
G02*
X0284872Y0439597I-000581J0000000D01*
G01*
X0283710Y0439597D01*
G75*
G02*
X0283129Y0440178I0000000J0000581D01*
G01*
X0283129Y0441536D01*
G75*
G02*
X0283710Y0442117I0000581J0000000D01*
G01*
X0284872Y0442117D01*
G75*
G02*
X0285452Y0441536I0000000J-000581D01*
G01*
G37*
G36*
G01*
X0281633Y0441536D02*
X0281633Y0440178D01*
G75*
G02*
X0281053Y0439597I-000581J0000000D01*
G01*
X0279891Y0439597D01*
G75*
G02*
X0279311Y0440178I0000000J0000581D01*
G01*
X0279311Y0441536D01*
G75*
G02*
X0279891Y0442117I0000581J0000000D01*
G01*
X0281053Y0442117D01*
G75*
G02*
X0281633Y0441536I0000000J-000581D01*
G01*
G37*
G36*
G01*
X0270984Y0426247D02*
X0270984Y0424889D01*
G75*
G02*
X0270403Y0424308I-000581J0000000D01*
G01*
X0269242Y0424308D01*
G75*
G02*
X0268661Y0424889I0000000J0000581D01*
G01*
X0268661Y0426247D01*
G75*
G02*
X0269242Y0426828I0000581J0000000D01*
G01*
X0270403Y0426828D01*
G75*
G02*
X0270984Y0426247I0000000J-000581D01*
G01*
G37*
G36*
G01*
X0267165Y0426247D02*
X0267165Y0424889D01*
G75*
G02*
X0266584Y0424308I-000581J0000000D01*
G01*
X0265423Y0424308D01*
G75*
G02*
X0264842Y0424889I0000000J0000581D01*
G01*
X0264842Y0426247D01*
G75*
G02*
X0265423Y0426828I0000581J0000000D01*
G01*
X0266584Y0426828D01*
G75*
G02*
X0267165Y0426247I0000000J-000581D01*
G01*
G37*
G36*
G01*
X0320866Y0400051D02*
X0320866Y0402069D01*
G75*
G02*
X0321727Y0402930I0000861J0000000D01*
G01*
X0323449Y0402930D01*
G75*
G02*
X0324311Y0402069I0000000J-000861D01*
G01*
X0324311Y0400051D01*
G75*
G02*
X0323449Y0399190I-000861J0000000D01*
G01*
X0321727Y0399190D01*
G75*
G02*
X0320866Y0400051I0000000J0000861D01*
G01*
G37*
G36*
G01*
X0327066Y0400051D02*
X0327066Y0402069D01*
G75*
G02*
X0327928Y0402930I0000861J0000000D01*
G01*
X0329650Y0402930D01*
G75*
G02*
X0330511Y0402069I0000000J-000861D01*
G01*
X0330511Y0400051D01*
G75*
G02*
X0329650Y0399190I-000861J0000000D01*
G01*
X0327928Y0399190D01*
G75*
G02*
X0327066Y0400051I0000000J0000861D01*
G01*
G37*
G36*
G01*
X0279311Y0444377D02*
X0279311Y0445736D01*
G75*
G02*
X0279891Y0446316I0000581J0000000D01*
G01*
X0281053Y0446316D01*
G75*
G02*
X0281633Y0445736I0000000J-000581D01*
G01*
X0281633Y0444377D01*
G75*
G02*
X0281053Y0443797I-000581J0000000D01*
G01*
X0279891Y0443797D01*
G75*
G02*
X0279311Y0444377I0000000J0000581D01*
G01*
G37*
G36*
G01*
X0283129Y0444377D02*
X0283129Y0445736D01*
G75*
G02*
X0283710Y0446316I0000581J0000000D01*
G01*
X0284872Y0446316D01*
G75*
G02*
X0285452Y0445736I0000000J-000581D01*
G01*
X0285452Y0444377D01*
G75*
G02*
X0284872Y0443797I-000581J0000000D01*
G01*
X0283710Y0443797D01*
G75*
G02*
X0283129Y0444377I0000000J0000581D01*
G01*
G37*
G36*
G01*
X0339012Y0405381D02*
X0339012Y0404023D01*
G75*
G02*
X0338432Y0403442I-000581J0000000D01*
G01*
X0337270Y0403442D01*
G75*
G02*
X0336690Y0404023I0000000J0000581D01*
G01*
X0336690Y0405381D01*
G75*
G02*
X0337270Y0405962I0000581J0000000D01*
G01*
X0338432Y0405962D01*
G75*
G02*
X0339012Y0405381I0000000J-000581D01*
G01*
G37*
G36*
G01*
X0335194Y0405381D02*
X0335194Y0404023D01*
G75*
G02*
X0334613Y0403442I-000581J0000000D01*
G01*
X0333451Y0403442D01*
G75*
G02*
X0332871Y0404023I0000000J0000581D01*
G01*
X0332871Y0405381D01*
G75*
G02*
X0333451Y0405962I0000581J0000000D01*
G01*
X0334613Y0405962D01*
G75*
G02*
X0335194Y0405381I0000000J-000581D01*
G01*
G37*
G36*
G01*
X0330925Y0407251D02*
X0330925Y0405893D01*
G75*
G02*
X0330344Y0405312I-000581J0000000D01*
G01*
X0329183Y0405312D01*
G75*
G02*
X0328602Y0405893I0000000J0000581D01*
G01*
X0328602Y0407251D01*
G75*
G02*
X0329183Y0407832I0000581J0000000D01*
G01*
X0330344Y0407832D01*
G75*
G02*
X0330925Y0407251I0000000J-000581D01*
G01*
G37*
G36*
G01*
X0327106Y0407251D02*
X0327106Y0405893D01*
G75*
G02*
X0326525Y0405312I-000581J0000000D01*
G01*
X0325364Y0405312D01*
G75*
G02*
X0324783Y0405893I0000000J0000581D01*
G01*
X0324783Y0407251D01*
G75*
G02*
X0325364Y0407832I0000581J0000000D01*
G01*
X0326525Y0407832D01*
G75*
G02*
X0327106Y0407251I0000000J-000581D01*
G01*
G37*
G36*
G01*
X0359537Y0399919D02*
X0358179Y0399919D01*
G75*
G02*
X0357598Y0400499I0000000J0000581D01*
G01*
X0357598Y0401661D01*
G75*
G02*
X0358179Y0402241I0000581J0000000D01*
G01*
X0359537Y0402241D01*
G75*
G02*
X0360118Y0401661I0000000J-000581D01*
G01*
X0360118Y0400499D01*
G75*
G02*
X0359537Y0399919I-000581J0000000D01*
G01*
G37*
G36*
G01*
X0359537Y0403738D02*
X0358179Y0403738D01*
G75*
G02*
X0357598Y0404318I0000000J0000581D01*
G01*
X0357598Y0405480D01*
G75*
G02*
X0358179Y0406060I0000581J0000000D01*
G01*
X0359537Y0406060D01*
G75*
G02*
X0360118Y0405480I0000000J-000581D01*
G01*
X0360118Y0404318D01*
G75*
G02*
X0359537Y0403738I-000581J0000000D01*
G01*
G37*
G36*
G01*
X0310019Y0417507D02*
X0310019Y0418865D01*
G75*
G02*
X0310600Y0419446I0000581J0000000D01*
G01*
X0311761Y0419446D01*
G75*
G02*
X0312342Y0418865I0000000J-000581D01*
G01*
X0312342Y0417507D01*
G75*
G02*
X0311761Y0416926I-000581J0000000D01*
G01*
X0310600Y0416926D01*
G75*
G02*
X0310019Y0417507I0000000J0000581D01*
G01*
G37*
G36*
G01*
X0313838Y0417507D02*
X0313838Y0418865D01*
G75*
G02*
X0314419Y0419446I0000581J0000000D01*
G01*
X0315580Y0419446D01*
G75*
G02*
X0316161Y0418865I0000000J-000581D01*
G01*
X0316161Y0417507D01*
G75*
G02*
X0315580Y0416926I-000581J0000000D01*
G01*
X0314419Y0416926D01*
G75*
G02*
X0313838Y0417507I0000000J0000581D01*
G01*
G37*
G36*
G01*
X0316161Y0422802D02*
X0316161Y0421444D01*
G75*
G02*
X0315580Y0420864I-000581J0000000D01*
G01*
X0314419Y0420864D01*
G75*
G02*
X0313838Y0421444I0000000J0000581D01*
G01*
X0313838Y0422802D01*
G75*
G02*
X0314419Y0423383I0000581J0000000D01*
G01*
X0315580Y0423383D01*
G75*
G02*
X0316161Y0422802I0000000J-000581D01*
G01*
G37*
G36*
G01*
X0312342Y0422802D02*
X0312342Y0421444D01*
G75*
G02*
X0311761Y0420864I-000581J0000000D01*
G01*
X0310600Y0420864D01*
G75*
G02*
X0310019Y0421444I0000000J0000581D01*
G01*
X0310019Y0422802D01*
G75*
G02*
X0310600Y0423383I0000581J0000000D01*
G01*
X0311761Y0423383D01*
G75*
G02*
X0312342Y0422802I0000000J-000581D01*
G01*
G37*
G36*
G01*
X0268681Y0420362D02*
X0268681Y0421720D01*
G75*
G02*
X0269261Y0422301I0000581J0000000D01*
G01*
X0270423Y0422301D01*
G75*
G02*
X0271003Y0421720I0000000J-000581D01*
G01*
X0271003Y0420362D01*
G75*
G02*
X0270423Y0419781I-000581J0000000D01*
G01*
X0269261Y0419781D01*
G75*
G02*
X0268681Y0420362I0000000J0000581D01*
G01*
G37*
G36*
G01*
X0272500Y0420362D02*
X0272500Y0421720D01*
G75*
G02*
X0273080Y0422301I0000581J0000000D01*
G01*
X0274242Y0422301D01*
G75*
G02*
X0274822Y0421720I0000000J-000581D01*
G01*
X0274822Y0420362D01*
G75*
G02*
X0274242Y0419781I-000581J0000000D01*
G01*
X0273080Y0419781D01*
G75*
G02*
X0272500Y0420362I0000000J0000581D01*
G01*
G37*
D168*
X0323031Y0443777D03*
X0323031Y0441218D03*
X0323031Y0438659D03*
X0323031Y0436100D03*
X0323031Y0433541D03*
X0323031Y0430982D03*
X0323031Y0428423D03*
X0299803Y0428423D03*
X0299803Y0430982D03*
X0299803Y0433541D03*
X0299803Y0436100D03*
X0299803Y0438659D03*
X0299803Y0441218D03*
X0299803Y0443777D03*
G36*
G01*
X0332854Y0400283D02*
X0332854Y0401641D01*
G75*
G02*
X0333435Y0402222I0000581J0000000D01*
G01*
X0334596Y0402222D01*
G75*
G02*
X0335177Y0401641I0000000J-000581D01*
G01*
X0335177Y0400283D01*
G75*
G02*
X0334596Y0399702I-000581J0000000D01*
G01*
X0333435Y0399702D01*
G75*
G02*
X0332854Y0400283I0000000J0000581D01*
G01*
G37*
G36*
G01*
X0336673Y0400283D02*
X0336673Y0401641D01*
G75*
G02*
X0337253Y0402222I0000581J0000000D01*
G01*
X0338415Y0402222D01*
G75*
G02*
X0338996Y0401641I0000000J-000581D01*
G01*
X0338996Y0400283D01*
G75*
G02*
X0338415Y0399702I-000581J0000000D01*
G01*
X0337253Y0399702D01*
G75*
G02*
X0336673Y0400283I0000000J0000581D01*
G01*
G37*
G36*
G01*
X0338996Y0397901D02*
X0338996Y0396543D01*
G75*
G02*
X0338415Y0395962I-000581J0000000D01*
G01*
X0337253Y0395962D01*
G75*
G02*
X0336673Y0396543I0000000J0000581D01*
G01*
X0336673Y0397901D01*
G75*
G02*
X0337253Y0398482I0000581J0000000D01*
G01*
X0338415Y0398482D01*
G75*
G02*
X0338996Y0397901I0000000J-000581D01*
G01*
G37*
G36*
G01*
X0335177Y0397901D02*
X0335177Y0396543D01*
G75*
G02*
X0334596Y0395962I-000581J0000000D01*
G01*
X0333435Y0395962D01*
G75*
G02*
X0332854Y0396543I0000000J0000581D01*
G01*
X0332854Y0397901D01*
G75*
G02*
X0333435Y0398482I0000581J0000000D01*
G01*
X0334596Y0398482D01*
G75*
G02*
X0335177Y0397901I0000000J-000581D01*
G01*
G37*
G36*
G01*
X0278759Y0407350D02*
X0278759Y0405991D01*
G75*
G02*
X0278179Y0405411I-000581J0000000D01*
G01*
X0277017Y0405411D01*
G75*
G02*
X0276437Y0405991I0000000J0000581D01*
G01*
X0276437Y0407350D01*
G75*
G02*
X0277017Y0407930I0000581J0000000D01*
G01*
X0278179Y0407930D01*
G75*
G02*
X0278759Y0407350I0000000J-000581D01*
G01*
G37*
G36*
G01*
X0274940Y0407350D02*
X0274940Y0405991D01*
G75*
G02*
X0274360Y0405411I-000581J0000000D01*
G01*
X0273198Y0405411D01*
G75*
G02*
X0272618Y0405991I0000000J0000581D01*
G01*
X0272618Y0407350D01*
G75*
G02*
X0273198Y0407930I0000581J0000000D01*
G01*
X0274360Y0407930D01*
G75*
G02*
X0274940Y0407350I0000000J-000581D01*
G01*
G37*
G36*
G01*
X0285452Y0436648D02*
X0285452Y0435289D01*
G75*
G02*
X0284872Y0434709I-000581J0000000D01*
G01*
X0283710Y0434709D01*
G75*
G02*
X0283129Y0435289I0000000J0000581D01*
G01*
X0283129Y0436648D01*
G75*
G02*
X0283710Y0437228I0000581J0000000D01*
G01*
X0284872Y0437228D01*
G75*
G02*
X0285452Y0436648I0000000J-000581D01*
G01*
G37*
G36*
G01*
X0281633Y0436648D02*
X0281633Y0435289D01*
G75*
G02*
X0281053Y0434709I-000581J0000000D01*
G01*
X0279891Y0434709D01*
G75*
G02*
X0279311Y0435289I0000000J0000581D01*
G01*
X0279311Y0436648D01*
G75*
G02*
X0279891Y0437228I0000581J0000000D01*
G01*
X0281053Y0437228D01*
G75*
G02*
X0281633Y0436648I0000000J-000581D01*
G01*
G37*
G36*
G01*
X0313267Y0413570D02*
X0313267Y0414928D01*
G75*
G02*
X0313848Y0415509I0000581J0000000D01*
G01*
X0315009Y0415509D01*
G75*
G02*
X0315590Y0414928I0000000J-000581D01*
G01*
X0315590Y0413570D01*
G75*
G02*
X0315009Y0412989I-000581J0000000D01*
G01*
X0313848Y0412989D01*
G75*
G02*
X0313267Y0413570I0000000J0000581D01*
G01*
G37*
G36*
G01*
X0317086Y0413570D02*
X0317086Y0414928D01*
G75*
G02*
X0317667Y0415509I0000581J0000000D01*
G01*
X0318828Y0415509D01*
G75*
G02*
X0319409Y0414928I0000000J-000581D01*
G01*
X0319409Y0413570D01*
G75*
G02*
X0318828Y0412989I-000581J0000000D01*
G01*
X0317667Y0412989D01*
G75*
G02*
X0317086Y0413570I0000000J0000581D01*
G01*
G37*
G36*
G01*
X0264940Y0405991D02*
X0264940Y0407350D01*
G75*
G02*
X0265521Y0407930I0000581J0000000D01*
G01*
X0266683Y0407930D01*
G75*
G02*
X0267263Y0407350I0000000J-000581D01*
G01*
X0267263Y0405991D01*
G75*
G02*
X0266683Y0405411I-000581J0000000D01*
G01*
X0265521Y0405411D01*
G75*
G02*
X0264940Y0405991I0000000J0000581D01*
G01*
G37*
G36*
G01*
X0268759Y0405991D02*
X0268759Y0407350D01*
G75*
G02*
X0269340Y0407930I0000581J0000000D01*
G01*
X0270501Y0407930D01*
G75*
G02*
X0271082Y0407350I0000000J-000581D01*
G01*
X0271082Y0405991D01*
G75*
G02*
X0270501Y0405411I-000581J0000000D01*
G01*
X0269340Y0405411D01*
G75*
G02*
X0268759Y0405991I0000000J0000581D01*
G01*
G37*
G36*
G01*
X0317401Y0421444D02*
X0317401Y0422802D01*
G75*
G02*
X0317982Y0423383I0000581J0000000D01*
G01*
X0319143Y0423383D01*
G75*
G02*
X0319724Y0422802I0000000J-000581D01*
G01*
X0319724Y0421444D01*
G75*
G02*
X0319143Y0420864I-000581J0000000D01*
G01*
X0317982Y0420864D01*
G75*
G02*
X0317401Y0421444I0000000J0000581D01*
G01*
G37*
G36*
G01*
X0321220Y0421444D02*
X0321220Y0422802D01*
G75*
G02*
X0321801Y0423383I0000581J0000000D01*
G01*
X0322962Y0423383D01*
G75*
G02*
X0323543Y0422802I0000000J-000581D01*
G01*
X0323543Y0421444D01*
G75*
G02*
X0322962Y0420864I-000581J0000000D01*
G01*
X0321801Y0420864D01*
G75*
G02*
X0321220Y0421444I0000000J0000581D01*
G01*
G37*
G36*
G01*
X0328651Y0446060D02*
X0330009Y0446060D01*
G75*
G02*
X0330590Y0445480I0000000J-000581D01*
G01*
X0330590Y0444318D01*
G75*
G02*
X0330009Y0443738I-000581J0000000D01*
G01*
X0328651Y0443738D01*
G75*
G02*
X0328070Y0444318I0000000J0000581D01*
G01*
X0328070Y0445480D01*
G75*
G02*
X0328651Y0446060I0000581J0000000D01*
G01*
G37*
G36*
G01*
X0328651Y0442241D02*
X0330009Y0442241D01*
G75*
G02*
X0330590Y0441661I0000000J-000581D01*
G01*
X0330590Y0440499D01*
G75*
G02*
X0330009Y0439919I-000581J0000000D01*
G01*
X0328651Y0439919D01*
G75*
G02*
X0328070Y0440499I0000000J0000581D01*
G01*
X0328070Y0441661D01*
G75*
G02*
X0328651Y0442241I0000581J0000000D01*
G01*
G37*
G36*
G01*
X0302539Y0417507D02*
X0302539Y0418865D01*
G75*
G02*
X0303120Y0419446I0000581J0000000D01*
G01*
X0304281Y0419446D01*
G75*
G02*
X0304862Y0418865I0000000J-000581D01*
G01*
X0304862Y0417507D01*
G75*
G02*
X0304281Y0416926I-000581J0000000D01*
G01*
X0303120Y0416926D01*
G75*
G02*
X0302539Y0417507I0000000J0000581D01*
G01*
G37*
G36*
G01*
X0306358Y0417507D02*
X0306358Y0418865D01*
G75*
G02*
X0306938Y0419446I0000581J0000000D01*
G01*
X0308100Y0419446D01*
G75*
G02*
X0308681Y0418865I0000000J-000581D01*
G01*
X0308681Y0417507D01*
G75*
G02*
X0308100Y0416926I-000581J0000000D01*
G01*
X0306938Y0416926D01*
G75*
G02*
X0306358Y0417507I0000000J0000581D01*
G01*
G37*
G36*
G01*
X0301200Y0418865D02*
X0301200Y0417507D01*
G75*
G02*
X0300620Y0416926I-000581J0000000D01*
G01*
X0299458Y0416926D01*
G75*
G02*
X0298877Y0417507I0000000J0000581D01*
G01*
X0298877Y0418865D01*
G75*
G02*
X0299458Y0419446I0000581J0000000D01*
G01*
X0300620Y0419446D01*
G75*
G02*
X0301200Y0418865I0000000J-000581D01*
G01*
G37*
G36*
G01*
X0297381Y0418865D02*
X0297381Y0417507D01*
G75*
G02*
X0296801Y0416926I-000581J0000000D01*
G01*
X0295639Y0416926D01*
G75*
G02*
X0295059Y0417507I0000000J0000581D01*
G01*
X0295059Y0418865D01*
G75*
G02*
X0295639Y0419446I0000581J0000000D01*
G01*
X0296801Y0419446D01*
G75*
G02*
X0297381Y0418865I0000000J-000581D01*
G01*
G37*
G36*
G01*
X0332391Y0446060D02*
X0333750Y0446060D01*
G75*
G02*
X0334330Y0445480I0000000J-000581D01*
G01*
X0334330Y0444318D01*
G75*
G02*
X0333750Y0443738I-000581J0000000D01*
G01*
X0332391Y0443738D01*
G75*
G02*
X0331811Y0444318I0000000J0000581D01*
G01*
X0331811Y0445480D01*
G75*
G02*
X0332391Y0446060I0000581J0000000D01*
G01*
G37*
G36*
G01*
X0332391Y0442241D02*
X0333750Y0442241D01*
G75*
G02*
X0334330Y0441661I0000000J-000581D01*
G01*
X0334330Y0440499D01*
G75*
G02*
X0333750Y0439919I-000581J0000000D01*
G01*
X0332391Y0439919D01*
G75*
G02*
X0331811Y0440499I0000000J0000581D01*
G01*
X0331811Y0441661D01*
G75*
G02*
X0332391Y0442241I0000581J0000000D01*
G01*
G37*
D169*
X0343070Y0397222D03*
X0343070Y0400962D03*
X0343070Y0404702D03*
X0353385Y0404702D03*
X0353385Y0397222D03*
G36*
G01*
X0308582Y0414928D02*
X0308582Y0413570D01*
G75*
G02*
X0308001Y0412989I-000581J0000000D01*
G01*
X0306840Y0412989D01*
G75*
G02*
X0306259Y0413570I0000000J0000581D01*
G01*
X0306259Y0414928D01*
G75*
G02*
X0306840Y0415509I0000581J0000000D01*
G01*
X0308001Y0415509D01*
G75*
G02*
X0308582Y0414928I0000000J-000581D01*
G01*
G37*
G36*
G01*
X0304763Y0414928D02*
X0304763Y0413570D01*
G75*
G02*
X0304183Y0412989I-000581J0000000D01*
G01*
X0303021Y0412989D01*
G75*
G02*
X0302440Y0413570I0000000J0000581D01*
G01*
X0302440Y0414928D01*
G75*
G02*
X0303021Y0415509I0000581J0000000D01*
G01*
X0304183Y0415509D01*
G75*
G02*
X0304763Y0414928I0000000J-000581D01*
G01*
G37*
G36*
G01*
X0321171Y0410824D02*
X0322529Y0410824D01*
G75*
G02*
X0323110Y0410243I0000000J-000581D01*
G01*
X0323110Y0409082D01*
G75*
G02*
X0322529Y0408501I-000581J0000000D01*
G01*
X0321171Y0408501D01*
G75*
G02*
X0320590Y0409082I0000000J0000581D01*
G01*
X0320590Y0410243D01*
G75*
G02*
X0321171Y0410824I0000581J0000000D01*
G01*
G37*
G36*
G01*
X0321171Y0407005D02*
X0322529Y0407005D01*
G75*
G02*
X0323110Y0406425I0000000J-000581D01*
G01*
X0323110Y0405263D01*
G75*
G02*
X0322529Y0404682I-000581J0000000D01*
G01*
X0321171Y0404682D01*
G75*
G02*
X0320590Y0405263I0000000J0000581D01*
G01*
X0320590Y0406425D01*
G75*
G02*
X0321171Y0407005I0000581J0000000D01*
G01*
G37*
G36*
G01*
X0330009Y0431257D02*
X0328651Y0431257D01*
G75*
G02*
X0328070Y0431838I0000000J0000581D01*
G01*
X0328070Y0432999D01*
G75*
G02*
X0328651Y0433580I0000581J0000000D01*
G01*
X0330009Y0433580D01*
G75*
G02*
X0330590Y0432999I0000000J-000581D01*
G01*
X0330590Y0431838D01*
G75*
G02*
X0330009Y0431257I-000581J0000000D01*
G01*
G37*
G36*
G01*
X0330009Y0435076D02*
X0328651Y0435076D01*
G75*
G02*
X0328070Y0435657I0000000J0000581D01*
G01*
X0328070Y0436818D01*
G75*
G02*
X0328651Y0437399I0000581J0000000D01*
G01*
X0330009Y0437399D01*
G75*
G02*
X0330590Y0436818I0000000J-000581D01*
G01*
X0330590Y0435657D01*
G75*
G02*
X0330009Y0435076I-000581J0000000D01*
G01*
G37*
G36*
G01*
X0286889Y0430302D02*
X0286889Y0431661D01*
G75*
G02*
X0287470Y0432241I0000581J0000000D01*
G01*
X0288631Y0432241D01*
G75*
G02*
X0289212Y0431661I0000000J-000581D01*
G01*
X0289212Y0430302D01*
G75*
G02*
X0288631Y0429722I-000581J0000000D01*
G01*
X0287470Y0429722D01*
G75*
G02*
X0286889Y0430302I0000000J0000581D01*
G01*
G37*
G36*
G01*
X0290708Y0430302D02*
X0290708Y0431661D01*
G75*
G02*
X0291289Y0432241I0000581J0000000D01*
G01*
X0292450Y0432241D01*
G75*
G02*
X0293031Y0431661I0000000J-000581D01*
G01*
X0293031Y0430302D01*
G75*
G02*
X0292450Y0429722I-000581J0000000D01*
G01*
X0291289Y0429722D01*
G75*
G02*
X0290708Y0430302I0000000J0000581D01*
G01*
G37*
G36*
G01*
X0279311Y0430302D02*
X0279311Y0431661D01*
G75*
G02*
X0279891Y0432241I0000581J0000000D01*
G01*
X0281053Y0432241D01*
G75*
G02*
X0281633Y0431661I0000000J-000581D01*
G01*
X0281633Y0430302D01*
G75*
G02*
X0281053Y0429722I-000581J0000000D01*
G01*
X0279891Y0429722D01*
G75*
G02*
X0279311Y0430302I0000000J0000581D01*
G01*
G37*
G36*
G01*
X0283129Y0430302D02*
X0283129Y0431661D01*
G75*
G02*
X0283710Y0432241I0000581J0000000D01*
G01*
X0284872Y0432241D01*
G75*
G02*
X0285452Y0431661I0000000J-000581D01*
G01*
X0285452Y0430302D01*
G75*
G02*
X0284872Y0429722I-000581J0000000D01*
G01*
X0283710Y0429722D01*
G75*
G02*
X0283129Y0430302I0000000J0000581D01*
G01*
G37*
G36*
G01*
X0333750Y0431257D02*
X0332391Y0431257D01*
G75*
G02*
X0331811Y0431838I0000000J0000581D01*
G01*
X0331811Y0432999D01*
G75*
G02*
X0332391Y0433580I0000581J0000000D01*
G01*
X0333750Y0433580D01*
G75*
G02*
X0334330Y0432999I0000000J-000581D01*
G01*
X0334330Y0431838D01*
G75*
G02*
X0333750Y0431257I-000581J0000000D01*
G01*
G37*
G36*
G01*
X0333750Y0435076D02*
X0332391Y0435076D01*
G75*
G02*
X0331811Y0435657I0000000J0000581D01*
G01*
X0331811Y0436818D01*
G75*
G02*
X0332391Y0437399I0000581J0000000D01*
G01*
X0333750Y0437399D01*
G75*
G02*
X0334330Y0436818I0000000J-000581D01*
G01*
X0334330Y0435657D01*
G75*
G02*
X0333750Y0435076I-000581J0000000D01*
G01*
G37*
G36*
G01*
X0299389Y0421444D02*
X0299389Y0422802D01*
G75*
G02*
X0299970Y0423383I0000581J0000000D01*
G01*
X0301131Y0423383D01*
G75*
G02*
X0301712Y0422802I0000000J-000581D01*
G01*
X0301712Y0421444D01*
G75*
G02*
X0301131Y0420864I-000581J0000000D01*
G01*
X0299970Y0420864D01*
G75*
G02*
X0299389Y0421444I0000000J0000581D01*
G01*
G37*
G36*
G01*
X0303208Y0421444D02*
X0303208Y0422802D01*
G75*
G02*
X0303789Y0423383I0000581J0000000D01*
G01*
X0304950Y0423383D01*
G75*
G02*
X0305531Y0422802I0000000J-000581D01*
G01*
X0305531Y0421444D01*
G75*
G02*
X0304950Y0420864I-000581J0000000D01*
G01*
X0303789Y0420864D01*
G75*
G02*
X0303208Y0421444I0000000J0000581D01*
G01*
G37*
G36*
G01*
X0337490Y0431257D02*
X0336131Y0431257D01*
G75*
G02*
X0335551Y0431838I0000000J0000581D01*
G01*
X0335551Y0432999D01*
G75*
G02*
X0336131Y0433580I0000581J0000000D01*
G01*
X0337490Y0433580D01*
G75*
G02*
X0338070Y0432999I0000000J-000581D01*
G01*
X0338070Y0431838D01*
G75*
G02*
X0337490Y0431257I-000581J0000000D01*
G01*
G37*
G36*
G01*
X0337490Y0435076D02*
X0336131Y0435076D01*
G75*
G02*
X0335551Y0435657I0000000J0000581D01*
G01*
X0335551Y0436818D01*
G75*
G02*
X0336131Y0437399I0000581J0000000D01*
G01*
X0337490Y0437399D01*
G75*
G02*
X0338070Y0436818I0000000J-000581D01*
G01*
X0338070Y0435657D01*
G75*
G02*
X0337490Y0435076I-000581J0000000D01*
G01*
G37*
G36*
G01*
X0337490Y0439919D02*
X0336131Y0439919D01*
G75*
G02*
X0335551Y0440499I0000000J0000581D01*
G01*
X0335551Y0441661D01*
G75*
G02*
X0336131Y0442241I0000581J0000000D01*
G01*
X0337490Y0442241D01*
G75*
G02*
X0338070Y0441661I0000000J-000581D01*
G01*
X0338070Y0440499D01*
G75*
G02*
X0337490Y0439919I-000581J0000000D01*
G01*
G37*
G36*
G01*
X0337490Y0443738D02*
X0336131Y0443738D01*
G75*
G02*
X0335551Y0444318I0000000J0000581D01*
G01*
X0335551Y0445480D01*
G75*
G02*
X0336131Y0446060I0000581J0000000D01*
G01*
X0337490Y0446060D01*
G75*
G02*
X0338070Y0445480I0000000J-000581D01*
G01*
X0338070Y0444318D01*
G75*
G02*
X0337490Y0443738I-000581J0000000D01*
G01*
G37*
G36*
G01*
X0352303Y0434112D02*
X0352303Y0432773D01*
G75*
G02*
X0351752Y0432222I-000551J0000000D01*
G01*
X0350649Y0432222D01*
G75*
G02*
X0350098Y0432773I0000000J0000551D01*
G01*
X0350098Y0434112D01*
G75*
G02*
X0350649Y0434663I0000551J0000000D01*
G01*
X0351752Y0434663D01*
G75*
G02*
X0352303Y0434112I0000000J-000551D01*
G01*
G37*
G36*
G01*
X0348523Y0434112D02*
X0348523Y0432773D01*
G75*
G02*
X0347972Y0432222I-000551J0000000D01*
G01*
X0346870Y0432222D01*
G75*
G02*
X0346319Y0432773I0000000J0000551D01*
G01*
X0346319Y0434112D01*
G75*
G02*
X0346870Y0434663I0000551J0000000D01*
G01*
X0347972Y0434663D01*
G75*
G02*
X0348523Y0434112I0000000J-000551D01*
G01*
G37*
G36*
G01*
X0297362Y0407852D02*
X0297362Y0409308D01*
G75*
G02*
X0297893Y0409840I0000531J0000000D01*
G01*
X0298956Y0409840D01*
G75*
G02*
X0299488Y0409308I0000000J-000531D01*
G01*
X0299488Y0407852D01*
G75*
G02*
X0298956Y0407320I-000531J0000000D01*
G01*
X0297893Y0407320D01*
G75*
G02*
X0297362Y0407852I0000000J0000531D01*
G01*
G37*
G36*
G01*
X0301377Y0407852D02*
X0301377Y0409308D01*
G75*
G02*
X0301909Y0409840I0000531J0000000D01*
G01*
X0302972Y0409840D01*
G75*
G02*
X0303503Y0409308I0000000J-000531D01*
G01*
X0303503Y0407852D01*
G75*
G02*
X0302972Y0407320I-000531J0000000D01*
G01*
X0301909Y0407320D01*
G75*
G02*
X0301377Y0407852I0000000J0000531D01*
G01*
G37*
G36*
G01*
X0358090Y0422385D02*
X0359547Y0422385D01*
G75*
G02*
X0360078Y0421853I0000000J-000531D01*
G01*
X0360078Y0420790D01*
G75*
G02*
X0359547Y0420259I-000531J0000000D01*
G01*
X0358090Y0420259D01*
G75*
G02*
X0357559Y0420790I0000000J0000531D01*
G01*
X0357559Y0421853D01*
G75*
G02*
X0358090Y0422385I0000531J0000000D01*
G01*
G37*
G36*
G01*
X0358090Y0418369D02*
X0359547Y0418369D01*
G75*
G02*
X0360078Y0417837I0000000J-000531D01*
G01*
X0360078Y0416774D01*
G75*
G02*
X0359547Y0416243I-000531J0000000D01*
G01*
X0358090Y0416243D01*
G75*
G02*
X0357559Y0416774I0000000J0000531D01*
G01*
X0357559Y0417837D01*
G75*
G02*
X0358090Y0418369I0000531J0000000D01*
G01*
G37*
G36*
G01*
X0357480Y0446336D02*
X0357480Y0445155D01*
G75*
G02*
X0356889Y0444564I-000591J0000000D01*
G01*
X0352263Y0444564D01*
G75*
G02*
X0351673Y0445155I0000000J0000591D01*
G01*
X0351673Y0446336D01*
G75*
G02*
X0352263Y0446926I0000591J0000000D01*
G01*
X0356889Y0446926D01*
G75*
G02*
X0357480Y0446336I0000000J-000591D01*
G01*
G37*
G36*
G01*
X0357480Y0438856D02*
X0357480Y0437675D01*
G75*
G02*
X0356889Y0437084I-000591J0000000D01*
G01*
X0352263Y0437084D01*
G75*
G02*
X0351673Y0437675I0000000J0000591D01*
G01*
X0351673Y0438856D01*
G75*
G02*
X0352263Y0439446I0000591J0000000D01*
G01*
X0356889Y0439446D01*
G75*
G02*
X0357480Y0438856I0000000J-000591D01*
G01*
G37*
G36*
G01*
X0350098Y0442596D02*
X0350098Y0441415D01*
G75*
G02*
X0349507Y0440824I-000591J0000000D01*
G01*
X0344881Y0440824D01*
G75*
G02*
X0344291Y0441415I0000000J0000591D01*
G01*
X0344291Y0442596D01*
G75*
G02*
X0344881Y0443186I0000591J0000000D01*
G01*
X0349507Y0443186D01*
G75*
G02*
X0350098Y0442596I0000000J-000591D01*
G01*
G37*
G36*
G01*
X0359527Y0408404D02*
X0358188Y0408404D01*
G75*
G02*
X0357637Y0408956I0000000J0000551D01*
G01*
X0357637Y0410058D01*
G75*
G02*
X0358188Y0410609I0000551J0000000D01*
G01*
X0359527Y0410609D01*
G75*
G02*
X0360078Y0410058I0000000J-000551D01*
G01*
X0360078Y0408956D01*
G75*
G02*
X0359527Y0408404I-000551J0000000D01*
G01*
G37*
G36*
G01*
X0359527Y0412184D02*
X0358188Y0412184D01*
G75*
G02*
X0357637Y0412735I0000000J0000551D01*
G01*
X0357637Y0413837D01*
G75*
G02*
X0358188Y0414389I0000551J0000000D01*
G01*
X0359527Y0414389D01*
G75*
G02*
X0360078Y0413837I0000000J-000551D01*
G01*
X0360078Y0412735D01*
G75*
G02*
X0359527Y0412184I-000551J0000000D01*
G01*
G37*
G36*
G01*
X0328740Y0411475D02*
X0328740Y0412656D01*
G75*
G02*
X0329330Y0413247I0000591J0000000D01*
G01*
X0335039Y0413247D01*
G75*
G02*
X0335629Y0412656I0000000J-000591D01*
G01*
X0335629Y0411475D01*
G75*
G02*
X0335039Y0410885I-000591J0000000D01*
G01*
X0329330Y0410885D01*
G75*
G02*
X0328740Y0411475I0000000J0000591D01*
G01*
G37*
G36*
G01*
X0328740Y0416475D02*
X0328740Y0417656D01*
G75*
G02*
X0329330Y0418247I0000591J0000000D01*
G01*
X0335039Y0418247D01*
G75*
G02*
X0335629Y0417656I0000000J-000591D01*
G01*
X0335629Y0416475D01*
G75*
G02*
X0335039Y0415885I-000591J0000000D01*
G01*
X0329330Y0415885D01*
G75*
G02*
X0328740Y0416475I0000000J0000591D01*
G01*
G37*
G36*
G01*
X0328740Y0421475D02*
X0328740Y0422656D01*
G75*
G02*
X0329330Y0423247I0000591J0000000D01*
G01*
X0335039Y0423247D01*
G75*
G02*
X0335629Y0422656I0000000J-000591D01*
G01*
X0335629Y0421475D01*
G75*
G02*
X0335039Y0420885I-000591J0000000D01*
G01*
X0329330Y0420885D01*
G75*
G02*
X0328740Y0421475I0000000J0000591D01*
G01*
G37*
G36*
G01*
X0328740Y0426475D02*
X0328740Y0427656D01*
G75*
G02*
X0329330Y0428247I0000591J0000000D01*
G01*
X0335039Y0428247D01*
G75*
G02*
X0335629Y0427656I0000000J-000591D01*
G01*
X0335629Y0426475D01*
G75*
G02*
X0335039Y0425885I-000591J0000000D01*
G01*
X0329330Y0425885D01*
G75*
G02*
X0328740Y0426475I0000000J0000591D01*
G01*
G37*
G36*
G01*
X0349015Y0426475D02*
X0349015Y0427656D01*
G75*
G02*
X0349606Y0428247I0000591J0000000D01*
G01*
X0355314Y0428247D01*
G75*
G02*
X0355905Y0427656I0000000J-000591D01*
G01*
X0355905Y0426475D01*
G75*
G02*
X0355314Y0425885I-000591J0000000D01*
G01*
X0349606Y0425885D01*
G75*
G02*
X0349015Y0426475I0000000J0000591D01*
G01*
G37*
G36*
G01*
X0349015Y0421475D02*
X0349015Y0422656D01*
G75*
G02*
X0349606Y0423247I0000591J0000000D01*
G01*
X0355314Y0423247D01*
G75*
G02*
X0355905Y0422656I0000000J-000591D01*
G01*
X0355905Y0421475D01*
G75*
G02*
X0355314Y0420885I-000591J0000000D01*
G01*
X0349606Y0420885D01*
G75*
G02*
X0349015Y0421475I0000000J0000591D01*
G01*
G37*
G36*
G01*
X0349015Y0416475D02*
X0349015Y0417656D01*
G75*
G02*
X0349606Y0418247I0000591J0000000D01*
G01*
X0355314Y0418247D01*
G75*
G02*
X0355905Y0417656I0000000J-000591D01*
G01*
X0355905Y0416475D01*
G75*
G02*
X0355314Y0415885I-000591J0000000D01*
G01*
X0349606Y0415885D01*
G75*
G02*
X0349015Y0416475I0000000J0000591D01*
G01*
G37*
G36*
G01*
X0349015Y0411475D02*
X0349015Y0412656D01*
G75*
G02*
X0349606Y0413247I0000591J0000000D01*
G01*
X0355314Y0413247D01*
G75*
G02*
X0355905Y0412656I0000000J-000591D01*
G01*
X0355905Y0411475D01*
G75*
G02*
X0355314Y0410885I-000591J0000000D01*
G01*
X0349606Y0410885D01*
G75*
G02*
X0349015Y0411475I0000000J0000591D01*
G01*
G37*
X0331299Y0370450D02*
G01*
G75*
D61*
X0472638Y0317103D02*
D03*
D60*
X0472638Y0330883D02*
D03*
D63*
X0366535Y0236985D02*
D03*
D58*
X0472638Y0278718D02*
D03*
X0331693Y0362970D02*
D03*
D59*
X0331693Y0249190D02*
D03*
X0472638Y0354702D02*
D03*
D56*
X0367323Y0370056D02*
D03*
D57*
X0335827Y0370056D02*
D03*
D55*
X0421063Y0370056D02*
D03*
D64*
X0343701Y0236985D02*
D03*
D62*
X0459252Y0236985D02*
D03*
D53*
X0438582Y0370056D02*
D03*
X0462598Y0370056D02*
D03*
D54*
X0450590Y0370056D02*
D03*
X0425000Y0236985D02*
D03*
D452*
X0416338Y0318481D02*
D03*
X0391043Y0318481D02*
D03*
X0406299Y0318481D02*
D03*
X0401083Y0318481D02*
D03*
X0431594Y0325568D02*
D03*
X0431594Y0318481D02*
D03*
X0421555Y0318481D02*
D03*
X0421555Y0325568D02*
D03*
X0391043Y0325568D02*
D03*
X0401083Y0325568D02*
D03*
X0406299Y0325568D02*
D03*
X0416338Y0325568D02*
D03*
D453*
X0412893Y0318481D02*
D03*
X0397638Y0318481D02*
D03*
X0409744Y0318481D02*
D03*
X0394488Y0318481D02*
D03*
X0425000Y0318481D02*
D03*
X0428149Y0318481D02*
D03*
X0428149Y0325568D02*
D03*
X0425000Y0325568D02*
D03*
X0397638Y0325568D02*
D03*
X0394488Y0325568D02*
D03*
X0412893Y0325568D02*
D03*
X0409744Y0325568D02*
D03*
D456*
X0469488Y0316513D02*
D03*
X0469488Y0320450D02*
D03*
X0465945Y0322025D02*
D03*
X0465945Y0325962D02*
D03*
X0448622Y0314151D02*
D03*
X0448622Y0318088D02*
D03*
X0390920Y0285498D02*
D03*
X0390920Y0289435D02*
D03*
X0390920Y0293694D02*
D03*
X0390920Y0297631D02*
D03*
X0423387Y0337016D02*
D03*
X0423387Y0340953D02*
D03*
X0419664Y0337016D02*
D03*
X0419664Y0340953D02*
D03*
X0456496Y0339432D02*
D03*
X0456496Y0335495D02*
D03*
X0467429Y0250798D02*
D03*
X0467190Y0286546D02*
D03*
X0390920Y0271631D02*
D03*
X0445078Y0303915D02*
D03*
X0440748Y0303915D02*
D03*
X0436529Y0307345D02*
D03*
X0436584Y0318622D02*
D03*
X0406924Y0298206D02*
D03*
X0406924Y0306995D02*
D03*
X0398439Y0310932D02*
D03*
X0368573Y0246015D02*
D03*
X0386417Y0271631D02*
D03*
X0469488Y0312576D02*
D03*
X0436493Y0325962D02*
D03*
X0437891Y0347615D02*
D03*
X0437891Y0361680D02*
D03*
X0433661Y0347615D02*
D03*
X0433661Y0361680D02*
D03*
X0386753Y0321977D02*
D03*
X0384842Y0366513D02*
D03*
X0445078Y0299978D02*
D03*
X0406924Y0310932D02*
D03*
X0406924Y0302143D02*
D03*
X0402436Y0302143D02*
D03*
X0402436Y0298206D02*
D03*
X0382480Y0244072D02*
D03*
X0382480Y0248009D02*
D03*
X0368573Y0249952D02*
D03*
X0439397Y0335397D02*
D03*
X0439397Y0339334D02*
D03*
X0437891Y0365618D02*
D03*
X0436493Y0322025D02*
D03*
X0398439Y0306995D02*
D03*
X0436584Y0314685D02*
D03*
X0436529Y0311282D02*
D03*
X0433661Y0351552D02*
D03*
X0386753Y0325914D02*
D03*
X0384842Y0362576D02*
D03*
X0467190Y0290483D02*
D03*
X0469488Y0316513D02*
D03*
X0444464Y0343285D02*
D03*
X0444464Y0347222D02*
D03*
X0437891Y0351552D02*
D03*
X0386417Y0267694D02*
D03*
X0390920Y0267694D02*
D03*
X0440748Y0299978D02*
D03*
X0467429Y0254735D02*
D03*
X0467429Y0264051D02*
D03*
X0467429Y0260114D02*
D03*
X0433661Y0357743D02*
D03*
X0388779Y0366513D02*
D03*
X0388779Y0362576D02*
D03*
X0401181Y0366513D02*
D03*
X0401181Y0362576D02*
D03*
X0405315Y0366513D02*
D03*
X0405315Y0362576D02*
D03*
X0413583Y0366513D02*
D03*
X0413583Y0362576D02*
D03*
X0409449Y0366513D02*
D03*
X0409449Y0362576D02*
D03*
X0417716Y0366513D02*
D03*
X0417716Y0362576D02*
D03*
X0397047Y0366513D02*
D03*
X0397047Y0362576D02*
D03*
X0392913Y0366513D02*
D03*
X0392913Y0362576D02*
D03*
D458*
X0420275Y0311523D02*
D03*
X0424508Y0311523D02*
D03*
X0336417Y0266119D02*
D03*
X0336417Y0270844D02*
D03*
X0336417Y0275568D02*
D03*
X0336417Y0280292D02*
D03*
X0464764Y0350371D02*
D03*
X0464764Y0346237D02*
D03*
X0372543Y0255057D02*
D03*
X0376480Y0255057D02*
D03*
X0463582Y0365986D02*
D03*
X0459646Y0365986D02*
D03*
X0428445Y0311523D02*
D03*
X0416338Y0311523D02*
D03*
X0372047Y0259229D02*
D03*
X0375984Y0259229D02*
D03*
X0344271Y0284002D02*
D03*
X0348208Y0284002D02*
D03*
X0348208Y0280292D02*
D03*
X0344271Y0280292D02*
D03*
X0358858Y0280292D02*
D03*
X0354921Y0280292D02*
D03*
X0340354Y0280292D02*
D03*
X0340354Y0275568D02*
D03*
X0340354Y0266119D02*
D03*
X0340354Y0270844D02*
D03*
X0373548Y0364951D02*
D03*
X0377485Y0364951D02*
D03*
X0376575Y0314741D02*
D03*
X0372638Y0314741D02*
D03*
X0366338Y0314741D02*
D03*
X0362401Y0314741D02*
D03*
X0376575Y0342694D02*
D03*
X0372638Y0342694D02*
D03*
X0351181Y0319269D02*
D03*
X0355118Y0319269D02*
D03*
X0351181Y0348599D02*
D03*
X0355118Y0348599D02*
D03*
X0351181Y0361395D02*
D03*
X0355118Y0361395D02*
D03*
X0344271Y0344503D02*
D03*
X0340334Y0344503D02*
D03*
X0343897Y0366119D02*
D03*
X0347834Y0366119D02*
D03*
X0340748Y0365922D02*
D03*
X0336811Y0365922D02*
D03*
X0452056Y0365986D02*
D03*
X0455993Y0365986D02*
D03*
X0468701Y0350371D02*
D03*
X0468701Y0346237D02*
D03*
X0355118Y0342497D02*
D03*
X0351181Y0342497D02*
D03*
X0355118Y0338167D02*
D03*
X0351181Y0338167D02*
D03*
X0355118Y0329702D02*
D03*
X0351181Y0329702D02*
D03*
X0340334Y0325536D02*
D03*
X0344271Y0325536D02*
D03*
X0372638Y0286789D02*
D03*
X0376575Y0286789D02*
D03*
X0355118Y0357064D02*
D03*
X0351181Y0357064D02*
D03*
X0340334Y0306693D02*
D03*
X0344271Y0306693D02*
D03*
X0355118Y0310804D02*
D03*
X0351181Y0310804D02*
D03*
X0355118Y0323599D02*
D03*
X0351181Y0323599D02*
D03*
X0340334Y0287713D02*
D03*
X0344271Y0287713D02*
D03*
X0355118Y0291906D02*
D03*
X0351181Y0291906D02*
D03*
X0355118Y0300371D02*
D03*
X0351181Y0300371D02*
D03*
X0355118Y0304702D02*
D03*
X0351181Y0304702D02*
D03*
X0358858Y0286925D02*
D03*
X0354921Y0286925D02*
D03*
D460*
X0461555Y0330893D02*
D03*
X0452080Y0338633D02*
D03*
X0428710Y0356966D02*
D03*
D463*
X0460138Y0283245D02*
D03*
X0460138Y0289545D02*
D03*
X0461516Y0319859D02*
D03*
X0461516Y0326159D02*
D03*
X0456890Y0319859D02*
D03*
X0456890Y0326159D02*
D03*
D460*
X0424969Y0347714D02*
D03*
X0444600Y0338633D02*
D03*
X0448340Y0329381D02*
D03*
X0469035Y0330893D02*
D03*
X0465295Y0340145D02*
D03*
X0421229Y0356966D02*
D03*
D484*
X0451693Y0322419D02*
D03*
X0445472Y0322419D02*
D03*
D485*
X0380905Y0292989D02*
D03*
X0373819Y0292989D02*
D03*
X0373819Y0303029D02*
D03*
X0380905Y0303029D02*
D03*
X0373819Y0320942D02*
D03*
X0373819Y0348895D02*
D03*
X0369882Y0330981D02*
D03*
X0344685Y0275863D02*
D03*
X0351771Y0275863D02*
D03*
X0351771Y0265824D02*
D03*
X0344685Y0265824D02*
D03*
X0362795Y0358934D02*
D03*
X0369882Y0358934D02*
D03*
X0369882Y0348895D02*
D03*
X0362795Y0348895D02*
D03*
X0380905Y0348895D02*
D03*
X0373819Y0358934D02*
D03*
X0380905Y0358934D02*
D03*
X0362795Y0330981D02*
D03*
X0369882Y0320942D02*
D03*
X0362795Y0320942D02*
D03*
X0380905Y0320942D02*
D03*
X0373819Y0330981D02*
D03*
X0380905Y0330981D02*
D03*
X0338976Y0329997D02*
D03*
X0346063Y0329997D02*
D03*
X0346063Y0340037D02*
D03*
X0338976Y0340037D02*
D03*
X0338976Y0348895D02*
D03*
X0346063Y0348895D02*
D03*
X0346063Y0358934D02*
D03*
X0338976Y0358934D02*
D03*
X0338976Y0311099D02*
D03*
X0346063Y0311099D02*
D03*
X0346063Y0321139D02*
D03*
X0338976Y0321139D02*
D03*
X0338976Y0292202D02*
D03*
X0346063Y0292202D02*
D03*
X0346063Y0302241D02*
D03*
X0338976Y0302241D02*
D03*
X0362795Y0292989D02*
D03*
X0369882Y0292989D02*
D03*
X0369882Y0303029D02*
D03*
X0362795Y0303029D02*
D03*
X0362795Y0265430D02*
D03*
X0369882Y0265430D02*
D03*
X0369882Y0275470D02*
D03*
X0362795Y0275470D02*
D03*
X0380905Y0275470D02*
D03*
X0373819Y0275470D02*
D03*
X0373819Y0265430D02*
D03*
X0380905Y0265430D02*
D03*
D486*
X0373819Y0299584D02*
D03*
X0373819Y0296434D02*
D03*
X0380905Y0296434D02*
D03*
X0380905Y0299584D02*
D03*
X0373819Y0324387D02*
D03*
X0373819Y0352340D02*
D03*
X0369882Y0327537D02*
D03*
X0351771Y0269269D02*
D03*
X0351771Y0272418D02*
D03*
X0344685Y0272418D02*
D03*
X0344685Y0269269D02*
D03*
X0369882Y0352340D02*
D03*
X0369882Y0355489D02*
D03*
X0362795Y0355489D02*
D03*
X0362795Y0352340D02*
D03*
X0373819Y0355489D02*
D03*
X0380905Y0352340D02*
D03*
X0380905Y0355489D02*
D03*
X0369882Y0324387D02*
D03*
X0362795Y0327537D02*
D03*
X0362795Y0324387D02*
D03*
X0373819Y0327536D02*
D03*
X0380905Y0324387D02*
D03*
X0380905Y0327536D02*
D03*
X0338976Y0333442D02*
D03*
X0338976Y0336592D02*
D03*
X0346063Y0336592D02*
D03*
X0346063Y0333442D02*
D03*
X0338976Y0352339D02*
D03*
X0338976Y0355489D02*
D03*
X0346063Y0355489D02*
D03*
X0346063Y0352339D02*
D03*
X0338976Y0314544D02*
D03*
X0338976Y0317694D02*
D03*
X0346063Y0317694D02*
D03*
X0346063Y0314544D02*
D03*
X0338976Y0295647D02*
D03*
X0338976Y0298796D02*
D03*
X0346063Y0298796D02*
D03*
X0346063Y0295647D02*
D03*
X0362795Y0296434D02*
D03*
X0362795Y0299584D02*
D03*
X0369882Y0299584D02*
D03*
X0369882Y0296434D02*
D03*
X0362795Y0268875D02*
D03*
X0362795Y0272025D02*
D03*
X0369882Y0272025D02*
D03*
X0369882Y0268875D02*
D03*
X0380905Y0272025D02*
D03*
X0380905Y0268875D02*
D03*
X0373819Y0268875D02*
D03*
X0373819Y0272025D02*
D03*
D487*
X0458169Y0260647D02*
D03*
X0463159Y0260647D02*
D03*
X0463159Y0266867D02*
D03*
X0458169Y0266867D02*
D03*
D488*
X0451279Y0248009D02*
D03*
X0451279Y0280686D02*
D03*
X0397146Y0248009D02*
D03*
X0397146Y0280686D02*
D03*
D489*
X0433248Y0258245D02*
D03*
X0441909Y0258245D02*
D03*
X0437579Y0258245D02*
D03*
X0428917Y0258245D02*
D03*
X0424586Y0258245D02*
D03*
X0420256Y0258245D02*
D03*
X0415925Y0258245D02*
D03*
X0411594Y0258245D02*
D03*
D490*
X0352638Y0239938D02*
D03*
X0352638Y0253142D02*
D03*
X0344606Y0247419D02*
D03*
X0344606Y0260622D02*
D03*
X0361890Y0243678D02*
D03*
X0361890Y0256882D02*
D03*
X0335354Y0256882D02*
D03*
X0450275Y0345056D02*
D03*
X0459527Y0348796D02*
D03*
X0335354Y0243678D02*
D03*
D243*
X0378411Y0246015D02*
D03*
X0378411Y0249952D02*
D03*
X0372407Y0246015D02*
D03*
X0372407Y0247983D02*
D03*
X0378411Y0247983D02*
D03*
X0372407Y0249952D02*
D03*
D491*
X0435059Y0336580D02*
D03*
X0435059Y0341698D02*
D03*
X0435059Y0339139D02*
D03*
X0427578Y0336580D02*
D03*
X0427578Y0341698D02*
D03*
D372*
X0415551Y0333363D02*
D03*
X0412992Y0356355D02*
D03*
X0415551Y0356355D02*
D03*
X0392520Y0333363D02*
D03*
X0389961Y0356355D02*
D03*
X0387401Y0356355D02*
D03*
X0392520Y0356355D02*
D03*
X0395079Y0356355D02*
D03*
X0397638Y0356355D02*
D03*
X0400197Y0356355D02*
D03*
X0402756Y0356355D02*
D03*
X0405315Y0356355D02*
D03*
X0407874Y0356355D02*
D03*
X0410433Y0356355D02*
D03*
X0387401Y0333363D02*
D03*
X0389961Y0333363D02*
D03*
X0395079Y0333363D02*
D03*
X0397638Y0333363D02*
D03*
X0400197Y0333363D02*
D03*
X0402756Y0333363D02*
D03*
X0405315Y0333363D02*
D03*
X0407874Y0333363D02*
D03*
X0410433Y0333363D02*
D03*
X0412992Y0333363D02*
D03*
D492*
X0453138Y0359426D02*
D03*
X0464556Y0359426D02*
D03*
D493*
X0455273Y0301336D02*
D03*
X0455273Y0314328D02*
D03*
X0444073Y0365413D02*
D03*
X0444073Y0352421D02*
D03*
D374*
X0429868Y0302561D02*
D03*
X0415301Y0302561D02*
D03*
D237*
X0374425Y0250985D02*
D03*
X0376393Y0250985D02*
D03*
X0376393Y0244981D02*
D03*
X0374425Y0244981D02*
D03*
D494*
X0442391Y0315972D02*
D03*
X0442391Y0310067D02*
D03*
D490*
X0352638Y0247419D02*
D03*
X0352638Y0260622D02*
D03*
X0344606Y0253142D02*
D03*
X0450275Y0352537D02*
D03*
X0344606Y0239938D02*
D03*
D376*
X0391732Y0313169D02*
D03*
X0391732Y0306476D02*
D03*
D495*
X0465269Y0296808D02*
D03*
X0465269Y0308225D02*
D03*
D496*
X0430905Y0365725D02*
D03*
X0424606Y0365725D02*
D03*
M02*
