M48
INCH,TZ
T01C0.013750
T02C0.025600
T03C0.032500
T04C0.039200
T05C0.043300
T06C0.051200
T07C0.059100
T08C0.120000
T09C0.157500
%
T01
X33268Y18551
X33612Y18344
X33701Y20244
X33730Y18846
X19892Y37075
X19892Y36720
X21752Y23508
X21752Y23114
X21752Y19157
X21752Y18764
X23317Y37075
X23317Y36701
X23317Y36327
X25827Y44240
X25827Y43846
X25827Y43453
X25827Y43059
X27431Y26051
X27431Y25578
X27431Y25106
X27431Y24634
X27431Y21701
X27431Y21228
X27431Y20756
X27431Y20283
X33248Y36769
X33248Y35825
X33248Y35352
X33248Y34880
X33248Y34407
X33248Y33935
X33248Y33462
X33248Y32990
X33248Y32517
X33248Y32045
X33248Y31573
X33248Y31100
X33248Y30628
X33248Y30155
X33248Y29683
X33248Y29210
X33248Y28738
X33248Y28265
X33248Y27793
X33248Y27321
X33248Y26848
X33248Y26376
X34232Y36927
X34626Y36927
X35807Y23777
X36296Y42132
X36296Y41732
X36296Y40834
X36296Y40441
X36296Y40047
X37500Y23777
X37815Y23777
X38130Y23777
X38445Y23777
X38760Y23777
X38839Y36927
X39075Y23777
X39232Y36927
X39390Y23777
X39626Y36927
X39705Y23777
X40020Y36927
X40020Y23777
X40335Y23777
X40413Y36927
X40650Y23777
X40807Y36927
X40965Y23777
X41201Y36927
X41280Y23777
X41594Y36927
X41594Y23777
X41909Y23777
X42224Y23777
X42618Y36927
X42776Y23777
X42933Y36927
X43091Y23777
X43406Y23777
X43720Y23777
X44035Y23777
X44350Y23777
X44783Y36927
X45335Y36927
X47185Y36927
X47185Y34014
X47185Y33620
X47185Y32557
X47185Y30864
X47185Y30549
X47185Y28659
X47185Y28344
X47185Y27399
X47185Y27084
X47185Y26769
X47185Y26454
X47185Y30234
X47185Y29919
X47185Y29604
X47185Y29289
X47185Y28974
X47185Y26140
X47185Y25825
X47185Y25510
X47185Y25195
X47185Y24880
X47185Y24565
X47185Y24250
X47185Y23935
X49813Y22015
X50207Y22015
X1181Y35433
X1181Y32087
X1181Y27953
X1378Y39961
X1378Y8465
X1575Y47047
X1575Y44094
X2756Y1378
X5118Y50984
X5906Y1181
X7480Y50984
X8268Y1378
X10039Y1378
X10827Y24606
X10827Y7874
X11220Y50394
X11220Y7480
X11417Y48622
X12598Y7480
X12992Y33071
X12992Y7087
X13248Y39171
X13366Y15667
X13445Y27281
X13489Y22949
X14370Y10433
X14764Y9449
X15364Y18110
X15453Y32439
X15748Y7087
X15886Y44683
X15945Y48228
X16142Y25984
X16388Y9843
X16388Y8403
X16476Y43738
X16673Y28226
X16732Y19035
X16890Y24941
X17126Y27165
X17126Y22025
X17161Y31710
X17323Y27559
X17421Y12793
X17444Y38642
X17461Y43738
X17500Y33858
X17969Y44462
X18445Y43738
X18553Y34447
X19134Y7006
X19238Y9155
X19272Y8226
X19626Y9348
X19640Y39092
X19640Y38501
X19665Y39565
X19941Y14762
X19980Y28738
X19980Y26376
X19980Y25195
X19980Y6179
X20020Y31021
X20138Y34604
X20177Y21730
X20217Y12754
X20512Y8423
X20531Y27596
X20591Y14230
X20610Y20628
X20650Y29958
X20728Y15510
X21122Y18265
X21240Y24368
X21240Y22557
X21240Y20077
X21280Y25903
X21280Y21258
X21413Y8368
X21746Y37504
X22087Y15411
X22106Y14014
X22264Y5982
X22303Y32163
X22343Y12832
X22441Y9055
X22539Y17675
X22541Y15860
X22579Y22124
X22579Y14078
X22638Y12205
X22697Y44407
X22854Y26376
X22858Y29565
X23130Y14014
X23209Y28856
X23465Y43738
X23484Y30313
X23799Y14328
X23858Y43344
X23957Y27360
X24016Y16691
X24016Y15687
X24035Y17695
X24199Y27807
X24409Y49016
X24469Y32432
X24508Y14663
X24587Y34407
X24606Y12402
X24902Y36297
X24902Y22124
X24921Y6258
X25000Y31890
X25039Y38718
X25059Y13935
X25197Y7087
X25217Y9252
X25256Y12793
X25295Y42717
X25335Y44880
X25374Y41415
X25374Y40903
X25374Y40352
X25413Y39447
X25416Y27383
X25551Y7970
X25591Y6687
X25768Y17636
X25807Y39053
X25945Y16179
X26122Y32439
X26161Y30549
X26240Y38777
X26240Y35195
X26575Y17321
X26575Y15982
X26594Y26494
X26713Y13187
X26772Y9252
X26791Y37045
X26791Y32951
X26831Y7990
X27008Y6687
X27106Y13580
X27382Y22163
X27500Y29958
X27815Y18777
X27854Y17970
X28051Y36297
X28051Y33659
X28287Y36848
X28287Y6002
X28406Y16021
X28465Y9809
X28543Y48228
X28642Y7185
X28878Y16612
X28937Y23801
X28957Y22872
X29055Y7970
X29055Y6687
X29103Y18080
X29114Y30313
X29350Y17281
X29350Y15982
X29437Y22244
X29488Y13128
X29517Y18296
X29705Y36021
X29862Y34171
X29900Y25814
X29921Y13561
X30188Y7999
X30335Y19762
X30335Y18659
X30335Y18088
X30413Y6706
X30437Y22244
X30453Y39171
X30492Y36454
X30728Y28777
X30886Y29683
X30886Y21691
X31164Y16041
X31299Y21260
X31594Y37360
X31654Y17084
X31673Y16651
X31693Y7360
X31791Y25785
X31831Y24762
X31880Y9449
X32028Y36261
X32149Y17160
X32150Y15962
X32451Y13186
X32480Y7990
X32494Y6728
X32953Y36297
X33051Y21848
X33051Y13541
X33224Y20725
X33681Y37203
X33681Y8000
X33921Y16041
X33957Y39142
X33996Y23108
X34055Y6890
X34350Y15982
X34362Y16454
X34390Y23423
X34496Y7502
X34544Y38901
X34689Y22279
X34902Y15982
X34954Y12592
X34980Y13541
X35000Y7394
X35020Y6927
X35063Y8032
X35098Y39092
X35098Y37203
X35335Y18108
X35355Y19017
X35453Y21179
X35522Y9155
X35611Y6155
X35650Y13541
X35908Y8923
X35937Y8403
X36102Y18128
X36220Y48228
X36280Y22163
X36621Y38856
X36654Y40608
X36673Y44880
X36715Y16041
X36752Y43817
X36988Y23384
X36988Y9252
X36988Y8878
X37185Y16612
X37598Y9646
X37598Y8465
X37618Y16061
X37657Y17242
X37795Y10529
X37815Y18187
X37847Y20160
X37992Y8917
X38012Y43895
X38051Y14958
X38130Y22163
X38287Y37242
X38563Y17262
X38563Y14447
X38602Y20903
X38720Y44722
X38799Y21376
X38878Y41297
X38917Y42793
X39193Y37281
X39272Y39053
X39370Y5906
X39390Y20982
X39429Y17872
X39433Y16041
X39469Y44132
X39508Y20293
X39705Y22163
X39744Y17557
X39941Y16651
X40157Y18701
X40335Y15943
X40531Y40825
X40535Y17344
X40748Y17872
X40846Y10785
X41004Y16691
X41152Y19536
X41194Y10284
X41275Y13585
X41287Y14391
X41358Y16888
X41358Y38935
X41392Y20454
X41398Y17951
X41752Y10510
X42106Y37242
X42106Y17714
X42126Y19506
X42240Y20950
X42323Y48622
X42382Y17321
X42437Y23486
X42500Y12321
X42579Y21336
X42618Y43580
X42657Y22163
X42697Y11454
X43042Y15467
X43071Y22111
X43366Y37281
X43524Y38580
X43642Y10825
X43720Y7399
X43795Y10069
X43799Y11651
X43799Y8029
X43839Y9328
X43839Y8580
X43878Y11199
X43917Y41179
X44256Y6733
X44311Y37281
X44508Y23049
X44637Y6811
X45059Y37321
X45079Y50197
X45295Y22281
X45413Y15313
X45413Y12872
X45413Y6809
X45429Y8059
X45689Y43994
X45748Y11907
X45768Y37321
X45925Y23462
X46232Y8692
X46240Y10077
X46240Y9328
X46280Y44250
X46594Y6848
X46713Y11218
X46937Y23206
X46983Y9518
X47028Y14722
X47146Y8502
X47421Y13226
X47461Y27675
X47461Y10588
X47500Y31573
X47500Y11888
X47507Y9926
X47539Y36100
X47539Y33069
X47539Y25903
X47539Y11179
X47579Y8927
X47657Y30785
X47776Y14801
X47810Y23285
X47886Y33650
X47933Y22380
X47935Y24496
X48184Y23285
X48248Y8265
X48285Y23718
X48287Y9250
X48307Y30152
X48327Y22360
X48386Y22970
X48642Y28025
X48760Y37281
X48957Y29407
X49075Y14565
X49114Y9289
X49154Y10667
X49213Y6496
X49409Y5512
X49423Y22335
X49508Y14447
X49514Y26177
X49665Y24998
X49705Y35864
X49705Y27636
X49919Y14486
X49941Y12675
X49941Y11888
X49941Y11100
X49980Y24053
X50059Y9289
X50413Y13699
X50650Y22321
X50768Y26454
X50768Y24447
X50768Y15155
X50807Y12636
X50807Y11888
X50807Y11100
X50807Y10155
X51280Y9014
X51516Y25903
X51516Y15195
X51634Y8659
X51673Y39643
X51713Y42163
X51713Y36769
X51713Y26612
X51719Y14136
X51831Y27714
X51831Y24762
X51831Y8226
X51870Y23384
X51870Y14801
X53150Y31496
X55512Y39567
X55709Y42126
X55709Y11024
X57480Y12598
X51441Y16534
X50805Y16262
X50420Y16476
X49991Y15835
X49655Y15795
X49065Y15992
X48809Y16268
X48278Y16386
X47982Y15992
X48474Y15795
X47293Y15795
X45718Y15795
X45738Y16268
X45446Y17379
X45471Y18426
X45759Y18748
X45834Y19801
X45718Y20913
X45718Y21701
X46722Y21228
X46728Y20583
X47974Y20643
X47884Y21110
X48364Y21278
X48081Y21701
X49249Y21279
X49421Y21975
X49813Y22016
X50207Y22016
X50113Y21334
X50602Y21024
X50919Y21411
X51349Y21014
X50970Y20625
X50246Y20550
X49813Y20598
X50798Y19282
X51427Y19282
X51441Y18363
X51441Y17508
X50799Y17731
X49774Y18315
X48327Y18708
X48278Y17961
X47768Y18394
X46770Y18983
X44813Y19929
X44746Y20861
X45128Y21307
X44537Y21701
X43750Y20874
X43582Y18875
X43988Y18833
X43998Y18046
X44401Y17781
X44324Y16344
X44959Y16753
X45192Y15913
X19898Y36180
X20050Y36433
X19892Y36720
X19892Y37075
X20894Y36741
X21168Y36636
X21411Y36849
X20861Y36336
X22340Y37076
X23317Y37075
X23317Y36701
X23317Y36327
X21742Y24260
X21769Y25906
X21791Y25077
X22513Y22553
X22522Y23310
X22548Y24089
X22596Y25918
X22598Y24986
X22770Y24284
X22944Y25890
X23031Y22681
X23061Y23996
X23336Y22547
X23392Y26081
X23469Y24534
X23480Y23288
X23634Y25609
X23757Y24598
X24051Y24575
X24293Y24976
X24425Y24170
X24478Y24496
X24488Y23778
X24508Y22695
X24558Y23067
X24598Y23417
X24819Y24075
X25128Y22547
X25197Y24122
X25511Y24546
X25630Y24260
X25728Y23756
X25750Y25219
X25793Y22707
X25816Y24516
X25885Y25890
X26181Y25831
X26364Y24561
X26376Y26060
X26703Y23187
X27179Y23179
X27421Y23010
X27431Y23423
X27447Y22528
X21752Y23508
X21752Y23114
X27431Y26051
X27431Y25579
X27431Y25107
X27431Y24634
X21880Y20263
X21880Y18295
X21919Y21602
X22746Y20185
X22903Y19122
X23021Y18295
X23258Y21602
X23651Y20696
X23691Y19712
X24242Y19082
X24281Y18295
X24675Y21602
X24911Y20893
X24990Y18295
X25076Y20202
X25502Y18649
X26013Y19515
X26250Y18570
X26407Y21602
X26722Y18295
X27040Y20777
X27313Y19909
X27313Y18570
X21752Y19157
X21752Y18763
X27431Y21700
X27431Y21228
X27431Y20756
X27431Y20283
X36359Y42508
X36284Y39578
X36240Y41248
X36240Y44614
X36007Y44424
X35951Y43144
X35951Y42833
X35797Y39810
X35569Y41401
X35477Y40703
X35414Y43331
X35277Y44264
X34985Y44536
X34882Y39496
X34836Y40133
X34794Y40510
X34719Y41817
X34715Y43054
X34439Y44575
X34358Y42489
X34233Y43778
X34173Y41829
X34164Y40782
X34055Y42539
X33957Y44614
X33160Y39491
X32992Y43807
X32702Y42002
X32472Y41063
X32471Y42563
X32470Y41770
X32264Y41527
X32244Y44713
X32186Y41868
X31879Y40491
X31671Y42626
X31582Y40542
X31457Y44683
X31441Y41189
X31272Y40536
X31254Y43969
X31181Y42587
X31122Y41587
X30969Y40912
X30965Y43886
X30664Y43153
X30646Y40187
X30638Y39886
X30266Y44693
X30059Y40055
X30034Y39470
X30025Y40354
X29768Y39689
X29630Y41331
X29584Y42178
X29514Y42691
X29514Y43591
X29514Y43892
X29514Y44193
X29514Y44494
X29510Y43099
X29134Y41563
X28878Y41780
X26803Y44735
X26586Y42986
X26546Y39733
X26398Y40146
X26299Y43079
X26260Y40727
X26260Y41002
X26260Y41278
X26083Y40166
X26063Y44742
X25955Y40727
X25955Y41002
X25758Y39752
X36296Y40047
X36296Y40441
X36296Y40835
X36296Y41733
X36296Y42133
X25827Y43059
X25827Y43453
X25827Y43847
X25827Y44240
X33248Y36769
X33279Y36293
X33469Y36061
X33248Y35825
X33449Y35588
X33248Y35352
X33449Y35116
X33248Y34880
X33449Y34643
X33248Y34407
X33449Y34171
X33248Y33935
X33449Y33699
X33248Y33462
X33449Y33226
X33248Y32990
X33449Y32754
X33248Y32517
X33449Y32281
X33248Y32045
X33449Y31809
X33248Y31573
X33449Y31336
X33248Y31100
X33449Y30864
X33248Y30628
X33449Y30391
X33248Y30155
X33449Y29919
X33248Y29683
X33449Y29447
X33248Y29210
X33449Y28974
X33248Y28738
X33449Y28502
X33248Y28265
X33449Y28029
X33248Y27793
X33449Y27557
X33248Y27321
X33449Y27084
X33248Y26848
X33449Y26612
X33248Y26376
X33406Y26061
X33941Y26068
X34135Y26495
X34145Y26946
X34152Y27388
X34150Y27861
X35197Y28366
X35197Y28676
X34724Y28923
X34927Y29521
X34936Y29817
X35207Y29660
X35889Y29543
X36157Y29798
X36698Y29895
X36698Y29456
X36578Y28996
X36910Y28996
X37205Y28996
X37496Y29002
X38180Y28672
X38176Y28127
X38760Y28265
X38681Y28895
X39513Y28965
X39899Y28980
X39705Y29328
X39505Y29562
X39938Y29819
X40239Y30512
X40256Y31110
X39960Y31457
X40135Y32232
X39580Y32214
X39033Y32224
X39160Y32932
X39959Y32887
X40724Y32913
X41534Y32935
X41574Y32232
X41289Y32232
X41004Y32232
X41875Y32232
X42191Y31444
X42476Y31457
X42774Y31489
X43256Y31439
X43307Y31035
X43785Y30405
X43773Y30028
X43917Y29092
X43317Y28767
X43520Y28559
X42993Y28577
X42946Y28219
X42762Y28770
X41619Y28976
X41390Y29199
X40707Y29245
X40696Y29536
X40488Y29049
X40488Y28380
X40299Y27514
X40085Y27320
X39881Y27116
X39679Y26914
X40492Y26917
X40957Y27364
X41658Y27377
X41560Y27001
X42028Y27124
X42565Y27326
X42791Y27086
X43189Y26892
X43445Y27084
X43828Y27185
X44134Y27225
X44036Y26927
X43834Y26423
X43533Y26367
X42971Y26423
X42726Y26276
X42343Y26533
X41852Y26551
X41460Y25323
X41146Y25013
X40925Y25195
X40405Y25230
X40335Y23777
X40650Y23777
X40965Y23777
X41280Y23777
X41595Y23777
X41910Y23777
X42224Y23777
X42502Y23916
X42776Y23777
X43091Y23777
X43406Y23777
X43721Y23777
X44036Y23777
X44350Y23777
X44438Y24134
X44682Y23917
X45384Y24226
X46319Y24230
X46363Y24603
X46078Y24605
X46319Y24978
X47185Y24880
X47185Y25195
X47185Y25510
X47185Y25825
X47185Y26139
X47185Y26454
X47185Y26769
X47185Y27084
X47185Y27399
X46988Y27990
X47185Y28344
X47185Y28659
X47185Y28974
X47185Y29289
X47185Y29604
X47185Y29919
X47185Y30234
X47185Y30549
X47185Y30864
X47146Y31376
X46491Y31282
X46455Y31680
X46500Y32025
X46198Y32304
X46953Y32246
X47185Y32557
X47185Y33620
X47185Y34014
X47161Y34375
X46698Y34367
X46253Y34597
X45380Y34678
X45603Y35118
X45915Y33932
X46234Y33469
X45383Y33512
X45335Y33069
X44907Y32584
X44622Y32576
X44262Y32508
X43966Y32505
X44065Y33235
X43681Y33226
X43356Y33235
X43028Y32896
X42648Y33235
X42296Y33219
X42001Y33239
X42319Y32922
X42747Y33917
X43191Y33920
X43047Y35096
X42526Y35076
X42137Y35077
X41672Y34252
X41711Y33952
X41258Y33929
X40971Y33929
X40684Y33929
X40268Y33929
X39982Y33929
X39558Y33911
X39250Y33911
X38961Y33911
X38221Y33687
X38126Y33407
X37731Y33095
X37411Y33393
X36845Y33393
X36559Y33400
X35898Y33309
X35153Y33512
X34921Y33344
X34886Y33644
X34722Y34269
X34722Y34565
X34927Y35191
X34927Y35477
X35210Y35313
X35886Y35209
X36155Y35368
X36732Y35548
X36732Y35072
X36578Y34586
X36910Y34586
X37205Y34586
X37496Y34593
X37718Y35356
X38095Y35352
X38103Y36155
X37769Y36128
X38201Y36423
X38244Y36902
X38839Y36927
X39232Y36927
X39626Y36927
X40020Y36927
X40413Y36927
X40807Y36927
X41201Y36927
X41595Y36927
X42224Y36888
X42618Y36927
X42933Y36927
X43307Y36927
X43790Y36799
X44154Y36888
X44784Y36927
X44894Y36643
X45335Y36927
X46497Y36906
X47185Y36927
X43917Y35903
X43622Y35777
X44107Y34908
X44399Y32916
X44847Y32039
X45236Y31907
X45165Y31569
X44843Y31146
X44744Y30706
X44822Y29965
X45758Y29437
X46037Y29297
X46344Y29226
X45654Y28964
X45683Y28133
X46008Y27941
X45662Y27197
X44814Y27271
X44814Y26977
X44814Y26686
X44872Y25500
X45335Y25470
X45866Y25745
X46770Y25771
X46897Y26881
X47185Y24565
X47185Y24250
X47185Y23935
X44281Y25129
X44042Y25285
X43750Y25057
X43323Y24840
X43325Y25281
X42641Y25379
X42352Y24863
X42906Y24587
X41697Y24576
X40020Y23777
X39705Y23777
X39390Y23777
X39075Y23777
X38760Y23777
X38445Y23777
X38130Y23777
X37815Y23777
X37500Y23777
X36886Y24296
X36280Y23856
X35807Y23777
X35209Y24348
X34890Y24348
X34572Y24348
X34254Y24348
X33935Y24348
X33609Y24712
X33566Y23994
X34397Y25590
X34976Y25457
X35886Y26021
X36590Y26254
X36910Y26240
X37198Y26245
X37496Y26246
X37718Y27033
X38131Y27042
X37746Y27552
X37530Y27842
X36957Y27842
X36571Y27805
X36705Y27201
X36698Y26701
X36152Y27041
X35486Y26920
X35486Y27237
X35486Y27583
X35475Y26573
X35886Y28384
X36571Y30600
X36970Y30598
X37409Y30598
X37793Y30516
X37771Y29789
X38053Y29840
X38185Y30982
X38193Y31306
X38685Y31328
X38405Y31738
X37576Y31809
X37205Y31786
X36910Y31799
X36410Y31809
X36673Y32104
X36718Y32773
X36176Y32573
X35300Y32644
X34720Y32413
X34927Y31703
X34927Y31411
X35217Y31553
X35886Y31430
X34766Y30784
X34715Y30456
X37724Y32451
X38130Y32650
X38180Y34263
X38799Y34797
X39560Y34797
X40321Y34797
X41083Y34796
X41030Y31113
X41355Y31317
X42243Y31155
X43343Y32234
X45966Y31435
X45870Y30991
X45600Y30898
X45963Y30695
X44621Y28189
X44338Y28131
X38805Y26558
X39154Y26179
X39009Y25092
X38280Y25141
X38312Y25453
X38180Y25916
X38487Y24381
X39542Y30703
X36998Y36189
X36533Y36151
X36211Y36433
X36172Y36924
X35620Y36326
X35308Y36592
X34626Y36927
X34232Y36927
X33647Y36907
X33839Y36336
X34722Y36139
X37530Y36799
X33268Y18551
X33612Y18344
X33731Y18846
X33701Y20244
T02
X49093Y27132G85X49526Y27132
X49093Y23730G85X49526Y23730
X50837Y27132G85X51073Y27132
X50837Y23730G85X51073Y23730
X49626Y29073
X49941Y28384
X50256Y29073
X50571Y28384
X50886Y29073
X48819Y28472G85X48819Y28984
X51693Y28472G85X51693Y28984
X49506Y26569
X49506Y24293
T03
X43209Y14978
X43209Y13049
X44449Y14722
X44449Y13856
X44449Y12990
X46378Y14722
X46378Y13856
X46378Y12990
X49557Y22862
X51057Y22862
X57000Y52736
X57000Y51736
X57000Y50736
X57000Y49736
X57000Y48736
X57000Y47736
X52165Y34843
X53150Y34843
X54134Y34843
X55118Y34843
X56102Y34843
X38543Y30832
X38543Y29254
X38543Y27832
T04
X33996Y22124
X33996Y21124
X37185Y44388
X37185Y43388
X37185Y42388
X37185Y41388
X37185Y40388
X37185Y39388
X42657Y38502
X43730Y15736
X43907Y21838
X44459Y15736
X44508Y38502
X46407Y15736
X46427Y21838
X47175Y21838
X48868Y21838
X49154Y30352
X51122Y30352
X51152Y15736
X51329Y21838
X51152Y15736
X46407Y15736
X46427Y21839
X47175Y21839
X48868Y21839
X51329Y21839
X43907Y21839
X43730Y15736
X44459Y15736
X28973Y43729
X28185Y42547
X27398Y43729
X36099Y43807
X34099Y43407
X34099Y44207
X46870Y36612
X45899Y27533
X46699Y27533
X46299Y25533
T05
X3819Y42067
X3819Y40492
X3819Y38917
X3819Y37343
X3819Y35768
X3819Y34193
X3819Y32618
X3819Y31043
X3819Y29469
X3819Y27894
X3819Y26319
X3819Y24744
X3819Y23169
X3819Y21594
X3819Y20020
X3819Y18445
X3819Y16870
X3819Y15295
X3819Y13720
X3819Y12146
X3819Y10571
X3819Y8996
X5118Y41280
X5118Y39705
X5118Y38130
X5118Y36555
X5118Y34980
X5118Y33406
X5118Y31831
X5118Y30256
X5118Y28681
X5118Y27106
X5118Y25531
X5118Y23957
X5118Y22382
X5118Y20807
X5118Y19232
X5118Y17657
X5118Y16083
X5118Y14508
X5118Y12933
X5118Y11358
X5118Y9783
X6417Y42854
X6417Y41280
X6417Y39705
X6417Y38130
X6417Y36555
X6417Y34980
X6417Y33406
X6417Y31831
X6417Y30256
X6417Y28681
X6417Y27106
X6417Y25531
X6417Y23957
X6417Y22382
X6417Y20807
X6417Y19232
X6417Y17657
X6417Y16083
X6417Y14508
X6417Y12933
X6417Y11358
X6417Y9783
X6417Y8209
X29150Y39920
X28150Y39920
X27150Y39920
T06
X5118Y43780
X5118Y7283
T07
X40650Y41966
X43602Y41966
T08
X52000Y54736
X52000Y45736
T09
X5906Y46850
X5906Y4213
M30
