G04 #@! TF.GenerationSoftware,KiCad,Pcbnew,8.0.9-8.0.9-0~ubuntu24.04.1*
G04 #@! TF.CreationDate,2026-01-04T09:17:21+00:00*
G04 #@! TF.ProjectId,uaefi,75616566-692e-46b6-9963-61645f706362,E*
G04 #@! TF.SameCoordinates,Original*
G04 #@! TF.FileFunction,Paste,Bot*
G04 #@! TF.FilePolarity,Positive*
%FSLAX46Y46*%
G04 Gerber Fmt 4.6, Leading zero omitted, Abs format (unit mm)*
G04 Created by KiCad (PCBNEW 8.0.9-8.0.9-0~ubuntu24.04.1) date 2026-01-04 09:17:21*
%MOMM*%
%LPD*%
G01*
G04 APERTURE LIST*
%ADD10R,4.399991X2.299995*%
%ADD11R,3.999992X2.299995*%
G04 APERTURE END LIST*
G04 #@! TO.C,D8*
G36*
G01*
X51092979Y68994367D02*
X51092979Y69294367D01*
G75*
G02*
X51242979Y69444367I150000J0D01*
G01*
X52417979Y69444367D01*
G75*
G02*
X52567979Y69294367I0J-150000D01*
G01*
X52567979Y68994367D01*
G75*
G02*
X52417979Y68844367I-150000J0D01*
G01*
X51242979Y68844367D01*
G75*
G02*
X51092979Y68994367I0J150000D01*
G01*
G37*
G36*
G01*
X51092979Y70894367D02*
X51092979Y71194367D01*
G75*
G02*
X51242979Y71344367I150000J0D01*
G01*
X52417979Y71344367D01*
G75*
G02*
X52567979Y71194367I0J-150000D01*
G01*
X52567979Y70894367D01*
G75*
G02*
X52417979Y70744367I-150000J0D01*
G01*
X51242979Y70744367D01*
G75*
G02*
X51092979Y70894367I0J150000D01*
G01*
G37*
G36*
G01*
X52967979Y69944367D02*
X52967979Y70244367D01*
G75*
G02*
X53117979Y70394367I150000J0D01*
G01*
X54292979Y70394367D01*
G75*
G02*
X54442979Y70244367I0J-150000D01*
G01*
X54442979Y69944367D01*
G75*
G02*
X54292979Y69794367I-150000J0D01*
G01*
X53117979Y69794367D01*
G75*
G02*
X52967979Y69944367I0J150000D01*
G01*
G37*
G04 #@! TD*
G04 #@! TO.C,C10*
G36*
G01*
X118890002Y27244367D02*
X118890002Y26194367D01*
G75*
G02*
X118790002Y26094367I-100000J0D01*
G01*
X117990002Y26094367D01*
G75*
G02*
X117890002Y26194367I0J100000D01*
G01*
X117890002Y27244367D01*
G75*
G02*
X117990002Y27344367I100000J0D01*
G01*
X118790002Y27344367D01*
G75*
G02*
X118890002Y27244367I0J-100000D01*
G01*
G37*
G36*
G01*
X116890002Y27244367D02*
X116890002Y26194367D01*
G75*
G02*
X116790002Y26094367I-100000J0D01*
G01*
X115990002Y26094367D01*
G75*
G02*
X115890002Y26194367I0J100000D01*
G01*
X115890002Y27244367D01*
G75*
G02*
X115990002Y27344367I100000J0D01*
G01*
X116790002Y27344367D01*
G75*
G02*
X116890002Y27244367I0J-100000D01*
G01*
G37*
G04 #@! TD*
G04 #@! TO.C,C27*
G36*
G01*
X66035001Y76054367D02*
X66035001Y76734367D01*
G75*
G02*
X66120001Y76819367I85000J0D01*
G01*
X66800001Y76819367D01*
G75*
G02*
X66885001Y76734367I0J-85000D01*
G01*
X66885001Y76054367D01*
G75*
G02*
X66800001Y75969367I-85000J0D01*
G01*
X66120001Y75969367D01*
G75*
G02*
X66035001Y76054367I0J85000D01*
G01*
G37*
G36*
G01*
X67615003Y76054367D02*
X67615003Y76734367D01*
G75*
G02*
X67700003Y76819367I85000J0D01*
G01*
X68380003Y76819367D01*
G75*
G02*
X68465003Y76734367I0J-85000D01*
G01*
X68465003Y76054367D01*
G75*
G02*
X68380003Y75969367I-85000J0D01*
G01*
X67700003Y75969367D01*
G75*
G02*
X67615003Y76054367I0J85000D01*
G01*
G37*
G04 #@! TD*
G04 #@! TO.C,D4*
G36*
G01*
X56450002Y34104367D02*
X56450002Y33084367D01*
G75*
G02*
X56360002Y32994367I-90000J0D01*
G01*
X55640002Y32994367D01*
G75*
G02*
X55550002Y33084367I0J90000D01*
G01*
X55550002Y34104367D01*
G75*
G02*
X55640002Y34194367I90000J0D01*
G01*
X56360002Y34194367D01*
G75*
G02*
X56450002Y34104367I0J-90000D01*
G01*
G37*
G36*
G01*
X53150002Y34104367D02*
X53150002Y33084367D01*
G75*
G02*
X53060002Y32994367I-90000J0D01*
G01*
X52340002Y32994367D01*
G75*
G02*
X52250002Y33084367I0J90000D01*
G01*
X52250002Y34104367D01*
G75*
G02*
X52340002Y34194367I90000J0D01*
G01*
X53060002Y34194367D01*
G75*
G02*
X53150002Y34104367I0J-90000D01*
G01*
G37*
G04 #@! TD*
D10*
G04 #@! TO.C,BT1*
X114849954Y106594367D03*
D11*
X98849935Y106594367D03*
G04 #@! TD*
G04 #@! TO.C,U10*
G36*
G01*
X69450002Y15689367D02*
X69450002Y15989367D01*
G75*
G02*
X69600002Y16139367I150000J0D01*
G01*
X71250002Y16139367D01*
G75*
G02*
X71400002Y15989367I0J-150000D01*
G01*
X71400002Y15689367D01*
G75*
G02*
X71250002Y15539367I-150000J0D01*
G01*
X69600002Y15539367D01*
G75*
G02*
X69450002Y15689367I0J150000D01*
G01*
G37*
G36*
G01*
X69450002Y16959367D02*
X69450002Y17259367D01*
G75*
G02*
X69600002Y17409367I150000J0D01*
G01*
X71250002Y17409367D01*
G75*
G02*
X71400002Y17259367I0J-150000D01*
G01*
X71400002Y16959367D01*
G75*
G02*
X71250002Y16809367I-150000J0D01*
G01*
X69600002Y16809367D01*
G75*
G02*
X69450002Y16959367I0J150000D01*
G01*
G37*
G36*
G01*
X69450002Y18229367D02*
X69450002Y18529367D01*
G75*
G02*
X69600002Y18679367I150000J0D01*
G01*
X71250002Y18679367D01*
G75*
G02*
X71400002Y18529367I0J-150000D01*
G01*
X71400002Y18229367D01*
G75*
G02*
X71250002Y18079367I-150000J0D01*
G01*
X69600002Y18079367D01*
G75*
G02*
X69450002Y18229367I0J150000D01*
G01*
G37*
G36*
G01*
X69450002Y19499367D02*
X69450002Y19799367D01*
G75*
G02*
X69600002Y19949367I150000J0D01*
G01*
X71250002Y19949367D01*
G75*
G02*
X71400002Y19799367I0J-150000D01*
G01*
X71400002Y19499367D01*
G75*
G02*
X71250002Y19349367I-150000J0D01*
G01*
X69600002Y19349367D01*
G75*
G02*
X69450002Y19499367I0J150000D01*
G01*
G37*
G36*
G01*
X74400002Y19499367D02*
X74400002Y19799367D01*
G75*
G02*
X74550002Y19949367I150000J0D01*
G01*
X76200002Y19949367D01*
G75*
G02*
X76350002Y19799367I0J-150000D01*
G01*
X76350002Y19499367D01*
G75*
G02*
X76200002Y19349367I-150000J0D01*
G01*
X74550002Y19349367D01*
G75*
G02*
X74400002Y19499367I0J150000D01*
G01*
G37*
G36*
G01*
X74400002Y18229367D02*
X74400002Y18529367D01*
G75*
G02*
X74550002Y18679367I150000J0D01*
G01*
X76200002Y18679367D01*
G75*
G02*
X76350002Y18529367I0J-150000D01*
G01*
X76350002Y18229367D01*
G75*
G02*
X76200002Y18079367I-150000J0D01*
G01*
X74550002Y18079367D01*
G75*
G02*
X74400002Y18229367I0J150000D01*
G01*
G37*
G36*
G01*
X74400002Y16959367D02*
X74400002Y17259367D01*
G75*
G02*
X74550002Y17409367I150000J0D01*
G01*
X76200002Y17409367D01*
G75*
G02*
X76350002Y17259367I0J-150000D01*
G01*
X76350002Y16959367D01*
G75*
G02*
X76200002Y16809367I-150000J0D01*
G01*
X74550002Y16809367D01*
G75*
G02*
X74400002Y16959367I0J150000D01*
G01*
G37*
G36*
G01*
X74400002Y15689367D02*
X74400002Y15989367D01*
G75*
G02*
X74550002Y16139367I150000J0D01*
G01*
X76200002Y16139367D01*
G75*
G02*
X76350002Y15989367I0J-150000D01*
G01*
X76350002Y15689367D01*
G75*
G02*
X76200002Y15539367I-150000J0D01*
G01*
X74550002Y15539367D01*
G75*
G02*
X74400002Y15689367I0J150000D01*
G01*
G37*
G04 #@! TD*
G04 #@! TO.C,R31*
G36*
G01*
X91700002Y17534367D02*
X91700002Y16754367D01*
G75*
G02*
X91630002Y16684367I-70000J0D01*
G01*
X91070002Y16684367D01*
G75*
G02*
X91000002Y16754367I0J70000D01*
G01*
X91000002Y17534367D01*
G75*
G02*
X91070002Y17604367I70000J0D01*
G01*
X91630002Y17604367D01*
G75*
G02*
X91700002Y17534367I0J-70000D01*
G01*
G37*
G36*
G01*
X90100002Y17534367D02*
X90100002Y16754367D01*
G75*
G02*
X90030002Y16684367I-70000J0D01*
G01*
X89470002Y16684367D01*
G75*
G02*
X89400002Y16754367I0J70000D01*
G01*
X89400002Y17534367D01*
G75*
G02*
X89470002Y17604367I70000J0D01*
G01*
X90030002Y17604367D01*
G75*
G02*
X90100002Y17534367I0J-70000D01*
G01*
G37*
G04 #@! TD*
G04 #@! TO.C,C30*
G36*
G01*
X49410002Y72999369D02*
X50090002Y72999369D01*
G75*
G02*
X50175002Y72914369I0J-85000D01*
G01*
X50175002Y72234369D01*
G75*
G02*
X50090002Y72149369I-85000J0D01*
G01*
X49410002Y72149369D01*
G75*
G02*
X49325002Y72234369I0J85000D01*
G01*
X49325002Y72914369D01*
G75*
G02*
X49410002Y72999369I85000J0D01*
G01*
G37*
G36*
G01*
X49410002Y71419367D02*
X50090002Y71419367D01*
G75*
G02*
X50175002Y71334367I0J-85000D01*
G01*
X50175002Y70654367D01*
G75*
G02*
X50090002Y70569367I-85000J0D01*
G01*
X49410002Y70569367D01*
G75*
G02*
X49325002Y70654367I0J85000D01*
G01*
X49325002Y71334367D01*
G75*
G02*
X49410002Y71419367I85000J0D01*
G01*
G37*
G04 #@! TD*
G04 #@! TO.C,C7*
G36*
G01*
X118890002Y21244367D02*
X118890002Y20194367D01*
G75*
G02*
X118790002Y20094367I-100000J0D01*
G01*
X117990002Y20094367D01*
G75*
G02*
X117890002Y20194367I0J100000D01*
G01*
X117890002Y21244367D01*
G75*
G02*
X117990002Y21344367I100000J0D01*
G01*
X118790002Y21344367D01*
G75*
G02*
X118890002Y21244367I0J-100000D01*
G01*
G37*
G36*
G01*
X116890002Y21244367D02*
X116890002Y20194367D01*
G75*
G02*
X116790002Y20094367I-100000J0D01*
G01*
X115990002Y20094367D01*
G75*
G02*
X115890002Y20194367I0J100000D01*
G01*
X115890002Y21244367D01*
G75*
G02*
X115990002Y21344367I100000J0D01*
G01*
X116790002Y21344367D01*
G75*
G02*
X116890002Y21244367I0J-100000D01*
G01*
G37*
G04 #@! TD*
G04 #@! TO.C,C33*
G36*
G01*
X97135001Y111254367D02*
X97135001Y111934367D01*
G75*
G02*
X97220001Y112019367I85000J0D01*
G01*
X97900001Y112019367D01*
G75*
G02*
X97985001Y111934367I0J-85000D01*
G01*
X97985001Y111254367D01*
G75*
G02*
X97900001Y111169367I-85000J0D01*
G01*
X97220001Y111169367D01*
G75*
G02*
X97135001Y111254367I0J85000D01*
G01*
G37*
G36*
G01*
X98715003Y111254367D02*
X98715003Y111934367D01*
G75*
G02*
X98800003Y112019367I85000J0D01*
G01*
X99480003Y112019367D01*
G75*
G02*
X99565003Y111934367I0J-85000D01*
G01*
X99565003Y111254367D01*
G75*
G02*
X99480003Y111169367I-85000J0D01*
G01*
X98800003Y111169367D01*
G75*
G02*
X98715003Y111254367I0J85000D01*
G01*
G37*
G04 #@! TD*
G04 #@! TO.C,C29*
G36*
G01*
X55607979Y68879366D02*
X54927979Y68879366D01*
G75*
G02*
X54842979Y68964366I0J85000D01*
G01*
X54842979Y69644366D01*
G75*
G02*
X54927979Y69729366I85000J0D01*
G01*
X55607979Y69729366D01*
G75*
G02*
X55692979Y69644366I0J-85000D01*
G01*
X55692979Y68964366D01*
G75*
G02*
X55607979Y68879366I-85000J0D01*
G01*
G37*
G36*
G01*
X55607979Y70459368D02*
X54927979Y70459368D01*
G75*
G02*
X54842979Y70544368I0J85000D01*
G01*
X54842979Y71224368D01*
G75*
G02*
X54927979Y71309368I85000J0D01*
G01*
X55607979Y71309368D01*
G75*
G02*
X55692979Y71224368I0J-85000D01*
G01*
X55692979Y70544368D01*
G75*
G02*
X55607979Y70459368I-85000J0D01*
G01*
G37*
G04 #@! TD*
G04 #@! TO.C,R34*
G36*
G01*
X91700002Y20884367D02*
X91700002Y20104367D01*
G75*
G02*
X91630002Y20034367I-70000J0D01*
G01*
X91070002Y20034367D01*
G75*
G02*
X91000002Y20104367I0J70000D01*
G01*
X91000002Y20884367D01*
G75*
G02*
X91070002Y20954367I70000J0D01*
G01*
X91630002Y20954367D01*
G75*
G02*
X91700002Y20884367I0J-70000D01*
G01*
G37*
G36*
G01*
X90100002Y20884367D02*
X90100002Y20104367D01*
G75*
G02*
X90030002Y20034367I-70000J0D01*
G01*
X89470002Y20034367D01*
G75*
G02*
X89400002Y20104367I0J70000D01*
G01*
X89400002Y20884367D01*
G75*
G02*
X89470002Y20954367I70000J0D01*
G01*
X90030002Y20954367D01*
G75*
G02*
X90100002Y20884367I0J-70000D01*
G01*
G37*
G04 #@! TD*
G04 #@! TO.C,C17*
G36*
G01*
X121350002Y30669367D02*
X121350002Y31719367D01*
G75*
G02*
X121450002Y31819367I100000J0D01*
G01*
X122250002Y31819367D01*
G75*
G02*
X122350002Y31719367I0J-100000D01*
G01*
X122350002Y30669367D01*
G75*
G02*
X122250002Y30569367I-100000J0D01*
G01*
X121450002Y30569367D01*
G75*
G02*
X121350002Y30669367I0J100000D01*
G01*
G37*
G36*
G01*
X123350002Y30669367D02*
X123350002Y31719367D01*
G75*
G02*
X123450002Y31819367I100000J0D01*
G01*
X124250002Y31819367D01*
G75*
G02*
X124350002Y31719367I0J-100000D01*
G01*
X124350002Y30669367D01*
G75*
G02*
X124250002Y30569367I-100000J0D01*
G01*
X123450002Y30569367D01*
G75*
G02*
X123350002Y30669367I0J100000D01*
G01*
G37*
G04 #@! TD*
G04 #@! TO.C,R20*
G36*
G01*
X68525002Y42069367D02*
X71375002Y42069367D01*
G75*
G02*
X71625002Y41819367I0J-250000D01*
G01*
X71625002Y41094367D01*
G75*
G02*
X71375002Y40844367I-250000J0D01*
G01*
X68525002Y40844367D01*
G75*
G02*
X68275002Y41094367I0J250000D01*
G01*
X68275002Y41819367D01*
G75*
G02*
X68525002Y42069367I250000J0D01*
G01*
G37*
G36*
G01*
X68525002Y36144367D02*
X71375002Y36144367D01*
G75*
G02*
X71625002Y35894367I0J-250000D01*
G01*
X71625002Y35169367D01*
G75*
G02*
X71375002Y34919367I-250000J0D01*
G01*
X68525002Y34919367D01*
G75*
G02*
X68275002Y35169367I0J250000D01*
G01*
X68275002Y35894367D01*
G75*
G02*
X68525002Y36144367I250000J0D01*
G01*
G37*
G04 #@! TD*
G04 #@! TO.C,C3*
G36*
G01*
X111890002Y22194367D02*
X111890002Y23244367D01*
G75*
G02*
X111990002Y23344367I100000J0D01*
G01*
X112790002Y23344367D01*
G75*
G02*
X112890002Y23244367I0J-100000D01*
G01*
X112890002Y22194367D01*
G75*
G02*
X112790002Y22094367I-100000J0D01*
G01*
X111990002Y22094367D01*
G75*
G02*
X111890002Y22194367I0J100000D01*
G01*
G37*
G36*
G01*
X113890002Y22194367D02*
X113890002Y23244367D01*
G75*
G02*
X113990002Y23344367I100000J0D01*
G01*
X114790002Y23344367D01*
G75*
G02*
X114890002Y23244367I0J-100000D01*
G01*
X114890002Y22194367D01*
G75*
G02*
X114790002Y22094367I-100000J0D01*
G01*
X113990002Y22094367D01*
G75*
G02*
X113890002Y22194367I0J100000D01*
G01*
G37*
G04 #@! TD*
G04 #@! TO.C,C23*
G36*
G01*
X128350002Y33719367D02*
X128350002Y32669367D01*
G75*
G02*
X128250002Y32569367I-100000J0D01*
G01*
X127450002Y32569367D01*
G75*
G02*
X127350002Y32669367I0J100000D01*
G01*
X127350002Y33719367D01*
G75*
G02*
X127450002Y33819367I100000J0D01*
G01*
X128250002Y33819367D01*
G75*
G02*
X128350002Y33719367I0J-100000D01*
G01*
G37*
G36*
G01*
X126350002Y33719367D02*
X126350002Y32669367D01*
G75*
G02*
X126250002Y32569367I-100000J0D01*
G01*
X125450002Y32569367D01*
G75*
G02*
X125350002Y32669367I0J100000D01*
G01*
X125350002Y33719367D01*
G75*
G02*
X125450002Y33819367I100000J0D01*
G01*
X126250002Y33819367D01*
G75*
G02*
X126350002Y33719367I0J-100000D01*
G01*
G37*
G04 #@! TD*
G04 #@! TO.C,U4*
G36*
G01*
X57100002Y68039367D02*
X57100002Y68339367D01*
G75*
G02*
X57250002Y68489367I150000J0D01*
G01*
X58900002Y68489367D01*
G75*
G02*
X59050002Y68339367I0J-150000D01*
G01*
X59050002Y68039367D01*
G75*
G02*
X58900002Y67889367I-150000J0D01*
G01*
X57250002Y67889367D01*
G75*
G02*
X57100002Y68039367I0J150000D01*
G01*
G37*
G36*
G01*
X57100002Y69309367D02*
X57100002Y69609367D01*
G75*
G02*
X57250002Y69759367I150000J0D01*
G01*
X58900002Y69759367D01*
G75*
G02*
X59050002Y69609367I0J-150000D01*
G01*
X59050002Y69309367D01*
G75*
G02*
X58900002Y69159367I-150000J0D01*
G01*
X57250002Y69159367D01*
G75*
G02*
X57100002Y69309367I0J150000D01*
G01*
G37*
G36*
G01*
X57100002Y70579367D02*
X57100002Y70879367D01*
G75*
G02*
X57250002Y71029367I150000J0D01*
G01*
X58900002Y71029367D01*
G75*
G02*
X59050002Y70879367I0J-150000D01*
G01*
X59050002Y70579367D01*
G75*
G02*
X58900002Y70429367I-150000J0D01*
G01*
X57250002Y70429367D01*
G75*
G02*
X57100002Y70579367I0J150000D01*
G01*
G37*
G36*
G01*
X57100002Y71849367D02*
X57100002Y72149367D01*
G75*
G02*
X57250002Y72299367I150000J0D01*
G01*
X58900002Y72299367D01*
G75*
G02*
X59050002Y72149367I0J-150000D01*
G01*
X59050002Y71849367D01*
G75*
G02*
X58900002Y71699367I-150000J0D01*
G01*
X57250002Y71699367D01*
G75*
G02*
X57100002Y71849367I0J150000D01*
G01*
G37*
G36*
G01*
X62050002Y71849367D02*
X62050002Y72149367D01*
G75*
G02*
X62200002Y72299367I150000J0D01*
G01*
X63850002Y72299367D01*
G75*
G02*
X64000002Y72149367I0J-150000D01*
G01*
X64000002Y71849367D01*
G75*
G02*
X63850002Y71699367I-150000J0D01*
G01*
X62200002Y71699367D01*
G75*
G02*
X62050002Y71849367I0J150000D01*
G01*
G37*
G36*
G01*
X62050002Y70579367D02*
X62050002Y70879367D01*
G75*
G02*
X62200002Y71029367I150000J0D01*
G01*
X63850002Y71029367D01*
G75*
G02*
X64000002Y70879367I0J-150000D01*
G01*
X64000002Y70579367D01*
G75*
G02*
X63850002Y70429367I-150000J0D01*
G01*
X62200002Y70429367D01*
G75*
G02*
X62050002Y70579367I0J150000D01*
G01*
G37*
G36*
G01*
X62050002Y69309367D02*
X62050002Y69609367D01*
G75*
G02*
X62200002Y69759367I150000J0D01*
G01*
X63850002Y69759367D01*
G75*
G02*
X64000002Y69609367I0J-150000D01*
G01*
X64000002Y69309367D01*
G75*
G02*
X63850002Y69159367I-150000J0D01*
G01*
X62200002Y69159367D01*
G75*
G02*
X62050002Y69309367I0J150000D01*
G01*
G37*
G36*
G01*
X62050002Y68039367D02*
X62050002Y68339367D01*
G75*
G02*
X62200002Y68489367I150000J0D01*
G01*
X63850002Y68489367D01*
G75*
G02*
X64000002Y68339367I0J-150000D01*
G01*
X64000002Y68039367D01*
G75*
G02*
X63850002Y67889367I-150000J0D01*
G01*
X62200002Y67889367D01*
G75*
G02*
X62050002Y68039367I0J150000D01*
G01*
G37*
G04 #@! TD*
G04 #@! TO.C,C1*
G36*
G01*
X111890002Y18194367D02*
X111890002Y19244367D01*
G75*
G02*
X111990002Y19344367I100000J0D01*
G01*
X112790002Y19344367D01*
G75*
G02*
X112890002Y19244367I0J-100000D01*
G01*
X112890002Y18194367D01*
G75*
G02*
X112790002Y18094367I-100000J0D01*
G01*
X111990002Y18094367D01*
G75*
G02*
X111890002Y18194367I0J100000D01*
G01*
G37*
G36*
G01*
X113890002Y18194367D02*
X113890002Y19244367D01*
G75*
G02*
X113990002Y19344367I100000J0D01*
G01*
X114790002Y19344367D01*
G75*
G02*
X114890002Y19244367I0J-100000D01*
G01*
X114890002Y18194367D01*
G75*
G02*
X114790002Y18094367I-100000J0D01*
G01*
X113990002Y18094367D01*
G75*
G02*
X113890002Y18194367I0J100000D01*
G01*
G37*
G04 #@! TD*
G04 #@! TO.C,R26*
G36*
G01*
X89525002Y42069367D02*
X92375002Y42069367D01*
G75*
G02*
X92625002Y41819367I0J-250000D01*
G01*
X92625002Y41094367D01*
G75*
G02*
X92375002Y40844367I-250000J0D01*
G01*
X89525002Y40844367D01*
G75*
G02*
X89275002Y41094367I0J250000D01*
G01*
X89275002Y41819367D01*
G75*
G02*
X89525002Y42069367I250000J0D01*
G01*
G37*
G36*
G01*
X89525002Y36144367D02*
X92375002Y36144367D01*
G75*
G02*
X92625002Y35894367I0J-250000D01*
G01*
X92625002Y35169367D01*
G75*
G02*
X92375002Y34919367I-250000J0D01*
G01*
X89525002Y34919367D01*
G75*
G02*
X89275002Y35169367I0J250000D01*
G01*
X89275002Y35894367D01*
G75*
G02*
X89525002Y36144367I250000J0D01*
G01*
G37*
G04 #@! TD*
G04 #@! TO.C,U11*
G36*
G01*
X78000002Y15689367D02*
X78000002Y15989367D01*
G75*
G02*
X78150002Y16139367I150000J0D01*
G01*
X79800002Y16139367D01*
G75*
G02*
X79950002Y15989367I0J-150000D01*
G01*
X79950002Y15689367D01*
G75*
G02*
X79800002Y15539367I-150000J0D01*
G01*
X78150002Y15539367D01*
G75*
G02*
X78000002Y15689367I0J150000D01*
G01*
G37*
G36*
G01*
X78000002Y16959367D02*
X78000002Y17259367D01*
G75*
G02*
X78150002Y17409367I150000J0D01*
G01*
X79800002Y17409367D01*
G75*
G02*
X79950002Y17259367I0J-150000D01*
G01*
X79950002Y16959367D01*
G75*
G02*
X79800002Y16809367I-150000J0D01*
G01*
X78150002Y16809367D01*
G75*
G02*
X78000002Y16959367I0J150000D01*
G01*
G37*
G36*
G01*
X78000002Y18229367D02*
X78000002Y18529367D01*
G75*
G02*
X78150002Y18679367I150000J0D01*
G01*
X79800002Y18679367D01*
G75*
G02*
X79950002Y18529367I0J-150000D01*
G01*
X79950002Y18229367D01*
G75*
G02*
X79800002Y18079367I-150000J0D01*
G01*
X78150002Y18079367D01*
G75*
G02*
X78000002Y18229367I0J150000D01*
G01*
G37*
G36*
G01*
X78000002Y19499367D02*
X78000002Y19799367D01*
G75*
G02*
X78150002Y19949367I150000J0D01*
G01*
X79800002Y19949367D01*
G75*
G02*
X79950002Y19799367I0J-150000D01*
G01*
X79950002Y19499367D01*
G75*
G02*
X79800002Y19349367I-150000J0D01*
G01*
X78150002Y19349367D01*
G75*
G02*
X78000002Y19499367I0J150000D01*
G01*
G37*
G36*
G01*
X82950002Y19499367D02*
X82950002Y19799367D01*
G75*
G02*
X83100002Y19949367I150000J0D01*
G01*
X84750002Y19949367D01*
G75*
G02*
X84900002Y19799367I0J-150000D01*
G01*
X84900002Y19499367D01*
G75*
G02*
X84750002Y19349367I-150000J0D01*
G01*
X83100002Y19349367D01*
G75*
G02*
X82950002Y19499367I0J150000D01*
G01*
G37*
G36*
G01*
X82950002Y18229367D02*
X82950002Y18529367D01*
G75*
G02*
X83100002Y18679367I150000J0D01*
G01*
X84750002Y18679367D01*
G75*
G02*
X84900002Y18529367I0J-150000D01*
G01*
X84900002Y18229367D01*
G75*
G02*
X84750002Y18079367I-150000J0D01*
G01*
X83100002Y18079367D01*
G75*
G02*
X82950002Y18229367I0J150000D01*
G01*
G37*
G36*
G01*
X82950002Y16959367D02*
X82950002Y17259367D01*
G75*
G02*
X83100002Y17409367I150000J0D01*
G01*
X84750002Y17409367D01*
G75*
G02*
X84900002Y17259367I0J-150000D01*
G01*
X84900002Y16959367D01*
G75*
G02*
X84750002Y16809367I-150000J0D01*
G01*
X83100002Y16809367D01*
G75*
G02*
X82950002Y16959367I0J150000D01*
G01*
G37*
G36*
G01*
X82950002Y15689367D02*
X82950002Y15989367D01*
G75*
G02*
X83100002Y16139367I150000J0D01*
G01*
X84750002Y16139367D01*
G75*
G02*
X84900002Y15989367I0J-150000D01*
G01*
X84900002Y15689367D01*
G75*
G02*
X84750002Y15539367I-150000J0D01*
G01*
X83100002Y15539367D01*
G75*
G02*
X82950002Y15689367I0J150000D01*
G01*
G37*
G04 #@! TD*
G04 #@! TO.C,C31*
G36*
G01*
X60065003Y74534367D02*
X60065003Y73854367D01*
G75*
G02*
X59980003Y73769367I-85000J0D01*
G01*
X59300003Y73769367D01*
G75*
G02*
X59215003Y73854367I0J85000D01*
G01*
X59215003Y74534367D01*
G75*
G02*
X59300003Y74619367I85000J0D01*
G01*
X59980003Y74619367D01*
G75*
G02*
X60065003Y74534367I0J-85000D01*
G01*
G37*
G36*
G01*
X58485001Y74534367D02*
X58485001Y73854367D01*
G75*
G02*
X58400001Y73769367I-85000J0D01*
G01*
X57720001Y73769367D01*
G75*
G02*
X57635001Y73854367I0J85000D01*
G01*
X57635001Y74534367D01*
G75*
G02*
X57720001Y74619367I85000J0D01*
G01*
X58400001Y74619367D01*
G75*
G02*
X58485001Y74534367I0J-85000D01*
G01*
G37*
G04 #@! TD*
G04 #@! TO.C,F9*
G36*
G01*
X96675002Y44438117D02*
X96675002Y44950617D01*
G75*
G02*
X96893752Y45169367I218750J0D01*
G01*
X97331252Y45169367D01*
G75*
G02*
X97550002Y44950617I0J-218750D01*
G01*
X97550002Y44438117D01*
G75*
G02*
X97331252Y44219367I-218750J0D01*
G01*
X96893752Y44219367D01*
G75*
G02*
X96675002Y44438117I0J218750D01*
G01*
G37*
G36*
G01*
X98250002Y44438117D02*
X98250002Y44950617D01*
G75*
G02*
X98468752Y45169367I218750J0D01*
G01*
X98906252Y45169367D01*
G75*
G02*
X99125002Y44950617I0J-218750D01*
G01*
X99125002Y44438117D01*
G75*
G02*
X98906252Y44219367I-218750J0D01*
G01*
X98468752Y44219367D01*
G75*
G02*
X98250002Y44438117I0J218750D01*
G01*
G37*
G04 #@! TD*
G04 #@! TO.C,C14*
G36*
G01*
X121350002Y24669367D02*
X121350002Y25719367D01*
G75*
G02*
X121450002Y25819367I100000J0D01*
G01*
X122250002Y25819367D01*
G75*
G02*
X122350002Y25719367I0J-100000D01*
G01*
X122350002Y24669367D01*
G75*
G02*
X122250002Y24569367I-100000J0D01*
G01*
X121450002Y24569367D01*
G75*
G02*
X121350002Y24669367I0J100000D01*
G01*
G37*
G36*
G01*
X123350002Y24669367D02*
X123350002Y25719367D01*
G75*
G02*
X123450002Y25819367I100000J0D01*
G01*
X124250002Y25819367D01*
G75*
G02*
X124350002Y25719367I0J-100000D01*
G01*
X124350002Y24669367D01*
G75*
G02*
X124250002Y24569367I-100000J0D01*
G01*
X123450002Y24569367D01*
G75*
G02*
X123350002Y24669367I0J100000D01*
G01*
G37*
G04 #@! TD*
G04 #@! TO.C,C19*
G36*
G01*
X128350002Y25719367D02*
X128350002Y24669367D01*
G75*
G02*
X128250002Y24569367I-100000J0D01*
G01*
X127450002Y24569367D01*
G75*
G02*
X127350002Y24669367I0J100000D01*
G01*
X127350002Y25719367D01*
G75*
G02*
X127450002Y25819367I100000J0D01*
G01*
X128250002Y25819367D01*
G75*
G02*
X128350002Y25719367I0J-100000D01*
G01*
G37*
G36*
G01*
X126350002Y25719367D02*
X126350002Y24669367D01*
G75*
G02*
X126250002Y24569367I-100000J0D01*
G01*
X125450002Y24569367D01*
G75*
G02*
X125350002Y24669367I0J100000D01*
G01*
X125350002Y25719367D01*
G75*
G02*
X125450002Y25819367I100000J0D01*
G01*
X126250002Y25819367D01*
G75*
G02*
X126350002Y25719367I0J-100000D01*
G01*
G37*
G04 #@! TD*
G04 #@! TO.C,F6*
G36*
G01*
X68725002Y44388117D02*
X68725002Y44900617D01*
G75*
G02*
X68943752Y45119367I218750J0D01*
G01*
X69381252Y45119367D01*
G75*
G02*
X69600002Y44900617I0J-218750D01*
G01*
X69600002Y44388117D01*
G75*
G02*
X69381252Y44169367I-218750J0D01*
G01*
X68943752Y44169367D01*
G75*
G02*
X68725002Y44388117I0J218750D01*
G01*
G37*
G36*
G01*
X70300002Y44388117D02*
X70300002Y44900617D01*
G75*
G02*
X70518752Y45119367I218750J0D01*
G01*
X70956252Y45119367D01*
G75*
G02*
X71175002Y44900617I0J-218750D01*
G01*
X71175002Y44388117D01*
G75*
G02*
X70956252Y44169367I-218750J0D01*
G01*
X70518752Y44169367D01*
G75*
G02*
X70300002Y44388117I0J218750D01*
G01*
G37*
G04 #@! TD*
G04 #@! TO.C,R27*
G36*
G01*
X96525002Y42069367D02*
X99375002Y42069367D01*
G75*
G02*
X99625002Y41819367I0J-250000D01*
G01*
X99625002Y41094367D01*
G75*
G02*
X99375002Y40844367I-250000J0D01*
G01*
X96525002Y40844367D01*
G75*
G02*
X96275002Y41094367I0J250000D01*
G01*
X96275002Y41819367D01*
G75*
G02*
X96525002Y42069367I250000J0D01*
G01*
G37*
G36*
G01*
X96525002Y36144367D02*
X99375002Y36144367D01*
G75*
G02*
X99625002Y35894367I0J-250000D01*
G01*
X99625002Y35169367D01*
G75*
G02*
X99375002Y34919367I-250000J0D01*
G01*
X96525002Y34919367D01*
G75*
G02*
X96275002Y35169367I0J250000D01*
G01*
X96275002Y35894367D01*
G75*
G02*
X96525002Y36144367I250000J0D01*
G01*
G37*
G04 #@! TD*
G04 #@! TO.C,R21*
G36*
G01*
X75525002Y42069367D02*
X78375002Y42069367D01*
G75*
G02*
X78625002Y41819367I0J-250000D01*
G01*
X78625002Y41094367D01*
G75*
G02*
X78375002Y40844367I-250000J0D01*
G01*
X75525002Y40844367D01*
G75*
G02*
X75275002Y41094367I0J250000D01*
G01*
X75275002Y41819367D01*
G75*
G02*
X75525002Y42069367I250000J0D01*
G01*
G37*
G36*
G01*
X75525002Y36144367D02*
X78375002Y36144367D01*
G75*
G02*
X78625002Y35894367I0J-250000D01*
G01*
X78625002Y35169367D01*
G75*
G02*
X78375002Y34919367I-250000J0D01*
G01*
X75525002Y34919367D01*
G75*
G02*
X75275002Y35169367I0J250000D01*
G01*
X75275002Y35894367D01*
G75*
G02*
X75525002Y36144367I250000J0D01*
G01*
G37*
G04 #@! TD*
G04 #@! TO.C,C4*
G36*
G01*
X111890002Y24194367D02*
X111890002Y25244367D01*
G75*
G02*
X111990002Y25344367I100000J0D01*
G01*
X112790002Y25344367D01*
G75*
G02*
X112890002Y25244367I0J-100000D01*
G01*
X112890002Y24194367D01*
G75*
G02*
X112790002Y24094367I-100000J0D01*
G01*
X111990002Y24094367D01*
G75*
G02*
X111890002Y24194367I0J100000D01*
G01*
G37*
G36*
G01*
X113890002Y24194367D02*
X113890002Y25244367D01*
G75*
G02*
X113990002Y25344367I100000J0D01*
G01*
X114790002Y25344367D01*
G75*
G02*
X114890002Y25244367I0J-100000D01*
G01*
X114890002Y24194367D01*
G75*
G02*
X114790002Y24094367I-100000J0D01*
G01*
X113990002Y24094367D01*
G75*
G02*
X113890002Y24194367I0J100000D01*
G01*
G37*
G04 #@! TD*
G04 #@! TO.C,F10*
G36*
G01*
X98675002Y97488117D02*
X98675002Y98000617D01*
G75*
G02*
X98893752Y98219367I218750J0D01*
G01*
X99331252Y98219367D01*
G75*
G02*
X99550002Y98000617I0J-218750D01*
G01*
X99550002Y97488117D01*
G75*
G02*
X99331252Y97269367I-218750J0D01*
G01*
X98893752Y97269367D01*
G75*
G02*
X98675002Y97488117I0J218750D01*
G01*
G37*
G36*
G01*
X100250002Y97488117D02*
X100250002Y98000617D01*
G75*
G02*
X100468752Y98219367I218750J0D01*
G01*
X100906252Y98219367D01*
G75*
G02*
X101125002Y98000617I0J-218750D01*
G01*
X101125002Y97488117D01*
G75*
G02*
X100906252Y97269367I-218750J0D01*
G01*
X100468752Y97269367D01*
G75*
G02*
X100250002Y97488117I0J218750D01*
G01*
G37*
G04 #@! TD*
G04 #@! TO.C,D2*
G36*
G01*
X63950002Y34104367D02*
X63950002Y33084367D01*
G75*
G02*
X63860002Y32994367I-90000J0D01*
G01*
X63140002Y32994367D01*
G75*
G02*
X63050002Y33084367I0J90000D01*
G01*
X63050002Y34104367D01*
G75*
G02*
X63140002Y34194367I90000J0D01*
G01*
X63860002Y34194367D01*
G75*
G02*
X63950002Y34104367I0J-90000D01*
G01*
G37*
G36*
G01*
X60650002Y34104367D02*
X60650002Y33084367D01*
G75*
G02*
X60560002Y32994367I-90000J0D01*
G01*
X59840002Y32994367D01*
G75*
G02*
X59750002Y33084367I0J90000D01*
G01*
X59750002Y34104367D01*
G75*
G02*
X59840002Y34194367I90000J0D01*
G01*
X60560002Y34194367D01*
G75*
G02*
X60650002Y34104367I0J-90000D01*
G01*
G37*
G04 #@! TD*
G04 #@! TO.C,D1*
G36*
G01*
X116650002Y101734367D02*
X116650002Y101254367D01*
G75*
G02*
X116590002Y101194367I-60000J0D01*
G01*
X116110002Y101194367D01*
G75*
G02*
X116050002Y101254367I0J60000D01*
G01*
X116050002Y101734367D01*
G75*
G02*
X116110002Y101794367I60000J0D01*
G01*
X116590002Y101794367D01*
G75*
G02*
X116650002Y101734367I0J-60000D01*
G01*
G37*
G36*
G01*
X116650002Y103934367D02*
X116650002Y103454367D01*
G75*
G02*
X116590002Y103394367I-60000J0D01*
G01*
X116110002Y103394367D01*
G75*
G02*
X116050002Y103454367I0J60000D01*
G01*
X116050002Y103934367D01*
G75*
G02*
X116110002Y103994367I60000J0D01*
G01*
X116590002Y103994367D01*
G75*
G02*
X116650002Y103934367I0J-60000D01*
G01*
G37*
G04 #@! TD*
G04 #@! TO.C,R19*
G36*
G01*
X85100002Y43496867D02*
X85100002Y42716867D01*
G75*
G02*
X85030002Y42646867I-70000J0D01*
G01*
X84470002Y42646867D01*
G75*
G02*
X84400002Y42716867I0J70000D01*
G01*
X84400002Y43496867D01*
G75*
G02*
X84470002Y43566867I70000J0D01*
G01*
X85030002Y43566867D01*
G75*
G02*
X85100002Y43496867I0J-70000D01*
G01*
G37*
G36*
G01*
X83500002Y43496867D02*
X83500002Y42716867D01*
G75*
G02*
X83430002Y42646867I-70000J0D01*
G01*
X82870002Y42646867D01*
G75*
G02*
X82800002Y42716867I0J70000D01*
G01*
X82800002Y43496867D01*
G75*
G02*
X82870002Y43566867I70000J0D01*
G01*
X83430002Y43566867D01*
G75*
G02*
X83500002Y43496867I0J-70000D01*
G01*
G37*
G04 #@! TD*
G04 #@! TO.C,R33*
G36*
G01*
X103200002Y46204367D02*
X103200002Y46984367D01*
G75*
G02*
X103270002Y47054367I70000J0D01*
G01*
X103830002Y47054367D01*
G75*
G02*
X103900002Y46984367I0J-70000D01*
G01*
X103900002Y46204367D01*
G75*
G02*
X103830002Y46134367I-70000J0D01*
G01*
X103270002Y46134367D01*
G75*
G02*
X103200002Y46204367I0J70000D01*
G01*
G37*
G36*
G01*
X104800002Y46204367D02*
X104800002Y46984367D01*
G75*
G02*
X104870002Y47054367I70000J0D01*
G01*
X105430002Y47054367D01*
G75*
G02*
X105500002Y46984367I0J-70000D01*
G01*
X105500002Y46204367D01*
G75*
G02*
X105430002Y46134367I-70000J0D01*
G01*
X104870002Y46134367D01*
G75*
G02*
X104800002Y46204367I0J70000D01*
G01*
G37*
G04 #@! TD*
G04 #@! TO.C,C21*
G36*
G01*
X128350002Y29719367D02*
X128350002Y28669367D01*
G75*
G02*
X128250002Y28569367I-100000J0D01*
G01*
X127450002Y28569367D01*
G75*
G02*
X127350002Y28669367I0J100000D01*
G01*
X127350002Y29719367D01*
G75*
G02*
X127450002Y29819367I100000J0D01*
G01*
X128250002Y29819367D01*
G75*
G02*
X128350002Y29719367I0J-100000D01*
G01*
G37*
G36*
G01*
X126350002Y29719367D02*
X126350002Y28669367D01*
G75*
G02*
X126250002Y28569367I-100000J0D01*
G01*
X125450002Y28569367D01*
G75*
G02*
X125350002Y28669367I0J100000D01*
G01*
X125350002Y29719367D01*
G75*
G02*
X125450002Y29819367I100000J0D01*
G01*
X126250002Y29819367D01*
G75*
G02*
X126350002Y29719367I0J-100000D01*
G01*
G37*
G04 #@! TD*
G04 #@! TO.C,F8*
G36*
G01*
X89675002Y44438117D02*
X89675002Y44950617D01*
G75*
G02*
X89893752Y45169367I218750J0D01*
G01*
X90331252Y45169367D01*
G75*
G02*
X90550002Y44950617I0J-218750D01*
G01*
X90550002Y44438117D01*
G75*
G02*
X90331252Y44219367I-218750J0D01*
G01*
X89893752Y44219367D01*
G75*
G02*
X89675002Y44438117I0J218750D01*
G01*
G37*
G36*
G01*
X91250002Y44438117D02*
X91250002Y44950617D01*
G75*
G02*
X91468752Y45169367I218750J0D01*
G01*
X91906252Y45169367D01*
G75*
G02*
X92125002Y44950617I0J-218750D01*
G01*
X92125002Y44438117D01*
G75*
G02*
X91906252Y44219367I-218750J0D01*
G01*
X91468752Y44219367D01*
G75*
G02*
X91250002Y44438117I0J218750D01*
G01*
G37*
G04 #@! TD*
G04 #@! TO.C,R23*
G36*
G01*
X92100002Y43496867D02*
X92100002Y42716867D01*
G75*
G02*
X92030002Y42646867I-70000J0D01*
G01*
X91470002Y42646867D01*
G75*
G02*
X91400002Y42716867I0J70000D01*
G01*
X91400002Y43496867D01*
G75*
G02*
X91470002Y43566867I70000J0D01*
G01*
X92030002Y43566867D01*
G75*
G02*
X92100002Y43496867I0J-70000D01*
G01*
G37*
G36*
G01*
X90500002Y43496867D02*
X90500002Y42716867D01*
G75*
G02*
X90430002Y42646867I-70000J0D01*
G01*
X89870002Y42646867D01*
G75*
G02*
X89800002Y42716867I0J70000D01*
G01*
X89800002Y43496867D01*
G75*
G02*
X89870002Y43566867I70000J0D01*
G01*
X90430002Y43566867D01*
G75*
G02*
X90500002Y43496867I0J-70000D01*
G01*
G37*
G04 #@! TD*
G04 #@! TO.C,R7*
G36*
G01*
X129121684Y63984367D02*
X129121684Y63204367D01*
G75*
G02*
X129051684Y63134367I-70000J0D01*
G01*
X128491684Y63134367D01*
G75*
G02*
X128421684Y63204367I0J70000D01*
G01*
X128421684Y63984367D01*
G75*
G02*
X128491684Y64054367I70000J0D01*
G01*
X129051684Y64054367D01*
G75*
G02*
X129121684Y63984367I0J-70000D01*
G01*
G37*
G36*
G01*
X127521684Y63984367D02*
X127521684Y63204367D01*
G75*
G02*
X127451684Y63134367I-70000J0D01*
G01*
X126891684Y63134367D01*
G75*
G02*
X126821684Y63204367I0J70000D01*
G01*
X126821684Y63984367D01*
G75*
G02*
X126891684Y64054367I70000J0D01*
G01*
X127451684Y64054367D01*
G75*
G02*
X127521684Y63984367I0J-70000D01*
G01*
G37*
G04 #@! TD*
G04 #@! TO.C,R24*
G36*
G01*
X99100002Y43496867D02*
X99100002Y42716867D01*
G75*
G02*
X99030002Y42646867I-70000J0D01*
G01*
X98470002Y42646867D01*
G75*
G02*
X98400002Y42716867I0J70000D01*
G01*
X98400002Y43496867D01*
G75*
G02*
X98470002Y43566867I70000J0D01*
G01*
X99030002Y43566867D01*
G75*
G02*
X99100002Y43496867I0J-70000D01*
G01*
G37*
G36*
G01*
X97500002Y43496867D02*
X97500002Y42716867D01*
G75*
G02*
X97430002Y42646867I-70000J0D01*
G01*
X96870002Y42646867D01*
G75*
G02*
X96800002Y42716867I0J70000D01*
G01*
X96800002Y43496867D01*
G75*
G02*
X96870002Y43566867I70000J0D01*
G01*
X97430002Y43566867D01*
G75*
G02*
X97500002Y43496867I0J-70000D01*
G01*
G37*
G04 #@! TD*
G04 #@! TO.C,F7*
G36*
G01*
X82725002Y44488117D02*
X82725002Y45000617D01*
G75*
G02*
X82943752Y45219367I218750J0D01*
G01*
X83381252Y45219367D01*
G75*
G02*
X83600002Y45000617I0J-218750D01*
G01*
X83600002Y44488117D01*
G75*
G02*
X83381252Y44269367I-218750J0D01*
G01*
X82943752Y44269367D01*
G75*
G02*
X82725002Y44488117I0J218750D01*
G01*
G37*
G36*
G01*
X84300002Y44488117D02*
X84300002Y45000617D01*
G75*
G02*
X84518752Y45219367I218750J0D01*
G01*
X84956252Y45219367D01*
G75*
G02*
X85175002Y45000617I0J-218750D01*
G01*
X85175002Y44488117D01*
G75*
G02*
X84956252Y44269367I-218750J0D01*
G01*
X84518752Y44269367D01*
G75*
G02*
X84300002Y44488117I0J218750D01*
G01*
G37*
G04 #@! TD*
G04 #@! TO.C,C32*
G36*
G01*
X60065003Y76334367D02*
X60065003Y75654367D01*
G75*
G02*
X59980003Y75569367I-85000J0D01*
G01*
X59300003Y75569367D01*
G75*
G02*
X59215003Y75654367I0J85000D01*
G01*
X59215003Y76334367D01*
G75*
G02*
X59300003Y76419367I85000J0D01*
G01*
X59980003Y76419367D01*
G75*
G02*
X60065003Y76334367I0J-85000D01*
G01*
G37*
G36*
G01*
X58485001Y76334367D02*
X58485001Y75654367D01*
G75*
G02*
X58400001Y75569367I-85000J0D01*
G01*
X57720001Y75569367D01*
G75*
G02*
X57635001Y75654367I0J85000D01*
G01*
X57635001Y76334367D01*
G75*
G02*
X57720001Y76419367I85000J0D01*
G01*
X58400001Y76419367D01*
G75*
G02*
X58485001Y76334367I0J-85000D01*
G01*
G37*
G04 #@! TD*
G04 #@! TO.C,R16*
G36*
G01*
X43650002Y20034367D02*
X43650002Y19254367D01*
G75*
G02*
X43580002Y19184367I-70000J0D01*
G01*
X43020002Y19184367D01*
G75*
G02*
X42950002Y19254367I0J70000D01*
G01*
X42950002Y20034367D01*
G75*
G02*
X43020002Y20104367I70000J0D01*
G01*
X43580002Y20104367D01*
G75*
G02*
X43650002Y20034367I0J-70000D01*
G01*
G37*
G36*
G01*
X42050002Y20034367D02*
X42050002Y19254367D01*
G75*
G02*
X41980002Y19184367I-70000J0D01*
G01*
X41420002Y19184367D01*
G75*
G02*
X41350002Y19254367I0J70000D01*
G01*
X41350002Y20034367D01*
G75*
G02*
X41420002Y20104367I70000J0D01*
G01*
X41980002Y20104367D01*
G75*
G02*
X42050002Y20034367I0J-70000D01*
G01*
G37*
G04 #@! TD*
G04 #@! TO.C,U9*
G36*
G01*
X60700002Y15689367D02*
X60700002Y15989367D01*
G75*
G02*
X60850002Y16139367I150000J0D01*
G01*
X62500002Y16139367D01*
G75*
G02*
X62650002Y15989367I0J-150000D01*
G01*
X62650002Y15689367D01*
G75*
G02*
X62500002Y15539367I-150000J0D01*
G01*
X60850002Y15539367D01*
G75*
G02*
X60700002Y15689367I0J150000D01*
G01*
G37*
G36*
G01*
X60700002Y16959367D02*
X60700002Y17259367D01*
G75*
G02*
X60850002Y17409367I150000J0D01*
G01*
X62500002Y17409367D01*
G75*
G02*
X62650002Y17259367I0J-150000D01*
G01*
X62650002Y16959367D01*
G75*
G02*
X62500002Y16809367I-150000J0D01*
G01*
X60850002Y16809367D01*
G75*
G02*
X60700002Y16959367I0J150000D01*
G01*
G37*
G36*
G01*
X60700002Y18229367D02*
X60700002Y18529367D01*
G75*
G02*
X60850002Y18679367I150000J0D01*
G01*
X62500002Y18679367D01*
G75*
G02*
X62650002Y18529367I0J-150000D01*
G01*
X62650002Y18229367D01*
G75*
G02*
X62500002Y18079367I-150000J0D01*
G01*
X60850002Y18079367D01*
G75*
G02*
X60700002Y18229367I0J150000D01*
G01*
G37*
G36*
G01*
X60700002Y19499367D02*
X60700002Y19799367D01*
G75*
G02*
X60850002Y19949367I150000J0D01*
G01*
X62500002Y19949367D01*
G75*
G02*
X62650002Y19799367I0J-150000D01*
G01*
X62650002Y19499367D01*
G75*
G02*
X62500002Y19349367I-150000J0D01*
G01*
X60850002Y19349367D01*
G75*
G02*
X60700002Y19499367I0J150000D01*
G01*
G37*
G36*
G01*
X65650002Y19499367D02*
X65650002Y19799367D01*
G75*
G02*
X65800002Y19949367I150000J0D01*
G01*
X67450002Y19949367D01*
G75*
G02*
X67600002Y19799367I0J-150000D01*
G01*
X67600002Y19499367D01*
G75*
G02*
X67450002Y19349367I-150000J0D01*
G01*
X65800002Y19349367D01*
G75*
G02*
X65650002Y19499367I0J150000D01*
G01*
G37*
G36*
G01*
X65650002Y18229367D02*
X65650002Y18529367D01*
G75*
G02*
X65800002Y18679367I150000J0D01*
G01*
X67450002Y18679367D01*
G75*
G02*
X67600002Y18529367I0J-150000D01*
G01*
X67600002Y18229367D01*
G75*
G02*
X67450002Y18079367I-150000J0D01*
G01*
X65800002Y18079367D01*
G75*
G02*
X65650002Y18229367I0J150000D01*
G01*
G37*
G36*
G01*
X65650002Y16959367D02*
X65650002Y17259367D01*
G75*
G02*
X65800002Y17409367I150000J0D01*
G01*
X67450002Y17409367D01*
G75*
G02*
X67600002Y17259367I0J-150000D01*
G01*
X67600002Y16959367D01*
G75*
G02*
X67450002Y16809367I-150000J0D01*
G01*
X65800002Y16809367D01*
G75*
G02*
X65650002Y16959367I0J150000D01*
G01*
G37*
G36*
G01*
X65650002Y15689367D02*
X65650002Y15989367D01*
G75*
G02*
X65800002Y16139367I150000J0D01*
G01*
X67450002Y16139367D01*
G75*
G02*
X67600002Y15989367I0J-150000D01*
G01*
X67600002Y15689367D01*
G75*
G02*
X67450002Y15539367I-150000J0D01*
G01*
X65800002Y15539367D01*
G75*
G02*
X65650002Y15689367I0J150000D01*
G01*
G37*
G04 #@! TD*
G04 #@! TO.C,R30*
G36*
G01*
X107350002Y51184367D02*
X107350002Y50404367D01*
G75*
G02*
X107280002Y50334367I-70000J0D01*
G01*
X106720002Y50334367D01*
G75*
G02*
X106650002Y50404367I0J70000D01*
G01*
X106650002Y51184367D01*
G75*
G02*
X106720002Y51254367I70000J0D01*
G01*
X107280002Y51254367D01*
G75*
G02*
X107350002Y51184367I0J-70000D01*
G01*
G37*
G36*
G01*
X105750002Y51184367D02*
X105750002Y50404367D01*
G75*
G02*
X105680002Y50334367I-70000J0D01*
G01*
X105120002Y50334367D01*
G75*
G02*
X105050002Y50404367I0J70000D01*
G01*
X105050002Y51184367D01*
G75*
G02*
X105120002Y51254367I70000J0D01*
G01*
X105680002Y51254367D01*
G75*
G02*
X105750002Y51184367I0J-70000D01*
G01*
G37*
G04 #@! TD*
G04 #@! TO.C,R22*
G36*
G01*
X82525002Y42069367D02*
X85375002Y42069367D01*
G75*
G02*
X85625002Y41819367I0J-250000D01*
G01*
X85625002Y41094367D01*
G75*
G02*
X85375002Y40844367I-250000J0D01*
G01*
X82525002Y40844367D01*
G75*
G02*
X82275002Y41094367I0J250000D01*
G01*
X82275002Y41819367D01*
G75*
G02*
X82525002Y42069367I250000J0D01*
G01*
G37*
G36*
G01*
X82525002Y36144367D02*
X85375002Y36144367D01*
G75*
G02*
X85625002Y35894367I0J-250000D01*
G01*
X85625002Y35169367D01*
G75*
G02*
X85375002Y34919367I-250000J0D01*
G01*
X82525002Y34919367D01*
G75*
G02*
X82275002Y35169367I0J250000D01*
G01*
X82275002Y35894367D01*
G75*
G02*
X82525002Y36144367I250000J0D01*
G01*
G37*
G04 #@! TD*
G04 #@! TO.C,R25*
G36*
G01*
X106100002Y43496867D02*
X106100002Y42716867D01*
G75*
G02*
X106030002Y42646867I-70000J0D01*
G01*
X105470002Y42646867D01*
G75*
G02*
X105400002Y42716867I0J70000D01*
G01*
X105400002Y43496867D01*
G75*
G02*
X105470002Y43566867I70000J0D01*
G01*
X106030002Y43566867D01*
G75*
G02*
X106100002Y43496867I0J-70000D01*
G01*
G37*
G36*
G01*
X104500002Y43496867D02*
X104500002Y42716867D01*
G75*
G02*
X104430002Y42646867I-70000J0D01*
G01*
X103870002Y42646867D01*
G75*
G02*
X103800002Y42716867I0J70000D01*
G01*
X103800002Y43496867D01*
G75*
G02*
X103870002Y43566867I70000J0D01*
G01*
X104430002Y43566867D01*
G75*
G02*
X104500002Y43496867I0J-70000D01*
G01*
G37*
G04 #@! TD*
G04 #@! TO.C,L2*
G36*
G01*
X46125002Y68838117D02*
X46125002Y69350617D01*
G75*
G02*
X46343752Y69569367I218750J0D01*
G01*
X46781252Y69569367D01*
G75*
G02*
X47000002Y69350617I0J-218750D01*
G01*
X47000002Y68838117D01*
G75*
G02*
X46781252Y68619367I-218750J0D01*
G01*
X46343752Y68619367D01*
G75*
G02*
X46125002Y68838117I0J218750D01*
G01*
G37*
G36*
G01*
X47700002Y68838117D02*
X47700002Y69350617D01*
G75*
G02*
X47918752Y69569367I218750J0D01*
G01*
X48356252Y69569367D01*
G75*
G02*
X48575002Y69350617I0J-218750D01*
G01*
X48575002Y68838117D01*
G75*
G02*
X48356252Y68619367I-218750J0D01*
G01*
X47918752Y68619367D01*
G75*
G02*
X47700002Y68838117I0J218750D01*
G01*
G37*
G04 #@! TD*
G04 #@! TO.C,C16*
G36*
G01*
X121350002Y28669367D02*
X121350002Y29719367D01*
G75*
G02*
X121450002Y29819367I100000J0D01*
G01*
X122250002Y29819367D01*
G75*
G02*
X122350002Y29719367I0J-100000D01*
G01*
X122350002Y28669367D01*
G75*
G02*
X122250002Y28569367I-100000J0D01*
G01*
X121450002Y28569367D01*
G75*
G02*
X121350002Y28669367I0J100000D01*
G01*
G37*
G36*
G01*
X123350002Y28669367D02*
X123350002Y29719367D01*
G75*
G02*
X123450002Y29819367I100000J0D01*
G01*
X124250002Y29819367D01*
G75*
G02*
X124350002Y29719367I0J-100000D01*
G01*
X124350002Y28669367D01*
G75*
G02*
X124250002Y28569367I-100000J0D01*
G01*
X123450002Y28569367D01*
G75*
G02*
X123350002Y28669367I0J100000D01*
G01*
G37*
G04 #@! TD*
G04 #@! TO.C,R17*
G36*
G01*
X71100002Y43496867D02*
X71100002Y42716867D01*
G75*
G02*
X71030002Y42646867I-70000J0D01*
G01*
X70470002Y42646867D01*
G75*
G02*
X70400002Y42716867I0J70000D01*
G01*
X70400002Y43496867D01*
G75*
G02*
X70470002Y43566867I70000J0D01*
G01*
X71030002Y43566867D01*
G75*
G02*
X71100002Y43496867I0J-70000D01*
G01*
G37*
G36*
G01*
X69500002Y43496867D02*
X69500002Y42716867D01*
G75*
G02*
X69430002Y42646867I-70000J0D01*
G01*
X68870002Y42646867D01*
G75*
G02*
X68800002Y42716867I0J70000D01*
G01*
X68800002Y43496867D01*
G75*
G02*
X68870002Y43566867I70000J0D01*
G01*
X69430002Y43566867D01*
G75*
G02*
X69500002Y43496867I0J-70000D01*
G01*
G37*
G04 #@! TD*
G04 #@! TO.C,C22*
G36*
G01*
X128350002Y31719367D02*
X128350002Y30669367D01*
G75*
G02*
X128250002Y30569367I-100000J0D01*
G01*
X127450002Y30569367D01*
G75*
G02*
X127350002Y30669367I0J100000D01*
G01*
X127350002Y31719367D01*
G75*
G02*
X127450002Y31819367I100000J0D01*
G01*
X128250002Y31819367D01*
G75*
G02*
X128350002Y31719367I0J-100000D01*
G01*
G37*
G36*
G01*
X126350002Y31719367D02*
X126350002Y30669367D01*
G75*
G02*
X126250002Y30569367I-100000J0D01*
G01*
X125450002Y30569367D01*
G75*
G02*
X125350002Y30669367I0J100000D01*
G01*
X125350002Y31719367D01*
G75*
G02*
X125450002Y31819367I100000J0D01*
G01*
X126250002Y31819367D01*
G75*
G02*
X126350002Y31719367I0J-100000D01*
G01*
G37*
G04 #@! TD*
G04 #@! TO.C,R8*
G36*
G01*
X129121684Y66484367D02*
X129121684Y65704367D01*
G75*
G02*
X129051684Y65634367I-70000J0D01*
G01*
X128491684Y65634367D01*
G75*
G02*
X128421684Y65704367I0J70000D01*
G01*
X128421684Y66484367D01*
G75*
G02*
X128491684Y66554367I70000J0D01*
G01*
X129051684Y66554367D01*
G75*
G02*
X129121684Y66484367I0J-70000D01*
G01*
G37*
G36*
G01*
X127521684Y66484367D02*
X127521684Y65704367D01*
G75*
G02*
X127451684Y65634367I-70000J0D01*
G01*
X126891684Y65634367D01*
G75*
G02*
X126821684Y65704367I0J70000D01*
G01*
X126821684Y66484367D01*
G75*
G02*
X126891684Y66554367I70000J0D01*
G01*
X127451684Y66554367D01*
G75*
G02*
X127521684Y66484367I0J-70000D01*
G01*
G37*
G04 #@! TD*
G04 #@! TO.C,R3*
G36*
G01*
X115500002Y30984367D02*
X115500002Y30204367D01*
G75*
G02*
X115430002Y30134367I-70000J0D01*
G01*
X114870002Y30134367D01*
G75*
G02*
X114800002Y30204367I0J70000D01*
G01*
X114800002Y30984367D01*
G75*
G02*
X114870002Y31054367I70000J0D01*
G01*
X115430002Y31054367D01*
G75*
G02*
X115500002Y30984367I0J-70000D01*
G01*
G37*
G36*
G01*
X113900002Y30984367D02*
X113900002Y30204367D01*
G75*
G02*
X113830002Y30134367I-70000J0D01*
G01*
X113270002Y30134367D01*
G75*
G02*
X113200002Y30204367I0J70000D01*
G01*
X113200002Y30984367D01*
G75*
G02*
X113270002Y31054367I70000J0D01*
G01*
X113830002Y31054367D01*
G75*
G02*
X113900002Y30984367I0J-70000D01*
G01*
G37*
G04 #@! TD*
G04 #@! TO.C,R15*
G36*
G01*
X43650002Y17484367D02*
X43650002Y16704367D01*
G75*
G02*
X43580002Y16634367I-70000J0D01*
G01*
X43020002Y16634367D01*
G75*
G02*
X42950002Y16704367I0J70000D01*
G01*
X42950002Y17484367D01*
G75*
G02*
X43020002Y17554367I70000J0D01*
G01*
X43580002Y17554367D01*
G75*
G02*
X43650002Y17484367I0J-70000D01*
G01*
G37*
G36*
G01*
X42050002Y17484367D02*
X42050002Y16704367D01*
G75*
G02*
X41980002Y16634367I-70000J0D01*
G01*
X41420002Y16634367D01*
G75*
G02*
X41350002Y16704367I0J70000D01*
G01*
X41350002Y17484367D01*
G75*
G02*
X41420002Y17554367I70000J0D01*
G01*
X41980002Y17554367D01*
G75*
G02*
X42050002Y17484367I0J-70000D01*
G01*
G37*
G04 #@! TD*
G04 #@! TO.C,R13*
G36*
G01*
X60200002Y45284367D02*
X60200002Y44504367D01*
G75*
G02*
X60130002Y44434367I-70000J0D01*
G01*
X59570002Y44434367D01*
G75*
G02*
X59500002Y44504367I0J70000D01*
G01*
X59500002Y45284367D01*
G75*
G02*
X59570002Y45354367I70000J0D01*
G01*
X60130002Y45354367D01*
G75*
G02*
X60200002Y45284367I0J-70000D01*
G01*
G37*
G36*
G01*
X58600002Y45284367D02*
X58600002Y44504367D01*
G75*
G02*
X58530002Y44434367I-70000J0D01*
G01*
X57970002Y44434367D01*
G75*
G02*
X57900002Y44504367I0J70000D01*
G01*
X57900002Y45284367D01*
G75*
G02*
X57970002Y45354367I70000J0D01*
G01*
X58530002Y45354367D01*
G75*
G02*
X58600002Y45284367I0J-70000D01*
G01*
G37*
G04 #@! TD*
G04 #@! TO.C,C5*
G36*
G01*
X111890002Y26194367D02*
X111890002Y27244367D01*
G75*
G02*
X111990002Y27344367I100000J0D01*
G01*
X112790002Y27344367D01*
G75*
G02*
X112890002Y27244367I0J-100000D01*
G01*
X112890002Y26194367D01*
G75*
G02*
X112790002Y26094367I-100000J0D01*
G01*
X111990002Y26094367D01*
G75*
G02*
X111890002Y26194367I0J100000D01*
G01*
G37*
G36*
G01*
X113890002Y26194367D02*
X113890002Y27244367D01*
G75*
G02*
X113990002Y27344367I100000J0D01*
G01*
X114790002Y27344367D01*
G75*
G02*
X114890002Y27244367I0J-100000D01*
G01*
X114890002Y26194367D01*
G75*
G02*
X114790002Y26094367I-100000J0D01*
G01*
X113990002Y26094367D01*
G75*
G02*
X113890002Y26194367I0J100000D01*
G01*
G37*
G04 #@! TD*
G04 #@! TO.C,F5*
G36*
G01*
X75725002Y44388117D02*
X75725002Y44900617D01*
G75*
G02*
X75943752Y45119367I218750J0D01*
G01*
X76381252Y45119367D01*
G75*
G02*
X76600002Y44900617I0J-218750D01*
G01*
X76600002Y44388117D01*
G75*
G02*
X76381252Y44169367I-218750J0D01*
G01*
X75943752Y44169367D01*
G75*
G02*
X75725002Y44388117I0J218750D01*
G01*
G37*
G36*
G01*
X77300002Y44388117D02*
X77300002Y44900617D01*
G75*
G02*
X77518752Y45119367I218750J0D01*
G01*
X77956252Y45119367D01*
G75*
G02*
X78175002Y44900617I0J-218750D01*
G01*
X78175002Y44388117D01*
G75*
G02*
X77956252Y44169367I-218750J0D01*
G01*
X77518752Y44169367D01*
G75*
G02*
X77300002Y44388117I0J218750D01*
G01*
G37*
G04 #@! TD*
G04 #@! TO.C,R32*
G36*
G01*
X102800002Y48054367D02*
X102800002Y48834367D01*
G75*
G02*
X102870002Y48904367I70000J0D01*
G01*
X103430002Y48904367D01*
G75*
G02*
X103500002Y48834367I0J-70000D01*
G01*
X103500002Y48054367D01*
G75*
G02*
X103430002Y47984367I-70000J0D01*
G01*
X102870002Y47984367D01*
G75*
G02*
X102800002Y48054367I0J70000D01*
G01*
G37*
G36*
G01*
X104400002Y48054367D02*
X104400002Y48834367D01*
G75*
G02*
X104470002Y48904367I70000J0D01*
G01*
X105030002Y48904367D01*
G75*
G02*
X105100002Y48834367I0J-70000D01*
G01*
X105100002Y48054367D01*
G75*
G02*
X105030002Y47984367I-70000J0D01*
G01*
X104470002Y47984367D01*
G75*
G02*
X104400002Y48054367I0J70000D01*
G01*
G37*
G04 #@! TD*
G04 #@! TO.C,C28*
G36*
G01*
X50090002Y67179366D02*
X49410002Y67179366D01*
G75*
G02*
X49325002Y67264366I0J85000D01*
G01*
X49325002Y67944366D01*
G75*
G02*
X49410002Y68029366I85000J0D01*
G01*
X50090002Y68029366D01*
G75*
G02*
X50175002Y67944366I0J-85000D01*
G01*
X50175002Y67264366D01*
G75*
G02*
X50090002Y67179366I-85000J0D01*
G01*
G37*
G36*
G01*
X50090002Y68759368D02*
X49410002Y68759368D01*
G75*
G02*
X49325002Y68844368I0J85000D01*
G01*
X49325002Y69524368D01*
G75*
G02*
X49410002Y69609368I85000J0D01*
G01*
X50090002Y69609368D01*
G75*
G02*
X50175002Y69524368I0J-85000D01*
G01*
X50175002Y68844368D01*
G75*
G02*
X50090002Y68759368I-85000J0D01*
G01*
G37*
G04 #@! TD*
G04 #@! TO.C,U6*
G36*
G01*
X44625002Y16974367D02*
X44625002Y17274367D01*
G75*
G02*
X44775002Y17424367I150000J0D01*
G01*
X46425002Y17424367D01*
G75*
G02*
X46575002Y17274367I0J-150000D01*
G01*
X46575002Y16974367D01*
G75*
G02*
X46425002Y16824367I-150000J0D01*
G01*
X44775002Y16824367D01*
G75*
G02*
X44625002Y16974367I0J150000D01*
G01*
G37*
G36*
G01*
X44625002Y18244367D02*
X44625002Y18544367D01*
G75*
G02*
X44775002Y18694367I150000J0D01*
G01*
X46425002Y18694367D01*
G75*
G02*
X46575002Y18544367I0J-150000D01*
G01*
X46575002Y18244367D01*
G75*
G02*
X46425002Y18094367I-150000J0D01*
G01*
X44775002Y18094367D01*
G75*
G02*
X44625002Y18244367I0J150000D01*
G01*
G37*
G36*
G01*
X44625002Y19514367D02*
X44625002Y19814367D01*
G75*
G02*
X44775002Y19964367I150000J0D01*
G01*
X46425002Y19964367D01*
G75*
G02*
X46575002Y19814367I0J-150000D01*
G01*
X46575002Y19514367D01*
G75*
G02*
X46425002Y19364367I-150000J0D01*
G01*
X44775002Y19364367D01*
G75*
G02*
X44625002Y19514367I0J150000D01*
G01*
G37*
G36*
G01*
X44625002Y20784367D02*
X44625002Y21084367D01*
G75*
G02*
X44775002Y21234367I150000J0D01*
G01*
X46425002Y21234367D01*
G75*
G02*
X46575002Y21084367I0J-150000D01*
G01*
X46575002Y20784367D01*
G75*
G02*
X46425002Y20634367I-150000J0D01*
G01*
X44775002Y20634367D01*
G75*
G02*
X44625002Y20784367I0J150000D01*
G01*
G37*
G36*
G01*
X49575002Y20784367D02*
X49575002Y21084367D01*
G75*
G02*
X49725002Y21234367I150000J0D01*
G01*
X51375002Y21234367D01*
G75*
G02*
X51525002Y21084367I0J-150000D01*
G01*
X51525002Y20784367D01*
G75*
G02*
X51375002Y20634367I-150000J0D01*
G01*
X49725002Y20634367D01*
G75*
G02*
X49575002Y20784367I0J150000D01*
G01*
G37*
G36*
G01*
X49575002Y19514367D02*
X49575002Y19814367D01*
G75*
G02*
X49725002Y19964367I150000J0D01*
G01*
X51375002Y19964367D01*
G75*
G02*
X51525002Y19814367I0J-150000D01*
G01*
X51525002Y19514367D01*
G75*
G02*
X51375002Y19364367I-150000J0D01*
G01*
X49725002Y19364367D01*
G75*
G02*
X49575002Y19514367I0J150000D01*
G01*
G37*
G36*
G01*
X49575002Y18244367D02*
X49575002Y18544367D01*
G75*
G02*
X49725002Y18694367I150000J0D01*
G01*
X51375002Y18694367D01*
G75*
G02*
X51525002Y18544367I0J-150000D01*
G01*
X51525002Y18244367D01*
G75*
G02*
X51375002Y18094367I-150000J0D01*
G01*
X49725002Y18094367D01*
G75*
G02*
X49575002Y18244367I0J150000D01*
G01*
G37*
G36*
G01*
X49575002Y16974367D02*
X49575002Y17274367D01*
G75*
G02*
X49725002Y17424367I150000J0D01*
G01*
X51375002Y17424367D01*
G75*
G02*
X51525002Y17274367I0J-150000D01*
G01*
X51525002Y16974367D01*
G75*
G02*
X51375002Y16824367I-150000J0D01*
G01*
X49725002Y16824367D01*
G75*
G02*
X49575002Y16974367I0J150000D01*
G01*
G37*
G04 #@! TD*
G04 #@! TO.C,R29*
G36*
G01*
X91700002Y19234367D02*
X91700002Y18454367D01*
G75*
G02*
X91630002Y18384367I-70000J0D01*
G01*
X91070002Y18384367D01*
G75*
G02*
X91000002Y18454367I0J70000D01*
G01*
X91000002Y19234367D01*
G75*
G02*
X91070002Y19304367I70000J0D01*
G01*
X91630002Y19304367D01*
G75*
G02*
X91700002Y19234367I0J-70000D01*
G01*
G37*
G36*
G01*
X90100002Y19234367D02*
X90100002Y18454367D01*
G75*
G02*
X90030002Y18384367I-70000J0D01*
G01*
X89470002Y18384367D01*
G75*
G02*
X89400002Y18454367I0J70000D01*
G01*
X89400002Y19234367D01*
G75*
G02*
X89470002Y19304367I70000J0D01*
G01*
X90030002Y19304367D01*
G75*
G02*
X90100002Y19234367I0J-70000D01*
G01*
G37*
G04 #@! TD*
G04 #@! TO.C,R18*
G36*
G01*
X78100002Y43496867D02*
X78100002Y42716867D01*
G75*
G02*
X78030002Y42646867I-70000J0D01*
G01*
X77470002Y42646867D01*
G75*
G02*
X77400002Y42716867I0J70000D01*
G01*
X77400002Y43496867D01*
G75*
G02*
X77470002Y43566867I70000J0D01*
G01*
X78030002Y43566867D01*
G75*
G02*
X78100002Y43496867I0J-70000D01*
G01*
G37*
G36*
G01*
X76500002Y43496867D02*
X76500002Y42716867D01*
G75*
G02*
X76430002Y42646867I-70000J0D01*
G01*
X75870002Y42646867D01*
G75*
G02*
X75800002Y42716867I0J70000D01*
G01*
X75800002Y43496867D01*
G75*
G02*
X75870002Y43566867I70000J0D01*
G01*
X76430002Y43566867D01*
G75*
G02*
X76500002Y43496867I0J-70000D01*
G01*
G37*
G04 #@! TD*
G04 #@! TO.C,L1*
G36*
G01*
X46125002Y70838117D02*
X46125002Y71350617D01*
G75*
G02*
X46343752Y71569367I218750J0D01*
G01*
X46781252Y71569367D01*
G75*
G02*
X47000002Y71350617I0J-218750D01*
G01*
X47000002Y70838117D01*
G75*
G02*
X46781252Y70619367I-218750J0D01*
G01*
X46343752Y70619367D01*
G75*
G02*
X46125002Y70838117I0J218750D01*
G01*
G37*
G36*
G01*
X47700002Y70838117D02*
X47700002Y71350617D01*
G75*
G02*
X47918752Y71569367I218750J0D01*
G01*
X48356252Y71569367D01*
G75*
G02*
X48575002Y71350617I0J-218750D01*
G01*
X48575002Y70838117D01*
G75*
G02*
X48356252Y70619367I-218750J0D01*
G01*
X47918752Y70619367D01*
G75*
G02*
X47700002Y70838117I0J218750D01*
G01*
G37*
G04 #@! TD*
G04 #@! TO.C,C15*
G36*
G01*
X121350002Y26669367D02*
X121350002Y27719367D01*
G75*
G02*
X121450002Y27819367I100000J0D01*
G01*
X122250002Y27819367D01*
G75*
G02*
X122350002Y27719367I0J-100000D01*
G01*
X122350002Y26669367D01*
G75*
G02*
X122250002Y26569367I-100000J0D01*
G01*
X121450002Y26569367D01*
G75*
G02*
X121350002Y26669367I0J100000D01*
G01*
G37*
G36*
G01*
X123350002Y26669367D02*
X123350002Y27719367D01*
G75*
G02*
X123450002Y27819367I100000J0D01*
G01*
X124250002Y27819367D01*
G75*
G02*
X124350002Y27719367I0J-100000D01*
G01*
X124350002Y26669367D01*
G75*
G02*
X124250002Y26569367I-100000J0D01*
G01*
X123450002Y26569367D01*
G75*
G02*
X123350002Y26669367I0J100000D01*
G01*
G37*
G04 #@! TD*
G04 #@! TO.C,R28*
G36*
G01*
X103525002Y42069367D02*
X106375002Y42069367D01*
G75*
G02*
X106625002Y41819367I0J-250000D01*
G01*
X106625002Y41094367D01*
G75*
G02*
X106375002Y40844367I-250000J0D01*
G01*
X103525002Y40844367D01*
G75*
G02*
X103275002Y41094367I0J250000D01*
G01*
X103275002Y41819367D01*
G75*
G02*
X103525002Y42069367I250000J0D01*
G01*
G37*
G36*
G01*
X103525002Y36144367D02*
X106375002Y36144367D01*
G75*
G02*
X106625002Y35894367I0J-250000D01*
G01*
X106625002Y35169367D01*
G75*
G02*
X106375002Y34919367I-250000J0D01*
G01*
X103525002Y34919367D01*
G75*
G02*
X103275002Y35169367I0J250000D01*
G01*
X103275002Y35894367D01*
G75*
G02*
X103525002Y36144367I250000J0D01*
G01*
G37*
G04 #@! TD*
G04 #@! TO.C,C8*
G36*
G01*
X118890002Y23244367D02*
X118890002Y22194367D01*
G75*
G02*
X118790002Y22094367I-100000J0D01*
G01*
X117990002Y22094367D01*
G75*
G02*
X117890002Y22194367I0J100000D01*
G01*
X117890002Y23244367D01*
G75*
G02*
X117990002Y23344367I100000J0D01*
G01*
X118790002Y23344367D01*
G75*
G02*
X118890002Y23244367I0J-100000D01*
G01*
G37*
G36*
G01*
X116890002Y23244367D02*
X116890002Y22194367D01*
G75*
G02*
X116790002Y22094367I-100000J0D01*
G01*
X115990002Y22094367D01*
G75*
G02*
X115890002Y22194367I0J100000D01*
G01*
X115890002Y23244367D01*
G75*
G02*
X115990002Y23344367I100000J0D01*
G01*
X116790002Y23344367D01*
G75*
G02*
X116890002Y23244367I0J-100000D01*
G01*
G37*
G04 #@! TD*
G04 #@! TO.C,C9*
G36*
G01*
X118890002Y25244367D02*
X118890002Y24194367D01*
G75*
G02*
X118790002Y24094367I-100000J0D01*
G01*
X117990002Y24094367D01*
G75*
G02*
X117890002Y24194367I0J100000D01*
G01*
X117890002Y25244367D01*
G75*
G02*
X117990002Y25344367I100000J0D01*
G01*
X118790002Y25344367D01*
G75*
G02*
X118890002Y25244367I0J-100000D01*
G01*
G37*
G36*
G01*
X116890002Y25244367D02*
X116890002Y24194367D01*
G75*
G02*
X116790002Y24094367I-100000J0D01*
G01*
X115990002Y24094367D01*
G75*
G02*
X115890002Y24194367I0J100000D01*
G01*
X115890002Y25244367D01*
G75*
G02*
X115990002Y25344367I100000J0D01*
G01*
X116790002Y25344367D01*
G75*
G02*
X116890002Y25244367I0J-100000D01*
G01*
G37*
G04 #@! TD*
G04 #@! TO.C,C6*
G36*
G01*
X118890002Y19244367D02*
X118890002Y18194367D01*
G75*
G02*
X118790002Y18094367I-100000J0D01*
G01*
X117990002Y18094367D01*
G75*
G02*
X117890002Y18194367I0J100000D01*
G01*
X117890002Y19244367D01*
G75*
G02*
X117990002Y19344367I100000J0D01*
G01*
X118790002Y19344367D01*
G75*
G02*
X118890002Y19244367I0J-100000D01*
G01*
G37*
G36*
G01*
X116890002Y19244367D02*
X116890002Y18194367D01*
G75*
G02*
X116790002Y18094367I-100000J0D01*
G01*
X115990002Y18094367D01*
G75*
G02*
X115890002Y18194367I0J100000D01*
G01*
X115890002Y19244367D01*
G75*
G02*
X115990002Y19344367I100000J0D01*
G01*
X116790002Y19344367D01*
G75*
G02*
X116890002Y19244367I0J-100000D01*
G01*
G37*
G04 #@! TD*
G04 #@! TO.C,C2*
G36*
G01*
X111890002Y20194367D02*
X111890002Y21244367D01*
G75*
G02*
X111990002Y21344367I100000J0D01*
G01*
X112790002Y21344367D01*
G75*
G02*
X112890002Y21244367I0J-100000D01*
G01*
X112890002Y20194367D01*
G75*
G02*
X112790002Y20094367I-100000J0D01*
G01*
X111990002Y20094367D01*
G75*
G02*
X111890002Y20194367I0J100000D01*
G01*
G37*
G36*
G01*
X113890002Y20194367D02*
X113890002Y21244367D01*
G75*
G02*
X113990002Y21344367I100000J0D01*
G01*
X114790002Y21344367D01*
G75*
G02*
X114890002Y21244367I0J-100000D01*
G01*
X114890002Y20194367D01*
G75*
G02*
X114790002Y20094367I-100000J0D01*
G01*
X113990002Y20094367D01*
G75*
G02*
X113890002Y20194367I0J100000D01*
G01*
G37*
G04 #@! TD*
G04 #@! TO.C,C18*
G36*
G01*
X121350002Y32669367D02*
X121350002Y33719367D01*
G75*
G02*
X121450002Y33819367I100000J0D01*
G01*
X122250002Y33819367D01*
G75*
G02*
X122350002Y33719367I0J-100000D01*
G01*
X122350002Y32669367D01*
G75*
G02*
X122250002Y32569367I-100000J0D01*
G01*
X121450002Y32569367D01*
G75*
G02*
X121350002Y32669367I0J100000D01*
G01*
G37*
G36*
G01*
X123350002Y32669367D02*
X123350002Y33719367D01*
G75*
G02*
X123450002Y33819367I100000J0D01*
G01*
X124250002Y33819367D01*
G75*
G02*
X124350002Y33719367I0J-100000D01*
G01*
X124350002Y32669367D01*
G75*
G02*
X124250002Y32569367I-100000J0D01*
G01*
X123450002Y32569367D01*
G75*
G02*
X123350002Y32669367I0J100000D01*
G01*
G37*
G04 #@! TD*
G04 #@! TO.C,R12*
G36*
G01*
X56800002Y45284367D02*
X56800002Y44504367D01*
G75*
G02*
X56730002Y44434367I-70000J0D01*
G01*
X56170002Y44434367D01*
G75*
G02*
X56100002Y44504367I0J70000D01*
G01*
X56100002Y45284367D01*
G75*
G02*
X56170002Y45354367I70000J0D01*
G01*
X56730002Y45354367D01*
G75*
G02*
X56800002Y45284367I0J-70000D01*
G01*
G37*
G36*
G01*
X55200002Y45284367D02*
X55200002Y44504367D01*
G75*
G02*
X55130002Y44434367I-70000J0D01*
G01*
X54570002Y44434367D01*
G75*
G02*
X54500002Y44504367I0J70000D01*
G01*
X54500002Y45284367D01*
G75*
G02*
X54570002Y45354367I70000J0D01*
G01*
X55130002Y45354367D01*
G75*
G02*
X55200002Y45284367I0J-70000D01*
G01*
G37*
G04 #@! TD*
G04 #@! TO.C,C20*
G36*
G01*
X128350002Y27719367D02*
X128350002Y26669367D01*
G75*
G02*
X128250002Y26569367I-100000J0D01*
G01*
X127450002Y26569367D01*
G75*
G02*
X127350002Y26669367I0J100000D01*
G01*
X127350002Y27719367D01*
G75*
G02*
X127450002Y27819367I100000J0D01*
G01*
X128250002Y27819367D01*
G75*
G02*
X128350002Y27719367I0J-100000D01*
G01*
G37*
G36*
G01*
X126350002Y27719367D02*
X126350002Y26669367D01*
G75*
G02*
X126250002Y26569367I-100000J0D01*
G01*
X125450002Y26569367D01*
G75*
G02*
X125350002Y26669367I0J100000D01*
G01*
X125350002Y27719367D01*
G75*
G02*
X125450002Y27819367I100000J0D01*
G01*
X126250002Y27819367D01*
G75*
G02*
X126350002Y27719367I0J-100000D01*
G01*
G37*
G04 #@! TD*
G04 #@! TO.C,R5*
G36*
G01*
X69400002Y71104367D02*
X69400002Y71884367D01*
G75*
G02*
X69470002Y71954367I70000J0D01*
G01*
X70030002Y71954367D01*
G75*
G02*
X70100002Y71884367I0J-70000D01*
G01*
X70100002Y71104367D01*
G75*
G02*
X70030002Y71034367I-70000J0D01*
G01*
X69470002Y71034367D01*
G75*
G02*
X69400002Y71104367I0J70000D01*
G01*
G37*
G36*
G01*
X71000002Y71104367D02*
X71000002Y71884367D01*
G75*
G02*
X71070002Y71954367I70000J0D01*
G01*
X71630002Y71954367D01*
G75*
G02*
X71700002Y71884367I0J-70000D01*
G01*
X71700002Y71104367D01*
G75*
G02*
X71630002Y71034367I-70000J0D01*
G01*
X71070002Y71034367D01*
G75*
G02*
X71000002Y71104367I0J70000D01*
G01*
G37*
G04 #@! TD*
G04 #@! TO.C,R6*
G36*
G01*
X60400002Y91804367D02*
X60400002Y92584367D01*
G75*
G02*
X60470002Y92654367I70000J0D01*
G01*
X61030002Y92654367D01*
G75*
G02*
X61100002Y92584367I0J-70000D01*
G01*
X61100002Y91804367D01*
G75*
G02*
X61030002Y91734367I-70000J0D01*
G01*
X60470002Y91734367D01*
G75*
G02*
X60400002Y91804367I0J70000D01*
G01*
G37*
G36*
G01*
X62000002Y91804367D02*
X62000002Y92584367D01*
G75*
G02*
X62070002Y92654367I70000J0D01*
G01*
X62630002Y92654367D01*
G75*
G02*
X62700002Y92584367I0J-70000D01*
G01*
X62700002Y91804367D01*
G75*
G02*
X62630002Y91734367I-70000J0D01*
G01*
X62070002Y91734367D01*
G75*
G02*
X62000002Y91804367I0J70000D01*
G01*
G37*
G04 #@! TD*
G04 #@! TO.C,R2*
G36*
G01*
X112500002Y30984367D02*
X112500002Y30204367D01*
G75*
G02*
X112430002Y30134367I-70000J0D01*
G01*
X111870002Y30134367D01*
G75*
G02*
X111800002Y30204367I0J70000D01*
G01*
X111800002Y30984367D01*
G75*
G02*
X111870002Y31054367I70000J0D01*
G01*
X112430002Y31054367D01*
G75*
G02*
X112500002Y30984367I0J-70000D01*
G01*
G37*
G36*
G01*
X110900002Y30984367D02*
X110900002Y30204367D01*
G75*
G02*
X110830002Y30134367I-70000J0D01*
G01*
X110270002Y30134367D01*
G75*
G02*
X110200002Y30204367I0J70000D01*
G01*
X110200002Y30984367D01*
G75*
G02*
X110270002Y31054367I70000J0D01*
G01*
X110830002Y31054367D01*
G75*
G02*
X110900002Y30984367I0J-70000D01*
G01*
G37*
G04 #@! TD*
G04 #@! TO.C,U8*
G36*
G01*
X54700002Y43369367D02*
X55000002Y43369367D01*
G75*
G02*
X55150002Y43219367I0J-150000D01*
G01*
X55150002Y41569367D01*
G75*
G02*
X55000002Y41419367I-150000J0D01*
G01*
X54700002Y41419367D01*
G75*
G02*
X54550002Y41569367I0J150000D01*
G01*
X54550002Y43219367D01*
G75*
G02*
X54700002Y43369367I150000J0D01*
G01*
G37*
G36*
G01*
X55970002Y43369367D02*
X56270002Y43369367D01*
G75*
G02*
X56420002Y43219367I0J-150000D01*
G01*
X56420002Y41569367D01*
G75*
G02*
X56270002Y41419367I-150000J0D01*
G01*
X55970002Y41419367D01*
G75*
G02*
X55820002Y41569367I0J150000D01*
G01*
X55820002Y43219367D01*
G75*
G02*
X55970002Y43369367I150000J0D01*
G01*
G37*
G36*
G01*
X57240002Y43369367D02*
X57540002Y43369367D01*
G75*
G02*
X57690002Y43219367I0J-150000D01*
G01*
X57690002Y41569367D01*
G75*
G02*
X57540002Y41419367I-150000J0D01*
G01*
X57240002Y41419367D01*
G75*
G02*
X57090002Y41569367I0J150000D01*
G01*
X57090002Y43219367D01*
G75*
G02*
X57240002Y43369367I150000J0D01*
G01*
G37*
G36*
G01*
X58510002Y43369367D02*
X58810002Y43369367D01*
G75*
G02*
X58960002Y43219367I0J-150000D01*
G01*
X58960002Y41569367D01*
G75*
G02*
X58810002Y41419367I-150000J0D01*
G01*
X58510002Y41419367D01*
G75*
G02*
X58360002Y41569367I0J150000D01*
G01*
X58360002Y43219367D01*
G75*
G02*
X58510002Y43369367I150000J0D01*
G01*
G37*
G36*
G01*
X58510002Y38419367D02*
X58810002Y38419367D01*
G75*
G02*
X58960002Y38269367I0J-150000D01*
G01*
X58960002Y36619367D01*
G75*
G02*
X58810002Y36469367I-150000J0D01*
G01*
X58510002Y36469367D01*
G75*
G02*
X58360002Y36619367I0J150000D01*
G01*
X58360002Y38269367D01*
G75*
G02*
X58510002Y38419367I150000J0D01*
G01*
G37*
G36*
G01*
X57240002Y38419367D02*
X57540002Y38419367D01*
G75*
G02*
X57690002Y38269367I0J-150000D01*
G01*
X57690002Y36619367D01*
G75*
G02*
X57540002Y36469367I-150000J0D01*
G01*
X57240002Y36469367D01*
G75*
G02*
X57090002Y36619367I0J150000D01*
G01*
X57090002Y38269367D01*
G75*
G02*
X57240002Y38419367I150000J0D01*
G01*
G37*
G36*
G01*
X55970002Y38419367D02*
X56270002Y38419367D01*
G75*
G02*
X56420002Y38269367I0J-150000D01*
G01*
X56420002Y36619367D01*
G75*
G02*
X56270002Y36469367I-150000J0D01*
G01*
X55970002Y36469367D01*
G75*
G02*
X55820002Y36619367I0J150000D01*
G01*
X55820002Y38269367D01*
G75*
G02*
X55970002Y38419367I150000J0D01*
G01*
G37*
G36*
G01*
X54700002Y38419367D02*
X55000002Y38419367D01*
G75*
G02*
X55150002Y38269367I0J-150000D01*
G01*
X55150002Y36619367D01*
G75*
G02*
X55000002Y36469367I-150000J0D01*
G01*
X54700002Y36469367D01*
G75*
G02*
X54550002Y36619367I0J150000D01*
G01*
X54550002Y38269367D01*
G75*
G02*
X54700002Y38419367I150000J0D01*
G01*
G37*
G04 #@! TD*
M02*
